<svg width="134" height="127" viewBox="0 0 134 127" fill="none" xmlns="http://www.w3.org/2000/svg">
<path d="M70.446 91.704C70.289 91.721 70.227 92.107 70.308 92.564C70.308 92.564 72.945 107.37 76.095 126.104H77.944C73.929 107.374 70.884 92.452 70.884 92.452C70.791 92.003 70.603 91.694 70.446 91.704Z" fill="#ADADAD"/>
<path d="M71.831 27.675C71.731 28.118 71.769 28.505 71.92 28.54C72.074 28.571 72.281 28.272 72.398 27.817C72.398 27.817 75.439 15.873 79.623 0.000976562H78.004C74.527 15.85 71.831 27.675 71.831 27.675Z" fill="#ADADAD"/>
<path d="M73.89 91.617C73.755 91.181 73.535 90.888 73.385 90.92C73.231 90.953 73.207 91.344 73.331 91.791C73.331 91.791 77.596 107.067 82.701 126.105H84.678C78.631 107.081 73.89 91.617 73.89 91.617Z" fill="#ADADAD"/>
<path d="M74.809 28.606C74.667 29.035 74.668 29.424 74.814 29.475C74.96 29.533 75.2 29.248 75.358 28.811C75.358 28.811 79.87 16.287 85.901 0H84.145C78.904 16.265 74.809 28.606 74.809 28.606Z" fill="#ADADAD"/>
<path d="M82.835 34.095C82.954 34.207 83.272 33.999 83.545 33.634C83.545 33.634 95.18 17.928 108.811 0.000976562H106.079C93.754 18.026 83.083 33.241 83.083 33.241C82.829 33.603 82.721 33.979 82.835 34.095Z" fill="#ADADAD"/>
<path d="M77.689 29.849C77.507 30.262 77.473 30.647 77.613 30.714C77.748 30.801 78.018 30.533 78.217 30.117C78.217 30.117 84.53 16.796 92.693 0H90.728C83.477 16.786 77.689 29.849 77.689 29.849Z" fill="#ADADAD"/>
<path d="M76.8 90.466C76.625 90.049 76.375 89.771 76.233 89.833C76.083 89.882 76.096 90.271 76.262 90.703C76.262 90.703 82.43 106.67 89.697 126.104H91.877C83.555 106.707 76.8 90.466 76.8 90.466Z" fill="#ADADAD"/>
<path d="M80.455 31.397C80.232 31.795 80.172 32.156 80.294 32.261C80.422 32.362 80.718 32.122 80.954 31.73C80.954 31.73 89.56 17.368 100.226 0.000976562H97.952C88.367 17.389 80.455 31.397 80.455 31.397Z" fill="#ADADAD"/>
<path d="M68.763 27.059C68.706 27.509 68.783 27.891 68.937 27.91C69.096 27.924 69.274 27.606 69.348 27.141C69.348 27.141 71.137 15.582 73.678 0.000976562H72.137C70.248 15.566 68.763 27.059 68.763 27.059Z" fill="#ADADAD"/>
<path d="M65.859 27.588C66.021 27.599 66.171 27.253 66.2 26.786C66.2 26.786 66.873 15.428 67.905 0.000976562H66.395C65.985 15.423 65.598 26.759 65.598 26.759C65.584 27.214 65.699 27.584 65.859 27.588Z" fill="#ADADAD"/>
<path d="M62.369 26.785C62.396 27.242 62.543 27.589 62.702 27.588C62.865 27.596 62.985 27.224 62.971 26.759C62.971 26.759 62.584 15.423 62.175 0.000976562H60.664C61.696 15.427 62.369 26.785 62.369 26.785Z" fill="#ADADAD"/>
<path d="M82.271 87.246C82.022 86.874 81.718 86.649 81.59 86.744C81.464 86.847 81.544 87.22 81.788 87.609C81.788 87.609 93.219 105.727 105.696 126.104H108.627C94.728 105.906 82.271 87.246 82.271 87.246Z" fill="#ADADAD"/>
<path d="M115.467 0.000976562C99.92 18.619 85.533 35.364 85.533 35.364C85.244 35.702 85.095 36.073 85.203 36.194C85.312 36.317 85.65 36.143 85.956 35.807C85.957 35.807 101.754 18.366 118.893 0L115.467 0.000976562Z" fill="#ADADAD"/>
<path d="M79.602 89.006C79.389 88.611 79.11 88.355 78.975 88.437C78.836 88.517 78.88 88.892 79.088 89.307C79.088 89.307 87.578 106.206 97.279 126.105H99.762C88.848 106.292 79.602 89.006 79.602 89.006Z" fill="#ADADAD"/>
<path d="M84.775 85.204C84.492 84.86 84.167 84.667 84.048 84.774C83.925 84.882 84.056 85.267 84.332 85.625C84.332 85.625 99.632 105.313 115.272 126.105H118.878C101.553 105.671 84.775 85.204 84.775 85.204Z" fill="#ADADAD"/>
<path d="M131.894 6.92297C110.967 23.823 89.77 40.337 89.77 40.337C89.424 40.608 89.21 40.94 89.295 41.077C89.381 41.218 89.746 41.116 90.109 40.849C90.109 40.849 111.708 24.929 133.568 9.40198C133.623 9.36298 133.677 9.32397 133.732 9.28497V5.44098C133.12 5.93398 132.507 6.42897 131.894 6.92297Z" fill="#ADADAD"/>
<path d="M94.989 52.204C94.57 52.311 94.254 52.525 94.283 52.684C94.314 52.846 94.691 52.898 95.124 52.801C95.124 52.801 112.892 48.81 133.732 44.409V42.078C112.927 47.651 94.989 52.204 94.989 52.204Z" fill="#ADADAD"/>
<path d="M94.123 49.065C93.716 49.217 93.421 49.463 93.465 49.617C93.511 49.774 93.891 49.787 94.312 49.644C94.312 49.644 112.646 43.448 133.733 36.636V34.121C112.717 42.206 94.123 49.065 94.123 49.065Z" fill="#ADADAD"/>
<path d="M92.96 46.028C92.569 46.222 92.299 46.498 92.357 46.649C92.417 46.801 92.795 46.774 93.201 46.589C93.201 46.589 112.349 37.8 133.732 28.357V25.56C112.48 36.417 92.96 46.028 92.96 46.028Z" fill="#ADADAD"/>
<path d="M91.506 43.109C91.135 43.343 90.892 43.648 90.964 43.793C91.037 43.941 91.41 43.876 91.797 43.648C91.797 43.648 112.049 31.69 133.732 19.34V16.121C112.282 30.073 91.506 43.109 91.506 43.109Z" fill="#ADADAD"/>
<path d="M95.037 59.112C95.035 59.284 95.394 59.419 95.837 59.415C95.837 59.415 113.141 59.208 133.733 59.212V57.021C113.143 58.09 95.821 58.778 95.821 58.778C95.389 58.796 95.038 58.943 95.037 59.112Z" fill="#ADADAD"/>
<path d="M41.889 83.368C42.194 83.045 42.359 82.684 42.256 82.557C42.153 82.429 41.807 82.586 41.486 82.906C41.486 82.906 22.37 102.019 2.94202 120.787C1.96202 121.738 0.980007 122.686 0.00100708 123.633V126.106H2.07602C3.03202 125.064 3.99001 124.02 4.95001 122.975C23.25 103.011 41.889 83.368 41.889 83.368Z" fill="#ADADAD"/>
<path d="M94.809 55.846C94.825 56.013 95.195 56.107 95.635 56.056C95.635 56.056 113.062 54.025 133.733 51.878V49.651C113.077 52.906 95.557 55.44 95.557 55.44C95.129 55.503 94.794 55.684 94.809 55.846Z" fill="#ADADAD"/>
<path d="M59.222 27.141C59.293 27.595 59.467 27.914 59.625 27.911C59.783 27.902 59.864 27.519 59.806 27.059C59.806 27.059 58.321 15.567 56.433 0.000976562H54.893C57.432 15.582 59.222 27.141 59.222 27.141Z" fill="#ADADAD"/>
<path d="M95.774 62.172C95.343 62.145 94.978 62.255 94.96 62.419C94.942 62.588 95.286 62.756 95.726 62.799C95.726 62.799 113.119 64.395 133.732 66.543V64.342C113.112 63.279 95.774 62.172 95.774 62.172Z" fill="#ADADAD"/>
<path d="M95.417 65.476C94.99 65.404 94.617 65.473 94.584 65.631C94.551 65.793 94.877 65.994 95.311 66.082C95.311 66.082 113.011 69.599 133.733 73.991V71.721C112.987 68.464 95.417 65.476 95.417 65.476Z" fill="#ADADAD"/>
<path d="M90.166 77.47C90.077 77.608 90.305 77.931 90.672 78.19C90.672 78.19 112.228 93.298 133.732 108.93V105.427C111.917 91.509 90.987 77.663 90.987 77.663C90.621 77.422 90.254 77.334 90.166 77.47Z" fill="#ADADAD"/>
<path d="M126.534 0.105988C107.317 19.09 87.771 37.743 87.771 37.743C87.451 38.05 87.269 38.402 87.366 38.532C87.465 38.666 87.818 38.526 88.154 38.223C88.154 38.223 108.146 20.13 128.435 2.39798C129.348 1.59698 130.261 0.797977 131.173 0.000976562H126.641C126.605 0.0359766 126.57 0.0719875 126.534 0.105988Z" fill="#ADADAD"/>
<path d="M92.535 74.79C92.147 74.588 91.773 74.538 91.699 74.68C91.623 74.825 91.879 75.121 92.268 75.339C92.268 75.339 112.371 86.561 133.732 98.922V95.935C112.196 85.075 92.535 74.788 92.535 74.79Z" fill="#ADADAD"/>
<path d="M94.756 68.68C94.338 68.564 93.961 68.592 93.913 68.746C93.864 68.902 94.17 69.137 94.594 69.268C94.594 69.268 112.827 74.93 133.733 81.73V79.319C112.775 73.737 94.756 68.68 94.756 68.68Z" fill="#ADADAD"/>
<path d="M93.793 71.789C93.389 71.628 93.012 71.617 92.95 71.765C92.887 71.916 93.169 72.183 93.578 72.36C93.578 72.36 112.598 80.528 133.732 89.961V87.321C112.501 79.222 93.793 71.789 93.793 71.789Z" fill="#ADADAD"/>
<path d="M131.084 114.059C109.984 97.408 89.163 80.378 89.163 80.378C88.822 80.101 88.465 79.977 88.366 80.104C88.264 80.234 88.461 80.581 88.801 80.876C88.801 80.876 109.196 98.481 129.294 116.448C130.778 117.769 132.259 119.093 133.732 120.411V116.153C132.85 115.458 131.967 114.76 131.084 114.059Z" fill="#ADADAD"/>
<path d="M33.608 62.428C33.601 62.259 33.236 62.144 32.795 62.172C32.795 62.172 18.27 63.1 0 64.07V66.008C18.272 64.135 32.842 62.798 32.842 62.798C33.272 62.757 33.615 62.593 33.608 62.428Z" fill="#ADADAD"/>
<path d="M33.259 66.083C33.683 65.998 34.009 65.8 33.986 65.64C33.963 65.476 33.589 65.404 33.152 65.477C33.152 65.477 18.416 67.983 0 70.907V72.902C18.414 69.031 33.259 66.083 33.259 66.083Z" fill="#ADADAD"/>
<path d="M33.976 69.269C34.39 69.14 34.696 68.91 34.659 68.753C34.621 68.594 34.242 68.562 33.814 68.68C33.814 68.68 18.668 72.931 0 77.939V80.057C18.655 74.027 33.976 69.269 33.976 69.269Z" fill="#ADADAD"/>
<path d="M34.258 49.644C34.67 49.782 35.047 49.774 35.102 49.623C35.159 49.47 34.864 49.22 34.447 49.064C34.447 49.064 18.805 43.293 0.00100708 36.1V38.308C18.83 44.429 34.258 49.644 34.258 49.644Z" fill="#ADADAD"/>
<path d="M33.532 59.12C33.542 58.948 33.19 58.796 32.748 58.776C32.748 58.776 18.24 58.2 0 57.284V59.215C18.24 59.241 32.732 59.414 32.732 59.414C33.164 59.418 33.522 59.288 33.532 59.12Z" fill="#ADADAD"/>
<path d="M33.445 52.801C33.868 52.896 34.243 52.847 34.284 52.692C34.326 52.533 34.009 52.314 33.58 52.205C33.58 52.205 18.522 48.382 0 43.457V45.504C18.528 49.45 33.445 52.801 33.445 52.801Z" fill="#ADADAD"/>
<path d="M34.991 72.359C35.39 72.186 35.674 71.925 35.622 71.773C35.569 71.618 35.189 71.625 34.775 71.789C34.775 71.789 19.008 78.054 0 85.344V87.661C18.971 79.238 34.991 72.359 34.991 72.359Z" fill="#ADADAD"/>
<path d="M32.936 56.055C33.366 56.104 33.734 56.015 33.76 55.853C33.786 55.688 33.451 55.502 33.013 55.439C33.013 55.439 18.331 53.314 0 50.458V52.418C18.329 54.352 32.936 56.055 32.936 56.055Z" fill="#ADADAD"/>
<path d="M36.301 75.341C36.682 75.126 36.94 74.835 36.873 74.688C36.807 74.538 36.431 74.584 36.034 74.791C36.034 74.791 19.416 83.484 0 93.324V95.941C19.326 84.814 36.301 75.341 36.301 75.341Z" fill="#ADADAD"/>
<path d="M125.627 120.786C106.199 102.018 87.084 82.904 87.084 82.904C86.769 82.591 86.428 82.432 86.317 82.55C86.205 82.67 86.368 83.036 86.679 83.367C86.679 83.367 105.318 103.01 123.618 122.972C124.578 124.017 125.536 125.061 126.492 126.103H131.129C129.305 124.345 127.465 122.567 125.627 120.786Z" fill="#ADADAD"/>
<path d="M64.587 93.162C64.58 92.706 64.447 92.343 64.288 92.348C64.125 92.331 63.988 92.696 63.98 93.162C63.98 93.162 63.8 107.624 63.4 126.104H65.167C64.768 107.624 64.587 93.162 64.587 93.162Z" fill="#ADADAD"/>
<path d="M67.786 92.97C67.736 92.513 67.576 92.182 67.418 92.182C67.257 92.183 67.156 92.56 67.193 93.025C67.193 93.025 68.375 107.56 69.711 126.105H71.494C69.342 107.56 67.786 92.97 67.786 92.97Z" fill="#ADADAD"/>
<path d="M61.375 93.024C61.411 92.571 61.314 92.193 61.158 92.182C60.997 92.171 60.834 92.501 60.782 92.969C60.782 92.969 59.226 107.56 57.074 126.104H58.857C60.192 107.559 61.375 93.024 61.375 93.024Z" fill="#ADADAD"/>
<path d="M37.897 78.189C38.255 77.936 38.484 77.619 38.406 77.477C38.326 77.331 37.957 77.416 37.582 77.663C37.582 77.663 19.839 89.4 0 102.123V105.186C19.66 90.972 37.897 78.189 37.897 78.189Z" fill="#ADADAD"/>
<path d="M39.768 80.877C40.101 80.588 40.299 80.245 40.207 80.111C40.115 79.974 39.756 80.095 39.405 80.379C39.405 80.379 20.207 96.08 0 112.07V115.799C19.86 98.06 39.768 80.877 39.768 80.877Z" fill="#ADADAD"/>
<path d="M56.642 28.542C56.797 28.517 56.84 28.128 56.738 27.675C56.738 27.675 54.043 15.851 50.566 0.000976562H48.947C53.13 15.873 56.171 27.817 56.171 27.817C56.284 28.263 56.488 28.561 56.642 28.542Z" fill="#ADADAD"/>
<path d="M45.023 33.634C45.29 33.992 45.604 34.2 45.728 34.099C45.851 33.992 45.746 33.613 45.487 33.242C45.487 33.24 34.816 18.027 22.492 0.00198364H19.759C33.39 17.928 45.023 33.634 45.023 33.634Z" fill="#ADADAD"/>
<path d="M42.613 35.807C42.912 36.135 43.246 36.312 43.36 36.199C43.477 36.086 43.332 35.71 43.035 35.365C43.035 35.365 28.65 18.619 13.104 0.00198364H9.677C26.816 18.365 42.613 35.807 42.613 35.807Z" fill="#ADADAD"/>
<path d="M13.294 126.104C28.936 105.313 44.236 85.624 44.235 85.624C44.505 85.275 44.638 84.894 44.525 84.779C44.411 84.66 44.083 84.851 43.792 85.203C43.792 85.203 27.014 105.671 9.68802 126.103L13.294 126.104Z" fill="#ADADAD"/>
<path d="M53.211 28.811C53.366 29.239 53.601 29.524 53.748 29.477C53.9 29.436 53.905 29.045 53.76 28.606C53.76 28.606 49.665 16.264 44.426 0.000976562H42.67C48.699 16.287 53.211 28.811 53.211 28.811Z" fill="#ADADAD"/>
<path d="M46.78 87.609C47.019 87.228 47.101 86.86 46.984 86.749C46.861 86.644 46.552 86.866 46.298 87.246C46.298 87.246 33.84 105.906 19.941 126.104H22.871C35.35 105.727 46.78 87.609 46.78 87.609Z" fill="#ADADAD"/>
<path d="M35.368 46.589C35.765 46.77 36.141 46.8 36.209 46.654C36.279 46.507 36.01 46.225 35.609 46.027C35.609 46.027 19.146 37.921 0 28.189V30.642C19.207 39.171 35.368 46.589 35.368 46.589Z" fill="#ADADAD"/>
<path d="M47.614 31.729C47.846 32.113 48.138 32.353 48.268 32.265C48.398 32.167 48.341 31.803 48.113 31.397C48.113 31.397 40.201 17.388 30.618 0.000976562H28.344C39.008 17.367 47.614 31.729 47.614 31.729Z" fill="#ADADAD"/>
<path d="M50.353 30.118C50.547 30.523 50.813 30.794 50.951 30.718C51.096 30.657 51.067 30.272 50.881 29.849C50.881 29.849 45.093 16.786 37.845 0.000976562H35.879C44.039 16.797 50.353 30.118 50.353 30.118Z" fill="#ADADAD"/>
<path d="M0.13501 2.397C20.423 20.129 40.415 38.223 40.415 38.223C40.744 38.518 41.094 38.661 41.198 38.537C41.305 38.411 41.125 38.056 40.799 37.741C40.799 37.741 21.252 19.089 2.035 0.103973C2 0.0699734 1.96502 0.035 1.92902 0H0V2.27798C0.045 2.31798 0.0900098 2.358 0.13501 2.397Z" fill="#ADADAD"/>
<path d="M36.772 43.647C37.15 43.869 37.52 43.938 37.602 43.799C37.685 43.656 37.443 43.348 37.064 43.108C37.064 43.108 19.501 32.088 0 19.47V22.288C19.629 33.524 36.772 43.647 36.772 43.647Z" fill="#ADADAD"/>
<path d="M49.48 89.307C49.683 88.902 49.731 88.527 49.599 88.441C49.467 88.347 49.184 88.601 48.966 89.006C48.966 89.006 39.72 106.292 28.805 126.105H31.287C40.989 106.207 49.48 89.307 49.48 89.307Z" fill="#ADADAD"/>
<path d="M39.271 41.083C39.367 40.948 39.155 40.613 38.8 40.336C38.8 40.336 19.788 25.525 0 9.60098V12.962C20.037 27.27 38.461 40.849 38.461 40.849C38.815 41.108 39.177 41.215 39.271 41.083Z" fill="#ADADAD"/>
<path d="M52.307 90.703C52.469 90.282 52.487 89.893 52.342 89.835C52.201 89.762 51.947 90.038 51.768 90.466C51.768 90.466 45.014 106.707 36.692 126.105H38.872C46.138 106.67 52.307 90.703 52.307 90.703Z" fill="#ADADAD"/>
<path d="M58.26 92.564C58.338 92.117 58.282 91.733 58.129 91.704C57.972 91.684 57.779 91.991 57.684 92.452C57.684 92.452 54.638 107.374 50.623 126.104H52.473C55.623 107.37 58.26 92.564 58.26 92.564Z" fill="#ADADAD"/>
<path d="M55.237 91.791C55.357 91.355 55.338 90.966 55.19 90.923C55.039 90.879 54.816 91.169 54.678 91.617C54.678 91.617 49.937 107.081 43.89 126.104H45.867C50.973 107.067 55.237 91.791 55.237 91.791Z" fill="#ADADAD"/>
<path d="M96.5 126.104H42.09C42.09 126.104 46.06 115.734 58.08 108.254C58.08 116.184 72.5 119.264 81.65 108.254C85.08 110.474 91.88 115.885 96.5 126.104Z" fill="white"/>
<path d="M50.372 126.104H49.61C48.882 121.958 48.815 118.376 48.937 115.827C49.197 115.545 49.462 115.262 49.738 114.976C49.56 117.516 49.542 121.451 50.372 126.104ZM85.553 126.104H86.313C87.002 121.878 88.307 117.995 89.473 115.121C89.288 114.908 89.102 114.703 88.916 114.499C87.69 117.472 86.273 121.604 85.553 126.104Z" fill="#D4D4D4"/>
<path d="M79.5 107.015C79.5 107.015 80.32 107.395 81.65 108.255C72.5 119.265 58.08 116.185 58.08 108.255C58.85 107.775 59.66 107.305 60.5 106.855V103.605H79.5V107.015Z" fill="#FFBFB0"/>
<path d="M53.81 112.564C53.81 112.564 52.961 113.303 51.69 114.414C51.385 114.697 50.999 114.979 50.693 115.323C50.367 115.658 50.024 116.012 49.668 116.379C49.313 116.746 48.945 117.126 48.572 117.513C48.224 117.929 47.872 118.353 47.518 118.777C47.174 119.207 46.789 119.609 46.484 120.057C46.166 120.497 45.853 120.93 45.549 121.349C45.235 121.761 44.975 122.188 44.723 122.588C44.474 122.99 44.223 123.364 44.017 123.722C43.619 124.443 43.275 125.04 43.078 125.472C42.859 125.905 42.767 126.135 42.767 126.135C42.635 126.463 42.262 126.621 41.935 126.489C41.615 126.36 41.456 126 41.572 125.678C41.572 125.678 41.679 125.382 41.887 124.926C42.081 124.453 42.412 123.818 42.801 123.045C43.001 122.663 43.244 122.266 43.487 121.837C43.733 121.409 43.987 120.953 44.295 120.513C44.593 120.066 44.899 119.603 45.212 119.132C45.514 118.653 45.893 118.221 46.233 117.759C46.583 117.304 46.933 116.849 47.277 116.401C47.657 115.975 48.031 115.556 48.392 115.15C48.756 114.746 49.109 114.354 49.443 113.983C49.77 113.592 50.12 113.32 50.421 113.017C51.648 111.858 52.465 111.084 52.465 111.084C52.866 110.704 53.5 110.722 53.879 111.123C54.259 111.524 54.241 112.157 53.84 112.537C53.83 112.546 53.818 112.557 53.81 112.564Z" fill="#451B1B"/>
<path d="M85.582 111.231C84.062 109.91 82.699 108.933 81.65 108.254C80.32 107.394 79.5 107.014 79.5 107.014V103.604H60.5V106.854C59.66 107.304 58.85 107.774 58.08 108.254C56.25 109.393 54.607 110.598 53.137 111.823" stroke="#451B1B" stroke-width="2" stroke-miterlimit="10" stroke-linecap="round" stroke-linejoin="round"/>
<path d="M95.684 125.99C95.684 125.99 95.168 124.98 94.395 123.466C94.184 123.109 93.955 122.723 93.712 122.315C93.464 121.91 93.233 121.469 92.939 121.038C92.647 120.606 92.345 120.161 92.039 119.708C91.745 119.246 91.391 118.816 91.056 118.374C90.713 117.938 90.394 117.482 90.026 117.078C89.671 116.665 89.32 116.258 88.981 115.864C88.258 115.117 87.607 114.399 86.988 113.842C86.393 113.262 85.872 112.804 85.502 112.488C85.136 112.17 84.927 111.987 84.927 111.987L84.9 111.963C84.484 111.601 84.441 110.968 84.803 110.552C85.166 110.136 85.798 110.093 86.215 110.455C86.222 110.462 86.233 110.472 86.24 110.477C86.24 110.477 86.452 110.674 86.822 111.02C87.196 111.362 87.723 111.857 88.327 112.485C88.952 113.09 89.612 113.865 90.34 114.672C90.681 115.096 91.033 115.533 91.391 115.978C91.76 116.414 92.079 116.899 92.42 117.367C92.754 117.841 93.106 118.301 93.397 118.791C93.7 119.273 93.999 119.747 94.287 120.206C94.576 120.664 94.81 121.143 95.057 121.577C95.296 122.015 95.522 122.431 95.731 122.813C96.454 124.353 96.935 125.38 96.935 125.38C97.098 125.728 96.949 126.142 96.601 126.305C96.258 126.463 95.854 126.322 95.684 125.99Z" fill="#451B1B"/>
<path d="M58.08 108.255C58.08 116.185 72.5 119.265 81.65 108.255" stroke="#451B1B" stroke-width="2" stroke-miterlimit="10" stroke-linecap="round" stroke-linejoin="round"/>
<path d="M31.67 80.872C28.17 75.622 23.941 76.127 22.045 78.997C19.732 82.497 21.67 96.497 33.545 96.06L31.67 80.872Z" fill="#FFBFB0" stroke="#451B1B" stroke-width="2" stroke-miterlimit="10" stroke-linecap="round" stroke-linejoin="round"/>
<path d="M102.483 98.372C86.17 111.268 58.504 111.601 44.42 106.56C30.13 101.444 29.253 93.436 28.17 82.353C25.338 72.186 18.255 49.519 38.171 31.769C58.087 14.019 95.966 18.809 108.587 39.103C119.004 55.853 113.671 74.686 113.671 74.686C117.295 74.872 119.966 78.73 118.711 84.935C117.233 92.247 112.483 97.372 102.483 98.372Z" fill="#FFE2DB"/>
<path d="M71.655 91.27C73.396 90.738 74.843 90.54 76.16 91.17C71.888 94.806 64.015 99.255 58.005 99.205C57.983 98.262 58.477 97.624 59.561 96.882C60.928 95.96 68.697 92.185 71.655 91.27Z" fill="white"/>
<path d="M81.71 100.374C82.393 102.382 83 104.64 83.402 107.049C75.323 109.138 67.07 109.856 60.066 109.452C60.066 109.442 59.995 109.067 59.868 108.468L59.867 108.457C61.634 103.337 77.773 94.99 81.71 100.374Z" fill="#DE5766"/>
<path d="M58.005 99.206C64.015 99.256 71.888 94.807 76.16 91.171C77.082 91.605 77.949 92.444 78.807 93.851C79.662 95.247 80.758 97.55 81.71 100.374C77.773 94.99 61.634 103.337 59.867 108.457C59.416 106.255 58.345 101.05 58.097 99.959C58.036 99.685 57.998 99.436 58.005 99.206Z" fill="#8A1926"/>
<path d="M70.848 96.283C68.859 96.5 67.424 98.327 67.647 100.367C67.689 100.752 67.803 101.108 67.947 101.444C70.155 100.297 72.533 99.385 74.719 98.937C74.23 97.243 72.621 96.089 70.848 96.283Z" fill="#451B1B"/>
<path d="M59.868 108.468C59.995 109.068 60.066 109.443 60.066 109.452C67.07 109.855 75.323 109.138 83.402 107.049C83 104.64 82.392 102.382 81.71 100.374C80.758 97.55 79.662 95.246 78.807 93.851C77.95 92.445 77.082 91.605 76.16 91.171C74.844 90.54 73.396 90.738 71.655 91.271C68.697 92.186 60.927 95.96 59.56 96.883C58.476 97.625 57.983 98.263 58.004 99.206C57.997 99.436 58.035 99.685 58.097 99.959C58.345 101.05 59.415 106.255 59.867 108.457" stroke="#451B1B" stroke-miterlimit="10" stroke-linecap="round" stroke-linejoin="round"/>
<path d="M59.868 108.468L59.867 108.457C61.634 103.337 77.773 94.99 81.71 100.374" stroke="#451B1B" stroke-miterlimit="10" stroke-linecap="round" stroke-linejoin="round"/>
<path d="M58.005 99.206C64.015 99.256 71.888 94.807 76.16 91.171" stroke="#451B1B" stroke-miterlimit="10" stroke-linecap="round" stroke-linejoin="round"/>
<path d="M102.483 98.372C86.17 111.268 58.504 111.601 44.42 106.56C30.13 101.444 29.253 93.436 28.17 82.353C25.338 72.186 18.255 49.519 38.171 31.769C58.087 14.019 95.966 18.809 108.587 39.103C119.004 55.853 113.671 74.686 113.671 74.686C117.295 74.872 119.966 78.73 118.711 84.935C117.233 92.247 112.483 97.372 102.483 98.372Z" stroke="#451B1B" stroke-width="2" stroke-miterlimit="10" stroke-linecap="round" stroke-linejoin="round"/>
<path d="M108.931 93.011C108.718 94.139 107.734 95.053 106.733 95.053C105.732 95.053 105.093 94.139 105.306 93.011C105.518 91.884 106.502 90.97 107.503 90.97C108.504 90.97 109.143 91.884 108.931 93.011Z" fill="#451B1B"/>
<path d="M113.679 75.685C113.679 75.685 113.572 75.683 113.382 75.678C113.213 75.673 112.951 75.68 112.626 75.698C112.304 75.706 111.929 75.763 111.523 75.8C111.128 75.878 110.69 75.923 110.274 76.036C109.86 76.154 109.424 76.228 109.054 76.389C108.682 76.541 108.305 76.636 108.027 76.798C107.452 77.094 107.068 77.291 107.068 77.291L106.988 77.332C106.679 77.491 106.299 77.37 106.141 77.061C105.993 76.772 106.091 76.42 106.357 76.247C106.357 76.247 106.767 75.98 107.382 75.58C107.686 75.365 108.084 75.216 108.491 75.003C108.898 74.781 109.364 74.648 109.82 74.469C110.278 74.296 110.754 74.196 111.193 74.065C111.641 73.977 112.056 73.873 112.422 73.826C112.781 73.769 113.093 73.73 113.326 73.714C113.539 73.697 113.661 73.688 113.661 73.688C114.213 73.645 114.694 74.058 114.737 74.61C114.78 75.162 114.367 75.643 113.815 75.686C113.782 75.689 113.75 75.69 113.717 75.689L113.679 75.685Z" fill="#451B1B"/>
<path d="M107.181 87.895C107.337 86.123 110.948 80.351 114.503 81.911C117.17 83.081 115.523 88.727 112.082 89.683C111.733 87.685 109.858 86.518 107.181 87.895Z" fill="#FFBFB0"/>
<path d="M112.867 82.22L111.884 82.698C111.702 82.769 111.613 82.882 111.478 82.971L111.103 83.249C110.847 83.403 110.618 83.688 110.375 83.906C110.124 84.125 109.917 84.39 109.71 84.655C109.49 84.908 109.295 85.178 109.127 85.469C108.942 85.747 108.77 86.03 108.641 86.33L108.426 86.769L108.28 87.209C108.234 87.354 108.164 87.508 108.165 87.629C108.149 87.757 108.129 87.883 108.105 88.008L106.615 87.064L106.619 87.062C107.21 86.76 107.842 86.581 108.486 86.518C109.13 86.457 109.793 86.511 110.43 86.73C110.747 86.846 111.056 86.995 111.34 87.192C111.621 87.394 111.879 87.633 112.086 87.911C112.181 88.056 112.295 88.188 112.361 88.346C112.43 88.499 112.524 88.647 112.564 88.807C112.679 89.122 112.73 89.438 112.772 89.752C112.821 90.117 112.564 90.454 112.198 90.503C111.861 90.548 111.548 90.333 111.464 90.012L111.443 89.93C111.387 89.722 111.335 89.517 111.244 89.339C111.214 89.241 111.142 89.172 111.098 89.086C111.056 88.998 110.977 88.941 110.921 88.867C110.667 88.597 110.332 88.419 109.95 88.331C109.183 88.158 108.271 88.36 107.603 88.804L107.601 88.805L107.362 88.906C106.895 89.102 106.357 88.883 106.161 88.416C106.085 88.234 106.071 88.041 106.111 87.861L106.264 87.17C106.31 86.928 106.405 86.752 106.484 86.555L106.733 85.98L107.038 85.46C107.229 85.105 107.462 84.783 107.705 84.473C107.931 84.15 108.186 83.851 108.466 83.573C108.733 83.285 108.999 82.998 109.317 82.758C109.634 82.513 109.889 82.24 110.27 82.031L110.805 81.707C110.982 81.61 111.167 81.472 111.332 81.424L112.349 81.027C112.684 80.896 113.063 81.061 113.194 81.397C113.317 81.713 113.169 82.072 112.867 82.22Z" fill="#451B1B"/>
<path d="M61.203 89.165L61.115 89.119C61.115 89.119 60.879 88.994 60.643 88.868C60.515 88.817 60.379 88.713 60.28 88.619C60.18 88.534 60.113 88.477 60.113 88.477L60.107 88.471C59.969 88.356 59.775 88.315 59.594 88.382C59.327 88.481 59.191 88.778 59.29 89.045C59.29 89.045 59.319 89.126 59.365 89.248C59.402 89.368 59.469 89.532 59.587 89.716C59.792 90.073 60.04 90.446 60.04 90.446C60.119 90.564 60.23 90.67 60.365 90.741C60.8 90.971 61.341 90.807 61.571 90.371C61.804 89.936 61.638 89.396 61.203 89.165Z" fill="#D17E7E"/>
<path d="M74.583 82.215L94.55 72.21" stroke="#451B1B" stroke-width="2" stroke-miterlimit="10" stroke-linecap="round" stroke-linejoin="round"/>
<path d="M77.65 80.678C78.615 84.17 81.469 86.702 84.841 86.702C89.007 86.702 92.384 82.841 92.384 78.077C92.384 76.517 92.017 75.059 91.384 73.796L77.65 80.678Z" fill="white" stroke="#451B1B" stroke-width="2" stroke-miterlimit="10" stroke-linecap="round" stroke-linejoin="round"/>
<path d="M40.05 73.528L53.528 82.215" stroke="#451B1B" stroke-width="2" stroke-miterlimit="10" stroke-linecap="round" stroke-linejoin="round"/>
<path d="M42.74 75.263C41.667 76.409 40.89 77.992 40.658 79.776C40.159 83.638 42.35 87.037 45.646 87.036C48.585 87.037 51.075 84.346 51.65 81.006L42.74 75.263Z" fill="white" stroke="#451B1B" stroke-width="2" stroke-miterlimit="10" stroke-linecap="round" stroke-linejoin="round"/>
<path d="M48.466 70.096C48.174 70.333 54.945 75.515 55.414 74.827C55.883 74.139 55.541 72.437 53.976 71.288C52.627 70.297 48.966 69.689 48.466 70.096Z" fill="#451B1B"/>
<path d="M78.888 70.096C79.18 70.333 72.409 75.515 71.94 74.827C71.471 74.139 71.813 72.437 73.378 71.288C74.727 70.297 78.388 69.689 78.888 70.096Z" fill="#451B1B"/>
<g opacity="0.7">
<path d="M36.768 92.548C36.768 92.548 36.844 92.285 37.039 91.993C37.23 91.695 37.537 91.365 37.894 91.098C38.247 90.826 38.655 90.623 38.988 90.507C39.32 90.388 39.589 90.368 39.589 90.368C39.768 90.355 39.923 90.49 39.936 90.669C39.939 90.711 39.933 90.752 39.921 90.79C39.921 90.79 39.84 91.047 39.648 91.341C39.457 91.639 39.165 91.988 38.819 92.269C38.476 92.554 38.085 92.777 37.751 92.893C37.422 93.015 37.148 93.028 37.148 93.028C36.941 93.039 36.764 92.879 36.753 92.671C36.75 92.629 36.756 92.586 36.768 92.548Z" fill="#D17E7E"/>
<path d="M39.643 92.548C39.643 92.548 39.719 92.285 39.914 91.993C40.105 91.695 40.412 91.365 40.769 91.098C41.122 90.826 41.53 90.623 41.863 90.507C42.195 90.388 42.464 90.368 42.464 90.368C42.643 90.355 42.798 90.49 42.811 90.669C42.814 90.711 42.808 90.752 42.796 90.79C42.796 90.79 42.715 91.047 42.523 91.341C42.332 91.639 42.04 91.988 41.694 92.269C41.351 92.554 40.96 92.777 40.626 92.893C40.297 93.015 40.023 93.028 40.023 93.028C39.816 93.039 39.639 92.879 39.628 92.671C39.625 92.629 39.631 92.586 39.643 92.548Z" fill="#D17E7E"/>
<path d="M42.518 92.548C42.518 92.548 42.594 92.285 42.789 91.993C42.98 91.695 43.287 91.365 43.644 91.098C43.997 90.826 44.405 90.623 44.738 90.507C45.07 90.388 45.339 90.368 45.339 90.368C45.518 90.355 45.673 90.49 45.686 90.669C45.689 90.711 45.683 90.752 45.671 90.79C45.671 90.79 45.59 91.047 45.398 91.341C45.207 91.639 44.915 91.988 44.569 92.269C44.226 92.554 43.835 92.777 43.501 92.893C43.172 93.015 42.898 93.028 42.898 93.028C42.691 93.039 42.514 92.879 42.503 92.671C42.5 92.629 42.506 92.586 42.518 92.548Z" fill="#D17E7E"/>
<path d="M88.495 92.548C88.495 92.548 88.571 92.285 88.766 91.993C88.956 91.695 89.264 91.365 89.621 91.098C89.973 90.826 90.382 90.623 90.715 90.507C91.047 90.388 91.316 90.368 91.316 90.368C91.495 90.355 91.65 90.49 91.663 90.669C91.666 90.711 91.66 90.752 91.648 90.79C91.648 90.79 91.567 91.047 91.375 91.341C91.184 91.639 90.893 91.988 90.546 92.269C90.203 92.554 89.812 92.777 89.478 92.893C89.149 93.015 88.876 93.028 88.876 93.028C88.669 93.039 88.492 92.879 88.481 92.671C88.478 92.629 88.483 92.586 88.495 92.548Z" fill="#D17E7E"/>
<path d="M91.37 92.548C91.37 92.548 91.446 92.285 91.641 91.993C91.831 91.695 92.139 91.365 92.496 91.098C92.848 90.826 93.257 90.623 93.59 90.507C93.922 90.388 94.191 90.368 94.191 90.368C94.37 90.355 94.525 90.49 94.538 90.669C94.541 90.711 94.535 90.752 94.523 90.79C94.523 90.79 94.442 91.047 94.25 91.341C94.059 91.639 93.768 91.988 93.421 92.269C93.078 92.554 92.687 92.777 92.353 92.893C92.024 93.015 91.751 93.028 91.751 93.028C91.544 93.039 91.367 92.879 91.356 92.671C91.353 92.629 91.358 92.586 91.37 92.548Z" fill="#D17E7E"/>
<path d="M94.245 92.548C94.245 92.548 94.321 92.285 94.516 91.993C94.706 91.695 95.014 91.365 95.371 91.098C95.723 90.826 96.132 90.623 96.465 90.507C96.797 90.388 97.066 90.368 97.066 90.368C97.245 90.355 97.4 90.49 97.413 90.669C97.416 90.711 97.41 90.752 97.398 90.79C97.398 90.79 97.317 91.047 97.125 91.341C96.934 91.639 96.643 91.988 96.296 92.269C95.953 92.554 95.562 92.777 95.228 92.893C94.899 93.015 94.626 93.028 94.626 93.028C94.419 93.039 94.242 92.879 94.231 92.671C94.228 92.629 94.233 92.586 94.245 92.548Z" fill="#D17E7E"/>
</g>
<path d="M109.14 75.98C105.77 81.65 101.62 85.38 98.42 86.47C100.05 82.34 100.28 76.87 100.02 71.94L99.8 71.951C93.17 67.261 84.54 54.57 83.3 48.641C77.23 54.951 69.27 69.001 69.27 69.001H69.26C68.72 74.751 68.031 79.631 67.3 80.761C54.92 77.731 48.74 68.501 46.09 58.421C39.92 70.881 31.14 74.041 31.14 74.041C31.92 80.451 34.17 84.32 34.17 84.32C19.42 80.341 16.75 64.18 17.3 57.38C16.92 57.51 10.67 57.26 6.54001 51.51C15.67 48.38 19.17 40.14 25.92 29.26C32.67 18.38 47.8 13.38 58.42 13.14C89.47 7.08998 107.18 22.01 114.04 32.38C118.84 39.64 123.8 44.57 129.86 44.45C129.729 47.64 125.979 52.7 123.42 53.76C125.42 59.95 123.42 65.82 123.54 68.88C123.67 71.95 124.48 75.07 127.42 77.51C121.67 79.64 117.51 76.77 117.51 76.77C113.92 73.65 109.14 75.98 109.14 75.98Z" fill="#CCCCCC"/>
<path d="M44.631 49.821C49.233 55.511 51.43 72.448 67.3 80.761C54.67 77.636 46.358 67.823 44.631 49.821Z" fill="#E3E3E3"/>
<path d="M33.974 54.597C29.194 63.933 31.081 73.512 31.081 73.512L32.181 73.571C33.769 72.779 36.982 70.846 40.381 67.002C31.152 72.092 33.974 54.597 33.974 54.597Z" fill="#ADADAD"/>
<path d="M108.514 76.997C108.725 76.666 108.934 76.327 109.14 75.98C109.14 75.98 113.92 73.65 117.51 76.77C117.51 76.77 121.67 79.64 127.42 77.51C124.48 75.07 123.67 71.95 123.54 68.88C123.437 66.269 124.87 61.61 124.053 56.455C120.492 54.838 115.67 55.654 114.822 59.7C113.618 65.439 111.549 72.285 108.516 76.991C108.515 76.994 108.514 76.997 108.514 76.997Z" fill="#ADADAD"/>
<path d="M87.253 32.345C80.683 32.411 80.567 38.178 84.535 38.345C88.503 38.512 95.419 32.262 87.253 32.345Z" fill="#E3E3E3"/>
<path d="M114.04 32.381C113.875 32.132 113.698 31.878 113.52 31.623C101.863 36.439 88.929 39.863 89.336 41.275C89.788 42.844 114.046 52.4 129.786 44.449C123.761 44.526 118.82 39.611 114.04 32.381Z" fill="#E3E3E3"/>
<path d="M22.022 35.728C19.738 39.548 17.662 42.874 15.263 45.554C28.762 48.952 39.267 44.542 39.107 43.635C38.959 42.798 29.529 39.591 22.022 35.728Z" fill="#E3E3E3"/>
<path d="M68.263 68.923C68.263 68.923 68.774 64.032 69.283 59.143C69.43 57.918 69.478 56.703 69.57 55.557C69.651 54.412 69.727 53.344 69.792 52.428C69.922 50.595 70.009 49.372 70.009 49.372L70.01 49.349C70.029 49.089 70.254 48.894 70.513 48.913C70.764 48.93 70.954 49.142 70.951 49.391C70.951 49.391 70.931 50.623 70.899 52.473C70.883 53.399 70.866 54.479 70.846 55.636C70.816 56.791 70.831 58.034 70.75 59.259C70.503 64.169 70.257 69.08 70.257 69.08C70.229 69.632 69.759 70.057 69.207 70.029C68.655 70.002 68.23 69.532 68.259 68.979C68.26 68.962 68.261 68.939 68.263 68.923Z" fill="#451B1B"/>
<path d="M46.09 58.421C48.74 68.501 54.92 77.731 67.3 80.761C68.03 79.631 68.72 74.751 69.26 69.001" stroke="#451B1B" stroke-width="2" stroke-miterlimit="10" stroke-linecap="round" stroke-linejoin="round"/>
<path d="M45.095 39.722C45.095 39.722 45.075 40.901 45.044 42.668C45.036 43.109 45.027 43.589 45.019 44.095C45.047 44.594 45.077 45.12 45.107 45.664C45.138 46.207 45.171 46.768 45.204 47.338C45.248 47.907 45.243 48.485 45.328 49.062C45.489 50.212 45.651 51.363 45.802 52.442C45.881 52.98 45.932 53.504 46.069 53.984C46.184 54.468 46.293 54.925 46.393 55.348C46.792 57.033 47.058 58.157 47.058 58.157L47.082 58.257C47.209 58.794 46.876 59.333 46.339 59.461C45.801 59.588 45.262 59.256 45.135 58.718C45.131 58.701 45.127 58.682 45.124 58.665C45.124 58.665 44.91 57.482 44.589 55.707C44.509 55.265 44.423 54.785 44.331 54.277C44.219 53.773 44.194 53.229 44.143 52.671C44.048 51.555 43.948 50.363 43.847 49.173C43.792 48.579 43.828 47.974 43.815 47.386C43.814 46.797 43.812 46.217 43.811 45.656C43.811 45.096 43.811 44.555 43.812 44.043C43.848 43.537 43.882 43.06 43.914 42.619C44.041 40.855 44.126 39.68 44.126 39.68C44.144 39.413 44.377 39.211 44.644 39.231C44.902 39.249 45.099 39.468 45.095 39.722Z" fill="#451B1B"/>
<path d="M69.27 69.001C69.27 69.001 77.23 54.951 83.3 48.641C84.54 54.571 93.17 67.261 99.8 71.951" stroke="#451B1B" stroke-width="2" stroke-miterlimit="10" stroke-linecap="round" stroke-linejoin="round"/>
<path d="M108.257 75.511C108.257 75.511 108.813 74.537 109.647 73.078C109.851 72.712 110.089 72.318 110.311 71.898C110.5 71.471 110.7 71.022 110.907 70.557C111.115 70.09 111.33 69.609 111.548 69.119C111.759 68.625 112.017 68.141 112.166 67.608C112.511 66.559 112.856 65.511 113.181 64.528C113.262 64.282 113.342 64.04 113.42 63.802C113.474 63.559 113.527 63.32 113.577 63.089C113.677 62.624 113.773 62.186 113.861 61.779C114.215 60.153 114.451 59.069 114.451 59.069L114.462 59.022C114.515 58.778 114.756 58.624 115 58.676C115.235 58.727 115.387 58.953 115.352 59.188C115.352 59.188 115.179 60.306 114.92 61.984C114.855 62.405 114.784 62.861 114.71 63.342C114.672 63.583 114.632 63.831 114.592 64.084C114.527 64.332 114.461 64.585 114.394 64.842C114.123 65.873 113.832 66.974 113.542 68.073C113.422 68.631 113.184 69.159 112.994 69.691C112.794 70.222 112.598 70.745 112.408 71.25C112.217 71.757 112.031 72.247 111.855 72.712C111.655 73.154 111.445 73.555 111.261 73.935C110.518 75.443 110.023 76.448 110.023 76.448C109.779 76.944 109.179 77.147 108.683 76.903C108.188 76.659 107.984 76.059 108.228 75.563C108.236 75.548 108.247 75.527 108.257 75.511Z" fill="#451B1B"/>
<path d="M100.02 71.94C100.281 76.871 100.05 82.34 98.42 86.47C101.62 85.38 105.77 81.65 109.14 75.98" stroke="#451B1B" stroke-width="2" stroke-miterlimit="10" stroke-linecap="round" stroke-linejoin="round"/>
<path d="M98.875 59.606C98.875 59.606 99.077 60.346 99.32 61.494C99.442 62.065 99.601 62.731 99.743 63.448C99.873 64.167 100.012 64.932 100.15 65.699C100.219 66.082 100.289 66.466 100.357 66.844C100.435 67.221 100.464 67.598 100.516 67.96C100.609 68.687 100.696 69.364 100.77 69.946C100.918 71.111 101.018 71.887 101.018 71.887C101.087 72.436 100.7 72.938 100.151 73.007C99.602 73.077 99.1 72.689 99.03 72.14C99.027 72.113 99.024 72.084 99.023 72.056L99.02 71.992C99.02 71.992 98.99 71.23 98.943 70.087C98.92 69.515 98.893 68.846 98.864 68.13C98.844 67.773 98.848 67.401 98.805 67.026C98.77 66.651 98.735 66.27 98.7 65.888C98.629 65.124 98.558 64.361 98.492 63.645C98.414 62.931 98.315 62.27 98.244 61.7C98.106 60.562 97.966 59.796 97.966 59.796C97.92 59.544 98.087 59.302 98.34 59.256C98.578 59.212 98.807 59.36 98.87 59.588L98.875 59.606Z" fill="#451B1B"/>
<path d="M29.994 72.642C29.994 72.642 29.985 72.306 29.97 71.718C29.961 71.423 29.952 71.067 29.941 70.656C29.934 70.244 29.964 69.754 29.977 69.233C30 68.712 29.995 68.139 30.069 67.554C30.128 66.965 30.189 66.345 30.253 65.703C30.356 65.067 30.464 64.41 30.572 63.742C30.665 63.072 30.836 62.407 30.995 61.74C31.168 61.077 31.281 60.399 31.504 59.763C31.705 59.12 31.903 58.489 32.095 57.876C32.269 57.26 32.538 56.698 32.739 56.148C32.953 55.603 33.156 55.087 33.343 54.612C34.217 52.767 34.799 51.537 34.799 51.537C34.918 51.286 35.219 51.179 35.47 51.298C35.714 51.413 35.823 51.7 35.72 51.946L35.705 51.982C35.705 51.982 35.191 53.208 34.422 55.047C34.262 55.519 34.088 56.029 33.904 56.569C33.734 57.112 33.498 57.667 33.357 58.273C33.199 58.873 33.036 59.493 32.871 60.123C32.682 60.746 32.605 61.406 32.469 62.052C32.345 62.699 32.209 63.345 32.151 63.992C32.077 64.636 32.003 65.268 31.931 65.881C31.899 66.496 31.867 67.091 31.838 67.655C31.791 68.22 31.824 68.744 31.823 69.23C31.834 69.718 31.823 70.153 31.848 70.559C31.878 70.968 31.905 71.325 31.926 71.618C31.969 72.205 31.993 72.541 31.993 72.541C32.033 73.092 31.619 73.571 31.068 73.611C30.517 73.652 30.038 73.238 29.998 72.687C29.996 72.675 29.995 72.657 29.994 72.642Z" fill="#451B1B"/>
<path d="M109.14 75.98C109.14 75.98 113.92 73.65 117.51 76.77C117.51 76.77 121.67 79.64 127.42 77.51C124.48 75.07 123.67 71.95 123.54 68.88C123.42 65.82 125.42 59.95 123.42 53.76C125.98 52.7 129.73 47.64 129.86 44.45C123.799 44.569 118.839 39.64 114.04 32.38C107.18 22.01 89.47 7.08998 58.42 13.14C47.8 13.38 32.67 18.38 25.92 29.26C19.17 40.14 15.67 48.38 6.54001 51.51C10.67 57.26 16.92 57.51 17.3 57.38C16.75 64.18 19.42 80.34 34.17 84.32C34.17 84.32 31.92 80.451 31.14 74.041C31.083 73.571 31.034 73.089 30.993 72.593" stroke="#451B1B" stroke-width="2" stroke-miterlimit="10" stroke-linecap="round" stroke-linejoin="round"/>
<path d="M31.14 74.041C31.14 74.041 39.92 70.881 46.09 58.421V58.411" stroke="#451B1B" stroke-width="2" stroke-miterlimit="10" stroke-linecap="round" stroke-linejoin="round"/>
<path d="M61.795 16.261C61.795 16.261 53.17 0.38598 31.795 2.01098C31.795 2.01098 44.045 17.011 61.795 16.261Z" fill="#CCCCCC" stroke="#451B1B" stroke-width="2" stroke-miterlimit="10" stroke-linecap="round" stroke-linejoin="round"/>
<path d="M103.931 122.369C102.167 121.8 100.873 120.712 100.052 119.106C99.226 117.493 99.097 115.813 99.667 114.049C100.233 112.293 101.32 110.996 102.934 110.172C104.538 109.35 106.224 109.224 107.988 109.792C109.746 110.359 111.053 111.452 111.899 113.065C112.752 114.685 112.889 116.376 112.323 118.132C111.755 119.895 110.656 121.181 109.017 121.998C107.387 122.814 105.689 122.934 103.931 122.369ZM109.542 105.237C107.058 104.434 106.019 102.919 106.448 100.569L111.88 72.131C112.845 66.93 116.145 65.009 121.691 66.799C127.488 68.67 129.158 72.194 126.917 76.984L114.695 103.231C113.679 105.39 111.975 106.02 109.542 105.237Z" fill="#DE5766" stroke="#451B1B" stroke-width="1.5" stroke-miterlimit="10" stroke-linecap="round" stroke-linejoin="round"/>
<path d="M23.48 44.317C23.375 43.893 23.275 43.47 23.098 43.046C23.043 42.917 22.94 42.806 22.799 42.748C22.515 42.631 22.192 42.765 22.075 43.046C21.899 43.471 21.8 43.894 21.694 44.317C21.608 44.74 21.521 45.165 21.471 45.588C21.414 46.038 21.379 46.488 21.36 46.938C20.921 46.969 20.483 47.015 20.045 47.075C19.622 47.137 19.198 47.221 18.774 47.31C18.35 47.413 17.926 47.517 17.503 47.682C17.383 47.73 17.28 47.825 17.228 47.953C17.132 48.202 17.255 48.479 17.503 48.576C17.926 48.741 18.35 48.845 18.774 48.948C19.198 49.038 19.622 49.122 20.045 49.182C20.892 49.299 21.739 49.362 22.586 49.374C23.265 49.385 23.821 48.845 23.831 48.168L23.833 48.128C23.846 47.281 23.811 46.434 23.7 45.586C23.653 45.165 23.566 44.74 23.48 44.317Z" fill="#DE5766"/>
<path d="M26.416 49.376C27.264 49.363 28.11 49.301 28.958 49.184C29.381 49.123 29.805 49.039 30.229 48.95C30.652 48.846 31.077 48.743 31.5 48.578C31.747 48.481 31.869 48.204 31.774 47.955C31.721 47.826 31.62 47.731 31.5 47.684C31.077 47.519 30.652 47.415 30.229 47.312C29.805 47.222 29.381 47.138 28.958 47.077C28.519 47.017 28.081 46.972 27.643 46.94C27.623 46.49 27.588 46.04 27.53 45.59C27.481 45.167 27.395 44.742 27.308 44.319C27.204 43.895 27.103 43.472 26.927 43.048C26.81 42.767 26.488 42.633 26.203 42.75C26.062 42.808 25.96 42.919 25.904 43.048C25.728 43.473 25.629 43.896 25.523 44.319C25.437 44.742 25.35 45.167 25.302 45.59C25.191 46.438 25.156 47.285 25.169 48.132L25.17 48.172C25.182 48.847 25.738 49.387 26.416 49.376Z" fill="#DE5766"/>
<path d="M31.499 51.237C31.076 51.073 30.651 50.969 30.228 50.866C29.804 50.776 29.38 50.692 28.957 50.632C28.109 50.515 27.263 50.452 26.415 50.44C25.737 50.429 25.181 50.969 25.17 51.646L25.169 51.686C25.155 52.533 25.19 53.38 25.302 54.227C25.35 54.651 25.437 55.074 25.523 55.499C25.629 55.922 25.728 56.346 25.904 56.77C25.96 56.9 26.062 57.01 26.203 57.069C26.487 57.186 26.809 57.052 26.927 56.77C27.103 56.346 27.203 55.922 27.308 55.499C27.395 55.074 27.481 54.651 27.53 54.227C27.589 53.778 27.624 53.328 27.643 52.877C28.081 52.846 28.52 52.8 28.958 52.74C29.381 52.679 29.805 52.594 30.229 52.504C30.652 52.401 31.077 52.298 31.5 52.133C31.62 52.085 31.722 51.99 31.774 51.861C31.868 51.612 31.746 51.335 31.499 51.237Z" fill="#DE5766"/>
<path d="M22.587 50.439C21.74 50.452 20.893 50.514 20.046 50.631C19.623 50.692 19.199 50.776 18.775 50.865C18.351 50.968 17.927 51.072 17.504 51.236C17.257 51.334 17.134 51.611 17.229 51.86C17.281 51.989 17.383 52.084 17.504 52.132C17.927 52.297 18.351 52.4 18.775 52.503C19.199 52.594 19.623 52.678 20.046 52.739C20.484 52.799 20.922 52.844 21.361 52.876C21.381 53.326 21.416 53.776 21.472 54.226C21.522 54.65 21.609 55.073 21.695 55.498C21.8 55.921 21.9 56.345 22.076 56.769C22.193 57.051 22.515 57.185 22.8 57.068C22.941 57.009 23.044 56.899 23.099 56.769C23.276 56.345 23.375 55.921 23.481 55.498C23.567 55.073 23.654 54.65 23.702 54.226C23.812 53.379 23.848 52.532 23.835 51.685L23.833 51.645C23.822 50.969 23.266 50.429 22.587 50.439Z" fill="#DE5766"/>
<path d="M108.452 43.378C108.331 42.889 108.216 42.401 108.014 41.912C107.95 41.764 107.831 41.635 107.669 41.568C107.343 41.433 106.971 41.588 106.835 41.912C106.632 42.4 106.517 42.889 106.397 43.378C106.296 43.865 106.197 44.355 106.14 44.842C106.074 45.362 106.034 45.88 106.011 46.399C105.505 46.436 104.999 46.489 104.494 46.557C104.007 46.627 103.518 46.725 103.03 46.829C102.54 46.948 102.052 47.067 101.565 47.258C101.426 47.314 101.307 47.423 101.249 47.572C101.138 47.858 101.28 48.178 101.565 48.289C102.052 48.48 102.54 48.599 103.03 48.719C103.518 48.823 104.007 48.919 104.494 48.99C105.472 49.126 106.448 49.197 107.423 49.212C108.206 49.224 108.847 48.602 108.86 47.821L108.861 47.775C108.877 46.798 108.836 45.822 108.709 44.844C108.653 44.354 108.553 43.865 108.452 43.378Z" fill="#DE5766"/>
<path d="M111.837 49.209C112.814 49.194 113.791 49.123 114.769 48.987C115.255 48.917 115.744 48.82 116.233 48.716C116.72 48.596 117.211 48.478 117.697 48.286C117.982 48.176 118.123 47.855 118.013 47.569C117.952 47.421 117.835 47.311 117.697 47.255C117.211 47.065 116.72 46.945 116.233 46.826C115.744 46.722 115.255 46.625 114.769 46.554C114.263 46.486 113.757 46.433 113.252 46.396C113.23 45.877 113.189 45.359 113.121 44.839C113.065 44.352 112.966 43.862 112.866 43.375C112.745 42.886 112.629 42.398 112.426 41.909C112.291 41.585 111.919 41.431 111.592 41.565C111.43 41.631 111.311 41.76 111.247 41.909C111.045 42.397 110.93 42.886 110.808 43.375C110.708 43.862 110.608 44.352 110.552 44.839C110.425 45.817 110.383 46.793 110.4 47.77L110.401 47.816C110.415 48.598 111.057 49.221 111.837 49.209Z" fill="#DE5766"/>
<path d="M117.696 51.354C117.21 51.164 116.719 51.046 116.232 50.925C115.743 50.822 115.254 50.726 114.768 50.655C113.79 50.52 112.813 50.448 111.836 50.433C111.056 50.42 110.414 51.043 110.401 51.823L110.4 51.87C110.383 52.846 110.425 53.823 110.552 54.799C110.608 55.288 110.707 55.776 110.808 56.265C110.929 56.753 111.044 57.241 111.247 57.73C111.311 57.88 111.43 58.007 111.592 58.075C111.919 58.21 112.291 58.055 112.426 57.73C112.628 57.242 112.744 56.753 112.866 56.265C112.966 55.776 113.065 55.288 113.121 54.799C113.188 54.281 113.229 53.763 113.252 53.244C113.757 53.207 114.263 53.154 114.769 53.086C115.255 53.016 115.744 52.918 116.233 52.814C116.72 52.695 117.211 52.576 117.697 52.385C117.836 52.329 117.953 52.22 118.013 52.071C118.122 51.787 117.981 51.467 117.696 51.354Z" fill="#DE5766"/>
<path d="M107.423 50.434C106.448 50.449 105.472 50.521 104.494 50.656C104.007 50.726 103.518 50.823 103.03 50.926C102.54 51.047 102.052 51.165 101.565 51.355C101.28 51.467 101.137 51.788 101.249 52.074C101.308 52.222 101.427 52.332 101.565 52.388C102.052 52.578 102.54 52.697 103.03 52.817C103.518 52.921 104.007 53.018 104.494 53.089C104.999 53.157 105.505 53.21 106.011 53.247C106.033 53.765 106.074 54.284 106.14 54.802C106.197 55.291 106.296 55.779 106.397 56.268C106.517 56.756 106.632 57.244 106.835 57.733C106.971 58.058 107.343 58.212 107.669 58.078C107.831 58.011 107.95 57.884 108.014 57.733C108.216 57.245 108.331 56.756 108.452 56.268C108.553 55.779 108.653 55.291 108.708 54.802C108.835 53.826 108.876 52.85 108.86 51.873L108.859 51.826C108.847 51.045 108.206 50.422 107.423 50.434Z" fill="#DE5766"/>
<path d="M59.29 24.287C59.169 23.798 59.054 23.309 58.851 22.821C58.788 22.673 58.668 22.544 58.506 22.477C58.18 22.342 57.808 22.497 57.672 22.821C57.469 23.309 57.354 23.798 57.234 24.287C57.133 24.774 57.034 25.264 56.977 25.751C56.911 26.271 56.871 26.789 56.848 27.308C56.342 27.345 55.836 27.398 55.331 27.466C54.844 27.536 54.355 27.634 53.867 27.737C53.377 27.856 52.89 27.975 52.402 28.166C52.263 28.222 52.144 28.331 52.086 28.48C51.975 28.766 52.117 29.086 52.402 29.197C52.889 29.388 53.377 29.507 53.867 29.627C54.355 29.731 54.844 29.827 55.331 29.898C56.309 30.034 57.285 30.105 58.26 30.12C59.043 30.132 59.684 29.51 59.696 28.729L59.697 28.683C59.713 27.706 59.672 26.73 59.545 25.752C59.491 25.264 59.391 24.774 59.29 24.287Z" fill="#DE5766"/>
<path d="M62.675 30.118C63.652 30.103 64.629 30.032 65.607 29.896C66.093 29.826 66.582 29.729 67.071 29.625C67.558 29.505 68.049 29.387 68.535 29.195C68.82 29.085 68.961 28.764 68.851 28.478C68.79 28.33 68.673 28.22 68.535 28.164C68.049 27.974 67.558 27.854 67.071 27.735C66.582 27.631 66.093 27.534 65.607 27.464C65.101 27.396 64.595 27.343 64.09 27.306C64.068 26.787 64.026 26.269 63.959 25.749C63.903 25.262 63.804 24.772 63.704 24.285C63.583 23.796 63.467 23.307 63.265 22.819C63.13 22.495 62.758 22.341 62.431 22.475C62.269 22.541 62.15 22.67 62.086 22.819C61.884 23.307 61.769 23.796 61.647 24.285C61.547 24.772 61.447 25.262 61.391 25.749C61.264 26.727 61.222 27.703 61.239 28.68L61.24 28.726C61.253 29.508 61.895 30.13 62.675 30.118Z" fill="#DE5766"/>
<path d="M68.534 32.264C68.048 32.075 67.557 31.956 67.07 31.835C66.581 31.733 66.092 31.636 65.606 31.565C64.629 31.43 63.651 31.358 62.674 31.343C61.894 31.33 61.252 31.953 61.239 32.733L61.238 32.78C61.221 33.757 61.263 34.733 61.39 35.709C61.446 36.198 61.545 36.686 61.646 37.175C61.767 37.663 61.882 38.152 62.085 38.64C62.149 38.79 62.268 38.917 62.43 38.985C62.757 39.12 63.129 38.965 63.264 38.64C63.466 38.152 63.582 37.663 63.703 37.175C63.803 36.686 63.902 36.198 63.958 35.709C64.025 35.191 64.066 34.673 64.089 34.154C64.594 34.117 65.1 34.064 65.606 33.996C66.092 33.926 66.581 33.828 67.07 33.724C67.557 33.605 68.048 33.486 68.534 33.295C68.673 33.239 68.79 33.13 68.85 32.982C68.96 32.696 68.819 32.376 68.534 32.264Z" fill="#DE5766"/>
<path d="M58.261 31.344C57.286 31.359 56.31 31.431 55.332 31.566C54.845 31.636 54.356 31.733 53.868 31.836C53.378 31.957 52.891 32.075 52.403 32.265C52.118 32.377 51.975 32.698 52.087 32.984C52.146 33.132 52.265 33.242 52.403 33.297C52.89 33.487 53.378 33.607 53.868 33.726C54.356 33.83 54.845 33.927 55.332 33.998C55.837 34.066 56.343 34.119 56.849 34.156C56.872 34.675 56.912 35.193 56.978 35.711C57.035 36.2 57.134 36.688 57.235 37.177C57.355 37.665 57.47 38.154 57.673 38.642C57.809 38.967 58.181 39.121 58.507 38.987C58.669 38.92 58.788 38.793 58.852 38.642C59.054 38.154 59.169 37.665 59.291 37.177C59.392 36.688 59.492 36.2 59.547 35.711C59.674 34.735 59.715 33.759 59.699 32.782L59.698 32.735C59.685 31.954 59.044 31.331 58.261 31.344Z" fill="#DE5766"/>
</svg>
