<svg width="138" height="128" viewBox="0 0 138 128" fill="none" xmlns="http://www.w3.org/2000/svg">
<path d="M92.6061 125.211H38.196C38.196 125.211 42.166 114.841 54.186 107.361C54.186 115.291 68.606 118.371 77.756 107.361C81.186 109.581 87.9861 114.991 92.6061 125.211Z" fill="white"/>
<path d="M81.6591 125.211H82.4191C83.1071 120.985 84.413 117.102 85.579 114.228C85.394 114.015 85.208 113.81 85.022 113.606C83.795 116.578 82.3791 120.711 81.6591 125.211Z" fill="#D4D4D4"/>
<path d="M75.6061 106.121C75.6061 106.121 76.426 106.501 77.756 107.361C68.606 118.371 54.186 115.291 54.186 107.361C54.956 106.88 55.7661 106.411 56.6061 105.961V102.711H75.6061V106.121Z" fill="#FFBFB0"/>
<path d="M49.9161 111.671C49.9161 111.671 49.0671 112.411 47.7961 113.52C47.4911 113.803 47.1051 114.085 46.7991 114.429C46.4731 114.765 46.1301 115.119 45.7751 115.485C45.4201 115.853 45.0521 116.233 44.6791 116.618C44.3311 117.035 43.9791 117.458 43.6251 117.882C43.2811 118.313 42.8961 118.714 42.5911 119.162C42.2731 119.603 41.9601 120.036 41.6561 120.454C41.3411 120.867 41.0821 121.293 40.8301 121.694C40.5811 122.096 40.3301 122.469 40.1241 122.827C39.7261 123.548 39.382 124.146 39.186 124.578C38.967 125.01 38.8741 125.241 38.8741 125.241C38.7421 125.569 38.3691 125.728 38.0421 125.596C37.7221 125.467 37.5631 125.106 37.6791 124.784C37.6791 124.784 37.7861 124.488 37.9941 124.033C38.1881 123.559 38.5191 122.924 38.9081 122.152C39.1081 121.77 39.351 121.373 39.595 120.944C39.841 120.516 40.0951 120.061 40.4031 119.621C40.7011 119.173 41.0071 118.71 41.3201 118.24C41.6221 117.76 42.0011 117.329 42.3411 116.867C42.6911 116.412 43.0411 115.957 43.3851 115.509C43.7651 115.083 44.1391 114.664 44.5001 114.258C44.8641 113.853 45.2171 113.462 45.5511 113.09C45.8781 112.7 46.2281 112.427 46.5291 112.125C47.7561 110.966 48.5731 110.192 48.5731 110.192C48.9741 109.813 49.6081 109.83 49.9871 110.231C50.3671 110.632 50.3491 111.266 49.9481 111.645C49.9361 111.652 49.9241 111.663 49.9161 111.671Z" fill="#451B1B"/>
<path d="M81.688 110.337C80.168 109.016 78.805 108.039 77.756 107.361C76.426 106.501 75.6061 106.121 75.6061 106.121V102.711H56.6061V105.961C55.7661 106.411 54.956 106.881 54.186 107.361C52.356 108.5 50.713 109.705 49.243 110.93" stroke="#451B1B" stroke-width="2" stroke-miterlimit="10" stroke-linecap="round" stroke-linejoin="round"/>
<path d="M91.79 125.096C91.79 125.096 91.274 124.086 90.501 122.571C90.29 122.215 90.061 121.828 89.818 121.42C89.57 121.015 89.339 120.574 89.045 120.143C88.753 119.711 88.4511 119.265 88.1451 118.812C87.8511 118.351 87.4971 117.921 87.1631 117.478C86.8201 117.041 86.501 116.586 86.133 116.182C85.778 115.769 85.4271 115.362 85.0881 114.968C84.3651 114.221 83.714 113.504 83.095 112.945C82.5 112.365 81.9791 111.907 81.6091 111.592C81.2431 111.273 81.034 111.091 81.034 111.091L81.0071 111.067C80.5911 110.704 80.548 110.072 80.91 109.655C81.273 109.239 81.9051 109.195 82.3221 109.559C82.3291 109.565 82.3401 109.575 82.3461 109.581C82.3461 109.581 82.558 109.779 82.928 110.124C83.302 110.465 83.829 110.961 84.433 111.589C85.058 112.193 85.718 112.968 86.446 113.775C86.787 114.198 87.1391 114.636 87.4971 115.081C87.8661 115.517 88.185 116.002 88.526 116.47C88.86 116.943 89.212 117.404 89.503 117.894C89.806 118.376 90.1051 118.85 90.3931 119.309C90.6821 119.767 90.9161 120.246 91.1631 120.68C91.4021 121.118 91.628 121.534 91.837 121.916C92.56 123.456 93.0411 124.483 93.0411 124.483C93.2041 124.831 93.0551 125.244 92.7071 125.407C92.3641 125.569 91.96 125.428 91.79 125.096Z" fill="#451B1B"/>
<path d="M54.186 107.361C54.186 115.291 68.606 118.371 77.756 107.361" stroke="#451B1B" stroke-width="2" stroke-miterlimit="10" stroke-linecap="round" stroke-linejoin="round"/>
<path d="M27.7761 79.9778C24.2761 74.7278 20.0471 75.2328 18.1511 78.1028C15.8381 81.6028 17.7761 95.6028 29.6511 95.1648L27.7761 79.9778Z" fill="#FFBFB0" stroke="#451B1B" stroke-width="2" stroke-miterlimit="10" stroke-linecap="round" stroke-linejoin="round"/>
<path d="M98.589 97.4777C82.276 110.374 54.61 110.708 40.526 105.666C26.236 100.55 25.359 92.5417 24.276 81.4587C21.444 71.2917 14.361 48.6247 34.277 30.8747C54.193 13.1247 92.072 17.9147 104.693 38.2087C115.11 54.9587 109.777 73.7917 109.777 73.7917C113.401 73.9787 116.072 77.8357 114.817 84.0407C113.339 91.3527 108.589 96.4777 98.589 97.4777Z" fill="#FFE2DB" stroke="#451B1B" stroke-width="2" stroke-miterlimit="10" stroke-linecap="round" stroke-linejoin="round"/>
<path d="M105.037 92.1167C104.824 93.2447 103.84 94.1587 102.839 94.1587C101.838 94.1587 101.199 93.2447 101.412 92.1167C101.624 90.9897 102.608 90.0757 103.609 90.0757C104.61 90.0757 105.249 90.9897 105.037 92.1167Z" fill="#451B1B"/>
<path d="M109.785 74.7917C109.785 74.7917 109.678 74.7897 109.488 74.7857C109.319 74.7807 109.057 74.7867 108.732 74.8057C108.41 74.8127 108.035 74.8707 107.629 74.9067C107.234 74.9857 106.796 75.0307 106.38 75.1427C105.966 75.2617 105.53 75.3357 105.16 75.4967C104.788 75.6487 104.411 75.7437 104.133 75.9057C103.558 76.2017 103.174 76.3987 103.174 76.3987L103.094 76.4397C102.785 76.5987 102.406 76.4767 102.247 76.1677C102.099 75.8787 102.197 75.5267 102.463 75.3537C102.463 75.3537 102.873 75.0867 103.488 74.6867C103.792 74.4727 104.19 74.3227 104.597 74.1097C105.004 73.8877 105.47 73.7547 105.926 73.5757C106.384 73.4037 106.86 73.3027 107.299 73.1707C107.747 73.0837 108.162 72.9797 108.528 72.9317C108.887 72.8747 109.199 72.8357 109.432 72.8187C109.645 72.8017 109.767 72.7927 109.767 72.7927C110.319 72.7507 110.8 73.1627 110.843 73.7147C110.886 74.2667 110.473 74.7487 109.921 74.7907C109.888 74.7927 109.856 74.7937 109.823 74.7937L109.785 74.7917Z" fill="#451B1B"/>
<path d="M103.287 87.0017C103.443 85.2297 107.054 79.4577 110.609 81.0177C113.276 82.1877 111.629 87.8337 108.188 88.7887C107.839 86.7917 105.964 85.6247 103.287 87.0017Z" fill="#FFBFB0"/>
<path d="M108.973 81.3257L107.991 81.8037C107.809 81.8747 107.72 81.9877 107.585 82.0767L107.21 82.3547C106.954 82.5087 106.725 82.7937 106.482 83.0117C106.231 83.2307 106.024 83.4957 105.817 83.7607C105.597 84.0137 105.402 84.2837 105.234 84.5747C105.049 84.8527 104.877 85.1357 104.748 85.4357L104.533 85.8747L104.387 86.3157C104.341 86.4597 104.271 86.6137 104.272 86.7357C104.256 86.8637 104.236 86.9897 104.212 87.1137L102.722 86.1697L102.726 86.1677C103.317 85.8657 103.949 85.6867 104.593 85.6237C105.237 85.5627 105.9 85.6167 106.537 85.8357C106.854 85.9517 107.163 86.1007 107.447 86.2977C107.728 86.4997 107.986 86.7387 108.193 87.0167C108.288 87.1607 108.402 87.2937 108.468 87.4507C108.537 87.6047 108.631 87.7517 108.671 87.9117C108.786 88.2267 108.837 88.5427 108.879 88.8567C108.928 89.2227 108.671 89.5597 108.305 89.6077C107.968 89.6527 107.655 89.4377 107.571 89.1157L107.55 89.0347C107.494 88.8267 107.442 88.6217 107.351 88.4437C107.321 88.3457 107.249 88.2767 107.205 88.1907C107.163 88.1027 107.084 88.0457 107.028 87.9717C106.774 87.7027 106.439 87.5237 106.057 87.4357C105.29 87.2627 104.378 87.4647 103.71 87.9077L103.708 87.9087L103.469 88.0087C103.002 88.2057 102.464 87.9867 102.268 87.5197C102.192 87.3367 102.178 87.1447 102.218 86.9647L102.371 86.2737C102.417 86.0307 102.512 85.8557 102.591 85.6587L102.84 85.0837L103.145 84.5627C103.336 84.2077 103.569 83.8867 103.812 83.5767C104.038 83.2527 104.293 82.9537 104.573 82.6757C104.84 82.3867 105.106 82.1007 105.424 81.8607C105.741 81.6157 105.996 81.3407 106.377 81.1337L106.912 80.8097C107.089 80.7127 107.274 80.5747 107.439 80.5267L108.456 80.1297C108.792 79.9987 109.17 80.1637 109.301 80.4997C109.423 80.8187 109.275 81.1777 108.973 81.3257Z" fill="#451B1B"/>
<path d="M48.983 69.8617C48.973 69.8507 48.8531 69.8217 48.6101 69.7367C48.3651 69.6627 48.0261 69.5377 47.6071 69.4317C47.1961 69.3107 46.7121 69.1927 46.1931 69.0987C45.9351 69.0387 45.6641 69.0077 45.3891 68.9717C45.1161 68.9187 44.8321 68.9207 44.5511 68.8957C44.2671 68.8927 43.9841 68.8887 43.7041 68.8857C43.4231 68.9047 43.1461 68.9237 42.8791 68.9417C42.6111 68.9797 42.3521 69.0167 42.1061 69.0507C41.8561 69.0767 41.6271 69.1477 41.4111 69.1877C40.9701 69.2507 40.6161 69.3737 40.3611 69.4397C40.1021 69.5007 39.9541 69.5357 39.9541 69.5357L39.9081 69.5467C39.6551 69.6067 39.4021 69.4497 39.3431 69.1977C39.2951 68.9957 39.3861 68.7927 39.5541 68.6897C39.5541 68.6897 39.6931 68.6047 39.9371 68.4547C40.1881 68.3187 40.5361 68.0957 40.9971 67.9067C41.4491 67.6987 42.0081 67.5257 42.6201 67.3717C43.2371 67.2437 43.9121 67.1577 44.5941 67.1627C45.2741 67.1807 45.9591 67.2357 46.5771 67.4097C46.8911 67.4717 47.1771 67.6027 47.4541 67.6917C47.7231 67.8107 47.9751 67.9217 48.1971 68.0487C48.6441 68.2957 48.9821 68.5637 49.2071 68.7637C49.4301 68.9627 49.5561 69.1247 49.5471 69.1137C49.7541 69.2687 49.7961 69.5617 49.6411 69.7687C49.4841 69.9757 49.19 70.0177 48.983 69.8617Z" fill="#451B1B"/>
<path d="M71.452 68.6938C71.443 68.7058 71.552 68.5318 71.753 68.3108C71.954 68.0868 72.263 67.7858 72.681 67.4928C72.889 67.3428 73.128 67.2058 73.383 67.0588C73.65 66.9408 73.919 66.7798 74.225 66.6858C74.822 66.4478 75.498 66.3208 76.171 66.2318C76.849 66.1548 77.529 66.1688 78.156 66.2318C78.781 66.3198 79.354 66.4338 79.826 66.5918C80.304 66.7308 80.674 66.9168 80.937 67.0258C81.195 67.1488 81.342 67.2198 81.342 67.2198C81.576 67.3318 81.675 67.6128 81.564 67.8458C81.474 68.0338 81.2771 68.1338 81.0821 68.1098L81.034 68.1038C81.034 68.1038 80.883 68.0848 80.619 68.0508C80.358 68.0128 79.994 67.9268 79.549 67.9118C79.328 67.8948 79.094 67.8478 78.843 67.8488C78.595 67.8398 78.333 67.8308 78.062 67.8218C77.794 67.8318 77.517 67.8418 77.236 67.8528C76.959 67.8848 76.677 67.9178 76.396 67.9518C76.119 68.0068 75.836 68.0338 75.57 68.1158C75.3 68.1808 75.035 68.2408 74.785 68.3278C74.278 68.4758 73.809 68.6448 73.413 68.8078C73.008 68.9568 72.684 69.1168 72.448 69.2168C72.216 69.3258 72.098 69.3688 72.09 69.3798C71.9 69.5558 71.605 69.5458 71.429 69.3558C71.251 69.1658 71.262 68.8698 71.452 68.6938Z" fill="#451B1B"/>
<path d="M94.7441 75.9057C94.5481 75.1807 92.743 75.0928 91.48 75.0238C90.22 74.9558 88.725 74.4397 85.613 73.8877C80.403 72.9667 72.952 73.4918 68.813 74.4808C66.153 75.1178 64.924 76.3917 64.233 77.8077C59.134 75.7087 53.6281 77.1777 51.6431 77.8497C50.9531 76.4957 49.8 75.3037 47.389 74.7927C43.731 74.0187 37.371 73.8188 33.076 74.8568C30.55 75.4668 29.3471 75.9847 28.3411 76.0877C27.3341 76.1917 25.909 76.3277 25.75 76.9857C25.592 77.6447 25.3881 79.1928 25.6041 79.8438C25.8221 80.4938 26.1411 80.7608 26.8741 81.1308C27.6061 81.5018 28.1891 81.5307 28.4211 83.5457C28.6521 85.5607 28.2921 92.6348 39.2001 93.0648C50.1081 93.4948 52.2591 87.3448 52.5651 82.9388C52.6621 82.4468 52.6231 81.7477 52.5491 81.1027C54.2761 80.5197 59.0311 79.2607 63.4161 81.1027C63.3651 81.7787 63.355 82.5208 63.49 83.0338C64.05 87.4338 66.6591 93.4868 78.7421 93.1388C91.5801 92.7668 91.1201 85.3218 91.4001 83.1598C91.6791 80.9778 92.4031 80.9318 93.3201 80.5058C94.2381 80.0808 94.6401 79.7777 94.9161 79.0567C95.1961 78.3347 94.9421 76.6307 94.7441 75.9057Z" fill="#1A1A1A"/>
<path opacity="0.1" d="M30.764 77.0427C31.453 76.8397 32.313 76.5858 33.428 76.3158C33.791 76.2278 34.1811 76.1507 34.5891 76.0827C35.1481 75.9947 36.0421 76.1657 36.4921 76.9217L44.1951 89.8487C44.5231 90.4037 44.0411 91.1957 43.6641 91.2967C42.6371 91.4877 41.5081 91.5888 40.2621 91.5888C39.9641 91.5888 39.657 91.5817 39.342 91.5707C38.634 91.5507 37.8761 91.0278 37.5701 90.5138L30.4501 78.5648C30.0731 77.9278 30.229 77.1987 30.764 77.0427ZM48.0551 87.9518C48.4051 88.5398 49.1001 88.4488 49.3851 88.0368C49.9261 87.2898 50.3221 86.4087 50.6061 85.4217C50.6391 85.0017 50.4981 84.1958 50.2281 83.7428L46.0391 76.7117L46.0381 76.7107C45.8051 76.3197 45.044 75.9417 44.683 75.8907C43.792 75.7897 42.8411 75.7197 41.8611 75.6817C41.1681 75.6607 41.2671 76.5587 41.5881 77.0977L48.0551 87.9518ZM80.8831 90.0158C80.8831 90.0158 80.882 90.0137 80.881 90.0117L72.6411 76.1817C72.3131 75.6337 71.8121 75.4738 71.4531 75.5078C70.6321 75.6358 69.8461 75.7768 69.1631 75.9398C68.2101 76.1678 67.5311 76.4847 67.0111 76.8347C66.6301 77.1507 66.5971 77.8188 66.8821 78.2978L74.1021 90.4157C74.4371 90.9787 75.353 91.5468 76.066 91.6018C76.612 91.6348 77.1741 91.6567 77.7631 91.6567C78.0691 91.6567 78.3811 91.6518 78.7001 91.6428C79.3101 91.6248 79.8781 91.5877 80.4211 91.5387C80.8211 91.4797 81.4461 90.9598 80.8831 90.0158ZM88.2501 86.1458L82.0391 75.7237C81.7331 75.2127 81.2841 75.0298 80.9401 74.9538C80.4071 74.9328 79.8771 74.9088 79.3151 74.9088C78.8871 74.9088 78.4511 74.9288 78.0171 74.9398C77.4811 75.0178 77.2311 75.5087 77.5381 76.0267L85.285 89.0277C85.639 89.6217 86.5171 89.8757 86.9371 89.5677C87.5641 89.1317 88.0491 88.6517 88.4271 88.1497C88.6161 87.8737 88.6191 86.7678 88.2501 86.1458Z" fill="white"/>
<path d="M56.2351 99.6028C56.2351 99.6028 63.9641 99.8528 69.4011 94.3528" stroke="#451B1B" stroke-miterlimit="10" stroke-linecap="round" stroke-linejoin="round"/>
<path d="M51.9741 115.939C51.9561 115.943 51.7811 115.968 51.4081 116.053C51.0401 116.138 50.5071 116.269 49.8771 116.47C48.6131 116.858 46.9611 117.527 45.4331 118.42C44.6611 118.854 43.9291 119.353 43.2721 119.856C42.9321 120.095 42.6361 120.364 42.3471 120.61C42.0521 120.851 41.7901 121.095 41.5611 121.334C41.0791 121.79 40.7161 122.206 40.4701 122.503C40.2171 122.796 40.0731 122.963 40.0731 122.963L40.0351 123.007C39.7791 123.303 39.3321 123.336 39.0361 123.08C38.7481 122.831 38.7111 122.4 38.9441 122.104C38.9441 122.104 39.0931 121.916 39.3531 121.589C39.6081 121.256 39.9831 120.79 40.4851 120.276C40.7241 120.007 40.9991 119.731 41.3061 119.458C41.6081 119.179 41.9191 118.875 42.2751 118.602C42.9651 118.029 43.7371 117.459 44.5491 116.957C46.1631 115.928 47.9121 115.137 49.2691 114.66C49.9451 114.414 50.5241 114.246 50.9361 114.134C51.3431 114.024 51.6231 113.97 51.6041 113.972C52.1471 113.87 52.6701 114.227 52.7721 114.77C52.8741 115.313 52.5161 115.836 51.9741 115.939Z" fill="#451B1B"/>
<path d="M50.5721 115.424C51.5071 114.479 52.6441 113.102 51.9451 111.912C51.2451 110.721 50.2921 110.283 50.1811 109.838C50.0711 109.393 50.4631 107.559 53.2941 108.02C55.3231 108.35 56.5281 108.951 57.9041 110.708C58.4511 111.129 59.2931 111.067 60.0591 110.629C60.8251 110.191 65.5961 108.137 69.7801 107.924C73.9631 107.711 74.5881 108.57 74.5361 109.727C74.4841 110.881 73.8451 111.391 72.0051 112.37C70.1641 113.347 68.2811 114.326 68.2811 114.326C68.2811 114.326 69.9601 117.075 68.0311 119.059C68.5691 120.983 68.6681 122.174 67.2531 123.684C65.8381 125.194 58.7141 127.37 55.0861 125.266C51.0971 122.953 49.7611 118.946 50.5721 115.424Z" fill="#FFE2DB" stroke="#451B1B" stroke-width="2" stroke-miterlimit="10" stroke-linecap="round" stroke-linejoin="round"/>
<path d="M105.246 75.0867C101.876 80.7567 97.727 84.4867 94.526 85.5767C96.156 81.4467 96.386 75.9767 96.126 71.0467L95.906 71.0577C89.276 66.3667 80.646 53.6767 79.406 47.7467C73.336 54.0577 65.376 68.1067 65.376 68.1067H65.366C64.826 73.8567 64.137 78.7367 63.406 79.8667C51.026 76.8367 44.846 67.6067 42.196 57.5267C36.026 69.9867 27.246 73.1467 27.246 73.1467C28.026 79.5567 30.276 83.4257 30.276 83.4257C15.526 79.4467 12.856 63.2857 13.406 56.4867C13.026 56.6167 6.776 56.3667 2.646 50.6167C11.776 47.4867 15.276 39.2467 22.026 28.3667C28.776 17.4867 43.906 12.4867 54.526 12.2467C85.576 6.19673 103.286 21.1167 110.146 31.4867C114.946 38.7467 119.906 43.6757 125.966 43.5567C125.835 46.7457 122.085 51.8067 119.526 52.8657C121.526 59.0567 119.526 64.9257 119.646 67.9857C119.776 71.0557 120.586 74.1747 123.526 76.6157C117.776 78.7457 113.616 75.8757 113.616 75.8757C110.026 72.7557 105.246 75.0867 105.246 75.0867Z" fill="#CCCCCC"/>
<path d="M40.7371 48.9268C45.3391 54.6158 47.5361 71.5538 63.4061 79.8658C50.7761 76.7418 42.4641 66.9288 40.7371 48.9268Z" fill="#E3E3E3"/>
<path d="M30.08 53.7028C25.3 63.0388 27.187 72.6178 27.187 72.6178L28.287 72.6768C29.875 71.8848 33.088 69.9518 36.487 66.1078C27.258 71.1978 30.08 53.7028 30.08 53.7028Z" fill="#ADADAD"/>
<path d="M104.62 76.1028C104.831 75.7718 105.04 75.4328 105.246 75.0858C105.246 75.0858 110.026 72.7558 113.616 75.8758C113.616 75.8758 117.776 78.7458 123.526 76.6158C120.586 74.1758 119.776 71.0568 119.646 67.9858C119.544 65.3748 120.976 60.7158 120.159 55.5608C116.597 53.9438 111.776 54.7598 110.928 58.8058C109.724 64.5448 107.656 71.3908 104.622 76.0968C104.621 76.0998 104.62 76.1028 104.62 76.1028Z" fill="#ADADAD"/>
<path d="M83.359 31.4508C76.789 31.5168 76.673 37.2838 80.641 37.4508C84.609 37.6178 91.525 31.3678 83.359 31.4508Z" fill="#E3E3E3"/>
<path d="M110.146 31.4868C109.981 31.2378 109.804 30.9838 109.627 30.7288C97.97 35.5448 85.036 38.9688 85.443 40.3808C85.895 41.9498 110.153 51.5058 125.893 43.5548C119.867 43.6318 114.926 38.7168 110.146 31.4868Z" fill="#E3E3E3"/>
<path d="M18.128 34.8348C15.844 38.6548 13.768 41.9808 11.369 44.6608C24.868 48.0578 35.373 43.6488 35.213 42.7418C35.065 41.9038 25.635 38.6968 18.128 34.8348Z" fill="#E3E3E3"/>
<path d="M64.369 68.0288C64.369 68.0288 64.88 63.1378 65.39 58.2478C65.537 57.0238 65.585 55.8078 65.677 54.6628C65.758 53.5178 65.834 52.4498 65.899 51.5338C66.029 49.6998 66.116 48.4778 66.116 48.4778L66.117 48.4538C66.136 48.1948 66.361 47.9988 66.62 48.0178C66.871 48.0358 67.061 48.2468 67.058 48.4948C67.058 48.4948 67.037 49.7278 67.006 51.5768C66.99 52.5028 66.973 53.5828 66.953 54.7398C66.922 55.8958 66.938 57.1388 66.857 58.3628C66.61 63.2738 66.364 68.1848 66.364 68.1848C66.336 68.7368 65.866 69.1618 65.314 69.1338C64.762 69.1058 64.337 68.6368 64.366 68.0848C64.366 68.0678 64.367 68.0458 64.369 68.0288Z" fill="#451B1B"/>
<path d="M42.196 57.5268C44.846 67.6068 51.0261 76.8368 63.4061 79.8668C64.1371 78.7368 64.8261 73.8568 65.3661 68.1068" stroke="#451B1B" stroke-width="2" stroke-miterlimit="10" stroke-linecap="round" stroke-linejoin="round"/>
<path d="M41.201 38.8288C41.201 38.8288 41.18 40.0068 41.15 41.7748C41.142 42.2168 41.133 42.6948 41.125 43.2018C41.153 43.7008 41.183 44.2268 41.213 44.7708C41.244 45.3138 41.277 45.8748 41.31 46.4448C41.354 47.0138 41.349 47.5918 41.434 48.1678C41.595 49.3188 41.757 50.4698 41.908 51.5478C41.987 52.0858 42.038 52.6098 42.175 53.0908C42.29 53.5748 42.399 54.0318 42.499 54.4538C42.898 56.1388 43.164 57.2628 43.164 57.2628L43.188 57.3628C43.315 57.9008 42.982 58.4398 42.445 58.5668C41.907 58.6948 41.368 58.3618 41.241 57.8238C41.237 57.8068 41.233 57.7868 41.23 57.7708C41.23 57.7708 41.015 56.5868 40.695 54.8128C40.615 54.3698 40.529 53.8908 40.437 53.3828C40.325 52.8788 40.3 52.3348 40.249 51.7768C40.154 50.6598 40.054 49.4698 39.953 48.2788C39.898 47.6848 39.934 47.0798 39.921 46.4918C39.92 45.9028 39.918 45.3228 39.917 44.7618C39.917 44.2018 39.917 43.6608 39.918 43.1478C39.954 42.6428 39.988 42.1658 40.02 41.7248C40.147 39.9618 40.232 38.7858 40.232 38.7858C40.25 38.5188 40.483 38.3178 40.75 38.3368C41.008 38.3548 41.205 38.5728 41.201 38.8288Z" fill="#451B1B"/>
<path d="M65.376 68.1068C65.376 68.1068 73.336 54.0568 79.406 47.7468C80.646 53.6768 89.276 66.3668 95.906 71.0578" stroke="#451B1B" stroke-width="2" stroke-miterlimit="10" stroke-linecap="round" stroke-linejoin="round"/>
<path d="M104.363 74.6168C104.363 74.6168 104.919 73.6437 105.753 72.1837C105.957 71.8187 106.195 71.4247 106.417 71.0037C106.607 70.5777 106.806 70.1287 107.013 69.6627C107.221 69.1967 107.436 68.7147 107.654 68.2247C107.865 67.7307 108.123 67.2477 108.271 66.7137C108.617 65.6657 108.962 64.6167 109.287 63.6347C109.368 63.3877 109.448 63.1458 109.526 62.9088C109.58 62.6648 109.632 62.4277 109.683 62.1957C109.783 61.7317 109.879 61.2917 109.967 60.8867C110.321 59.2607 110.557 58.1767 110.557 58.1767L110.568 58.1297C110.621 57.8847 110.862 57.7308 111.106 57.7838C111.341 57.8348 111.493 58.0607 111.458 58.2947C111.458 58.2947 111.285 59.4137 111.026 61.0917C110.961 61.5117 110.89 61.9677 110.816 62.4497C110.778 62.6907 110.738 62.9387 110.698 63.1917C110.633 63.4397 110.567 63.6927 110.5 63.9497C110.229 64.9807 109.938 66.0807 109.648 67.1817C109.528 67.7397 109.29 68.2677 109.1 68.7997C108.9 69.3307 108.704 69.8527 108.514 70.3587C108.323 70.8647 108.137 71.3557 107.961 71.8197C107.761 72.2627 107.551 72.6627 107.367 73.0427C106.624 74.5507 106.129 75.5557 106.129 75.5557C105.885 76.0517 105.285 76.2547 104.789 76.0107C104.294 75.7667 104.09 75.1667 104.334 74.6707C104.342 74.6537 104.353 74.6328 104.363 74.6168Z" fill="#451B1B"/>
<path d="M96.126 71.0468C96.387 75.9778 96.156 81.4468 94.526 85.5768C97.726 84.4868 101.876 80.7568 105.246 75.0868" stroke="#451B1B" stroke-width="2" stroke-miterlimit="10" stroke-linecap="round" stroke-linejoin="round"/>
<path d="M94.981 58.7128C94.981 58.7128 95.183 59.4528 95.426 60.6008C95.548 61.1718 95.707 61.8378 95.849 62.5548C95.979 63.2728 96.118 64.0388 96.256 64.8058C96.325 65.1898 96.395 65.5738 96.463 65.9508C96.541 66.3278 96.57 66.7048 96.622 67.0668C96.715 67.7938 96.802 68.4718 96.876 69.0528C97.024 70.2178 97.124 70.9948 97.124 70.9948C97.193 71.5438 96.806 72.0448 96.257 72.1158C95.708 72.1858 95.206 71.7978 95.136 71.2488C95.133 71.2208 95.13 71.1928 95.129 71.1648L95.126 71.1008C95.126 71.1008 95.096 70.3388 95.049 69.1958C95.026 68.6228 94.999 67.9548 94.97 67.2388C94.951 66.8808 94.954 66.5088 94.91 66.1348C94.875 65.7598 94.84 65.3778 94.805 64.9968C94.734 64.2328 94.663 63.4698 94.597 62.7528C94.519 62.0388 94.42 61.3788 94.349 60.8078C94.211 59.6698 94.071 58.9038 94.071 58.9038C94.025 58.6518 94.192 58.4098 94.445 58.3638C94.683 58.3208 94.912 58.4668 94.975 58.6958L94.981 58.7128Z" fill="#451B1B"/>
<path d="M26.0999 71.7488C26.0999 71.7488 26.0909 71.4118 26.0759 70.8238C26.0669 70.5298 26.0579 70.1728 26.0469 69.7628C26.0399 69.3508 26.07 68.8608 26.083 68.3408C26.106 67.8188 26.1009 67.2468 26.1749 66.6618C26.2339 66.0738 26.295 65.4528 26.359 64.8108C26.463 64.1748 26.5699 63.5188 26.6779 62.8508C26.7709 62.1808 26.942 61.5158 27.101 60.8488C27.274 60.1858 27.3869 59.5078 27.6099 58.8698C27.8109 58.2278 28.0089 57.5958 28.2009 56.9838C28.3749 56.3668 28.6439 55.8058 28.8449 55.2558C29.0589 54.7108 29.2619 54.1948 29.4489 53.7188C30.3229 51.8738 30.905 50.6438 30.905 50.6438C31.024 50.3928 31.3249 50.2848 31.5759 50.4038C31.8199 50.5198 31.9279 50.8058 31.8259 51.0528L31.8109 51.0878C31.8109 51.0878 31.297 52.3148 30.528 54.1538C30.368 54.6248 30.194 55.1348 30.01 55.6748C29.84 56.2188 29.604 56.7738 29.463 57.3798C29.305 57.9798 29.1419 58.5998 28.9769 59.2288C28.7889 59.8528 28.711 60.5128 28.575 61.1578C28.451 61.8058 28.315 62.4508 28.257 63.0988C28.183 63.7418 28.1089 64.3748 28.0369 64.9878C28.0049 65.6028 27.974 66.1978 27.944 66.7618C27.897 67.3278 27.93 67.8498 27.929 68.3368C27.94 68.8248 27.9289 69.2598 27.9539 69.6668C27.9839 70.0758 28.0099 70.4318 28.0319 70.7258C28.0749 71.3128 28.0989 71.6478 28.0989 71.6478C28.1389 72.1988 27.725 72.6778 27.174 72.7188C26.623 72.7598 26.1439 72.3458 26.1039 71.7948C26.1019 71.7808 26.1009 71.7628 26.0999 71.7488Z" fill="#451B1B"/>
<path d="M105.246 75.0868C105.246 75.0868 110.026 72.7568 113.616 75.8768C113.616 75.8768 117.776 78.7468 123.526 76.6168C120.586 74.1768 119.776 71.0578 119.646 67.9868C119.526 64.9258 121.526 59.0568 119.526 52.8668C122.086 51.8078 125.836 46.7468 125.966 43.5578C119.906 43.6768 114.945 38.7468 110.146 31.4878C103.286 21.1178 85.576 6.19777 54.526 12.2478C43.906 12.4878 28.776 17.4878 22.026 28.3678C15.276 39.2478 11.776 47.4878 2.646 50.6178C6.776 56.3678 13.026 56.6178 13.406 56.4878C12.856 63.2878 15.526 79.4478 30.276 83.4268C30.276 83.4268 28.026 79.5578 27.246 73.1478C27.189 72.6778 27.14 72.1958 27.1 71.6998" stroke="#451B1B" stroke-width="2" stroke-miterlimit="10" stroke-linecap="round" stroke-linejoin="round"/>
<path d="M27.246 73.1468C27.246 73.1468 36.026 69.9868 42.196 57.5268V57.5168" stroke="#451B1B" stroke-width="2" stroke-miterlimit="10" stroke-linecap="round" stroke-linejoin="round"/>
<path d="M57.901 15.3668C57.901 15.3668 49.276 -0.508246 27.901 1.11675C27.901 1.11675 40.151 16.1168 57.901 15.3668Z" fill="#CCCCCC" stroke="#451B1B" stroke-width="2" stroke-miterlimit="10" stroke-linecap="round" stroke-linejoin="round"/>
<path d="M58.118 91.7188L58.039 91.6598C58.039 91.6598 57.824 91.5008 57.61 91.3418C57.491 91.2718 57.3731 91.1488 57.2881 91.0398C57.2031 90.9408 57.1451 90.8748 57.1451 90.8748L57.14 90.8688C57.021 90.7338 56.835 90.6638 56.647 90.7038C56.368 90.7608 56.188 91.0338 56.247 91.3128C56.247 91.3128 56.264 91.3968 56.29 91.5248C56.309 91.6488 56.3501 91.8218 56.4391 92.0208C56.5871 92.4048 56.777 92.8108 56.777 92.8108C56.837 92.9398 56.9311 93.0608 57.0541 93.1518C57.4491 93.4448 58.0081 93.3638 58.3011 92.9668C58.5951 92.5728 58.512 92.0138 58.118 91.7188Z" fill="#D17E7E"/>
<path d="M30.148 111.355L28.206 111.607L26.831 110.217C26.831 110.217 26.83 110.217 26.83 110.215C26.071 109.451 25.291 109.691 25.091 110.748V110.75L24.732 112.674L22.984 113.553C22.022 114.036 22.007 114.854 22.953 115.369L22.956 115.371L24.671 116.306L24.969 118.244C25.134 119.305 25.905 119.57 26.687 118.831L28.11 117.486L30.04 117.802H30.042C31.105 117.976 31.593 117.323 31.136 116.355L30.296 114.583L31.192 112.845L31.1941 112.844C31.6851 111.887 31.216 111.217 30.148 111.355Z" fill="#FFBC4A" stroke="#451B1B" stroke-width="1.5" stroke-miterlimit="10" stroke-linecap="round" stroke-linejoin="round"/>
<path d="M8.89511 69.5208L6.95309 69.7728L5.57809 68.3828C5.57809 68.3828 5.57712 68.3828 5.57712 68.3808C4.81812 67.6168 4.0381 67.8568 3.8381 68.9138V68.9158L3.47909 70.8398L1.73111 71.7188C0.769107 72.2018 0.754101 73.0198 1.7001 73.5348L1.70309 73.5368L3.41812 74.4718L3.71609 76.4098C3.88109 77.4708 4.65211 77.7358 5.43411 76.9968L6.85708 75.6518L8.78708 75.9678H8.78909C9.85209 76.1418 10.3401 75.4888 9.88308 74.5208L9.04312 72.7488L9.93911 71.0108L9.94107 71.0098C10.4321 70.0528 9.96211 69.3828 8.89511 69.5208Z" fill="#FFBC4A" stroke="#451B1B" stroke-width="1.5" stroke-miterlimit="10" stroke-linecap="round" stroke-linejoin="round"/>
<path d="M136.669 69.8987L135.606 68.2527L136.269 66.4137L136.27 66.4117C136.632 65.3977 136.082 64.7967 135.041 65.0717H135.04L133.148 65.5757L131.601 64.3767C130.751 63.7157 130.007 64.0547 129.949 65.1297V65.1337L129.842 67.0827L128.221 68.1867C127.334 68.7917 127.426 69.6017 128.43 69.9907L130.256 70.6957L130.801 72.5737L130.802 72.5757C131.103 73.6097 131.902 73.7697 132.579 72.9397L133.817 71.4187L135.772 71.4807L135.774 71.4817C136.85 71.5147 137.253 70.8017 136.669 69.8987Z" fill="#FFBC4A" stroke="#451B1B" stroke-width="1.5" stroke-miterlimit="10" stroke-linecap="round" stroke-linejoin="round"/>
<path d="M107.466 112.362L106.118 111.003L106.384 109.111V109.11C106.529 108.068 105.879 107.605 104.941 108.076C104.939 108.076 104.939 108.077 104.939 108.077L103.232 108.937L101.513 108.101C100.569 107.641 99.925 108.115 100.085 109.154V109.157L100.375 111.043L99.046 112.423C98.321 113.18 98.572 113.936 99.61 114.106L101.497 114.412L102.395 116.099L102.396 116.101C102.89 117.029 103.687 117.021 104.167 116.093L105.047 114.389L106.927 114.055L106.929 114.056C107.964 113.871 108.206 113.108 107.466 112.362Z" fill="#FFBC4A" stroke="#451B1B" stroke-width="1.5" stroke-miterlimit="10" stroke-linecap="round" stroke-linejoin="round"/>
</svg>
