<svg width="126" height="126" viewBox="0 0 126 126" fill="none" xmlns="http://www.w3.org/2000/svg">
<path d="M90.961 125.21H36.551C36.551 125.21 40.521 114.84 52.541 107.36C52.541 115.29 66.961 118.37 76.111 107.36C79.541 109.581 86.341 114.991 90.961 125.21Z" fill="white"/>
<path d="M44.833 125.21H44.071C43.344 121.064 43.276 117.482 43.398 114.933C43.658 114.651 43.923 114.368 44.199 114.082C44.02 116.623 44.003 120.557 44.833 125.21ZM80.013 125.21H80.773C81.462 120.984 82.767 117.101 83.933 114.227C83.748 114.014 83.562 113.809 83.376 113.605C82.15 116.578 80.734 120.71 80.013 125.21Z" fill="#D4D4D4"/>
<path d="M73.961 106.121C73.961 106.121 74.781 106.501 76.111 107.361C66.961 118.371 52.541 115.291 52.541 107.361C53.311 106.881 54.121 106.411 54.961 105.961V102.711H73.961V106.121Z" fill="#FFBFB0"/>
<path d="M48.27 111.67C48.27 111.67 47.422 112.409 46.15 113.52C45.845 113.803 45.459 114.084 45.152 114.429C44.827 114.764 44.484 115.119 44.129 115.485C43.774 115.852 43.406 116.232 43.033 116.619C42.685 117.035 42.332 117.459 41.98 117.883C41.636 118.313 41.251 118.715 40.945 119.163C40.627 119.603 40.314 120.036 40.011 120.455C39.696 120.867 39.437 121.294 39.184 121.694C38.934 122.096 38.684 122.47 38.478 122.828C38.08 123.549 37.735 124.146 37.539 124.578C37.321 125.011 37.228 125.241 37.228 125.241C37.096 125.569 36.724 125.727 36.395 125.595C36.075 125.466 35.917 125.106 36.032 124.784C36.032 124.784 36.138 124.488 36.347 124.032C36.54 123.559 36.872 122.924 37.261 122.151C37.461 121.769 37.704 121.372 37.947 120.943C38.193 120.515 38.447 120.059 38.755 119.619C39.052 119.172 39.36 118.709 39.672 118.238C39.973 117.758 40.353 117.327 40.693 116.865C41.043 116.41 41.393 115.955 41.737 115.507C42.116 115.081 42.49 114.662 42.852 114.256C43.216 113.852 43.569 113.46 43.903 113.089C44.23 112.698 44.579 112.426 44.88 112.123C46.107 110.964 46.924 110.19 46.924 110.19C47.325 109.81 47.958 109.828 48.338 110.229C48.717 110.63 48.7 111.263 48.298 111.643C48.291 111.652 48.279 111.663 48.27 111.67Z" fill="#451B1B"/>
<path d="M80.043 110.337C78.523 109.016 77.16 108.039 76.111 107.36C74.781 106.5 73.961 106.12 73.961 106.12V102.71H54.961V105.96C54.121 106.41 53.311 106.88 52.541 107.36C50.711 108.499 49.068 109.704 47.598 110.929" stroke="#451B1B" stroke-width="2" stroke-miterlimit="10" stroke-linecap="round" stroke-linejoin="round"/>
<path d="M90.144 125.096C90.144 125.096 89.628 124.086 88.855 122.572C88.644 122.215 88.415 121.829 88.173 121.421C87.924 121.016 87.693 120.575 87.399 120.144C87.107 119.712 86.805 119.267 86.499 118.814C86.204 118.352 85.851 117.922 85.516 117.48C85.174 117.044 84.855 116.588 84.487 116.184C84.131 115.771 83.78 115.364 83.442 114.97C82.719 114.223 82.067 113.505 81.449 112.948C80.854 112.368 80.332 111.91 79.962 111.595C79.596 111.277 79.387 111.094 79.387 111.094L79.36 111.07C78.943 110.707 78.901 110.075 79.264 109.659C79.627 109.243 80.259 109.2 80.675 109.562C80.682 109.569 80.692 109.578 80.7 109.584C80.7 109.584 80.911 109.781 81.282 110.127C81.656 110.469 82.183 110.964 82.786 111.592C83.411 112.196 84.071 112.972 84.799 113.778C85.14 114.202 85.492 114.639 85.85 115.084C86.219 115.52 86.538 116.005 86.879 116.473C87.212 116.947 87.565 117.407 87.856 117.897C88.159 118.379 88.457 118.853 88.745 119.312C89.034 119.77 89.268 120.248 89.514 120.683C89.753 121.121 89.98 121.536 90.189 121.919C90.911 123.46 91.393 124.486 91.393 124.486C91.556 124.834 91.407 125.248 91.059 125.411C90.718 125.569 90.314 125.428 90.144 125.096Z" fill="#451B1B"/>
<path d="M52.541 107.361C52.541 115.291 66.961 118.371 76.111 107.361" stroke="#451B1B" stroke-width="2" stroke-miterlimit="10" stroke-linecap="round" stroke-linejoin="round"/>
<path d="M26.13 79.9778C22.63 74.7278 18.402 75.2328 16.505 78.1028C14.192 81.6028 16.13 95.6028 28.005 95.1658L26.13 79.9778Z" fill="#FFBFB0" stroke="#451B1B" stroke-width="2" stroke-miterlimit="10" stroke-linecap="round" stroke-linejoin="round"/>
<path d="M96.943 97.4778C80.63 110.374 52.963 110.708 38.88 105.666C24.59 100.55 23.713 92.5418 22.63 81.4588C19.798 71.2918 12.715 48.6248 32.631 30.8748C52.547 13.1248 90.426 17.9148 103.047 38.2088C113.464 54.9588 108.131 73.7918 108.131 73.7918C111.755 73.9778 114.426 77.8358 113.171 84.0408C111.693 91.3528 106.943 96.4778 96.943 97.4778Z" fill="#FFE2DB"/>
<path d="M99.876 35.6078C84.971 18.9288 51.089 16.0038 32.627 32.4588C20.973 42.8458 18.569 54.9128 19.143 65.1768L21.899 80.4318C22.157 81.3698 22.406 82.2488 22.627 83.0428C22.738 84.1798 22.848 85.2818 22.969 86.3538C25.637 90.5308 29.961 93.3257 38.13 91.5987C45.504 90.0397 49.105 86.4078 53.782 85.9918C58.46 85.5758 62.944 87.4078 68.452 89.3668C73.96 91.3258 82.336 93.1447 89.294 89.9087C95.627 86.9637 97.21 82.7448 99.877 74.4098V35.6078H99.876Z" fill="#BF988D"/>
<path d="M96.943 97.4778C80.63 110.374 52.963 110.708 38.88 105.666C24.59 100.55 23.713 92.5418 22.63 81.4588C19.798 71.2918 12.715 48.6248 32.631 30.8748C52.547 13.1248 90.426 17.9148 103.047 38.2088C113.464 54.9588 108.131 73.7918 108.131 73.7918C111.755 73.9778 114.426 77.8358 113.171 84.0408C111.693 91.3528 106.943 96.4778 96.943 97.4778Z" stroke="#451B1B" stroke-width="2" stroke-miterlimit="10" stroke-linecap="round" stroke-linejoin="round"/>
<path d="M103.391 92.1168C103.178 93.2448 102.194 94.1588 101.193 94.1588C100.192 94.1588 99.553 93.2448 99.766 92.1168C99.978 90.9898 100.962 90.0758 101.963 90.0758C102.964 90.0758 103.603 90.9898 103.391 92.1168Z" fill="#451B1B"/>
<path d="M108.14 74.7908C108.14 74.7908 108.032 74.7887 107.843 74.7837C107.674 74.7787 107.413 74.7858 107.087 74.8038C106.765 74.8118 106.39 74.8688 105.985 74.9058C105.589 74.9838 105.152 75.0287 104.735 75.1417C104.322 75.2597 103.885 75.3338 103.516 75.4938C103.144 75.6458 102.767 75.7408 102.489 75.9028C101.913 76.1988 101.529 76.3957 101.529 76.3957L101.449 76.4368C101.14 76.5958 100.761 76.4748 100.602 76.1648C100.454 75.8768 100.553 75.5238 100.818 75.3508C100.818 75.3508 101.228 75.0838 101.843 74.6838C102.147 74.4688 102.546 74.3198 102.953 74.1068C103.359 73.8848 103.826 73.7517 104.282 73.5727C104.74 73.4007 105.216 73.2998 105.655 73.1688C106.103 73.0808 106.518 72.9768 106.884 72.9298C107.244 72.8728 107.556 72.8338 107.789 72.8178C108.002 72.8008 108.124 72.7918 108.124 72.7918C108.676 72.7488 109.158 73.1618 109.201 73.7138C109.244 74.2658 108.831 74.7468 108.279 74.7898C108.246 74.7928 108.213 74.7937 108.181 74.7927L108.14 74.7908Z" fill="#451B1B"/>
<path d="M101.641 87.0018C101.797 85.2288 105.408 79.4578 108.963 81.0178C111.63 82.1878 109.984 87.8338 106.542 88.7888C106.193 86.7908 104.318 85.6248 101.641 87.0018Z" fill="#FFBFB0"/>
<path d="M107.328 81.3258L106.346 81.8038C106.164 81.8748 106.074 81.9877 105.939 82.0767L105.565 82.3548C105.309 82.5088 105.08 82.7948 104.837 83.0118C104.586 83.2308 104.379 83.4958 104.172 83.7608C103.953 84.0138 103.757 84.2838 103.59 84.5738C103.405 84.8518 103.232 85.1357 103.103 85.4347L102.888 85.8738L102.742 86.3138C102.697 86.4588 102.627 86.6128 102.627 86.7338C102.611 86.8618 102.591 86.9878 102.566 87.1128L101.076 86.1688L101.079 86.1668C101.669 85.8648 102.301 85.6848 102.946 85.6228C103.59 85.5628 104.254 85.6158 104.891 85.8348C105.208 85.9508 105.517 86.0997 105.801 86.2967C106.082 86.4987 106.34 86.7378 106.547 87.0158C106.642 87.1608 106.756 87.2928 106.823 87.4508C106.892 87.6038 106.986 87.7518 107.026 87.9118C107.142 88.2268 107.192 88.5428 107.234 88.8568C107.283 89.2218 107.026 89.5587 106.66 89.6077C106.322 89.6527 106.01 89.4377 105.925 89.1167L105.904 89.0347C105.849 88.8267 105.796 88.6217 105.705 88.4437C105.674 88.3457 105.603 88.2768 105.559 88.1908C105.516 88.1028 105.437 88.0458 105.382 87.9718C105.128 87.7018 104.793 87.5238 104.411 87.4358C103.644 87.2628 102.732 87.4647 102.064 87.9087L102.062 87.9097L101.823 88.0108C101.356 88.2068 100.818 87.9877 100.621 87.5207C100.544 87.3387 100.531 87.1457 100.571 86.9657L100.725 86.2748C100.77 86.0328 100.865 85.8567 100.944 85.6597L101.194 85.0848L101.498 84.5647C101.69 84.2097 101.922 83.8877 102.165 83.5777C102.391 83.2547 102.646 82.9558 102.926 82.6778C103.193 82.3888 103.459 82.1028 103.776 81.8628C104.093 81.6178 104.349 81.3448 104.73 81.1358L105.265 80.8118C105.441 80.7148 105.627 80.5768 105.792 80.5288L106.809 80.1308C107.145 79.9998 107.523 80.1648 107.654 80.5008C107.777 80.8188 107.63 81.1778 107.328 81.3258Z" fill="#451B1B"/>
<path d="M51.162 89.6417L51.074 89.5958C51.074 89.5958 50.838 89.4707 50.602 89.3447C50.474 89.2937 50.338 89.1898 50.239 89.0958C50.139 89.0108 50.072 88.9538 50.072 88.9538L50.066 88.9477C49.928 88.8327 49.734 88.7918 49.553 88.8588C49.286 88.9578 49.15 89.2537 49.249 89.5217C49.249 89.5217 49.278 89.6027 49.324 89.7247C49.361 89.8447 49.428 90.0088 49.546 90.1928C49.751 90.5498 49.999 90.9227 49.999 90.9227C50.078 91.0407 50.189 91.1468 50.324 91.2178C50.759 91.4478 51.3 91.2828 51.53 90.8478C51.762 90.4138 51.596 89.8737 51.162 89.6417Z" fill="#D17E7E"/>
<path d="M64.542 82.6918L84.508 72.6868" stroke="#451B1B" stroke-width="2" stroke-miterlimit="10" stroke-linecap="round" stroke-linejoin="round"/>
<path d="M67.609 81.1548C68.574 84.6468 71.428 87.1788 74.8 87.1788C78.966 87.1788 82.343 83.3178 82.343 78.5538C82.343 76.9938 81.976 75.5358 81.343 74.2728L67.609 81.1548Z" fill="white" stroke="#451B1B" stroke-width="2" stroke-miterlimit="10" stroke-linecap="round" stroke-linejoin="round"/>
<path d="M30.008 74.0048L43.487 82.6918" stroke="#451B1B" stroke-width="2" stroke-miterlimit="10" stroke-linecap="round" stroke-linejoin="round"/>
<path d="M32.699 75.7398C31.626 76.8858 30.849 78.4688 30.617 80.2528C30.118 84.1148 32.309 87.5138 35.605 87.5128C38.545 87.5138 41.034 84.8228 41.609 81.4828L32.699 75.7398Z" fill="white" stroke="#451B1B" stroke-width="2" stroke-miterlimit="10" stroke-linecap="round" stroke-linejoin="round"/>
<path d="M38.424 70.5727C38.132 70.8097 44.903 75.9918 45.372 75.3038C45.841 74.6158 45.499 72.9138 43.934 71.7648C42.586 70.7738 38.924 70.1657 38.424 70.5727Z" fill="#451B1B"/>
<path d="M68.846 70.5727C69.138 70.8097 62.366 75.9918 61.898 75.3038C61.429 74.6158 61.771 72.9138 63.336 71.7648C64.685 70.7738 68.346 70.1657 68.846 70.5727Z" fill="#451B1B"/>
<path d="M66.841 94.7958C66.631 98.4858 64.131 102.046 60.261 103.177C57.511 103.977 55.161 103.836 53.271 103.307V103.296C54.76 99.4868 61.19 95.3068 66.841 94.7958Z" fill="#DE5766"/>
<path d="M66.841 94.7958C61.191 95.3068 54.761 99.4858 53.271 103.296V103.307C49.582 102.256 47.601 99.6968 47.601 99.6968C51.291 98.3368 60.801 94.5768 65.822 90.1968C66.621 91.6368 66.94 93.2268 66.841 94.7958Z" fill="#8A1926"/>
<path d="M46.071 100.237C46.071 100.237 46.64 100.047 47.6 99.6968C51.29 98.3368 60.8 94.5768 65.821 90.1968C66.621 91.6368 66.94 93.2268 66.841 94.7968C66.631 98.4868 64.131 102.047 60.261 103.178C57.511 103.978 55.161 103.837 53.271 103.308C49.582 102.257 47.601 99.6978 47.601 99.6978" stroke="#451B1B" stroke-miterlimit="10" stroke-linecap="round" stroke-linejoin="round"/>
<path d="M53.27 103.296C54.76 99.4858 61.19 95.3068 66.84 94.7958C66.85 94.7958 66.85 94.7958 66.861 94.7958" stroke="#451B1B" stroke-miterlimit="10" stroke-linecap="round" stroke-linejoin="round"/>
<path d="M103.6 75.0857C100.23 80.7557 96.08 84.4858 92.88 85.5758C94.51 81.4458 94.74 75.9758 94.48 71.0458L94.26 71.0568C87.63 66.3668 79 53.6758 77.76 47.7468C71.69 54.0578 63.73 68.1068 63.73 68.1068H63.72C63.18 73.8568 62.491 78.7368 61.76 79.8668C49.38 76.8368 43.2 67.6068 40.55 57.5268C34.38 69.9868 25.6 73.1468 25.6 73.1468C26.38 79.5568 28.63 83.4258 28.63 83.4258C13.88 79.4468 11.21 63.2858 11.76 56.4868C11.38 56.6168 5.13 56.3668 1 50.6168C10.13 47.4868 13.63 39.2468 20.38 28.3668C27.13 17.4868 42.26 12.4868 52.88 12.2468C83.93 6.19676 101.64 21.1168 108.5 31.4868C113.3 38.7468 118.26 43.6758 124.32 43.5568C124.189 46.7458 120.439 51.8068 117.88 52.8668C119.88 59.0568 117.88 64.9268 118 67.9868C118.13 71.0568 118.939 74.1758 121.88 76.6168C116.13 78.7468 111.97 75.8768 111.97 75.8768C108.38 72.7558 103.6 75.0857 103.6 75.0857Z" fill="#CCCCCC"/>
<path d="M39.091 48.9268C43.693 54.6158 45.89 71.5538 61.76 79.8658C49.13 76.7418 40.818 66.9288 39.091 48.9268Z" fill="#E3E3E3"/>
<path d="M28.434 53.7028C23.654 63.0388 25.541 72.6178 25.541 72.6178L26.641 72.6768C28.229 71.8848 31.442 69.9518 34.841 66.1078C25.613 71.1978 28.434 53.7028 28.434 53.7028Z" fill="#ADADAD"/>
<path d="M102.974 76.1028C103.185 75.7718 103.394 75.4328 103.6 75.0858C103.6 75.0858 108.38 72.7558 111.97 75.8758C111.97 75.8758 116.13 78.7458 121.88 76.6158C118.94 74.1758 118.13 71.0558 118 67.9858C117.897 65.3748 119.33 60.7158 118.513 55.5608C114.952 53.9438 110.13 54.7598 109.282 58.8058C108.078 64.5448 106.01 71.3908 102.976 76.0968C102.975 76.0998 102.974 76.1028 102.974 76.1028Z" fill="#ADADAD"/>
<path d="M81.713 31.4508C75.143 31.5168 75.028 37.2838 78.995 37.4508C82.963 37.6178 89.88 31.3678 81.713 31.4508Z" fill="#E3E3E3"/>
<path d="M108.501 31.4868C108.336 31.2378 108.159 30.9838 107.981 30.7288C96.324 35.5448 83.39 38.9688 83.797 40.3808C84.249 41.9498 108.507 51.5058 124.247 43.5548C118.221 43.6318 113.281 38.7168 108.501 31.4868Z" fill="#E3E3E3"/>
<path d="M16.483 34.8348C14.199 38.6548 12.123 41.9798 9.724 44.6608C23.223 48.0578 33.728 43.6488 33.568 42.7418C33.42 41.9038 23.99 38.6968 16.483 34.8348Z" fill="#E3E3E3"/>
<path d="M62.723 68.0288C62.723 68.0288 63.233 63.1378 63.744 58.2478C63.891 57.0238 63.94 55.8078 64.032 54.6628C64.113 53.5178 64.188 52.4498 64.253 51.5338C64.383 49.7008 64.469 48.4778 64.469 48.4778L64.471 48.4538C64.489 48.1948 64.714 47.9988 64.974 48.0178C65.224 48.0358 65.415 48.2468 65.412 48.4948C65.412 48.4948 65.391 49.7278 65.36 51.5768C65.344 52.5028 65.326 53.5828 65.306 54.7398C65.276 55.8958 65.292 57.1388 65.211 58.3628C64.964 63.2738 64.718 68.1848 64.718 68.1848C64.69 68.7368 64.221 69.1618 63.669 69.1338C63.117 69.1068 62.692 68.6368 62.72 68.0838C62.72 68.0678 62.722 68.0448 62.723 68.0288Z" fill="#451B1B"/>
<path d="M40.55 57.5268C43.2 67.6068 49.38 76.8368 61.76 79.8668C62.49 78.7368 63.18 73.8568 63.72 68.1068" stroke="#451B1B" stroke-width="2" stroke-miterlimit="10" stroke-linecap="round" stroke-linejoin="round"/>
<path d="M39.556 38.8288C39.556 38.8288 39.535 40.0068 39.505 41.7748C39.497 42.2168 39.489 42.6948 39.48 43.2018C39.508 43.7008 39.537 44.2268 39.567 44.7708C39.598 45.3138 39.63 45.8748 39.663 46.4448C39.707 47.0138 39.703 47.5918 39.788 48.1678C39.95 49.3188 40.111 50.4698 40.262 51.5478C40.341 52.0858 40.391 52.6098 40.528 53.0898C40.643 53.5738 40.752 54.0308 40.852 54.4528C41.251 56.1378 41.517 57.2618 41.517 57.2618L41.54 57.3618C41.667 57.8998 41.335 58.4388 40.797 58.5658C40.259 58.6938 39.72 58.3608 39.593 57.8228C39.589 57.8058 39.585 57.7858 39.582 57.7698C39.582 57.7698 39.368 56.5858 39.047 54.8108C38.967 54.3688 38.881 53.8888 38.79 53.3808C38.678 52.8768 38.653 52.3328 38.602 51.7748C38.508 50.6578 38.407 49.4678 38.306 48.2768C38.252 47.6828 38.287 47.0778 38.274 46.4898C38.273 45.9008 38.271 45.3208 38.27 44.7598C38.271 44.1998 38.271 43.6588 38.271 43.1458C38.308 42.6408 38.342 42.1638 38.374 41.7228C38.501 39.9598 38.586 38.7838 38.586 38.7838C38.606 38.5168 38.838 38.3158 39.105 38.3348C39.363 38.3548 39.56 38.5728 39.556 38.8288Z" fill="#451B1B"/>
<path d="M63.73 68.1068C63.73 68.1068 71.69 54.0568 77.76 47.7468C79 53.6768 87.63 66.3668 94.26 71.0568" stroke="#451B1B" stroke-width="2" stroke-miterlimit="10" stroke-linecap="round" stroke-linejoin="round"/>
<path d="M102.717 74.6168C102.717 74.6168 103.273 73.6428 104.106 72.1838C104.311 71.8178 104.548 71.4238 104.771 71.0038C104.96 70.5768 105.16 70.1278 105.367 69.6628C105.575 69.1958 105.789 68.7148 106.008 68.2248C106.218 67.7308 106.477 67.2478 106.625 66.7138C106.971 65.6648 107.316 64.6168 107.64 63.6338C107.722 63.3868 107.802 63.1448 107.88 62.9078C107.934 62.6648 107.986 62.4258 108.037 62.1948C108.138 61.7308 108.233 61.2908 108.321 60.8858C108.675 59.2598 108.911 58.1758 108.911 58.1758L108.921 58.1288C108.974 57.8838 109.215 57.7298 109.46 57.7828C109.694 57.8338 109.846 58.0598 109.811 58.2938C109.811 58.2938 109.639 59.4128 109.38 61.0908C109.315 61.5108 109.244 61.9678 109.17 62.4488C109.131 62.6898 109.092 62.9378 109.052 63.1908C108.987 63.4378 108.921 63.6908 108.853 63.9488C108.582 64.9798 108.292 66.0798 108.002 67.1798C107.882 67.7378 107.644 68.2658 107.454 68.7978C107.255 69.3288 107.058 69.8518 106.868 70.3568C106.677 70.8638 106.492 71.3538 106.316 71.8188C106.115 72.2608 105.905 72.6618 105.722 73.0418C104.979 74.5498 104.483 75.5548 104.483 75.5548C104.239 76.0508 103.639 76.2538 103.143 76.0098C102.647 75.7658 102.444 75.1658 102.688 74.6698C102.697 74.6538 102.708 74.6328 102.717 74.6168Z" fill="#451B1B"/>
<path d="M94.48 71.0458C94.741 75.9768 94.51 81.4458 92.88 85.5758C96.08 84.4858 100.23 80.7558 103.6 75.0858" stroke="#451B1B" stroke-width="2" stroke-miterlimit="10" stroke-linecap="round" stroke-linejoin="round"/>
<path d="M93.335 58.7118C93.335 58.7118 93.538 59.4518 93.781 60.5998C93.904 61.1708 94.062 61.8368 94.204 62.5538C94.334 63.2718 94.473 64.0378 94.612 64.8048C94.681 65.1888 94.751 65.5718 94.819 65.9498C94.897 66.3268 94.925 66.7038 94.978 67.0658C95.071 67.7928 95.158 68.4698 95.232 69.0518C95.38 70.2168 95.48 70.9928 95.48 70.9928C95.55 71.5418 95.162 72.0438 94.613 72.1128C94.064 72.1828 93.563 71.7948 93.493 71.2458C93.489 71.2188 93.487 71.1898 93.486 71.1618L93.484 71.0987C93.484 71.0987 93.453 70.3368 93.406 69.1938C93.383 68.6218 93.356 67.9528 93.327 67.2368C93.307 66.8798 93.311 66.5068 93.267 66.1318C93.232 65.7568 93.197 65.3758 93.162 64.9938C93.091 64.2298 93.02 63.4668 92.954 62.7498C92.876 62.0358 92.778 61.3758 92.707 60.8048C92.568 59.6668 92.429 58.9008 92.429 58.9008C92.383 58.6478 92.55 58.4068 92.803 58.3608C93.041 58.3178 93.27 58.4638 93.334 58.6928L93.335 58.7118Z" fill="#451B1B"/>
<path d="M24.455 71.7488C24.455 71.7488 24.446 71.4128 24.43 70.8248C24.422 70.5298 24.412 70.1738 24.401 69.7638C24.394 69.3518 24.424 68.8618 24.437 68.3408C24.461 67.8198 24.455 67.2468 24.529 66.6618C24.587 66.0728 24.649 65.4528 24.712 64.8118C24.816 64.1758 24.923 63.5188 25.032 62.8518C25.125 62.1818 25.296 61.5168 25.455 60.8498C25.627 60.1868 25.741 59.5088 25.964 58.8708C26.165 58.2288 26.363 57.5968 26.554 56.9848C26.728 56.3678 26.997 55.8068 27.198 55.2558C27.412 54.7108 27.614 54.1948 27.801 53.7188C28.675 51.8738 29.257 50.6438 29.257 50.6438C29.376 50.3928 29.677 50.2848 29.928 50.4038C30.172 50.5198 30.281 50.8058 30.178 51.0528L30.163 51.0878C30.163 51.0878 29.65 52.3148 28.88 54.1538C28.72 54.6248 28.547 55.1348 28.363 55.6748C28.193 56.2188 27.956 56.7738 27.816 57.3798C27.658 57.9798 27.495 58.5998 27.329 59.2288C27.141 59.8528 27.064 60.5128 26.927 61.1578C26.804 61.8058 26.668 62.4518 26.61 63.0988C26.535 63.7418 26.461 64.3748 26.39 64.9878C26.358 65.6028 26.326 66.1978 26.297 66.7618C26.251 67.3268 26.284 67.8508 26.283 68.3368C26.294 68.8248 26.282 69.2598 26.308 69.6658C26.338 70.0748 26.364 70.4318 26.386 70.7248C26.429 71.3118 26.453 71.6478 26.453 71.6478C26.493 72.1988 26.08 72.6778 25.529 72.7178C24.978 72.7588 24.499 72.3448 24.458 71.7938C24.456 71.7808 24.455 71.7628 24.455 71.7488Z" fill="#451B1B"/>
<path d="M103.6 75.0857C103.6 75.0857 108.38 72.7558 111.97 75.8758C111.97 75.8758 116.13 78.7457 121.88 76.6157C118.94 74.1757 118.13 71.0558 118 67.9858C117.88 64.9248 119.88 59.0558 117.88 52.8658C120.44 51.8058 124.19 46.7458 124.32 43.5558C118.26 43.6748 113.3 38.7448 108.5 31.4858C101.64 21.1158 83.93 6.19577 52.88 12.2458C42.26 12.4858 27.13 17.4858 20.38 28.3658C13.63 39.2458 10.13 47.4858 1 50.6158C5.13 56.3658 11.38 56.6158 11.76 56.4858C11.21 63.2858 13.88 79.4458 28.63 83.4248C28.63 83.4248 26.38 79.5557 25.6 73.1457C25.543 72.6757 25.494 72.1938 25.454 71.6978" stroke="#451B1B" stroke-width="2" stroke-miterlimit="10" stroke-linecap="round" stroke-linejoin="round"/>
<path d="M25.6 73.1468C25.6 73.1468 34.38 69.9868 40.55 57.5268V57.5168" stroke="#451B1B" stroke-width="2" stroke-miterlimit="10" stroke-linecap="round" stroke-linejoin="round"/>
<path d="M56.255 15.3668C56.255 15.3668 47.63 -0.508246 26.255 1.11675C26.255 1.11675 38.505 16.1168 56.255 15.3668Z" fill="#CCCCCC" stroke="#451B1B" stroke-width="2" stroke-miterlimit="10" stroke-linecap="round" stroke-linejoin="round"/>
<path d="M94.289 48.8578C91.597 50.6118 87.401 48.9458 84.914 45.1338C82.429 41.3228 82.594 36.8098 85.284 35.0548C87.976 33.2998 92.171 34.3118 100.005 26.8418C101.913 40.8198 96.979 47.1008 94.289 48.8578Z" fill="#DE5766" stroke="#451B1B" stroke-width="2" stroke-miterlimit="10" stroke-linecap="round" stroke-linejoin="round"/>
<path d="M15.198 48.8548C17.899 50.5958 22.087 48.9098 24.555 45.0858C27.022 41.2628 26.835 36.7508 24.136 35.0088C21.435 33.2678 17.245 34.2988 9.37599 26.8658C7.53599 40.8538 12.499 47.1118 15.198 48.8548Z" fill="#DE5766" stroke="#451B1B" stroke-width="2" stroke-miterlimit="10" stroke-linecap="round" stroke-linejoin="round"/>
</svg>
