<svg width="132" height="126" viewBox="0 0 132 126" fill="none" xmlns="http://www.w3.org/2000/svg">
<path d="M4.93421 9.97876C4.86521 11.0618 4.81321 12.1468 4.51421 13.1978C4.11121 14.6148 3.35821 15.9068 3.06121 17.3568C2.76621 18.7928 2.77421 20.4018 3.11221 21.8278C3.48121 23.3818 4.28521 24.7768 4.58321 26.3608C5.06221 28.9108 4.67521 31.5728 3.68121 33.9448C3.13621 35.2438 2.66121 36.9938 2.69721 38.2078C2.77321 39.7888 3.00222 41.0708 3.58222 42.5728C4.16822 44.0908 4.51321 45.4968 4.59221 47.1088C4.65521 48.3848 4.53321 49.6828 4.21921 50.9228C3.87521 52.1178 3.31521 53.2308 2.92521 54.4088C2.63321 55.2958 2.64722 56.2198 2.53922 57.1378C2.58822 59.8608 3.86721 62.1148 4.34421 64.7428C4.54421 65.8658 4.44021 67.0368 4.36521 68.1668C4.23621 70.1448 3.03421 71.7928 2.66021 73.6928C2.35121 74.9978 2.39121 76.3088 2.45521 77.6388C2.74021 80.0298 4.09522 82.0768 4.26222 84.5198C4.35322 85.8558 4.28321 87.2838 3.94021 88.5828C3.58821 89.9098 2.87922 91.1088 2.54022 92.4388C2.21022 93.7358 2.18521 95.1108 2.29221 96.4388C2.42021 98.0128 3.16821 99.3708 3.62721 100.852C3.97321 101.968 4.07521 103.062 4.13221 104.221C4.14821 104.544 4.16821 104.866 3.88421 105.097C3.44621 105.449 2.77321 105.152 2.73821 104.593C2.55921 103.955 2.67721 103.2 2.55221 102.54C2.28821 101.145 1.58321 99.9308 1.18521 98.5828C0.234212 96.0448 0.552211 92.8568 1.52021 90.3868C2.51821 87.8418 2.97221 85.1758 2.11321 82.4948C1.72221 81.2808 1.09721 80.1648 0.811211 78.9138C0.620211 77.8778 0.473208 76.8328 0.511208 75.7758C0.540208 74.9628 0.615212 74.1978 0.755212 73.3968C1.02421 71.8538 1.92321 70.5018 2.19821 68.9638C2.53421 67.1018 2.52621 65.2048 1.88121 63.3978C1.31621 61.8158 0.599213 60.3938 0.433213 58.6978C0.316213 57.4988 0.28421 56.2238 0.49421 55.0328C0.72521 53.7168 1.21121 52.5498 1.66821 51.2948C2.10021 50.1068 2.21121 48.9228 2.25821 47.6718C2.36121 44.9858 0.43621 42.1818 0.24321 39.3298C0.16221 38.1338 0.185213 36.9788 0.392213 35.7868C0.602213 34.5838 1.08321 33.4978 1.50521 32.3608C1.91921 31.2428 2.03421 30.1488 2.08921 28.9658C2.46221 26.5478 0.763211 24.3658 0.312211 22.1018C-0.00278926 20.5138 -0.14579 18.6138 0.20321 17.0168C0.40421 15.7678 0.867208 14.6258 1.33021 13.4558C1.80021 12.3868 1.87522 11.2288 1.92922 10.0808C1.96722 9.26676 2.34221 8.50477 3.24021 8.38377C4.16721 8.25977 4.99621 9.04376 4.93421 9.97876Z" fill="#735785"/>
<path d="M9.80321 9.97876C9.73721 11.0608 9.6822 12.1468 9.3832 13.1978C8.9812 14.6148 8.22721 15.9068 7.93021 17.3568C7.63621 18.7928 7.6432 20.4018 7.9832 21.8278C8.3522 23.3808 9.1532 24.7778 9.4522 26.3608C9.9312 28.9098 9.5452 31.5728 8.5512 33.9448C8.0032 35.2518 7.54221 36.9888 7.56821 38.2078C7.63821 39.7888 7.8732 41.0728 8.4522 42.5728C9.0392 44.0908 9.38321 45.4958 9.46321 47.1088C9.52621 48.3838 9.40521 49.6848 9.08821 50.9228C8.74521 52.1178 8.18421 53.2318 7.79421 54.4088C7.50221 55.2958 7.5162 56.2198 7.4102 57.1378C7.4572 59.8608 8.73821 62.1148 9.21521 64.7428C9.41221 65.8678 9.31121 67.0358 9.23621 68.1668C9.10521 70.1448 7.90421 71.7928 7.53021 73.6928C7.22121 74.9978 7.26121 76.3098 7.32521 77.6388C7.61021 80.0298 8.96321 82.0768 9.13121 84.5198C9.22321 85.8578 9.15221 87.2808 8.81021 88.5828C8.46121 89.9108 7.7482 91.1088 7.4112 92.4388C7.0812 93.7378 7.0562 95.1098 7.1632 96.4388C7.2912 98.0118 8.0372 99.3718 8.4972 100.852C8.8432 101.967 8.94821 103.062 9.00121 104.221C9.01721 104.544 9.03721 104.866 8.75321 105.097C8.31621 105.449 7.6442 105.152 7.6072 104.593C7.4282 103.955 7.54521 103.2 7.42021 102.54C7.15621 101.145 6.45321 99.9298 6.05321 98.5828C5.10221 96.0448 5.42121 92.8568 6.38921 90.3868C7.38621 87.8398 7.8392 85.1778 6.9812 82.4948C6.5922 81.2808 5.96621 80.1648 5.68021 78.9138C5.49021 77.8768 5.34121 76.8338 5.38121 75.7758C5.41121 74.9628 5.48421 74.1978 5.62321 73.3968C5.89421 71.8548 6.79121 70.5018 7.06821 68.9638C7.40221 67.1018 7.39621 65.2048 6.75021 63.3978C6.18421 61.8158 5.4682 60.3938 5.3012 58.6978C5.1842 57.4988 5.15521 56.2248 5.36221 55.0328C5.59121 53.7168 6.0792 52.5488 6.5372 51.2948C6.9732 50.1008 7.06321 48.9258 7.12821 47.6718C7.26321 44.9898 5.30021 42.1768 5.11221 39.3298C5.03421 38.1318 5.05521 36.9808 5.26221 35.7868C5.47121 34.5838 5.95021 33.4978 6.37321 32.3608C6.78921 31.2438 6.90221 30.1478 6.95821 28.9658C7.33121 26.5488 5.63221 24.3648 5.18021 22.1018C4.86521 20.5178 4.72121 18.6088 5.07321 17.0168C5.27121 15.7668 5.73721 14.6248 6.19921 13.4558C6.66621 12.3858 6.7452 11.2298 6.7992 10.0808C6.8372 9.26676 7.21021 8.50377 8.11021 8.38377C9.03621 8.25977 9.86821 9.04376 9.80321 9.97876Z" fill="#735785"/>
<path d="M14.6742 9.97876C14.6052 11.0618 14.5532 12.1468 14.2542 13.1978C13.8512 14.6148 13.0982 15.9068 12.8012 17.3568C12.5062 18.7928 12.5142 20.4018 12.8522 21.8278C13.2212 23.3818 14.0252 24.7768 14.3232 26.3608C14.8022 28.9108 14.4152 31.5728 13.4212 33.9448C12.8762 35.2438 12.4012 36.9938 12.4372 38.2078C12.5132 39.7888 12.7422 41.0708 13.3222 42.5728C13.9082 44.0908 14.2532 45.4968 14.3322 47.1088C14.3952 48.3848 14.2732 49.6828 13.9592 50.9228C13.6152 52.1178 13.0552 53.2308 12.6652 54.4088C12.3732 55.2958 12.3872 56.2198 12.2792 57.1378C12.3282 59.8608 13.6072 62.1148 14.0842 64.7428C14.2842 65.8658 14.1802 67.0368 14.1052 68.1668C13.9762 70.1448 12.7742 71.7928 12.4002 73.6928C12.0912 74.9978 12.1312 76.3088 12.1952 77.6388C12.4802 80.0298 13.8352 82.0768 14.0022 84.5198C14.0932 85.8558 14.0232 87.2838 13.6802 88.5828C13.3282 89.9098 12.6192 91.1088 12.2802 92.4388C11.9502 93.7358 11.9252 95.1108 12.0322 96.4388C12.1602 98.0128 12.9082 99.3708 13.3672 100.852C13.7132 101.968 13.8152 103.062 13.8722 104.221C13.8882 104.544 13.9082 104.866 13.6242 105.097C13.1862 105.449 12.5132 105.152 12.4782 104.593C12.2992 103.955 12.4172 103.2 12.2922 102.54C12.0282 101.145 11.3232 99.9308 10.9252 98.5828C9.97421 96.0448 10.2922 92.8568 11.2602 90.3868C12.2582 87.8418 12.7122 85.1758 11.8532 82.4948C11.4622 81.2808 10.8372 80.1648 10.5512 78.9138C10.3602 77.8778 10.2132 76.8328 10.2512 75.7758C10.2802 74.9628 10.3552 74.1978 10.4952 73.3968C10.7642 71.8538 11.6632 70.5018 11.9382 68.9638C12.2742 67.1018 12.2662 65.2048 11.6212 63.3978C11.0562 61.8158 10.3392 60.3938 10.1732 58.6978C10.0562 57.4988 10.0242 56.2238 10.2342 55.0328C10.4652 53.7168 10.9512 52.5498 11.4082 51.2948C11.8402 50.1068 11.9512 48.9228 11.9982 47.6718C12.1012 44.9858 10.1762 42.1818 9.98321 39.3298C9.90221 38.1338 9.92521 36.9788 10.1322 35.7868C10.3422 34.5838 10.8232 33.4978 11.2452 32.3608C11.6592 31.2428 11.7742 30.1488 11.8292 28.9658C12.2022 26.5478 10.5032 24.3658 10.0522 22.1018C9.73721 20.5138 9.59422 18.6138 9.94322 17.0168C10.1442 15.7678 10.6072 14.6258 11.0702 13.4558C11.5402 12.3868 11.6152 11.2288 11.6692 10.0808C11.7072 9.26676 12.0822 8.50477 12.9802 8.38377C13.9082 8.25977 14.7372 9.04376 14.6742 9.97876Z" fill="#735785"/>
<path d="M19.5452 9.97876C19.4762 11.0618 19.4242 12.1468 19.1252 13.1978C18.7222 14.6148 17.9692 15.9068 17.6722 17.3568C17.3772 18.7928 17.3852 20.4018 17.7232 21.8278C18.0922 23.3818 18.8962 24.7768 19.1942 26.3608C19.6732 28.9108 19.2862 31.5728 18.2922 33.9448C17.7472 35.2438 17.2722 36.9938 17.3082 38.2078C17.3842 39.7888 17.6132 41.0708 18.1932 42.5728C18.7792 44.0908 19.1242 45.4968 19.2032 47.1088C19.2662 48.3848 19.1442 49.6828 18.8302 50.9228C18.4862 52.1178 17.9262 53.2308 17.5362 54.4088C17.2442 55.2958 17.2582 56.2198 17.1502 57.1378C17.1992 59.8608 18.4782 62.1148 18.9552 64.7428C19.1552 65.8658 19.0512 67.0368 18.9762 68.1668C18.8472 70.1448 17.6452 71.7928 17.2712 73.6928C16.9622 74.9978 17.0022 76.3088 17.0662 77.6388C17.3512 80.0298 18.7062 82.0768 18.8732 84.5198C18.9642 85.8558 18.8942 87.2838 18.5512 88.5828C18.1992 89.9098 17.4902 91.1088 17.1512 92.4388C16.8212 93.7358 16.7962 95.1108 16.9032 96.4388C17.0312 98.0128 17.7792 99.3708 18.2382 100.852C18.5842 101.968 18.6862 103.062 18.7432 104.221C18.7592 104.544 18.7792 104.866 18.4952 105.097C18.0572 105.449 17.3842 105.152 17.3492 104.593C17.1702 103.955 17.2882 103.2 17.1632 102.54C16.8992 101.145 16.1942 99.9308 15.7962 98.5828C14.8452 96.0448 15.1632 92.8568 16.1312 90.3868C17.1292 87.8418 17.5832 85.1758 16.7242 82.4948C16.3332 81.2808 15.7082 80.1648 15.4222 78.9138C15.2312 77.8778 15.0842 76.8328 15.1222 75.7758C15.1512 74.9628 15.2262 74.1978 15.3662 73.3968C15.6352 71.8538 16.5342 70.5018 16.8092 68.9638C17.1452 67.1018 17.1372 65.2048 16.4922 63.3978C15.9272 61.8158 15.2102 60.3938 15.0442 58.6978C14.9272 57.4988 14.8952 56.2238 15.1052 55.0328C15.3362 53.7168 15.8222 52.5498 16.2792 51.2948C16.7112 50.1068 16.8222 48.9228 16.8692 47.6718C16.9712 44.9858 15.0472 42.1818 14.8542 39.3298C14.7732 38.1338 14.7962 36.9788 15.0032 35.7868C15.2132 34.5838 15.6942 33.4978 16.1162 32.3608C16.5302 31.2428 16.6452 30.1488 16.7002 28.9658C17.0732 26.5478 15.3742 24.3658 14.9232 22.1018C14.6082 20.5138 14.4652 18.6138 14.8142 17.0168C15.0152 15.7678 15.4782 14.6258 15.9412 13.4558C16.4112 12.3868 16.4862 11.2288 16.5402 10.0808C16.5782 9.26676 16.9532 8.50477 17.8512 8.38377C18.7792 8.25977 19.6082 9.04376 19.5452 9.97876Z" fill="#735785"/>
<path d="M24.4142 9.97876C24.3482 11.0608 24.2932 12.1468 23.9942 13.1978C23.5922 14.6148 22.8382 15.9068 22.5412 17.3568C22.2472 18.7928 22.2542 20.4018 22.5942 21.8278C22.9632 23.3808 23.7642 24.7778 24.0632 26.3608C24.5422 28.9098 24.1562 31.5728 23.1622 33.9448C22.6142 35.2518 22.1532 36.9888 22.1792 38.2078C22.2492 39.7888 22.4842 41.0728 23.0632 42.5728C23.6502 44.0908 23.9942 45.4958 24.0742 47.1088C24.1372 48.3838 24.0162 49.6848 23.6992 50.9228C23.3562 52.1178 22.7952 53.2318 22.4052 54.4088C22.1132 55.2958 22.1272 56.2198 22.0212 57.1378C22.0682 59.8608 23.3492 62.1148 23.8262 64.7428C24.0232 65.8678 23.9222 67.0358 23.8482 68.1668C23.7172 70.1448 22.5162 71.7928 22.1422 73.6928C21.8332 74.9978 21.8732 76.3098 21.9372 77.6388C22.2222 80.0298 23.5752 82.0768 23.7432 84.5198C23.8352 85.8578 23.7642 87.2808 23.4222 88.5828C23.0732 89.9108 22.3602 91.1088 22.0232 92.4388C21.6932 93.7378 21.6672 95.1098 21.7752 96.4388C21.9032 98.0118 22.6492 99.3718 23.1092 100.852C23.4552 101.967 23.5602 103.062 23.6132 104.221C23.6292 104.544 23.6492 104.866 23.3652 105.097C22.9282 105.449 22.2562 105.152 22.2192 104.593C22.0402 103.955 22.1572 103.2 22.0322 102.54C21.7682 101.145 21.0652 99.9298 20.6652 98.5828C19.7142 96.0448 20.0332 92.8568 21.0012 90.3868C21.9982 87.8398 22.4512 85.1778 21.5932 82.4948C21.2042 81.2808 20.5782 80.1648 20.2922 78.9138C20.1032 77.8768 19.9532 76.8338 19.9932 75.7758C20.0232 74.9628 20.0952 74.1978 20.2352 73.3968C20.5062 71.8548 21.4032 70.5018 21.6802 68.9638C22.0142 67.1018 22.0082 65.2048 21.3622 63.3978C20.7962 61.8158 20.0802 60.3938 19.9132 58.6978C19.7962 57.4988 19.7672 56.2248 19.9742 55.0328C20.2022 53.7168 20.6912 52.5488 21.1492 51.2948C21.5852 50.1008 21.6752 48.9258 21.7402 47.6718C21.8752 44.9898 19.9122 42.1768 19.7242 39.3298C19.6462 38.1318 19.6672 36.9808 19.8742 35.7868C20.0832 34.5838 20.5622 33.4978 20.9852 32.3608C21.4012 31.2438 21.5142 30.1478 21.5702 28.9658C21.9432 26.5488 20.2442 24.3648 19.7922 22.1018C19.4772 20.5178 19.3332 18.6088 19.6852 17.0168C19.8832 15.7668 20.3492 14.6248 20.8112 13.4558C21.2782 12.3858 21.3572 11.2298 21.4112 10.0808C21.4492 9.26676 21.8222 8.50377 22.7222 8.38377C23.6482 8.25977 24.4802 9.04376 24.4142 9.97876Z" fill="#735785"/>
<path d="M29.2852 9.97876C29.2162 11.0618 29.1642 12.1468 28.8652 13.1978C28.4622 14.6148 27.7092 15.9068 27.4122 17.3568C27.1172 18.7928 27.1252 20.4018 27.4632 21.8278C27.8322 23.3818 28.6362 24.7768 28.9342 26.3608C29.4132 28.9108 29.0262 31.5728 28.0322 33.9448C27.4872 35.2438 27.0132 36.9938 27.0482 38.2078C27.1242 39.7888 27.3532 41.0708 27.9332 42.5728C28.5192 44.0908 28.8642 45.4968 28.9432 47.1088C29.0062 48.3848 28.8842 49.6828 28.5702 50.9228C28.2262 52.1178 27.6662 53.2308 27.2762 54.4088C26.9842 55.2958 26.9982 56.2198 26.8902 57.1378C26.9392 59.8608 28.2182 62.1148 28.6952 64.7428C28.8952 65.8658 28.7912 67.0368 28.7162 68.1668C28.5872 70.1448 27.3852 71.7928 27.0112 73.6928C26.7022 74.9978 26.7422 76.3088 26.8062 77.6388C27.0912 80.0298 28.4462 82.0768 28.6132 84.5198C28.7042 85.8558 28.6342 87.2838 28.2912 88.5828C27.9402 89.9098 27.2312 91.1088 26.8912 92.4388C26.5612 93.7358 26.5362 95.1108 26.6432 96.4388C26.7712 98.0128 27.5192 99.3708 27.9782 100.852C28.3242 101.968 28.4262 103.062 28.4832 104.221C28.4992 104.544 28.5192 104.866 28.2352 105.097C27.7972 105.449 27.1242 105.152 27.0892 104.593C26.9102 103.955 27.0282 103.2 26.9032 102.54C26.6392 101.145 25.9342 99.9308 25.5362 98.5828C24.5852 96.0448 24.9032 92.8568 25.8712 90.3868C26.8692 87.8418 27.3232 85.1758 26.4642 82.4948C26.0732 81.2808 25.4482 80.1648 25.1622 78.9138C24.9712 77.8778 24.8242 76.8328 24.8622 75.7758C24.8912 74.9628 24.9662 74.1978 25.1062 73.3968C25.3742 71.8538 26.2742 70.5018 26.5492 68.9638C26.8852 67.1018 26.8772 65.2048 26.2322 63.3978C25.6662 61.8158 24.9502 60.3938 24.7842 58.6978C24.6672 57.4988 24.6352 56.2238 24.8452 55.0328C25.0762 53.7168 25.5622 52.5498 26.0192 51.2948C26.4512 50.1068 26.5622 48.9228 26.6092 47.6718C26.7122 44.9858 24.7872 42.1818 24.5942 39.3298C24.5132 38.1338 24.5362 36.9788 24.7432 35.7868C24.9532 34.5838 25.4342 33.4978 25.8562 32.3608C26.2702 31.2428 26.3852 30.1488 26.4402 28.9658C26.8132 26.5478 25.1142 24.3658 24.6632 22.1018C24.3482 20.5138 24.2052 18.6138 24.5542 17.0168C24.7552 15.7678 25.2182 14.6258 25.6812 13.4558C26.1512 12.3868 26.2262 11.2288 26.2802 10.0808C26.3182 9.26676 26.6932 8.50477 27.5912 8.38377C28.5192 8.25977 29.3482 9.04376 29.2852 9.97876Z" fill="#735785"/>
<path d="M34.1552 9.97876C34.0892 11.0608 34.0342 12.1468 33.7352 13.1978C33.3332 14.6148 32.5792 15.9068 32.2822 17.3568C31.9882 18.7928 31.9952 20.4018 32.3352 21.8278C32.7042 23.3808 33.5052 24.7778 33.8042 26.3608C34.2832 28.9098 33.8972 31.5728 32.9032 33.9448C32.3552 35.2518 31.8942 36.9888 31.9202 38.2078C31.9902 39.7888 32.2252 41.0728 32.8042 42.5728C33.3912 44.0908 33.7352 45.4958 33.8152 47.1088C33.8782 48.3838 33.7572 49.6848 33.4402 50.9228C33.0972 52.1178 32.5362 53.2318 32.1462 54.4088C31.8542 55.2958 31.8682 56.2198 31.7622 57.1378C31.8092 59.8608 33.0902 62.1148 33.5672 64.7428C33.7642 65.8678 33.6632 67.0358 33.5882 68.1668C33.4572 70.1448 32.2562 71.7928 31.8822 73.6928C31.5732 74.9978 31.6132 76.3098 31.6772 77.6388C31.9622 80.0298 33.3152 82.0768 33.4832 84.5198C33.5752 85.8578 33.5042 87.2808 33.1622 88.5828C32.8132 89.9108 32.1002 91.1088 31.7632 92.4388C31.4332 93.7378 31.4082 95.1098 31.5152 96.4388C31.6432 98.0118 32.3892 99.3718 32.8492 100.852C33.1952 101.967 33.3002 103.062 33.3532 104.221C33.3692 104.544 33.3892 104.866 33.1052 105.097C32.6692 105.449 31.9962 105.152 31.9592 104.593C31.7802 103.955 31.8982 103.2 31.7732 102.54C31.5092 101.145 30.8062 99.9298 30.4062 98.5828C29.4552 96.0448 29.7742 92.8568 30.7422 90.3868C31.7392 87.8398 32.1922 85.1778 31.3342 82.4948C30.9452 81.2808 30.3192 80.1648 30.0332 78.9138C29.8442 77.8768 29.6942 76.8338 29.7342 75.7758C29.7642 74.9628 29.8372 74.1978 29.9762 73.3968C30.2472 71.8548 31.1442 70.5018 31.4212 68.9638C31.7552 67.1018 31.7492 65.2048 31.1032 63.3978C30.5372 61.8158 29.8212 60.3938 29.6542 58.6978C29.5372 57.4988 29.5082 56.2248 29.7152 55.0328C29.9442 53.7168 30.4322 52.5488 30.8902 51.2948C31.3262 50.1008 31.4162 48.9258 31.4812 47.6718C31.6162 44.9898 29.6532 42.1768 29.4652 39.3298C29.3872 38.1318 29.4082 36.9808 29.6152 35.7868C29.8242 34.5838 30.3032 33.4978 30.7262 32.3608C31.1422 31.2438 31.2552 30.1478 31.3112 28.9658C31.6842 26.5488 29.9852 24.3648 29.5332 22.1018C29.2182 20.5178 29.0742 18.6088 29.4262 17.0168C29.6242 15.7668 30.0902 14.6248 30.5522 13.4558C31.0192 12.3858 31.0982 11.2298 31.1522 10.0808C31.1902 9.26676 31.5632 8.50377 32.4632 8.38377C33.3882 8.25977 34.2202 9.04376 34.1552 9.97876Z" fill="#735785"/>
<path d="M39.0282 9.97876C38.9592 11.0618 38.9072 12.1468 38.6082 13.1978C38.2052 14.6148 37.4522 15.9068 37.1552 17.3568C36.8602 18.7928 36.8682 20.4018 37.2062 21.8278C37.5752 23.3818 38.3792 24.7768 38.6772 26.3608C39.1562 28.9108 38.7692 31.5728 37.7752 33.9448C37.2302 35.2438 36.7552 36.9938 36.7912 38.2078C36.8672 39.7888 37.0962 41.0708 37.6762 42.5728C38.2622 44.0908 38.6072 45.4968 38.6862 47.1088C38.7492 48.3848 38.6272 49.6828 38.3132 50.9228C37.9692 52.1178 37.4092 53.2308 37.0192 54.4088C36.7272 55.2958 36.7412 56.2198 36.6332 57.1378C36.6822 59.8608 37.9612 62.1148 38.4382 64.7428C38.6382 65.8658 38.5342 67.0368 38.4602 68.1668C38.3312 70.1448 37.1292 71.7928 36.7552 73.6928C36.4462 74.9978 36.4862 76.3088 36.5502 77.6388C36.8352 80.0298 38.1902 82.0768 38.3572 84.5198C38.4482 85.8558 38.3782 87.2838 38.0352 88.5828C37.6832 89.9098 36.9752 91.1088 36.6352 92.4388C36.3052 93.7358 36.2802 95.1108 36.3872 96.4388C36.5152 98.0128 37.2632 99.3708 37.7222 100.852C38.0682 101.968 38.1702 103.062 38.2272 104.221C38.2432 104.544 38.2632 104.866 37.9792 105.097C37.5412 105.449 36.8682 105.152 36.8332 104.593C36.6542 103.955 36.7722 103.2 36.6472 102.54C36.3832 101.145 35.6782 99.9308 35.2802 98.5828C34.3292 96.0448 34.6472 92.8568 35.6152 90.3868C36.6132 87.8418 37.0672 85.1758 36.2082 82.4948C35.8172 81.2808 35.1922 80.1648 34.9062 78.9138C34.7152 77.8778 34.5682 76.8328 34.6062 75.7758C34.6352 74.9628 34.7102 74.1978 34.8502 73.3968C35.1182 71.8538 36.0182 70.5018 36.2932 68.9638C36.6292 67.1018 36.6212 65.2048 35.9762 63.3978C35.4112 61.8158 34.6942 60.3938 34.5282 58.6978C34.4112 57.4988 34.3792 56.2238 34.5892 55.0328C34.8202 53.7168 35.3062 52.5498 35.7632 51.2948C36.1952 50.1068 36.3062 48.9228 36.3532 47.6718C36.4562 44.9858 34.5312 42.1818 34.3382 39.3298C34.2572 38.1338 34.2802 36.9788 34.4872 35.7868C34.6972 34.5838 35.1782 33.4978 35.6002 32.3608C36.0142 31.2428 36.1292 30.1488 36.1842 28.9658C36.5572 26.5478 34.8582 24.3658 34.4072 22.1018C34.0922 20.5138 33.9492 18.6138 34.2982 17.0168C34.4992 15.7678 34.9622 14.6258 35.4252 13.4558C35.8952 12.3868 35.9702 11.2288 36.0242 10.0808C36.0622 9.26676 36.4372 8.50477 37.3352 8.38377C38.2612 8.25977 39.0902 9.04376 39.0282 9.97876Z" fill="#735785"/>
<path d="M43.8972 9.97876C43.8282 11.0618 43.7762 12.1468 43.4772 13.1978C43.0742 14.6148 42.3212 15.9068 42.0242 17.3568C41.7292 18.7928 41.7372 20.4018 42.0752 21.8278C42.4442 23.3818 43.2482 24.7768 43.5462 26.3608C44.0252 28.9108 43.6382 31.5728 42.6442 33.9448C42.0992 35.2438 41.6242 36.9938 41.6602 38.2078C41.7362 39.7888 41.9652 41.0708 42.5452 42.5728C43.1312 44.0908 43.4762 45.4968 43.5552 47.1088C43.6172 48.3848 43.4962 49.6828 43.1822 50.9228C42.8382 52.1178 42.2782 53.2308 41.8882 54.4088C41.5962 55.2958 41.6102 56.2198 41.5022 57.1378C41.5512 59.8608 42.8302 62.1148 43.3072 64.7428C43.5072 65.8658 43.4032 67.0368 43.3282 68.1668C43.1992 70.1448 41.9972 71.7928 41.6232 73.6928C41.3142 74.9978 41.3542 76.3088 41.4182 77.6388C41.7032 80.0298 43.0582 82.0768 43.2252 84.5198C43.3162 85.8558 43.2462 87.2838 42.9032 88.5828C42.5512 89.9098 41.8422 91.1088 41.5032 92.4388C41.1732 93.7358 41.1482 95.1108 41.2552 96.4388C41.3832 98.0128 42.1312 99.3708 42.5902 100.852C42.9362 101.968 43.0382 103.062 43.0952 104.221C43.1112 104.544 43.1312 104.866 42.8472 105.097C42.4092 105.449 41.7362 105.152 41.7012 104.593C41.5222 103.955 41.6412 103.2 41.5162 102.54C41.2522 101.145 40.5472 99.9308 40.1492 98.5828C39.1982 96.0448 39.5162 92.8568 40.4842 90.3868C41.4822 87.8418 41.9362 85.1758 41.0772 82.4948C40.6862 81.2808 40.0612 80.1648 39.7752 78.9138C39.5842 77.8778 39.4372 76.8328 39.4752 75.7758C39.5042 74.9628 39.5792 74.1978 39.7192 73.3968C39.9882 71.8538 40.8872 70.5018 41.1622 68.9638C41.4982 67.1018 41.4902 65.2048 40.8452 63.3978C40.2802 61.8158 39.5632 60.3938 39.3972 58.6978C39.2802 57.4988 39.2482 56.2238 39.4582 55.0328C39.6892 53.7168 40.1752 52.5498 40.6322 51.2948C41.0642 50.1068 41.1752 48.9228 41.2222 47.6718C41.3252 44.9858 39.4002 42.1818 39.2072 39.3298C39.1262 38.1338 39.1492 36.9788 39.3562 35.7868C39.5662 34.5838 40.0472 33.4978 40.4692 32.3608C40.8832 31.2428 40.9982 30.1488 41.0532 28.9658C41.4262 26.5478 39.7272 24.3658 39.2762 22.1018C38.9612 20.5138 38.8182 18.6138 39.1672 17.0168C39.3682 15.7678 39.8312 14.6258 40.2942 13.4558C40.7642 12.3868 40.8392 11.2288 40.8932 10.0808C40.9312 9.26676 41.3062 8.50477 42.2032 8.38377C43.1302 8.25977 43.9592 9.04376 43.8972 9.97876Z" fill="#735785"/>
<path d="M48.7662 9.97876C48.6972 11.0618 48.6452 12.1468 48.3462 13.1978C47.9432 14.6148 47.1902 15.9068 46.8932 17.3568C46.5982 18.7908 46.6062 20.4018 46.9442 21.8278C47.3132 23.3818 48.1162 24.7768 48.4142 26.3608C48.8932 28.9108 48.5072 31.5718 47.5132 33.9448C46.9692 35.2438 46.4942 36.9958 46.5292 38.2068C46.6052 39.7878 46.8342 41.0698 47.4142 42.5718C48.0002 44.0908 48.3452 45.4968 48.4242 47.1088C48.4872 48.3848 48.3652 49.6828 48.0512 50.9228C47.7052 52.1168 47.1432 53.2298 46.7562 54.4088C46.4652 55.2958 46.4792 56.2198 46.3712 57.1358C46.4202 59.8588 47.6992 62.1128 48.1762 64.7408C48.3762 65.8638 48.2722 67.0348 48.1992 68.1638C48.0702 70.1428 46.8662 71.7908 46.4922 73.6908C46.1832 74.9958 46.2232 76.3078 46.2872 77.6368C46.5722 80.0278 47.9262 82.0748 48.0942 84.5178C48.1852 85.8538 48.1152 87.2818 47.7732 88.5808C47.4222 89.9078 46.7112 91.1058 46.3722 92.4358C46.0422 93.7328 46.0172 95.1078 46.1242 96.4358C46.2522 98.0088 47.0002 99.3688 47.4592 100.849C47.8052 101.965 47.9082 103.059 47.9642 104.218C47.9802 104.541 48.0002 104.864 47.7162 105.093C47.2782 105.446 46.6052 105.149 46.5702 104.59C46.3912 103.952 46.5092 103.197 46.3842 102.536C46.1202 101.141 45.4152 99.9268 45.0172 98.5798C44.0662 96.0418 44.3842 92.8548 45.3522 90.3838C46.3502 87.8388 46.8042 85.1738 45.9452 82.4928C45.5552 81.2788 44.9292 80.1618 44.6432 78.9108C44.4522 77.8748 44.3052 76.8298 44.3432 75.7728C44.3722 74.9618 44.4472 74.1948 44.5872 73.3948C44.8562 71.8518 45.7552 70.4988 46.0302 68.9618C46.3662 67.0998 46.3582 65.2028 45.7132 63.3958C45.1482 61.8128 44.4312 60.3908 44.2652 58.6948C44.1482 57.4958 44.1162 56.2228 44.3252 55.0308C44.5542 53.7138 45.0422 52.5478 45.4992 51.2918C45.9312 50.1038 46.0432 48.9208 46.0892 47.6698C46.1892 44.9818 44.2672 42.1808 44.0742 39.3278C43.9932 38.1308 44.0162 36.9768 44.2232 35.7848C44.4332 34.5808 44.9132 33.4948 45.3362 32.3578C45.7502 31.2408 45.8652 30.1458 45.9202 28.9638C46.2932 26.5458 44.5942 24.3638 44.1432 22.0998C43.8282 20.5118 43.6852 18.6118 44.0342 17.0148C44.2352 15.7658 44.6982 14.6238 45.1612 13.4538C45.6302 12.3838 45.7062 11.2278 45.7602 10.0788C45.7982 9.26477 46.1732 8.50276 47.0712 8.38176C47.9992 8.25976 48.8282 9.04376 48.7662 9.97876Z" fill="#735785"/>
<path d="M53.6372 9.97876C53.5682 11.0618 53.5162 12.1468 53.2172 13.1978C52.8142 14.6148 52.0612 15.9068 51.7642 17.3568C51.4692 18.7928 51.4772 20.4018 51.8152 21.8278C52.1842 23.3818 52.9882 24.7768 53.2862 26.3608C53.7652 28.9108 53.3782 31.5728 52.3842 33.9448C51.8392 35.2438 51.3642 36.9938 51.4002 38.2078C51.4762 39.7888 51.7052 41.0708 52.2852 42.5728C52.8712 44.0908 53.2162 45.4968 53.2952 47.1088C53.3582 48.3848 53.2362 49.6828 52.9222 50.9228C52.5782 52.1178 52.0182 53.2308 51.6282 54.4088C51.3362 55.2958 51.3502 56.2198 51.2422 57.1378C51.2912 59.8608 52.5702 62.1148 53.0472 64.7428C53.2472 65.8658 53.1432 67.0368 53.0682 68.1668C52.9392 70.1448 51.7372 71.7928 51.3632 73.6928C51.0542 74.9978 51.0942 76.3088 51.1582 77.6388C51.4432 80.0298 52.7982 82.0768 52.9652 84.5198C53.0562 85.8558 52.9862 87.2838 52.6432 88.5828C52.2912 89.9098 51.5822 91.1088 51.2432 92.4388C50.9132 93.7358 50.8882 95.1108 50.9952 96.4388C51.1232 98.0128 51.8712 99.3708 52.3302 100.852C52.6762 101.968 52.7782 103.062 52.8352 104.221C52.8512 104.544 52.8712 104.866 52.5872 105.097C52.1492 105.449 51.4762 105.152 51.4412 104.593C51.2622 103.955 51.3802 103.2 51.2552 102.54C50.9912 101.145 50.2862 99.9308 49.8882 98.5828C48.9372 96.0448 49.2552 92.8568 50.2232 90.3868C51.2212 87.8418 51.6752 85.1758 50.8162 82.4948C50.4252 81.2808 49.8002 80.1648 49.5142 78.9138C49.3232 77.8778 49.1762 76.8328 49.2142 75.7758C49.2432 74.9628 49.3182 74.1978 49.4582 73.3968C49.7272 71.8538 50.6262 70.5018 50.9012 68.9638C51.2372 67.1018 51.2292 65.2048 50.5842 63.3978C50.0192 61.8158 49.3022 60.3938 49.1362 58.6978C49.0192 57.4988 48.9872 56.2238 49.1972 55.0328C49.4292 53.7168 49.9142 52.5498 50.3712 51.2948C50.8032 50.1068 50.9142 48.9228 50.9612 47.6718C51.0642 44.9858 49.1392 42.1818 48.9462 39.3298C48.8652 38.1338 48.8882 36.9788 49.0952 35.7868C49.3052 34.5838 49.7862 33.4978 50.2082 32.3608C50.6222 31.2428 50.7372 30.1488 50.7922 28.9658C51.1652 26.5478 49.4662 24.3658 49.0152 22.1018C48.7002 20.5138 48.5572 18.6138 48.9062 17.0168C49.1072 15.7678 49.5702 14.6258 50.0332 13.4558C50.5032 12.3868 50.5782 11.2288 50.6322 10.0808C50.6702 9.26676 51.0452 8.50477 51.9432 8.38377C52.8702 8.25977 53.6992 9.04376 53.6372 9.97876Z" fill="#735785"/>
<path d="M58.5082 9.97876C58.4392 11.0618 58.3872 12.1468 58.0882 13.1978C57.6852 14.6148 56.9322 15.9068 56.6352 17.3568C56.3402 18.7928 56.3482 20.4018 56.6862 21.8278C57.0552 23.3818 57.8592 24.7778 58.1572 26.3608C58.6362 28.9108 58.2492 31.5728 57.2552 33.9448C56.7112 35.2438 56.2352 36.9938 56.2712 38.2078C56.3472 39.7888 56.5762 41.0718 57.1562 42.5728C57.7422 44.0928 58.0872 45.4978 58.1662 47.1088C58.2292 48.3858 58.1092 49.6848 57.7922 50.9238C57.4472 52.1188 56.8852 53.2308 56.4982 54.4088C56.2072 55.2968 56.2212 56.2198 56.1132 57.1378C56.1622 59.8608 57.4422 62.1148 57.9182 64.7438C58.1192 65.8668 58.0142 67.0378 57.9392 68.1668C57.8102 70.1458 56.6072 71.7938 56.2342 73.6938C55.9252 74.9988 55.9652 76.3098 56.0292 77.6398C56.3142 80.0308 57.6692 82.0778 57.8362 84.5208C57.9272 85.8568 57.8572 87.2838 57.5152 88.5838C57.1642 89.9108 56.4532 91.1098 56.1142 92.4388C55.7842 93.7368 55.7592 95.1118 55.8662 96.4398C55.9942 98.0128 56.7422 99.3728 57.2012 100.853C57.5472 101.969 57.6502 103.063 57.7062 104.222C57.7222 104.545 57.7422 104.868 57.4582 105.097C57.0202 105.45 56.3472 105.153 56.3122 104.594C56.1332 103.956 56.2512 103.201 56.1262 102.54C55.8622 101.145 55.1572 99.9308 54.7592 98.5838C53.8082 96.0458 54.1262 92.8578 55.0942 90.3878C56.0912 87.8418 56.5462 85.1768 55.6872 82.4958C55.2962 81.2818 54.6712 80.1648 54.3862 78.9138C54.1922 77.8788 54.0472 76.8328 54.0852 75.7768C54.1142 74.9638 54.1902 74.1988 54.3292 73.3988C54.5982 71.8558 55.4972 70.5038 55.7722 68.9648C56.1082 67.1018 56.1002 65.2068 55.4562 63.3988C54.8922 61.8158 54.1732 60.3948 54.0072 58.6978C53.8902 57.4988 53.8592 56.2258 54.0682 55.0338C54.2972 53.7168 54.7852 52.5508 55.2422 51.2948C55.6742 50.1068 55.7852 48.9228 55.8322 47.6718C55.9342 44.9858 54.0102 42.1828 53.8172 39.3308C53.7362 38.1338 53.7592 36.9788 53.9672 35.7868C54.1772 34.5838 54.6562 33.4978 55.0792 32.3608C55.4942 31.2438 55.6082 30.1488 55.6642 28.9658C56.0392 26.5488 54.3382 24.3648 53.8872 22.1018C53.5732 20.5178 53.4262 18.6098 53.7782 17.0178C53.9792 15.7678 54.4422 14.6258 54.9052 13.4558C55.3752 12.3868 55.4502 11.2288 55.5042 10.0808C55.5422 9.26676 55.9172 8.50477 56.8152 8.38377C57.7422 8.25977 58.5712 9.04376 58.5082 9.97876Z" fill="#735785"/>
<path d="M63.3772 9.97876C63.3112 11.0608 63.2562 12.1468 62.9572 13.1978C62.5552 14.6148 61.8012 15.9068 61.5042 17.3568C61.2102 18.7928 61.2172 20.4018 61.5572 21.8278C61.9262 23.3808 62.7272 24.7778 63.0262 26.3608C63.5052 28.9098 63.1192 31.5728 62.1252 33.9448C61.5772 35.2518 61.1162 36.9888 61.1422 38.2078C61.2122 39.7888 61.4472 41.0728 62.0262 42.5728C62.6132 44.0908 62.9572 45.4958 63.0372 47.1088C63.1002 48.3838 62.9792 49.6848 62.6622 50.9228C62.3192 52.1178 61.7582 53.2318 61.3682 54.4088C61.0762 55.2958 61.0902 56.2198 60.9842 57.1378C61.0312 59.8608 62.3122 62.1148 62.7892 64.7428C62.9862 65.8678 62.8852 67.0358 62.8102 68.1668C62.6792 70.1448 61.4782 71.7928 61.1042 73.6928C60.7952 74.9978 60.8352 76.3098 60.8992 77.6388C61.1842 80.0298 62.5372 82.0768 62.7052 84.5198C62.7972 85.8578 62.7252 87.2808 62.3842 88.5828C62.0352 89.9108 61.3222 91.1088 60.9852 92.4388C60.6552 93.7378 60.6302 95.1098 60.7372 96.4388C60.8652 98.0118 61.6112 99.3718 62.0712 100.852C62.4172 101.967 62.5222 103.062 62.5752 104.221C62.5912 104.544 62.6112 104.866 62.3272 105.097C61.8912 105.449 61.2182 105.152 61.1822 104.593C61.0032 103.955 61.1202 103.2 60.9952 102.54C60.7312 101.145 60.0282 99.9298 59.6282 98.5828C58.6772 96.0448 58.9962 92.8568 59.9642 90.3868C60.9612 87.8398 61.4142 85.1778 60.5562 82.4948C60.1672 81.2808 59.5412 80.1648 59.2552 78.9138C59.0662 77.8768 58.9162 76.8338 58.9562 75.7758C58.9862 74.9628 59.0582 74.1978 59.1982 73.3968C59.4692 71.8548 60.3662 70.5018 60.6432 68.9638C60.9772 67.1018 60.9712 65.2048 60.3252 63.3978C59.7592 61.8158 59.0432 60.3938 58.8762 58.6978C58.7592 57.4988 58.7302 56.2248 58.9372 55.0328C59.1662 53.7168 59.6542 52.5488 60.1122 51.2948C60.5482 50.1008 60.6382 48.9258 60.7032 47.6718C60.8382 44.9898 58.8752 42.1768 58.6872 39.3298C58.6092 38.1318 58.6302 36.9808 58.8372 35.7868C59.0462 34.5838 59.5252 33.4978 59.9482 32.3608C60.3642 31.2438 60.4772 30.1478 60.5332 28.9658C60.9062 26.5488 59.2072 24.3648 58.7552 22.1018C58.4402 20.5178 58.2962 18.6088 58.6482 17.0168C58.8462 15.7668 59.3122 14.6248 59.7742 13.4558C60.2412 12.3858 60.3202 11.2298 60.3742 10.0808C60.4122 9.26676 60.7852 8.50377 61.6852 8.38377C62.6112 8.25977 63.4432 9.04376 63.3772 9.97876Z" fill="#735785"/>
<path d="M68.2482 9.97876C68.1792 11.0618 68.1272 12.1468 67.8282 13.1978C67.4252 14.6148 66.6722 15.9068 66.3752 17.3568C66.0802 18.7908 66.0882 20.4018 66.4262 21.8278C66.7952 23.3818 67.5982 24.7768 67.8962 26.3608C68.3752 28.9108 67.9892 31.5718 66.9952 33.9448C66.4512 35.2438 65.9762 36.9958 66.0112 38.2068C66.0872 39.7878 66.3162 41.0698 66.8962 42.5718C67.4822 44.0908 67.8272 45.4968 67.9062 47.1088C67.9692 48.3848 67.8472 49.6828 67.5332 50.9228C67.1872 52.1168 66.6252 53.2298 66.2382 54.4088C65.9472 55.2958 65.9612 56.2198 65.8532 57.1358C65.9022 59.8588 67.1812 62.1128 67.6582 64.7408C67.8582 65.8638 67.7542 67.0348 67.6812 68.1638C67.5522 70.1428 66.3482 71.7908 65.9742 73.6908C65.6652 74.9958 65.7042 76.3078 65.7692 77.6368C66.0542 80.0278 67.4082 82.0748 67.5762 84.5178C67.6672 85.8538 67.5972 87.2818 67.2552 88.5808C66.9042 89.9078 66.1942 91.1058 65.8542 92.4358C65.5242 93.7328 65.4992 95.1078 65.6062 96.4358C65.7342 98.0088 66.4822 99.3688 66.9412 100.849C67.2872 101.965 67.3902 103.059 67.4462 104.218C67.4622 104.541 67.4822 104.864 67.1982 105.093C66.7602 105.446 66.0872 105.149 66.0522 104.59C65.8732 103.952 65.9912 103.197 65.8662 102.536C65.6022 101.141 64.8972 99.9268 64.4992 98.5798C63.5482 96.0418 63.8662 92.8548 64.8342 90.3838C65.8322 87.8388 66.2862 85.1738 65.4272 82.4928C65.0372 81.2788 64.4112 80.1618 64.1252 78.9108C63.9342 77.8748 63.7872 76.8298 63.8252 75.7728C63.8542 74.9618 63.9302 74.1948 64.0692 73.3948C64.3372 71.8518 65.2372 70.4988 65.5122 68.9618C65.8482 67.0998 65.8402 65.2028 65.1952 63.3958C64.6302 61.8128 63.9132 60.3908 63.7472 58.6948C63.6302 57.4958 63.5992 56.2228 63.8082 55.0308C64.0372 53.7138 64.5252 52.5478 64.9822 51.2918C65.4142 50.1038 65.5262 48.9208 65.5722 47.6698C65.6722 44.9818 63.7502 42.1808 63.5572 39.3278C63.4762 38.1308 63.4992 36.9768 63.7062 35.7848C63.9162 34.5808 64.3962 33.4948 64.8192 32.3578C65.2332 31.2408 65.3482 30.1458 65.4032 28.9638C65.7762 26.5458 64.0772 24.3638 63.6262 22.0998C63.3112 20.5118 63.1682 18.6118 63.5172 17.0148C63.7182 15.7658 64.1812 14.6238 64.6442 13.4538C65.1132 12.3838 65.1892 11.2278 65.2432 10.0788C65.2812 9.26477 65.6562 8.50276 66.5542 8.38176C67.4822 8.25976 68.3112 9.04376 68.2482 9.97876Z" fill="#735785"/>
<path d="M73.1192 9.97876C73.0502 11.0618 72.9982 12.1468 72.6992 13.1978C72.2962 14.6148 71.5432 15.9068 71.2462 17.3568C70.9512 18.7928 70.9592 20.4018 71.2972 21.8278C71.6662 23.3818 72.4702 24.7768 72.7682 26.3608C73.2472 28.9108 72.8602 31.5728 71.8662 33.9448C71.3212 35.2438 70.8462 36.9938 70.8822 38.2078C70.9582 39.7888 71.1872 41.0708 71.7672 42.5728C72.3532 44.0908 72.6982 45.4968 72.7772 47.1088C72.8402 48.3848 72.7182 49.6828 72.4042 50.9228C72.0602 52.1178 71.5002 53.2308 71.1102 54.4088C70.8182 55.2958 70.8322 56.2198 70.7242 57.1378C70.7732 59.8608 72.0522 62.1148 72.5292 64.7428C72.7292 65.8658 72.6252 67.0368 72.5502 68.1668C72.4212 70.1448 71.2192 71.7928 70.8452 73.6928C70.5362 74.9978 70.5772 76.3088 70.6402 77.6388C70.9252 80.0298 72.2802 82.0768 72.4472 84.5198C72.5382 85.8558 72.4682 87.2838 72.1252 88.5828C71.7732 89.9098 71.0642 91.1088 70.7252 92.4388C70.3952 93.7358 70.3702 95.1108 70.4772 96.4388C70.6052 98.0128 71.3532 99.3708 71.8122 100.852C72.1582 101.968 72.2602 103.062 72.3172 104.221C72.3332 104.544 72.3532 104.866 72.0692 105.097C71.6312 105.449 70.9582 105.152 70.9232 104.593C70.7442 103.955 70.8622 103.2 70.7372 102.54C70.4732 101.145 69.7682 99.9308 69.3702 98.5828C68.4192 96.0448 68.7372 92.8568 69.7052 90.3868C70.7032 87.8418 71.1572 85.1758 70.2982 82.4948C69.9072 81.2808 69.2822 80.1648 68.9962 78.9138C68.8052 77.8778 68.6582 76.8328 68.6962 75.7758C68.7252 74.9628 68.8012 74.1978 68.9402 73.3968C69.2092 71.8538 70.1082 70.5018 70.3832 68.9638C70.7192 67.1018 70.7112 65.2048 70.0662 63.3978C69.5012 61.8158 68.7842 60.3938 68.6182 58.6978C68.5012 57.4988 68.4692 56.2238 68.6792 55.0328C68.9112 53.7168 69.3962 52.5498 69.8532 51.2948C70.2852 50.1068 70.3962 48.9228 70.4432 47.6718C70.5462 44.9858 68.6212 42.1818 68.4282 39.3298C68.3472 38.1338 68.3702 36.9788 68.5772 35.7868C68.7872 34.5838 69.2682 33.4978 69.6902 32.3608C70.1042 31.2428 70.2192 30.1488 70.2742 28.9658C70.6472 26.5478 68.9482 24.3658 68.4972 22.1018C68.1822 20.5138 68.0392 18.6138 68.3882 17.0168C68.5892 15.7678 69.0522 14.6258 69.5152 13.4558C69.9852 12.3868 70.0602 11.2288 70.1142 10.0808C70.1522 9.26676 70.5272 8.50477 71.4252 8.38377C72.3532 8.25977 73.1822 9.04376 73.1192 9.97876Z" fill="#735785"/>
<path d="M77.9882 9.97876C77.9222 11.0608 77.8672 12.1468 77.5682 13.1978C77.1662 14.6148 76.4122 15.9068 76.1152 17.3568C75.8212 18.7928 75.8282 20.4018 76.1682 21.8278C76.5372 23.3808 77.3382 24.7778 77.6372 26.3608C78.1172 28.9098 77.7302 31.5728 76.7362 33.9448C76.1882 35.2518 75.7272 36.9888 75.7532 38.2078C75.8232 39.7888 76.0582 41.0728 76.6372 42.5728C77.2242 44.0908 77.5682 45.4958 77.6482 47.1088C77.7112 48.3838 77.5902 49.6848 77.2732 50.9228C76.9302 52.1178 76.3692 53.2318 75.9792 54.4088C75.6872 55.2958 75.7012 56.2198 75.5952 57.1378C75.6422 59.8608 76.9232 62.1148 77.4002 64.7428C77.5972 65.8678 77.4962 67.0358 77.4212 68.1668C77.2902 70.1448 76.0892 71.7928 75.7152 73.6928C75.4062 74.9978 75.4462 76.3098 75.5102 77.6388C75.7952 80.0298 77.1482 82.0768 77.3162 84.5198C77.4082 85.8578 77.3362 87.2808 76.9952 88.5828C76.6462 89.9108 75.9342 91.1088 75.5962 92.4388C75.2662 93.7378 75.2412 95.1098 75.3482 96.4388C75.4762 98.0118 76.2222 99.3718 76.6822 100.852C77.0282 101.967 77.1332 103.062 77.1862 104.221C77.2022 104.544 77.2222 104.866 76.9382 105.097C76.5022 105.449 75.8292 105.152 75.7932 104.593C75.6142 103.955 75.7312 103.2 75.6062 102.54C75.3422 101.145 74.6392 99.9298 74.2392 98.5828C73.2882 96.0448 73.6072 92.8568 74.5752 90.3868C75.5722 87.8398 76.0252 85.1778 75.1672 82.4948C74.7782 81.2808 74.1522 80.1648 73.8662 78.9138C73.6772 77.8768 73.5272 76.8338 73.5672 75.7758C73.5972 74.9628 73.6702 74.1978 73.8092 73.3968C74.0802 71.8548 74.9772 70.5018 75.2542 68.9638C75.5882 67.1018 75.5822 65.2048 74.9362 63.3978C74.3702 61.8158 73.6542 60.3938 73.4872 58.6978C73.3702 57.4988 73.3412 56.2248 73.5482 55.0328C73.7772 53.7168 74.2652 52.5488 74.7232 51.2948C75.1582 50.1008 75.2492 48.9258 75.3142 47.6718C75.4492 44.9898 73.4862 42.1768 73.2982 39.3298C73.2202 38.1318 73.2412 36.9808 73.4482 35.7868C73.6572 34.5838 74.1362 33.4978 74.5592 32.3608C74.9752 31.2438 75.0882 30.1478 75.1442 28.9658C75.5172 26.5488 73.8182 24.3648 73.3662 22.1018C73.0512 20.5178 72.9072 18.6088 73.2592 17.0168C73.4572 15.7668 73.9232 14.6248 74.3852 13.4558C74.8522 12.3858 74.9312 11.2298 74.9852 10.0808C75.0232 9.26676 75.3962 8.50377 76.2962 8.38377C77.2222 8.25977 78.0542 9.04376 77.9882 9.97876Z" fill="#735785"/>
<path d="M82.8602 9.97876C82.7912 11.0618 82.7392 12.1468 82.4402 13.1978C82.0372 14.6148 81.2842 15.9068 80.9872 17.3568C80.6922 18.7928 80.7002 20.4018 81.0382 21.8278C81.4072 23.3818 82.2112 24.7768 82.5092 26.3608C82.9882 28.9108 82.6012 31.5728 81.6072 33.9448C81.0622 35.2438 80.5872 36.9938 80.6232 38.2078C80.6992 39.7888 80.9282 41.0708 81.5082 42.5728C82.0942 44.0908 82.4392 45.4968 82.5182 47.1088C82.5812 48.3848 82.4592 49.6828 82.1452 50.9228C81.8012 52.1178 81.2412 53.2308 80.8512 54.4088C80.5592 55.2958 80.5732 56.2198 80.4652 57.1378C80.5142 59.8608 81.7932 62.1148 82.2702 64.7428C82.4702 65.8658 82.3662 67.0368 82.2912 68.1668C82.1622 70.1448 80.9602 71.7928 80.5862 73.6928C80.2772 74.9978 80.3172 76.3088 80.3812 77.6388C80.6662 80.0298 82.0212 82.0768 82.1882 84.5198C82.2792 85.8558 82.2092 87.2838 81.8662 88.5828C81.5142 89.9098 80.8052 91.1088 80.4662 92.4388C80.1362 93.7358 80.1112 95.1108 80.2182 96.4388C80.3462 98.0128 81.0942 99.3708 81.5532 100.852C81.8992 101.968 82.0012 103.062 82.0582 104.221C82.0742 104.544 82.0942 104.866 81.8102 105.097C81.3722 105.449 80.6992 105.152 80.6642 104.593C80.4852 103.955 80.6032 103.2 80.4782 102.54C80.2142 101.145 79.5092 99.9308 79.1112 98.5828C78.1602 96.0448 78.4782 92.8568 79.4462 90.3868C80.4442 87.8418 80.8982 85.1758 80.0392 82.4948C79.6482 81.2808 79.0232 80.1648 78.7372 78.9138C78.5462 77.8778 78.3992 76.8328 78.4372 75.7758C78.4662 74.9628 78.5412 74.1978 78.6812 73.3968C78.9502 71.8538 79.8492 70.5018 80.1242 68.9638C80.4602 67.1018 80.4522 65.2048 79.8072 63.3978C79.2412 61.8158 78.5252 60.3938 78.3592 58.6978C78.2422 57.4988 78.2102 56.2238 78.4202 55.0328C78.6512 53.7168 79.1372 52.5498 79.5942 51.2948C80.0262 50.1068 80.1372 48.9228 80.1842 47.6718C80.2872 44.9858 78.3622 42.1818 78.1692 39.3298C78.0882 38.1338 78.1112 36.9788 78.3182 35.7868C78.5282 34.5838 79.0092 33.4978 79.4312 32.3608C79.8452 31.2428 79.9602 30.1488 80.0152 28.9658C80.3882 26.5478 78.6892 24.3658 78.2382 22.1018C77.9232 20.5138 77.7802 18.6138 78.1292 17.0168C78.3302 15.7678 78.7932 14.6258 79.2562 13.4558C79.7262 12.3868 79.8012 11.2288 79.8552 10.0808C79.8932 9.26676 80.2682 8.50477 81.1662 8.38377C82.0932 8.25977 82.9222 9.04376 82.8602 9.97876Z" fill="#735785"/>
<path d="M87.7312 9.97876C87.6622 11.0618 87.6102 12.1468 87.3112 13.1978C86.9082 14.6148 86.1552 15.9068 85.8582 17.3568C85.5632 18.7928 85.5712 20.4018 85.9092 21.8278C86.2782 23.3818 87.0822 24.7768 87.3802 26.3608C87.8592 28.9108 87.4722 31.5728 86.4782 33.9448C85.9332 35.2438 85.4582 36.9938 85.4942 38.2078C85.5702 39.7888 85.7992 41.0708 86.3792 42.5728C86.9652 44.0908 87.3102 45.4968 87.3892 47.1088C87.4522 48.3848 87.3302 49.6828 87.0162 50.9228C86.6722 52.1178 86.1122 53.2308 85.7222 54.4088C85.4302 55.2958 85.4442 56.2198 85.3362 57.1378C85.3852 59.8608 86.6642 62.1148 87.1412 64.7428C87.3412 65.8658 87.2372 67.0368 87.1622 68.1668C87.0332 70.1448 85.8312 71.7928 85.4572 73.6928C85.1482 74.9978 85.1892 76.3088 85.2522 77.6388C85.5372 80.0298 86.8922 82.0768 87.0592 84.5198C87.1502 85.8558 87.0802 87.2838 86.7372 88.5828C86.3852 89.9098 85.6762 91.1088 85.3372 92.4388C85.0072 93.7358 84.9822 95.1108 85.0892 96.4388C85.2172 98.0128 85.9652 99.3708 86.4242 100.852C86.7702 101.968 86.8722 103.062 86.9292 104.221C86.9452 104.544 86.9652 104.866 86.6812 105.097C86.2432 105.449 85.5702 105.152 85.5352 104.593C85.3562 103.955 85.4742 103.2 85.3492 102.54C85.0852 101.145 84.3802 99.9308 83.9822 98.5828C83.0312 96.0448 83.3492 92.8568 84.3172 90.3868C85.3152 87.8418 85.7692 85.1758 84.9102 82.4948C84.5192 81.2808 83.8942 80.1648 83.6082 78.9138C83.4172 77.8778 83.2702 76.8328 83.3082 75.7758C83.3372 74.9628 83.4122 74.1978 83.5522 73.3968C83.8212 71.8538 84.7202 70.5018 84.9952 68.9638C85.3312 67.1018 85.3232 65.2048 84.6782 63.3978C84.1122 61.8158 83.3962 60.3938 83.2302 58.6978C83.1132 57.4988 83.0812 56.2238 83.2912 55.0328C83.5222 53.7168 84.0082 52.5498 84.4652 51.2948C84.8972 50.1068 85.0082 48.9228 85.0552 47.6718C85.1582 44.9858 83.2332 42.1818 83.0402 39.3298C82.9592 38.1338 82.9822 36.9788 83.1892 35.7868C83.3992 34.5838 83.8802 33.4978 84.3022 32.3608C84.7162 31.2428 84.8312 30.1488 84.8862 28.9658C85.2592 26.5478 83.5602 24.3658 83.1092 22.1018C82.7942 20.5138 82.6512 18.6138 83.0002 17.0168C83.2012 15.7678 83.6642 14.6258 84.1272 13.4558C84.5972 12.3868 84.6722 11.2288 84.7262 10.0808C84.7642 9.26676 85.1392 8.50477 86.0372 8.38377C86.9642 8.25977 87.7932 9.04376 87.7312 9.97876Z" fill="#735785"/>
<path d="M92.6002 9.97876C92.5312 11.0618 92.4792 12.1468 92.1802 13.1978C91.7772 14.6148 91.0242 15.9068 90.7272 17.3568C90.4322 18.7928 90.4402 20.4018 90.7782 21.8278C91.1472 23.3818 91.9512 24.7768 92.2492 26.3608C92.7282 28.9108 92.3412 31.5728 91.3472 33.9448C90.8022 35.2438 90.3272 36.9938 90.3632 38.2078C90.4392 39.7888 90.6682 41.0708 91.2482 42.5728C91.8342 44.0908 92.1792 45.4968 92.2582 47.1088C92.3212 48.3848 92.1992 49.6828 91.8852 50.9228C91.5412 52.1178 90.9812 53.2308 90.5912 54.4088C90.2992 55.2958 90.3132 56.2198 90.2052 57.1378C90.2542 59.8608 91.5332 62.1148 92.0102 64.7428C92.2102 65.8658 92.1062 67.0368 92.0312 68.1668C91.9022 70.1448 90.7002 71.7928 90.3262 73.6928C90.0172 74.9978 90.0572 76.3088 90.1212 77.6388C90.4062 80.0298 91.7612 82.0768 91.9282 84.5198C92.0192 85.8558 91.9492 87.2838 91.6062 88.5828C91.2542 89.9098 90.5452 91.1088 90.2062 92.4388C89.8762 93.7358 89.8512 95.1108 89.9582 96.4388C90.0862 98.0128 90.8342 99.3708 91.2932 100.852C91.6392 101.968 91.7412 103.062 91.7982 104.221C91.8142 104.544 91.8342 104.866 91.5502 105.097C91.1122 105.449 90.4392 105.152 90.4042 104.593C90.2252 103.955 90.3432 103.2 90.2182 102.54C89.9542 101.145 89.2492 99.9308 88.8512 98.5828C87.9002 96.0448 88.2182 92.8568 89.1862 90.3868C90.1842 87.8418 90.6382 85.1758 89.7792 82.4948C89.3882 81.2808 88.7632 80.1648 88.4772 78.9138C88.2862 77.8778 88.1392 76.8328 88.1772 75.7758C88.2062 74.9628 88.2822 74.1978 88.4212 73.3968C88.6902 71.8538 89.5892 70.5018 89.8642 68.9638C90.2002 67.1018 90.1922 65.2048 89.5472 63.3978C88.9822 61.8158 88.2652 60.3938 88.0992 58.6978C87.9822 57.4988 87.9502 56.2238 88.1602 55.0328C88.3922 53.7168 88.8772 52.5498 89.3342 51.2948C89.7662 50.1068 89.8772 48.9228 89.9242 47.6718C90.0262 44.9858 88.1022 42.1818 87.9092 39.3298C87.8282 38.1338 87.8512 36.9788 88.0582 35.7868C88.2682 34.5838 88.7502 33.4978 89.1712 32.3608C89.5852 31.2428 89.7002 30.1488 89.7552 28.9658C90.1282 26.5478 88.4292 24.3658 87.9782 22.1018C87.6622 20.5138 87.5202 18.6138 87.8692 17.0168C88.0702 15.7678 88.5332 14.6258 88.9962 13.4558C89.4662 12.3868 89.5412 11.2288 89.5952 10.0808C89.6332 9.26676 90.0082 8.50477 90.9062 8.38377C91.8332 8.25977 92.6622 9.04376 92.6002 9.97876Z" fill="#735785"/>
<path d="M97.4712 9.97876C97.4022 11.0618 97.3502 12.1468 97.0512 13.1978C96.6482 14.6148 95.8952 15.9068 95.5982 17.3568C95.3032 18.7928 95.3112 20.4018 95.6492 21.8278C96.0182 23.3818 96.8222 24.7768 97.1202 26.3608C97.5992 28.9108 97.2122 31.5728 96.2182 33.9448C95.6732 35.2438 95.1982 36.9938 95.2342 38.2078C95.3102 39.7888 95.5392 41.0708 96.1192 42.5728C96.7052 44.0908 97.0502 45.4968 97.1292 47.1088C97.1922 48.3848 97.0702 49.6828 96.7562 50.9228C96.4122 52.1178 95.8522 53.2308 95.4622 54.4088C95.1702 55.2958 95.1842 56.2198 95.0762 57.1378C95.1252 59.8608 96.4042 62.1148 96.8812 64.7428C97.0812 65.8658 96.9772 67.0368 96.9022 68.1668C96.7732 70.1448 95.5712 71.7928 95.1972 73.6928C94.8882 74.9978 94.9282 76.3088 94.9922 77.6388C95.2772 80.0298 96.6322 82.0768 96.7992 84.5198C96.8902 85.8558 96.8202 87.2838 96.4772 88.5828C96.1252 89.9098 95.4162 91.1088 95.0772 92.4388C94.7472 93.7358 94.7222 95.1108 94.8292 96.4388C94.9572 98.0128 95.7052 99.3708 96.1642 100.852C96.5102 101.968 96.6122 103.062 96.6692 104.221C96.6852 104.544 96.7052 104.866 96.4212 105.097C95.9832 105.449 95.3102 105.152 95.2752 104.593C95.0962 103.955 95.2142 103.2 95.0892 102.54C94.8252 101.145 94.1202 99.9308 93.7222 98.5828C92.7712 96.0448 93.0892 92.8568 94.0572 90.3868C95.0552 87.8418 95.5092 85.1758 94.6502 82.4948C94.2592 81.2808 93.6342 80.1648 93.3482 78.9138C93.1572 77.8778 93.0102 76.8328 93.0482 75.7758C93.0772 74.9628 93.1522 74.1978 93.2922 73.3968C93.5612 71.8538 94.4602 70.5018 94.7352 68.9638C95.0712 67.1018 95.0632 65.2048 94.4182 63.3978C93.8532 61.8158 93.1362 60.3938 92.9702 58.6978C92.8532 57.4988 92.8212 56.2238 93.0312 55.0328C93.2632 53.7168 93.7482 52.5498 94.2052 51.2948C94.6372 50.1068 94.7482 48.9228 94.7952 47.6718C94.8982 44.9858 92.9732 42.1818 92.7802 39.3298C92.6992 38.1338 92.7222 36.9788 92.9292 35.7868C93.1392 34.5838 93.6202 33.4978 94.0422 32.3608C94.4562 31.2428 94.5712 30.1488 94.6262 28.9658C94.9992 26.5478 93.3002 24.3658 92.8492 22.1018C92.5332 20.5138 92.3912 18.6138 92.7402 17.0168C92.9412 15.7678 93.4042 14.6258 93.8672 13.4558C94.3372 12.3868 94.4122 11.2288 94.4662 10.0808C94.5042 9.26676 94.8792 8.50477 95.7772 8.38377C96.7042 8.25977 97.5332 9.04376 97.4712 9.97876Z" fill="#735785"/>
<path d="M102.34 9.97876C102.274 11.0608 102.219 12.1468 101.92 13.1978C101.518 14.6148 100.764 15.9068 100.467 17.3568C100.173 18.7928 100.18 20.4018 100.52 21.8278C100.889 23.3808 101.69 24.7778 101.989 26.3608C102.469 28.9098 102.082 31.5728 101.088 33.9448C100.54 35.2518 100.079 36.9888 100.105 38.2078C100.175 39.7888 100.41 41.0728 100.989 42.5728C101.576 44.0908 101.92 45.4958 102 47.1088C102.063 48.3838 101.942 49.6848 101.625 50.9228C101.282 52.1178 100.721 53.2318 100.331 54.4088C100.039 55.2958 100.053 56.2198 99.9472 57.1378C99.9942 59.8608 101.275 62.1148 101.752 64.7428C101.949 65.8678 101.848 67.0358 101.773 68.1668C101.642 70.1448 100.441 71.7928 100.067 73.6928C99.7582 74.9978 99.7982 76.3098 99.8622 77.6388C100.147 80.0298 101.5 82.0768 101.668 84.5198C101.76 85.8578 101.689 87.2808 101.347 88.5828C100.998 89.9108 100.285 91.1088 99.9482 92.4388C99.6182 93.7378 99.5932 95.1098 99.7002 96.4388C99.8282 98.0118 100.574 99.3718 101.034 100.852C101.38 101.967 101.485 103.062 101.538 104.221C101.554 104.544 101.574 104.866 101.29 105.097C100.853 105.449 100.181 105.152 100.144 104.593C99.9652 103.955 100.082 103.2 99.9572 102.54C99.6932 101.145 98.9902 99.9298 98.5902 98.5828C97.6392 96.0448 97.9582 92.8568 98.9262 90.3868C99.9232 87.8398 100.376 85.1778 99.5182 82.4948C99.1292 81.2808 98.5032 80.1648 98.2172 78.9138C98.0282 77.8768 97.8782 76.8338 97.9182 75.7758C97.9482 74.9628 98.0212 74.1978 98.1602 73.3968C98.4312 71.8548 99.3282 70.5018 99.6052 68.9638C99.9392 67.1018 99.9332 65.2048 99.2872 63.3978C98.7212 61.8158 98.0052 60.3938 97.8382 58.6978C97.7212 57.4988 97.6922 56.2248 97.8992 55.0328C98.1282 53.7168 98.6162 52.5488 99.0742 51.2948C99.5102 50.1008 99.6002 48.9258 99.6652 47.6718C99.8002 44.9898 97.8372 42.1768 97.6492 39.3298C97.5712 38.1318 97.5922 36.9808 97.7992 35.7868C98.0082 34.5838 98.4872 33.4978 98.9102 32.3608C99.3262 31.2438 99.4392 30.1478 99.4952 28.9658C99.8682 26.5488 98.1692 24.3648 97.7172 22.1018C97.4022 20.5178 97.2582 18.6088 97.6102 17.0168C97.8082 15.7668 98.2742 14.6248 98.7362 13.4558C99.2032 12.3858 99.2822 11.2298 99.3362 10.0808C99.3742 9.26676 99.7472 8.50377 100.647 8.38377C101.573 8.25977 102.405 9.04376 102.34 9.97876Z" fill="#735785"/>
<path d="M107.211 9.97876C107.145 11.0608 107.09 12.1468 106.791 13.1978C106.389 14.6148 105.635 15.9068 105.338 17.3568C105.044 18.7928 105.051 20.4018 105.391 21.8278C105.76 23.3808 106.561 24.7778 106.86 26.3608C107.34 28.9098 106.953 31.5728 105.959 33.9448C105.411 35.2518 104.95 36.9888 104.976 38.2078C105.046 39.7888 105.281 41.0728 105.86 42.5728C106.447 44.0908 106.791 45.4958 106.871 47.1088C106.934 48.3838 106.813 49.6848 106.496 50.9228C106.153 52.1178 105.592 53.2318 105.202 54.4088C104.91 55.2958 104.924 56.2198 104.818 57.1378C104.865 59.8608 106.146 62.1148 106.623 64.7428C106.82 65.8678 106.719 67.0358 106.644 68.1668C106.513 70.1448 105.312 71.7928 104.938 73.6928C104.629 74.9978 104.669 76.3098 104.733 77.6388C105.018 80.0298 106.371 82.0768 106.539 84.5198C106.631 85.8578 106.559 87.2808 106.218 88.5828C105.869 89.9108 105.156 91.1088 104.819 92.4388C104.489 93.7378 104.464 95.1098 104.571 96.4388C104.699 98.0118 105.445 99.3718 105.905 100.852C106.251 101.967 106.356 103.062 106.409 104.221C106.425 104.544 106.445 104.866 106.161 105.097C105.724 105.449 105.052 105.152 105.016 104.593C104.837 103.955 104.954 103.2 104.829 102.54C104.565 101.145 103.862 99.9298 103.462 98.5828C102.511 96.0448 102.83 92.8568 103.798 90.3868C104.795 87.8398 105.248 85.1778 104.39 82.4948C104.001 81.2808 103.375 80.1648 103.089 78.9138C102.9 77.8768 102.75 76.8338 102.79 75.7758C102.82 74.9628 102.892 74.1978 103.032 73.3968C103.303 71.8548 104.2 70.5018 104.477 68.9638C104.811 67.1018 104.805 65.2048 104.159 63.3978C103.593 61.8158 102.877 60.3938 102.71 58.6978C102.593 57.4988 102.564 56.2248 102.771 55.0328C103 53.7168 103.488 52.5488 103.946 51.2948C104.382 50.1008 104.472 48.9258 104.537 47.6718C104.672 44.9898 102.709 42.1768 102.521 39.3298C102.443 38.1318 102.464 36.9808 102.671 35.7868C102.88 34.5838 103.359 33.4978 103.782 32.3608C104.198 31.2438 104.311 30.1478 104.367 28.9658C104.74 26.5488 103.041 24.3648 102.589 22.1018C102.274 20.5178 102.13 18.6088 102.482 17.0168C102.68 15.7668 103.146 14.6248 103.608 13.4558C104.075 12.3858 104.154 11.2298 104.208 10.0808C104.246 9.26676 104.619 8.50377 105.519 8.38377C106.445 8.25977 107.277 9.04376 107.211 9.97876Z" fill="#735785"/>
<path d="M112.082 9.97876C112.013 11.0618 111.961 12.1468 111.662 13.1978C111.259 14.6148 110.506 15.9068 110.209 17.3568C109.914 18.7928 109.922 20.4018 110.26 21.8278C110.629 23.3818 111.433 24.7768 111.731 26.3608C112.21 28.9108 111.823 31.5728 110.829 33.9448C110.284 35.2438 109.809 36.9938 109.845 38.2078C109.921 39.7888 110.15 41.0708 110.73 42.5728C111.316 44.0908 111.661 45.4968 111.74 47.1088C111.803 48.3848 111.681 49.6828 111.367 50.9228C111.023 52.1178 110.463 53.2308 110.073 54.4088C109.781 55.2958 109.795 56.2198 109.687 57.1378C109.736 59.8608 111.015 62.1148 111.492 64.7428C111.692 65.8658 111.588 67.0368 111.513 68.1668C111.384 70.1448 110.182 71.7928 109.808 73.6928C109.499 74.9978 109.539 76.3088 109.603 77.6388C109.888 80.0298 111.243 82.0768 111.41 84.5198C111.501 85.8558 111.431 87.2838 111.088 88.5828C110.736 89.9098 110.027 91.1088 109.688 92.4388C109.358 93.7358 109.333 95.1108 109.44 96.4388C109.568 98.0128 110.316 99.3708 110.775 100.852C111.121 101.968 111.223 103.062 111.28 104.221C111.296 104.544 111.316 104.866 111.032 105.097C110.594 105.449 109.921 105.152 109.886 104.593C109.707 103.955 109.825 103.2 109.7 102.54C109.436 101.145 108.731 99.9308 108.333 98.5828C107.382 96.0448 107.7 92.8568 108.668 90.3868C109.666 87.8418 110.12 85.1758 109.261 82.4948C108.87 81.2808 108.245 80.1648 107.959 78.9138C107.768 77.8778 107.621 76.8328 107.659 75.7758C107.688 74.9628 107.764 74.1978 107.903 73.3968C108.171 71.8538 109.071 70.5018 109.346 68.9638C109.682 67.1018 109.674 65.2048 109.029 63.3978C108.464 61.8158 107.747 60.3938 107.581 58.6978C107.464 57.4988 107.432 56.2238 107.641 55.0328C107.873 53.7168 108.358 52.5498 108.815 51.2948C109.247 50.1068 109.358 48.9228 109.405 47.6718C109.508 44.9858 107.583 42.1818 107.39 39.3298C107.309 38.1338 107.332 36.9788 107.539 35.7868C107.749 34.5838 108.23 33.4978 108.652 32.3608C109.066 31.2428 109.181 30.1488 109.236 28.9658C109.609 26.5478 107.91 24.3658 107.459 22.1018C107.144 20.5138 107.001 18.6138 107.35 17.0168C107.551 15.7678 108.014 14.6258 108.477 13.4558C108.947 12.3868 109.022 11.2288 109.076 10.0808C109.114 9.26676 109.489 8.50477 110.387 8.38377C111.316 8.25977 112.145 9.04376 112.082 9.97876Z" fill="#735785"/>
<path d="M116.951 9.97876C116.885 11.0608 116.83 12.1468 116.531 13.1978C116.129 14.6148 115.375 15.9068 115.078 17.3568C114.784 18.7928 114.791 20.4018 115.131 21.8278C115.5 23.3808 116.301 24.7778 116.6 26.3608C117.079 28.9098 116.693 31.5728 115.699 33.9448C115.151 35.2518 114.69 36.9888 114.716 38.2078C114.786 39.7888 115.021 41.0728 115.6 42.5728C116.187 44.0908 116.531 45.4958 116.611 47.1088C116.674 48.3838 116.553 49.6848 116.236 50.9228C115.893 52.1178 115.332 53.2318 114.942 54.4088C114.65 55.2958 114.664 56.2198 114.558 57.1378C114.605 59.8608 115.886 62.1148 116.363 64.7428C116.56 65.8678 116.459 67.0358 116.384 68.1668C116.253 70.1448 115.052 71.7928 114.678 73.6928C114.369 74.9978 114.409 76.3098 114.473 77.6388C114.758 80.0298 116.111 82.0768 116.279 84.5198C116.371 85.8578 116.3 87.2808 115.958 88.5828C115.609 89.9108 114.896 91.1088 114.559 92.4388C114.229 93.7378 114.203 95.1098 114.311 96.4388C114.439 98.0118 115.185 99.3718 115.645 100.852C115.991 101.967 116.096 103.062 116.149 104.221C116.165 104.544 116.185 104.866 115.901 105.097C115.464 105.449 114.792 105.152 114.755 104.593C114.576 103.955 114.694 103.2 114.569 102.54C114.305 101.145 113.602 99.9298 113.202 98.5828C112.251 96.0448 112.57 92.8568 113.538 90.3868C114.535 87.8398 114.988 85.1778 114.13 82.4948C113.741 81.2808 113.115 80.1648 112.829 78.9138C112.64 77.8768 112.49 76.8338 112.53 75.7758C112.56 74.9628 112.633 74.1978 112.772 73.3968C113.043 71.8548 113.94 70.5018 114.217 68.9638C114.551 67.1018 114.545 65.2048 113.899 63.3978C113.333 61.8158 112.617 60.3938 112.45 58.6978C112.333 57.4988 112.304 56.2248 112.511 55.0328C112.74 53.7168 113.228 52.5488 113.686 51.2948C114.122 50.1008 114.212 48.9258 114.277 47.6718C114.412 44.9898 112.449 42.1768 112.261 39.3298C112.183 38.1318 112.204 36.9808 112.411 35.7868C112.62 34.5838 113.099 33.4978 113.522 32.3608C113.938 31.2438 114.051 30.1478 114.107 28.9658C114.48 26.5488 112.781 24.3648 112.329 22.1018C112.014 20.5178 111.87 18.6088 112.222 17.0168C112.42 15.7668 112.886 14.6248 113.348 13.4558C113.815 12.3858 113.894 11.2298 113.948 10.0808C113.986 9.26676 114.359 8.50377 115.259 8.38377C116.185 8.25977 117.017 9.04376 116.951 9.97876Z" fill="#735785"/>
<path d="M121.822 9.97876C121.753 11.0618 121.701 12.1468 121.402 13.1978C120.999 14.6148 120.246 15.9068 119.949 17.3568C119.654 18.7928 119.662 20.4018 120 21.8278C120.369 23.3818 121.173 24.7768 121.471 26.3608C121.95 28.9108 121.563 31.5728 120.569 33.9448C120.024 35.2438 119.549 36.9938 119.585 38.2078C119.661 39.7888 119.89 41.0708 120.47 42.5728C121.056 44.0908 121.401 45.4968 121.48 47.1088C121.543 48.3848 121.421 49.6828 121.107 50.9228C120.763 52.1178 120.203 53.2308 119.813 54.4088C119.521 55.2958 119.535 56.2198 119.427 57.1378C119.476 59.8608 120.755 62.1148 121.232 64.7428C121.432 65.8658 121.328 67.0368 121.253 68.1668C121.124 70.1448 119.922 71.7928 119.548 73.6928C119.239 74.9978 119.28 76.3088 119.343 77.6388C119.628 80.0298 120.983 82.0768 121.15 84.5198C121.241 85.8558 121.171 87.2838 120.828 88.5828C120.477 89.9098 119.768 91.1088 119.428 92.4388C119.098 93.7358 119.073 95.1108 119.18 96.4388C119.308 98.0128 120.056 99.3708 120.515 100.852C120.861 101.968 120.963 103.062 121.02 104.221C121.036 104.544 121.056 104.866 120.772 105.097C120.334 105.449 119.661 105.152 119.626 104.593C119.447 103.955 119.565 103.2 119.44 102.54C119.176 101.145 118.471 99.9308 118.073 98.5828C117.122 96.0448 117.44 92.8568 118.408 90.3868C119.406 87.8418 119.86 85.1758 119.001 82.4948C118.61 81.2808 117.985 80.1648 117.699 78.9138C117.508 77.8778 117.361 76.8328 117.399 75.7758C117.428 74.9628 117.503 74.1978 117.643 73.3968C117.911 71.8538 118.811 70.5018 119.086 68.9638C119.422 67.1018 119.414 65.2048 118.769 63.3978C118.203 61.8158 117.487 60.3938 117.321 58.6978C117.204 57.4988 117.172 56.2238 117.382 55.0328C117.613 53.7168 118.099 52.5498 118.556 51.2948C118.988 50.1068 119.099 48.9228 119.146 47.6718C119.249 44.9858 117.324 42.1818 117.131 39.3298C117.05 38.1338 117.073 36.9788 117.28 35.7868C117.49 34.5838 117.971 33.4978 118.393 32.3608C118.807 31.2428 118.922 30.1488 118.977 28.9658C119.35 26.5478 117.651 24.3658 117.2 22.1018C116.885 20.5138 116.742 18.6138 117.091 17.0168C117.292 15.7678 117.755 14.6258 118.218 13.4558C118.688 12.3868 118.763 11.2288 118.817 10.0808C118.855 9.26676 119.23 8.50477 120.128 8.38377C121.056 8.25977 121.885 9.04376 121.822 9.97876Z" fill="#735785"/>
<path d="M126.694 9.97876C126.625 11.0618 126.573 12.1468 126.274 13.1978C125.871 14.6148 125.118 15.9068 124.821 17.3568C124.526 18.7928 124.534 20.4018 124.872 21.8278C125.241 23.3818 126.045 24.7768 126.343 26.3608C126.822 28.9108 126.435 31.5728 125.441 33.9448C124.896 35.2438 124.421 36.9938 124.457 38.2078C124.533 39.7888 124.762 41.0708 125.342 42.5728C125.928 44.0908 126.273 45.4968 126.352 47.1088C126.415 48.3848 126.293 49.6828 125.979 50.9228C125.635 52.1178 125.075 53.2308 124.685 54.4088C124.393 55.2958 124.407 56.2198 124.299 57.1378C124.348 59.8608 125.627 62.1148 126.104 64.7428C126.304 65.8658 126.2 67.0368 126.125 68.1668C125.996 70.1448 124.794 71.7928 124.42 73.6928C124.111 74.9978 124.151 76.3088 124.215 77.6388C124.5 80.0298 125.855 82.0768 126.022 84.5198C126.113 85.8558 126.043 87.2838 125.7 88.5828C125.348 89.9098 124.639 91.1088 124.3 92.4388C123.97 93.7358 123.945 95.1108 124.052 96.4388C124.18 98.0128 124.928 99.3708 125.387 100.852C125.733 101.968 125.835 103.062 125.892 104.221C125.908 104.544 125.928 104.866 125.644 105.097C125.206 105.449 124.533 105.152 124.498 104.593C124.319 103.955 124.437 103.2 124.312 102.54C124.048 101.145 123.343 99.9308 122.945 98.5828C121.994 96.0448 122.312 92.8568 123.28 90.3868C124.278 87.8418 124.732 85.1758 123.873 82.4948C123.482 81.2808 122.857 80.1648 122.571 78.9138C122.38 77.8778 122.233 76.8328 122.271 75.7758C122.3 74.9628 122.376 74.1978 122.515 73.3968C122.783 71.8538 123.683 70.5018 123.958 68.9638C124.294 67.1018 124.286 65.2048 123.641 63.3978C123.075 61.8158 122.359 60.3938 122.193 58.6978C122.076 57.4988 122.044 56.2238 122.254 55.0328C122.485 53.7168 122.971 52.5498 123.428 51.2948C123.86 50.1068 123.971 48.9228 124.018 47.6718C124.121 44.9858 122.196 42.1818 122.003 39.3298C121.922 38.1338 121.945 36.9788 122.152 35.7868C122.362 34.5838 122.843 33.4978 123.265 32.3608C123.679 31.2428 123.794 30.1488 123.849 28.9658C124.222 26.5478 122.523 24.3658 122.072 22.1018C121.757 20.5138 121.614 18.6138 121.963 17.0168C122.164 15.7678 122.627 14.6258 123.09 13.4558C123.56 12.3868 123.635 11.2288 123.689 10.0808C123.727 9.26676 124.102 8.50477 125 8.38377C125.927 8.25977 126.756 9.04376 126.694 9.97876Z" fill="#735785"/>
<path d="M131.563 9.97876C131.497 11.0608 131.442 12.1468 131.143 13.1978C130.741 14.6148 129.987 15.9068 129.69 17.3568C129.396 18.7928 129.403 20.4018 129.743 21.8278C130.112 23.3808 130.913 24.7778 131.212 26.3608C131.691 28.9098 131.305 31.5728 130.311 33.9448C129.763 35.2518 129.302 36.9888 129.328 38.2078C129.398 39.7888 129.633 41.0728 130.212 42.5728C130.799 44.0908 131.143 45.4958 131.223 47.1088C131.286 48.3838 131.165 49.6848 130.848 50.9228C130.505 52.1178 129.944 53.2318 129.554 54.4088C129.262 55.2958 129.276 56.2198 129.17 57.1378C129.217 59.8608 130.498 62.1148 130.975 64.7428C131.172 65.8678 131.071 67.0358 130.996 68.1668C130.865 70.1448 129.664 71.7928 129.29 73.6928C128.981 74.9978 129.021 76.3098 129.085 77.6388C129.37 80.0298 130.723 82.0768 130.891 84.5198C130.983 85.8578 130.912 87.2808 130.57 88.5828C130.221 89.9108 129.508 91.1088 129.171 92.4388C128.841 93.7378 128.816 95.1098 128.923 96.4388C129.051 98.0118 129.797 99.3718 130.257 100.852C130.603 101.967 130.708 103.062 130.761 104.221C130.777 104.544 130.797 104.866 130.513 105.097C130.076 105.449 129.404 105.152 129.367 104.593C129.188 103.955 129.306 103.2 129.181 102.54C128.917 101.145 128.214 99.9298 127.814 98.5828C126.863 96.0448 127.182 92.8568 128.15 90.3868C129.147 87.8398 129.6 85.1778 128.742 82.4948C128.353 81.2808 127.727 80.1648 127.441 78.9138C127.252 77.8768 127.102 76.8338 127.142 75.7758C127.172 74.9628 127.245 74.1978 127.384 73.3968C127.655 71.8548 128.552 70.5018 128.829 68.9638C129.163 67.1018 129.157 65.2048 128.511 63.3978C127.945 61.8158 127.229 60.3938 127.062 58.6978C126.945 57.4988 126.916 56.2248 127.123 55.0328C127.351 53.7168 127.84 52.5488 128.298 51.2948C128.734 50.1008 128.824 48.9258 128.889 47.6718C129.024 44.9898 127.061 42.1768 126.873 39.3298C126.795 38.1318 126.816 36.9808 127.023 35.7868C127.232 34.5838 127.711 33.4978 128.134 32.3608C128.55 31.2438 128.663 30.1478 128.719 28.9658C129.092 26.5488 127.393 24.3648 126.941 22.1018C126.626 20.5178 126.482 18.6088 126.834 17.0168C127.032 15.7668 127.498 14.6248 127.96 13.4558C128.427 12.3858 128.506 11.2298 128.56 10.0808C128.598 9.26676 128.971 8.50377 129.871 8.38377C130.796 8.25977 131.628 9.04376 131.563 9.97876Z" fill="#735785"/>
<path d="M94.2372 125.21H39.8272C39.8272 125.21 43.7972 114.84 55.8172 107.36C55.8172 115.29 70.2372 118.37 79.3872 107.36C82.8172 109.581 89.6172 114.991 94.2372 125.21Z" fill="white"/>
<path d="M48.1092 125.21H47.3472C46.6192 121.064 46.5522 117.482 46.6742 114.933C46.9342 114.651 47.1992 114.368 47.4752 114.082C47.2962 116.623 47.2792 120.557 48.1092 125.21ZM83.2892 125.21H84.0492C84.7382 120.984 86.0432 117.101 87.2092 114.227C87.0232 114.014 86.8382 113.809 86.6522 113.605C85.4262 116.578 84.0102 120.71 83.2892 125.21Z" fill="#D4D4D4"/>
<path d="M77.2372 106.121C77.2372 106.121 78.0572 106.501 79.3872 107.361C70.2372 118.371 55.8172 115.291 55.8172 107.361C56.5872 106.881 57.3972 106.411 58.2372 105.961V102.711H77.2372V106.121Z" fill="#FFBFB0"/>
<path d="M51.5462 111.67C51.5462 111.67 50.6982 112.409 49.4262 113.52C49.1212 113.803 48.7352 114.084 48.4292 114.429C48.1042 114.764 47.7602 115.119 47.4062 115.485C47.0512 115.852 46.6832 116.232 46.3102 116.619C45.9622 117.035 45.6092 117.459 45.2572 117.883C44.9132 118.313 44.5282 118.715 44.2222 119.163C43.9042 119.603 43.5912 120.036 43.2882 120.455C42.9732 120.867 42.7142 121.294 42.4612 121.694C42.2112 122.096 41.9612 122.47 41.7552 122.828C41.3572 123.549 41.0122 124.146 40.8162 124.578C40.5982 125.011 40.5052 125.241 40.5052 125.241C40.3732 125.569 40.0012 125.727 39.6722 125.595C39.3522 125.466 39.1932 125.106 39.3092 124.784C39.3092 124.784 39.4152 124.488 39.6242 124.032C39.8172 123.559 40.1492 122.924 40.5382 122.151C40.7382 121.769 40.9812 121.372 41.2252 120.943C41.4712 120.515 41.7252 120.059 42.0332 119.619C42.3302 119.172 42.6382 118.709 42.9502 118.238C43.2512 117.758 43.6312 117.327 43.9712 116.865C44.3212 116.41 44.6712 115.955 45.0152 115.507C45.3942 115.081 45.7682 114.662 46.1302 114.256C46.4942 113.852 46.8472 113.46 47.1812 113.089C47.5082 112.698 47.8572 112.426 48.1582 112.123C49.3852 110.964 50.2022 110.19 50.2022 110.19C50.6032 109.81 51.2362 109.828 51.6162 110.229C51.9952 110.63 51.9782 111.263 51.5772 111.643C51.5672 111.652 51.5552 111.663 51.5462 111.67Z" fill="#451B1B"/>
<path d="M83.3192 110.337C81.7992 109.016 80.4362 108.039 79.3872 107.36C78.0572 106.5 77.2372 106.12 77.2372 106.12V102.71H58.2372V105.96C57.3972 106.41 56.5872 106.88 55.8172 107.36C53.9872 108.499 52.3442 109.704 50.8742 110.929" stroke="#451B1B" stroke-width="2" stroke-miterlimit="10" stroke-linecap="round" stroke-linejoin="round"/>
<path d="M93.4202 125.096C93.4202 125.096 92.9042 124.086 92.1312 122.572C91.9202 122.215 91.6912 121.829 91.4492 121.421C91.2002 121.016 90.9692 120.575 90.6752 120.144C90.3832 119.712 90.0812 119.267 89.7752 118.814C89.4812 118.352 89.1272 117.922 88.7932 117.48C88.4502 117.044 88.1312 116.588 87.7632 116.184C87.4072 115.771 87.0562 115.364 86.7182 114.97C85.9952 114.223 85.3432 113.505 84.7252 112.948C84.1302 112.368 83.6082 111.91 83.2382 111.595C82.8722 111.277 82.6632 111.094 82.6632 111.094L82.6362 111.07C82.2192 110.707 82.1772 110.075 82.5402 109.659C82.9032 109.243 83.5352 109.2 83.9512 109.562C83.9582 109.569 83.9692 109.578 83.9762 109.584C83.9762 109.584 84.1872 109.781 84.5582 110.127C84.9322 110.469 85.4592 110.964 86.0622 111.592C86.6872 112.196 87.3472 112.972 88.0752 113.778C88.4162 114.202 88.7682 114.639 89.1262 115.084C89.4952 115.52 89.8142 116.005 90.1552 116.473C90.4892 116.947 90.8412 117.407 91.1322 117.897C91.4352 118.379 91.7332 118.853 92.0212 119.312C92.3102 119.77 92.5442 120.248 92.7902 120.683C93.0292 121.121 93.2562 121.536 93.4652 121.919C94.1872 123.46 94.6692 124.486 94.6692 124.486C94.8322 124.834 94.6832 125.248 94.3352 125.411C93.9942 125.569 93.5902 125.428 93.4202 125.096Z" fill="#451B1B"/>
<path d="M55.8172 107.361C55.8172 115.291 70.2372 118.371 79.3872 107.361" stroke="#451B1B" stroke-width="2" stroke-miterlimit="10" stroke-linecap="round" stroke-linejoin="round"/>
<path d="M29.4062 79.9778C25.9062 74.7278 21.6782 75.2328 19.7812 78.1028C17.4682 81.6028 19.4062 95.6028 31.2812 95.1658L29.4062 79.9778Z" fill="#FFBFB0" stroke="#451B1B" stroke-width="2" stroke-miterlimit="10" stroke-linecap="round" stroke-linejoin="round"/>
<path d="M100.219 97.4778C83.9062 110.374 56.2392 110.708 42.1562 105.666C27.8662 100.55 26.9892 92.5418 25.9062 81.4588C23.0742 71.2918 15.9912 48.6248 35.9072 30.8748C55.8232 13.1248 93.7022 17.9148 106.323 38.2088C116.74 54.9588 111.407 73.7918 111.407 73.7918C115.031 73.9778 117.702 77.8358 116.447 84.0408C114.969 91.3528 110.219 96.4778 100.219 97.4778Z" fill="#FFE2DB"/>
<path d="M103.152 35.6078C88.2472 18.9288 54.3652 16.0038 35.9032 32.4588C24.2492 42.8458 21.8452 54.9128 22.4192 65.1768L25.1752 80.4317C25.4332 81.3697 25.6822 82.2487 25.9032 83.0427C26.0142 84.1797 26.1242 85.2817 26.2452 86.3537C28.9132 90.5307 33.2372 93.3257 41.4062 91.5987C48.7802 90.0397 52.3812 86.4077 57.0582 85.9917C61.7362 85.5757 66.2202 87.4077 71.7282 89.3667C77.2362 91.3257 85.6122 93.1447 92.5702 89.9087C98.9032 86.9637 100.486 82.7447 103.153 74.4097V35.6078H103.152Z" fill="#BF988D"/>
<path d="M100.219 97.4778C83.9062 110.374 56.2392 110.708 42.1562 105.666C27.8662 100.55 26.9892 92.5418 25.9062 81.4588C23.0742 71.2918 15.9912 48.6248 35.9072 30.8748C55.8232 13.1248 93.7022 17.9148 106.323 38.2088C116.74 54.9588 111.407 73.7918 111.407 73.7918C115.031 73.9778 117.702 77.8358 116.447 84.0408C114.969 91.3528 110.219 96.4778 100.219 97.4778Z" stroke="#451B1B" stroke-width="2" stroke-miterlimit="10" stroke-linecap="round" stroke-linejoin="round"/>
<path d="M106.667 92.1168C106.454 93.2448 105.47 94.1588 104.469 94.1588C103.468 94.1588 102.829 93.2448 103.042 92.1168C103.254 90.9898 104.238 90.0758 105.239 90.0758C106.24 90.0758 106.879 90.9898 106.667 92.1168Z" fill="#451B1B"/>
<path d="M111.416 74.7908C111.416 74.7908 111.308 74.7887 111.119 74.7837C110.95 74.7787 110.689 74.7858 110.363 74.8038C110.041 74.8118 109.666 74.8688 109.261 74.9058C108.865 74.9838 108.428 75.0287 108.012 75.1417C107.599 75.2597 107.162 75.3338 106.793 75.4938C106.421 75.6458 106.044 75.7408 105.766 75.9028C105.19 76.1988 104.806 76.3957 104.806 76.3957L104.726 76.4368C104.417 76.5958 104.038 76.4748 103.879 76.1648C103.731 75.8768 103.83 75.5238 104.095 75.3508C104.095 75.3508 104.505 75.0838 105.12 74.6838C105.424 74.4688 105.823 74.3198 106.23 74.1068C106.636 73.8848 107.103 73.7517 107.559 73.5727C108.017 73.4007 108.493 73.2998 108.932 73.1688C109.38 73.0808 109.795 72.9768 110.161 72.9298C110.521 72.8728 110.833 72.8338 111.066 72.8178C111.279 72.8008 111.401 72.7918 111.401 72.7918C111.953 72.7488 112.435 73.1618 112.478 73.7138C112.52 74.2658 112.108 74.7468 111.556 74.7898C111.523 74.7928 111.49 74.7937 111.458 74.7927L111.416 74.7908Z" fill="#451B1B"/>
<path d="M104.917 87.0018C105.073 85.2288 108.684 79.4578 112.239 81.0178C114.906 82.1878 113.26 87.8338 109.818 88.7888C109.469 86.7908 107.594 85.6248 104.917 87.0018Z" fill="#FFBFB0"/>
<path d="M110.604 81.3258L109.622 81.8038C109.44 81.8748 109.35 81.9877 109.215 82.0767L108.84 82.3548C108.584 82.5088 108.355 82.7948 108.113 83.0118C107.862 83.2308 107.655 83.4958 107.448 83.7608C107.229 84.0138 107.033 84.2838 106.865 84.5738C106.68 84.8518 106.507 85.1357 106.378 85.4347L106.163 85.8738L106.017 86.3138C105.972 86.4588 105.902 86.6128 105.902 86.7338C105.886 86.8618 105.866 86.9878 105.841 87.1128L104.351 86.1688L104.355 86.1668C104.945 85.8648 105.577 85.6848 106.222 85.6228C106.865 85.5628 107.53 85.6158 108.167 85.8348C108.484 85.9508 108.793 86.0997 109.077 86.2967C109.358 86.4987 109.616 86.7378 109.823 87.0158C109.918 87.1608 110.033 87.2928 110.099 87.4508C110.168 87.6038 110.262 87.7518 110.302 87.9118C110.418 88.2268 110.468 88.5428 110.51 88.8568C110.559 89.2218 110.302 89.5587 109.936 89.6077C109.598 89.6527 109.286 89.4377 109.201 89.1167L109.18 89.0347C109.125 88.8267 109.072 88.6217 108.981 88.4437C108.95 88.3457 108.879 88.2768 108.835 88.1908C108.793 88.1028 108.713 88.0458 108.658 87.9718C108.404 87.7018 108.069 87.5238 107.687 87.4358C106.92 87.2628 106.008 87.4647 105.34 87.9087L105.338 87.9097L105.099 88.0108C104.632 88.2068 104.094 87.9877 103.897 87.5207C103.82 87.3387 103.807 87.1457 103.847 86.9657L104 86.2748C104.045 86.0328 104.14 85.8567 104.22 85.6597L104.469 85.0848L104.773 84.5647C104.965 84.2097 105.197 83.8877 105.439 83.5777C105.665 83.2547 105.92 82.9558 106.2 82.6778C106.467 82.3888 106.733 82.1028 107.05 81.8628C107.367 81.6178 107.623 81.3448 108.004 81.1358L108.539 80.8118C108.715 80.7148 108.901 80.5768 109.066 80.5288L110.083 80.1308C110.418 79.9998 110.797 80.1648 110.928 80.5008C111.054 80.8188 110.905 81.1778 110.604 81.3258Z" fill="#451B1B"/>
<path d="M57.3562 89.7627L57.2682 89.7168C57.2682 89.7168 57.0322 89.5917 56.7962 89.4657C56.6682 89.4147 56.5322 89.3108 56.4332 89.2168C56.3332 89.1318 56.2662 89.0748 56.2662 89.0748L56.2602 89.0687C56.1222 88.9537 55.9282 88.9128 55.7472 88.9798C55.4802 89.0788 55.3442 89.3757 55.4432 89.6427C55.4432 89.6427 55.4722 89.7238 55.5182 89.8458C55.5552 89.9658 55.6222 90.1298 55.7402 90.3138C55.9452 90.6708 56.1932 91.0437 56.1932 91.0437C56.2722 91.1617 56.3842 91.2678 56.5182 91.3388C56.9532 91.5688 57.4942 91.4038 57.7242 90.9688C57.9562 90.5348 57.7902 89.9947 57.3562 89.7627Z" fill="#D17E7E"/>
<path d="M59.5362 100.457H56.0972C56.0972 100.457 56.9072 98.4678 57.1262 97.9968C57.6972 98.4368 58.6472 99.2468 59.5362 100.457Z" fill="#DE5766"/>
<path d="M57.1262 97.9968C57.6962 98.4368 58.6472 99.2468 59.5362 100.457H56.0972C56.0972 100.457 56.9062 98.4668 57.1262 97.9968Z" stroke="#451B1B" stroke-miterlimit="10" stroke-linecap="round" stroke-linejoin="round"/>
<path d="M56.6172 97.6468C56.6172 97.6468 56.8072 97.7668 57.1272 97.9968" stroke="#451B1B" stroke-miterlimit="10" stroke-linecap="round" stroke-linejoin="round"/>
<path d="M29.7892 45.1768L29.4782 90.4517C29.4772 90.5557 29.3932 90.6398 29.2882 90.6398C29.1852 90.6388 29.1012 90.5547 29.1012 90.4517L28.7892 45.1768C28.7872 44.9008 29.0092 44.6757 29.2862 44.6737C29.5622 44.6717 29.7872 44.8937 29.7892 45.1707V45.1768Z" fill="#451B1B"/>
<path d="M32.4632 45.1768L32.1512 91.9517C32.1502 92.0557 32.0662 92.1398 31.9612 92.1398C31.8582 92.1388 31.7742 92.0547 31.7742 91.9517L31.4622 45.1768C31.4602 44.9008 31.6832 44.6757 31.9582 44.6737C32.2342 44.6717 32.4602 44.8947 32.4622 45.1707L32.4632 45.1768Z" fill="#451B1B"/>
<path d="M35.1392 45.1768L34.8272 92.6488C34.8272 92.7528 34.7422 92.8368 34.6372 92.8368C34.5342 92.8358 34.4502 92.7518 34.4502 92.6488L34.1382 45.1768C34.1362 44.9008 34.3592 44.6758 34.6352 44.6738C34.9112 44.6728 35.1372 44.8948 35.1382 45.1708L35.1392 45.1768Z" fill="#451B1B"/>
<path d="M37.8132 45.1768L37.5012 92.7968C37.5012 92.9008 37.4162 92.9848 37.3112 92.9848C37.2082 92.9838 37.1242 92.8998 37.1242 92.7968L36.8122 45.1768C36.8102 44.9008 37.0332 44.6758 37.3082 44.6738C37.5842 44.6728 37.8092 44.8948 37.8122 45.1708L37.8132 45.1768Z" fill="#451B1B"/>
<path d="M40.4882 45.1768L40.1762 92.5468C40.1762 92.6508 40.0912 92.7348 39.9862 92.7348C39.8832 92.7338 39.7992 92.6498 39.7992 92.5468L39.4872 45.1768C39.4852 44.9008 39.7082 44.6758 39.9832 44.6738C40.2592 44.6728 40.4852 44.8948 40.4872 45.1708L40.4882 45.1768Z" fill="#451B1B"/>
<path d="M43.1622 45.1768L42.8502 91.9917C42.8502 92.0957 42.7652 92.1808 42.6602 92.1798C42.5572 92.1788 42.4732 92.0947 42.4732 91.9917L42.1612 45.1768C42.1592 44.9008 42.3822 44.6757 42.6582 44.6737C42.9342 44.6717 43.1592 44.8947 43.1612 45.1707L43.1622 45.1768Z" fill="#451B1B"/>
<path d="M45.8382 45.1768L45.5262 91.1708C45.5252 91.2748 45.4412 91.3597 45.3362 91.3587C45.2332 91.3577 45.1492 91.2738 45.1492 91.1708L44.8372 45.1768C44.8352 44.9008 45.0582 44.6757 45.3332 44.6737C45.6092 44.6717 45.8352 44.8947 45.8372 45.1707L45.8382 45.1768Z" fill="#451B1B"/>
<path d="M48.5122 45.1768L48.2012 90.0938C48.2002 90.1988 48.1152 90.2818 48.0112 90.2818C47.9082 90.2808 47.8242 90.1968 47.8242 90.0938L47.5132 45.1768C47.5112 44.9008 47.7332 44.6757 48.0102 44.6737C48.2862 44.6717 48.5112 44.8937 48.5132 45.1707L48.5122 45.1768Z" fill="#451B1B"/>
<path d="M51.1862 45.1757L50.8752 88.8438C50.8742 88.9488 50.7892 89.0318 50.6852 89.0318C50.5822 89.0308 50.4982 88.9468 50.4982 88.8438L50.1862 45.1757C50.1842 44.8997 50.4062 44.6737 50.6832 44.6727C50.9592 44.6707 51.1852 44.8927 51.1862 45.1687V45.1757Z" fill="#451B1B"/>
<path d="M53.8622 45.1768L53.5512 87.6398C53.5502 87.7438 53.4662 87.8277 53.3612 87.8277C53.2582 87.8267 53.1752 87.7428 53.1742 87.6398L52.8622 45.1768C52.8602 44.9008 53.0822 44.6757 53.3592 44.6727C53.6352 44.6707 53.8602 44.8927 53.8622 45.1687C53.8622 45.1707 53.8622 45.1768 53.8622 45.1768Z" fill="#451B1B"/>
<path d="M56.5362 45.1777L56.2252 86.8277C56.2242 86.9317 56.1392 87.0168 56.0352 87.0158C55.9322 87.0148 55.8482 86.9307 55.8482 86.8277L55.5362 45.1777C55.5342 44.9017 55.7562 44.6767 56.0322 44.6737C56.3082 44.6717 56.5342 44.8937 56.5362 45.1707V45.1777Z" fill="#451B1B"/>
<path d="M59.2112 45.1768L58.8992 86.6287C58.8992 86.7327 58.8132 86.8168 58.7092 86.8168C58.6062 86.8158 58.5222 86.7317 58.5222 86.6287L58.2112 45.1768C58.2092 44.9008 58.4312 44.6757 58.7072 44.6727C58.9832 44.6707 59.2092 44.8927 59.2112 45.1687C59.2112 45.1707 59.2112 45.1768 59.2112 45.1768Z" fill="#451B1B"/>
<path d="M61.8852 45.1768L61.5742 86.8967C61.5732 87.0017 61.4882 87.0858 61.3842 87.0848C61.2812 87.0838 61.1972 86.9997 61.1972 86.8967L60.8852 45.1768C60.8832 44.9008 61.1052 44.6757 61.3812 44.6727C61.6572 44.6707 61.8832 44.8927 61.8852 45.1687C61.8852 45.1707 61.8852 45.1768 61.8852 45.1768Z" fill="#451B1B"/>
<path d="M64.5612 45.1768L64.2502 87.4728C64.2492 87.5768 64.1642 87.6608 64.0602 87.6608C63.9572 87.6598 63.8732 87.5758 63.8732 87.4728L63.5612 45.1768C63.5592 44.9008 63.7812 44.6757 64.0572 44.6727C64.3332 44.6707 64.5592 44.8927 64.5612 45.1687C64.5612 45.1707 64.5612 45.1768 64.5612 45.1768Z" fill="#451B1B"/>
<path d="M67.2352 45.1768L66.9242 88.2967C66.9232 88.4007 66.8392 88.4848 66.7342 88.4848C66.6312 88.4838 66.5472 88.3997 66.5472 88.2967L66.2352 45.1768C66.2332 44.9008 66.4552 44.6757 66.7322 44.6737C67.0082 44.6717 67.2332 44.8938 67.2352 45.1698V45.1768Z" fill="#451B1B"/>
<path d="M69.9102 45.1768L69.5982 89.2258C69.5972 89.3298 69.5132 89.4147 69.4082 89.4137C69.3052 89.4127 69.2212 89.3288 69.2212 89.2258L68.9102 45.1768C68.9082 44.9008 69.1302 44.6757 69.4072 44.6737C69.6832 44.6717 69.9082 44.8937 69.9102 45.1707V45.1768Z" fill="#451B1B"/>
<path d="M72.5842 45.1768L72.2722 90.1777C72.2712 90.2817 72.1872 90.3657 72.0822 90.3657C71.9792 90.3647 71.8962 90.2807 71.8952 90.1777L71.5832 45.1768C71.5812 44.9008 71.8032 44.6757 72.0802 44.6737C72.3562 44.6717 72.5812 44.8937 72.5832 45.1707L72.5842 45.1768Z" fill="#451B1B"/>
<path d="M75.2592 45.1768L74.9472 91.0137C74.9462 91.1177 74.8622 91.2017 74.7572 91.2017C74.6542 91.2007 74.5702 91.1167 74.5702 91.0137L74.2592 45.1768C74.2572 44.9008 74.4792 44.6757 74.7562 44.6737C75.0322 44.6717 75.2572 44.8947 75.2592 45.1707V45.1768Z" fill="#451B1B"/>
<path d="M77.9342 45.1768L77.6222 91.6647C77.6212 91.7697 77.5372 91.8537 77.4322 91.8527C77.3292 91.8517 77.2462 91.7677 77.2452 91.6647L76.9342 45.1768C76.9322 44.9008 77.1552 44.6757 77.4302 44.6737C77.7062 44.6717 77.9322 44.8947 77.9342 45.1707V45.1768Z" fill="#451B1B"/>
<path d="M80.6082 45.1768L80.2962 92.1148C80.2962 92.2188 80.2112 92.3027 80.1062 92.3027C80.0032 92.3017 79.9192 92.2178 79.9192 92.1148L79.6082 45.1768C79.6062 44.9008 79.8292 44.6757 80.1052 44.6737C80.3812 44.6717 80.6062 44.8947 80.6082 45.1707V45.1768Z" fill="#451B1B"/>
<path d="M83.2832 45.1768L82.9712 92.3428C82.9712 92.4468 82.8862 92.5308 82.7812 92.5308C82.6782 92.5298 82.5942 92.4458 82.5942 92.3428L82.2822 45.1768C82.2802 44.9008 82.5032 44.6758 82.7792 44.6738C83.0552 44.6728 83.2802 44.8948 83.2822 45.1708L83.2832 45.1768Z" fill="#451B1B"/>
<path d="M85.9582 45.1768L85.6462 92.3148C85.6462 92.4198 85.5612 92.5028 85.4562 92.5028C85.3532 92.5018 85.2702 92.4178 85.2692 92.3148L84.9582 45.1768C84.9562 44.9008 85.1792 44.6758 85.4552 44.6738C85.7312 44.6728 85.9562 44.8948 85.9582 45.1708V45.1768Z" fill="#451B1B"/>
<path d="M88.6332 45.1768L88.3222 91.9867C88.3212 92.0907 88.2372 92.1758 88.1322 92.1748C88.0292 92.1738 87.9462 92.0897 87.9452 91.9867L87.6332 45.1768C87.6312 44.9008 87.8542 44.6757 88.1302 44.6737C88.4062 44.6717 88.6312 44.8947 88.6332 45.1707V45.1768Z" fill="#451B1B"/>
<path d="M91.3072 45.1768L90.9952 91.2897C90.9942 91.3947 90.9102 91.4787 90.8052 91.4777C90.7022 91.4767 90.6192 91.3927 90.6182 91.2897L90.3072 45.1768C90.3052 44.9008 90.5282 44.6757 90.8042 44.6737C91.0802 44.6717 91.3052 44.8947 91.3072 45.1707V45.1768Z" fill="#451B1B"/>
<path d="M93.9822 45.1768L93.6712 90.1408C93.6702 90.2448 93.5852 90.3298 93.4812 90.3288C93.3782 90.3278 93.2942 90.2438 93.2942 90.1408L92.9822 45.1768C92.9802 44.9008 93.2022 44.6757 93.4792 44.6737C93.7552 44.6717 93.9812 44.8937 93.9822 45.1707V45.1768Z" fill="#451B1B"/>
<path d="M96.6562 45.1768L96.3452 88.3967C96.3442 88.5017 96.2592 88.5858 96.1552 88.5848C96.0522 88.5838 95.9682 88.4997 95.9682 88.3967L95.6562 45.1768C95.6542 44.9008 95.8762 44.6757 96.1532 44.6737C96.4292 44.6717 96.6542 44.8938 96.6562 45.1698V45.1768Z" fill="#451B1B"/>
<path d="M106.876 75.0857C103.506 80.7557 99.3562 84.4858 96.1562 85.5758C97.7862 81.4458 98.0162 75.9758 97.7562 71.0458L97.5362 71.0568C90.9062 66.3668 82.2762 53.6758 81.0362 47.7468C74.9662 54.0578 67.0062 68.1068 67.0062 68.1068H66.9962C66.4562 73.8568 65.7662 78.7368 65.0362 79.8668C52.6562 76.8368 46.4762 67.6068 43.8262 57.5268C37.6562 69.9868 28.8762 73.1468 28.8762 73.1468C29.6562 79.5568 31.9062 83.4258 31.9062 83.4258C17.1562 79.4468 14.4862 63.2858 15.0362 56.4868C14.6562 56.6168 8.40621 56.3668 4.27621 50.6168C13.4062 47.4868 16.9062 39.2468 23.6562 28.3668C30.4062 17.4868 45.5362 12.4868 56.1562 12.2468C87.2062 6.19676 104.916 21.1168 111.776 31.4868C116.576 38.7468 121.536 43.6758 127.596 43.5568C127.465 46.7458 123.715 51.8068 121.156 52.8668C123.156 59.0568 121.156 64.9268 121.276 67.9868C121.406 71.0568 122.215 74.1758 125.156 76.6168C119.406 78.7468 115.246 75.8768 115.246 75.8768C111.656 72.7558 106.876 75.0857 106.876 75.0857Z" fill="#CCCCCC"/>
<path d="M42.3672 48.9268C46.9692 54.6158 49.1662 71.5537 65.0362 79.8657C52.4062 76.7417 44.0942 66.9288 42.3672 48.9268Z" fill="#E3E3E3"/>
<path d="M31.7102 53.7028C26.9302 63.0388 28.8172 72.6178 28.8172 72.6178L29.9172 72.6767C31.5052 71.8847 34.7182 69.9518 38.1172 66.1078C28.8892 71.1978 31.7102 53.7028 31.7102 53.7028Z" fill="#ADADAD"/>
<path d="M106.25 76.1028C106.461 75.7718 106.67 75.4328 106.876 75.0858C106.876 75.0858 111.656 72.7558 115.246 75.8758C115.246 75.8758 119.406 78.7458 125.156 76.6158C122.216 74.1758 121.406 71.0558 121.276 67.9858C121.173 65.3748 122.606 60.7158 121.789 55.5608C118.228 53.9438 113.406 54.7598 112.558 58.8058C111.354 64.5448 109.286 71.3908 106.252 76.0968C106.251 76.0998 106.25 76.1028 106.25 76.1028Z" fill="#ADADAD"/>
<path d="M84.9892 31.4508C78.4192 31.5168 78.3042 37.2838 82.2712 37.4508C86.2392 37.6178 93.1552 31.3678 84.9892 31.4508Z" fill="#E3E3E3"/>
<path d="M111.777 31.4868C111.612 31.2378 111.435 30.9838 111.257 30.7288C99.6002 35.5448 86.6662 38.9688 87.0732 40.3808C87.5252 41.9498 111.783 51.5058 127.523 43.5548C121.497 43.6318 116.557 38.7168 111.777 31.4868Z" fill="#E3E3E3"/>
<path d="M19.7592 34.8348C17.4752 38.6548 15.3992 41.9798 13.0002 44.6608C26.4992 48.0578 37.0042 43.6488 36.8442 42.7418C36.6962 41.9038 27.2662 38.6968 19.7592 34.8348Z" fill="#E3E3E3"/>
<path d="M65.9992 68.0288C65.9992 68.0288 66.5092 63.1378 67.0192 58.2478C67.1672 57.0238 67.2152 55.8078 67.3072 54.6628C67.3882 53.5178 67.4632 52.4498 67.5282 51.5338C67.6582 49.7008 67.7442 48.4778 67.7442 48.4778L67.7462 48.4538C67.7642 48.1948 67.9892 47.9988 68.2492 48.0178C68.5002 48.0358 68.6902 48.2468 68.6872 48.4948C68.6872 48.4948 68.6662 49.7278 68.6352 51.5768C68.6192 52.5028 68.6012 53.5828 68.5812 54.7398C68.5512 55.8958 68.5672 57.1388 68.4862 58.3628C68.2392 63.2738 67.9932 68.1848 67.9932 68.1848C67.9652 68.7368 67.4962 69.1617 66.9442 69.1337C66.3922 69.1067 65.9672 68.6368 65.9952 68.0838C65.9962 68.0678 65.9982 68.0448 65.9992 68.0288Z" fill="#451B1B"/>
<path d="M43.8262 57.5267C46.4762 67.6067 52.6562 76.8367 65.0362 79.8667C65.7662 78.7367 66.4562 73.8567 66.9962 68.1067" stroke="#451B1B" stroke-width="2" stroke-miterlimit="10" stroke-linecap="round" stroke-linejoin="round"/>
<path d="M42.8312 38.8287C42.8312 38.8287 42.8112 40.0067 42.7802 41.7747C42.7722 42.2167 42.7642 42.6947 42.7552 43.2017C42.7832 43.7007 42.8122 44.2267 42.8422 44.7707C42.8732 45.3137 42.9052 45.8747 42.9382 46.4447C42.9832 47.0137 42.9782 47.5917 43.0632 48.1677C43.2252 49.3187 43.3862 50.4697 43.5372 51.5477C43.6162 52.0857 43.6662 52.6097 43.8032 53.0897C43.9182 53.5737 44.0272 54.0308 44.1272 54.4528C44.5262 56.1378 44.7922 57.2617 44.7922 57.2617L44.8152 57.3617C44.9422 57.8997 44.6102 58.4387 44.0722 58.5657C43.5342 58.6937 42.9952 58.3607 42.8682 57.8227C42.8642 57.8057 42.8602 57.7857 42.8572 57.7697C42.8572 57.7697 42.6432 56.5857 42.3222 54.8107C42.2422 54.3687 42.1562 53.8887 42.0652 53.3807C41.9532 52.8767 41.9282 52.3327 41.8772 51.7747C41.7832 50.6577 41.6822 49.4677 41.5812 48.2767C41.5272 47.6827 41.5622 47.0777 41.5492 46.4897C41.5482 45.9007 41.5462 45.3207 41.5452 44.7597C41.5462 44.1997 41.5462 43.6587 41.5462 43.1457C41.5832 42.6407 41.6172 42.1637 41.6492 41.7227C41.7762 39.9597 41.8612 38.7837 41.8612 38.7837C41.8802 38.5167 42.1122 38.3157 42.3802 38.3347C42.6392 38.3547 42.8362 38.5727 42.8312 38.8287Z" fill="#451B1B"/>
<path d="M67.0062 68.1068C67.0062 68.1068 74.9662 54.0568 81.0362 47.7468C82.2762 53.6768 90.9062 66.3668 97.5362 71.0568" stroke="#451B1B" stroke-width="2" stroke-miterlimit="10" stroke-linecap="round" stroke-linejoin="round"/>
<path d="M105.993 74.6167C105.993 74.6167 106.549 73.6428 107.382 72.1838C107.587 71.8178 107.824 71.4237 108.046 71.0037C108.235 70.5767 108.435 70.1278 108.642 69.6628C108.85 69.1958 109.064 68.7147 109.283 68.2247C109.493 67.7307 109.752 67.2477 109.9 66.7137C110.246 65.6647 110.591 64.6168 110.915 63.6338C110.997 63.3868 111.077 63.1447 111.155 62.9077C111.209 62.6647 111.261 62.4257 111.312 62.1947C111.413 61.7307 111.508 61.2908 111.596 60.8858C111.95 59.2598 112.186 58.1757 112.186 58.1757L112.196 58.1288C112.249 57.8838 112.49 57.7297 112.734 57.7827C112.969 57.8337 113.121 58.0597 113.085 58.2937C113.085 58.2937 112.913 59.4127 112.654 61.0907C112.589 61.5107 112.518 61.9677 112.444 62.4487C112.405 62.6897 112.366 62.9377 112.326 63.1907C112.261 63.4377 112.195 63.6907 112.127 63.9487C111.856 64.9797 111.566 66.0797 111.276 67.1797C111.156 67.7377 110.918 68.2657 110.728 68.7977C110.529 69.3287 110.332 69.8518 110.142 70.3568C109.951 70.8638 109.766 71.3537 109.59 71.8187C109.389 72.2607 109.179 72.6618 108.996 73.0418C108.253 74.5498 107.758 75.5548 107.758 75.5548C107.514 76.0508 106.914 76.2537 106.418 76.0097C105.922 75.7657 105.719 75.1658 105.963 74.6698C105.973 74.6538 105.984 74.6327 105.993 74.6167Z" fill="#451B1B"/>
<path d="M97.7562 71.0458C98.0172 75.9768 97.7862 81.4458 96.1562 85.5758C99.3562 84.4858 103.506 80.7558 106.876 75.0858" stroke="#451B1B" stroke-width="2" stroke-miterlimit="10" stroke-linecap="round" stroke-linejoin="round"/>
<path d="M96.6112 58.7117C96.6112 58.7117 96.8142 59.4517 97.0572 60.5997C97.1802 61.1707 97.3382 61.8368 97.4802 62.5538C97.6102 63.2718 97.7492 64.0377 97.8882 64.8047C97.9572 65.1887 98.0272 65.5717 98.0952 65.9497C98.1732 66.3267 98.2012 66.7037 98.2542 67.0657C98.3472 67.7927 98.4342 68.4698 98.5082 69.0518C98.6562 70.2168 98.7562 70.9927 98.7562 70.9927C98.8262 71.5417 98.4382 72.0437 97.8892 72.1127C97.3402 72.1827 96.8392 71.7947 96.7692 71.2457C96.7652 71.2187 96.7632 71.1898 96.7622 71.1618L96.7602 71.0987C96.7602 71.0987 96.7292 70.3367 96.6822 69.1937C96.6592 68.6217 96.6322 67.9527 96.6032 67.2367C96.5832 66.8797 96.5872 66.5067 96.5432 66.1317C96.5082 65.7567 96.4732 65.3758 96.4382 64.9938C96.3672 64.2298 96.2962 63.4667 96.2312 62.7497C96.1532 62.0357 96.0552 61.3757 95.9832 60.8047C95.8442 59.6667 95.7052 58.9008 95.7052 58.9008C95.6592 58.6478 95.8262 58.4067 96.0792 58.3607C96.3172 58.3177 96.5462 58.4637 96.6102 58.6927L96.6112 58.7117Z" fill="#451B1B"/>
<path d="M27.7312 71.7488C27.7312 71.7488 27.7222 71.4128 27.7062 70.8248C27.6982 70.5298 27.6882 70.1738 27.6772 69.7638C27.6702 69.3518 27.7002 68.8618 27.7132 68.3408C27.7372 67.8198 27.7312 67.2468 27.8052 66.6618C27.8632 66.0728 27.9252 65.4528 27.9882 64.8118C28.0922 64.1758 28.1992 63.5188 28.3082 62.8518C28.4012 62.1818 28.5722 61.5168 28.7312 60.8498C28.9032 60.1868 29.0172 59.5088 29.2402 58.8708C29.4412 58.2288 29.6392 57.5968 29.8302 56.9848C30.0042 56.3678 30.2732 55.8068 30.4742 55.2558C30.6882 54.7108 30.8912 54.1948 31.0782 53.7188C31.9522 51.8738 32.5342 50.6438 32.5342 50.6438C32.6532 50.3928 32.9542 50.2848 33.2052 50.4038C33.4492 50.5198 33.5582 50.8058 33.4542 51.0528L33.4392 51.0878C33.4392 51.0878 32.9262 52.3148 32.1562 54.1538C31.9962 54.6248 31.8232 55.1348 31.6392 55.6748C31.4692 56.2188 31.2322 56.7738 31.0922 57.3798C30.9342 57.9798 30.7712 58.5998 30.6052 59.2288C30.4172 59.8528 30.3402 60.5128 30.2032 61.1578C30.0802 61.8058 29.9442 62.4518 29.8862 63.0988C29.8112 63.7418 29.7372 64.3748 29.6662 64.9878C29.6342 65.6028 29.6022 66.1978 29.5732 66.7618C29.5272 67.3268 29.5602 67.8508 29.5592 68.3368C29.5702 68.8248 29.5582 69.2598 29.5842 69.6658C29.6142 70.0748 29.6402 70.4318 29.6622 70.7248C29.7052 71.3118 29.7292 71.6478 29.7292 71.6478C29.7692 72.1988 29.3562 72.6778 28.8052 72.7178C28.2542 72.7588 27.7752 72.3448 27.7342 71.7938C27.7322 71.7808 27.7312 71.7628 27.7312 71.7488Z" fill="#451B1B"/>
<path d="M106.876 75.0857C106.876 75.0857 111.656 72.7557 115.246 75.8757C115.246 75.8757 119.406 78.7457 125.156 76.6157C122.216 74.1757 121.406 71.0557 121.276 67.9857C121.156 64.9247 123.156 59.0557 121.156 52.8657C123.716 51.8057 127.466 46.7458 127.596 43.5558C121.535 43.6748 116.575 38.7447 111.776 31.4857C104.916 21.1157 87.2062 6.19575 56.1562 12.2458C45.5362 12.4858 30.4062 17.4857 23.6562 28.3657C16.9062 39.2457 13.4062 47.4857 4.27621 50.6157C8.40621 56.3657 14.6562 56.6157 15.0362 56.4857C14.4862 63.2857 17.1562 79.4458 31.9062 83.4248C31.9062 83.4248 29.6562 79.5557 28.8762 73.1457C28.8192 72.6757 28.7702 72.1937 28.7302 71.6977" stroke="#451B1B" stroke-width="2" stroke-miterlimit="10" stroke-linecap="round" stroke-linejoin="round"/>
<path d="M28.8762 73.1467C28.8762 73.1467 37.6562 69.9867 43.8262 57.5267V57.5168" stroke="#451B1B" stroke-width="2" stroke-miterlimit="10" stroke-linecap="round" stroke-linejoin="round"/>
<path d="M59.5312 15.3668C59.5312 15.3668 50.9062 -0.508246 29.5312 1.11675C29.5312 1.11675 41.7812 16.1168 59.5312 15.3668Z" fill="#CCCCCC" stroke="#451B1B" stroke-width="2" stroke-miterlimit="10" stroke-linecap="round" stroke-linejoin="round"/>
</svg>
