<svg width="126" height="126" viewBox="0 0 126 126" fill="none" xmlns="http://www.w3.org/2000/svg">
<path d="M90.96 125.21H36.55C36.55 125.21 40.52 114.84 52.54 107.36C52.54 115.29 66.96 118.37 76.11 107.36C79.54 109.581 86.34 114.991 90.96 125.21Z" fill="white"/>
<path d="M44.8321 125.21H44.0701C43.3421 121.064 43.2751 117.482 43.3971 114.933C43.6571 114.651 43.9221 114.368 44.1981 114.082C44.0201 116.623 44.0021 120.557 44.8321 125.21ZM80.0131 125.21H80.7731C81.4621 120.984 82.7671 117.101 83.9331 114.227C83.7481 114.014 83.5621 113.809 83.3761 113.605C82.1501 116.578 80.7331 120.71 80.0131 125.21Z" fill="#D4D4D4"/>
<path d="M73.96 106.121C73.96 106.121 74.78 106.501 76.11 107.361C66.96 118.371 52.54 115.291 52.54 107.361C53.31 106.881 54.12 106.411 54.96 105.961V102.711H73.96V106.121Z" fill="#FFBFB0"/>
<path d="M48.27 111.67C48.27 111.67 47.421 112.409 46.15 113.52C45.845 113.803 45.459 114.084 45.153 114.429C44.827 114.764 44.484 115.119 44.128 115.485C43.773 115.852 43.405 116.232 43.032 116.619C42.684 117.035 42.332 117.459 41.978 117.883C41.634 118.313 41.249 118.715 40.944 119.163C40.626 119.603 40.313 120.036 40.009 120.455C39.695 120.867 39.435 121.294 39.183 121.694C38.934 122.096 38.683 122.47 38.477 122.828C38.079 123.549 37.735 124.146 37.538 124.578C37.319 125.011 37.227 125.241 37.227 125.241C37.095 125.569 36.722 125.727 36.395 125.595C36.075 125.466 35.916 125.106 36.032 124.784C36.032 124.784 36.139 124.488 36.347 124.032C36.541 123.559 36.872 122.924 37.261 122.151C37.461 121.769 37.704 121.372 37.947 120.943C38.193 120.515 38.447 120.059 38.755 119.619C39.053 119.172 39.359 118.709 39.672 118.238C39.974 117.758 40.353 117.327 40.693 116.865C41.043 116.41 41.393 115.955 41.737 115.507C42.117 115.081 42.491 114.662 42.852 114.256C43.216 113.852 43.569 113.46 43.903 113.089C44.23 112.698 44.58 112.426 44.881 112.123C46.108 110.964 46.925 110.19 46.925 110.19C47.326 109.81 47.96 109.828 48.339 110.229C48.719 110.63 48.701 111.263 48.3 111.643C48.29 111.652 48.278 111.663 48.27 111.67Z" fill="#451B1B"/>
<path d="M80.0419 110.337C78.5219 109.016 77.1589 108.039 76.1099 107.36C74.7799 106.5 73.9599 106.12 73.9599 106.12V102.71H54.9599V105.96C54.1199 106.41 53.3099 106.88 52.5399 107.36C50.7099 108.499 49.0669 109.704 47.5969 110.929" stroke="#451B1B" stroke-width="2" stroke-miterlimit="10" stroke-linecap="round" stroke-linejoin="round"/>
<path d="M90.1439 125.096C90.1439 125.096 89.6279 124.086 88.8549 122.572C88.6439 122.215 88.4149 121.829 88.1719 121.421C87.9239 121.016 87.693 120.575 87.399 120.144C87.107 119.712 86.8049 119.267 86.4989 118.814C86.2049 118.352 85.8509 117.922 85.5159 117.48C85.1729 117.044 84.8539 116.588 84.4859 116.184C84.1309 115.771 83.7799 115.364 83.4409 114.97C82.7179 114.223 82.0669 113.505 81.4479 112.948C80.8529 112.368 80.3319 111.91 79.9619 111.595C79.5959 111.277 79.3869 111.094 79.3869 111.094L79.36 111.07C78.944 110.707 78.9009 110.075 79.2629 109.659C79.6259 109.243 80.258 109.2 80.675 109.562C80.682 109.569 80.6929 109.578 80.6999 109.584C80.6999 109.584 80.9119 109.781 81.2819 110.127C81.6559 110.469 82.183 110.964 82.787 111.592C83.412 112.196 84.072 112.972 84.8 113.778C85.141 114.202 85.4929 114.639 85.8509 115.084C86.2199 115.52 86.5389 116.005 86.8799 116.473C87.2139 116.947 87.5659 117.407 87.8569 117.897C88.1599 118.379 88.4589 118.853 88.7469 119.312C89.0359 119.77 89.2699 120.248 89.5169 120.683C89.7559 121.121 89.9819 121.536 90.1909 121.919C90.9139 123.46 91.395 124.486 91.395 124.486C91.558 124.834 91.4089 125.248 91.0609 125.411C90.7179 125.569 90.3139 125.428 90.1439 125.096Z" fill="#451B1B"/>
<path d="M52.54 107.361C52.54 115.291 66.96 118.371 76.11 107.361" stroke="#451B1B" stroke-width="2" stroke-miterlimit="10" stroke-linecap="round" stroke-linejoin="round"/>
<path d="M26.1299 79.9778C22.6299 74.7278 18.4009 75.2328 16.5049 78.1028C14.1919 81.6028 16.1299 95.6028 28.0049 95.1658L26.1299 79.9778Z" fill="#FFBFB0" stroke="#451B1B" stroke-width="2" stroke-miterlimit="10" stroke-linecap="round" stroke-linejoin="round"/>
<path d="M96.9429 97.4778C80.6299 110.374 52.9639 110.708 38.8799 105.666C24.5899 100.55 23.7129 92.5418 22.6299 81.4588C19.7979 71.2918 12.7149 48.6248 32.6309 30.8748C52.5469 13.1248 90.4259 17.9148 103.047 38.2088C113.464 54.9588 108.131 73.7918 108.131 73.7918C111.755 73.9778 114.426 77.8358 113.171 84.0408C111.693 91.3528 106.943 96.4778 96.9429 97.4778Z" fill="#FFE2DB" stroke="#451B1B" stroke-width="2" stroke-miterlimit="10" stroke-linecap="round" stroke-linejoin="round"/>
<path d="M103.391 92.1168C103.178 93.2448 102.194 94.1588 101.193 94.1588C100.192 94.1588 99.5529 93.2448 99.7659 92.1168C99.9779 90.9898 100.962 90.0758 101.963 90.0758C102.964 90.0758 103.603 90.9898 103.391 92.1168Z" fill="#451B1B"/>
<path d="M108.139 74.7908C108.139 74.7908 108.032 74.7887 107.842 74.7837C107.673 74.7787 107.411 74.7858 107.086 74.8038C106.764 74.8118 106.389 74.8688 105.983 74.9058C105.588 74.9838 105.15 75.0287 104.734 75.1417C104.32 75.2597 103.884 75.3338 103.514 75.4938C103.142 75.6458 102.765 75.7408 102.487 75.9028C101.912 76.1988 101.528 76.3957 101.528 76.3957L101.448 76.4368C101.139 76.5958 100.759 76.4748 100.601 76.1648C100.453 75.8768 100.551 75.5238 100.817 75.3508C100.817 75.3508 101.227 75.0838 101.842 74.6838C102.146 74.4688 102.544 74.3198 102.951 74.1068C103.358 73.8848 103.824 73.7517 104.28 73.5727C104.738 73.4007 105.214 73.2998 105.653 73.1688C106.101 73.0808 106.516 72.9768 106.882 72.9298C107.241 72.8728 107.553 72.8338 107.786 72.8178C107.999 72.8008 108.121 72.7918 108.121 72.7918C108.673 72.7488 109.154 73.1618 109.197 73.7138C109.24 74.2658 108.827 74.7468 108.275 74.7898C108.242 74.7928 108.21 74.7937 108.177 74.7927L108.139 74.7908Z" fill="#451B1B"/>
<path d="M101.641 87.0018C101.797 85.2288 105.408 79.4578 108.963 81.0178C111.63 82.1878 109.983 87.8338 106.542 88.7888C106.193 86.7908 104.318 85.6248 101.641 87.0018Z" fill="#FFBFB0"/>
<path d="M107.327 81.3258L106.344 81.8038C106.162 81.8748 106.073 81.9877 105.938 82.0767L105.563 82.3548C105.307 82.5088 105.078 82.7948 104.835 83.0118C104.584 83.2308 104.377 83.4958 104.17 83.7608C103.95 84.0138 103.755 84.2838 103.587 84.5738C103.402 84.8518 103.23 85.1357 103.101 85.4347L102.886 85.8738L102.74 86.3138C102.694 86.4588 102.624 86.6128 102.625 86.7338C102.609 86.8618 102.589 86.9878 102.565 87.1128L101.075 86.1688L101.079 86.1668C101.67 85.8648 102.302 85.6848 102.946 85.6228C103.59 85.5628 104.253 85.6158 104.89 85.8348C105.207 85.9508 105.516 86.0997 105.8 86.2967C106.081 86.4987 106.339 86.7378 106.546 87.0158C106.641 87.1608 106.755 87.2928 106.821 87.4508C106.89 87.6038 106.984 87.7518 107.024 87.9118C107.139 88.2268 107.19 88.5428 107.232 88.8568C107.281 89.2218 107.024 89.5587 106.658 89.6077C106.321 89.6527 106.008 89.4377 105.924 89.1167L105.903 89.0347C105.847 88.8267 105.795 88.6217 105.704 88.4437C105.674 88.3457 105.602 88.2768 105.558 88.1908C105.516 88.1028 105.437 88.0458 105.381 87.9718C105.127 87.7018 104.792 87.5238 104.41 87.4358C103.643 87.2628 102.731 87.4647 102.063 87.9087L102.061 87.9097L101.822 88.0108C101.355 88.2068 100.817 87.9877 100.621 87.5207C100.545 87.3387 100.531 87.1457 100.571 86.9657L100.724 86.2748C100.77 86.0328 100.865 85.8567 100.944 85.6597L101.193 85.0848L101.498 84.5647C101.689 84.2097 101.922 83.8877 102.165 83.5777C102.391 83.2547 102.646 82.9558 102.926 82.6778C103.193 82.3888 103.459 82.1028 103.777 81.8628C104.094 81.6178 104.349 81.3448 104.73 81.1358L105.265 80.8118C105.442 80.7148 105.627 80.5768 105.792 80.5288L106.809 80.1308C107.144 79.9998 107.523 80.1648 107.654 80.5008C107.777 80.8188 107.629 81.1778 107.327 81.3258Z" fill="#451B1B"/>
<path d="M68.794 67.4888C68.786 67.5018 68.905 67.3088 69.127 67.0578C69.35 66.8068 69.688 66.4648 70.147 66.1268C70.606 65.7908 71.177 65.4408 71.836 65.1688C72.163 65.0298 72.507 64.8988 72.868 64.8008C73.222 64.6828 73.598 64.6228 73.966 64.5358C74.71 64.3958 75.465 64.3448 76.168 64.3458C76.518 64.3688 76.856 64.3888 77.176 64.4098C77.495 64.4318 77.791 64.5038 78.066 64.5438C78.615 64.6368 79.053 64.7868 79.362 64.8718C79.667 64.9718 79.841 65.0278 79.841 65.0278C80.105 65.1148 80.248 65.3978 80.161 65.6618C80.091 65.8758 79.891 66.0108 79.678 66.0078L79.632 66.0068C79.632 66.0068 79.459 66.0038 79.158 65.9988C78.859 65.9878 78.437 65.9428 77.931 65.9758C77.68 65.9828 77.409 65.9598 77.123 65.9888C76.84 66.0068 76.541 66.0258 76.231 66.0458C75.926 66.0838 75.611 66.1238 75.291 66.1638C74.977 66.2258 74.657 66.2878 74.338 66.3508C74.024 66.4358 73.702 66.4898 73.403 66.5998C73.098 66.6958 72.797 66.7788 72.514 66.8918C71.941 67.0908 71.414 67.3078 70.968 67.5088C70.512 67.6968 70.15 67.8908 69.885 68.0128C69.625 68.1458 69.493 68.1998 69.485 68.2118C69.286 68.4028 68.969 68.3958 68.778 68.1958C68.588 67.9968 68.595 67.6798 68.794 67.4888Z" fill="#451B1B"/>
<path d="M44.7551 68.9528C44.7451 68.9418 44.6251 68.9118 44.3821 68.8278C44.1371 68.7538 43.7981 68.6288 43.3791 68.5228C42.9681 68.4018 42.4841 68.2838 41.9651 68.1898C41.7071 68.1288 41.4361 68.0978 41.1611 68.0618C40.8881 68.0078 40.6041 68.0108 40.3231 67.9858C40.0391 67.9818 39.7561 67.9788 39.4761 67.9758C39.1951 67.9958 38.9181 68.0138 38.6511 68.0328C38.3821 68.0698 38.1241 68.1068 37.8781 68.1408C37.6281 68.1668 37.4001 68.2378 37.1831 68.2788C36.7421 68.3418 36.3881 68.4648 36.1331 68.5298C35.8741 68.5908 35.7261 68.6268 35.7261 68.6268L35.6801 68.6378C35.4271 68.6978 35.1741 68.5408 35.1151 68.2878C35.0671 68.0858 35.1581 67.8828 35.3261 67.7788C35.3261 67.7788 35.4651 67.6938 35.7091 67.5448C35.9601 67.4088 36.3081 67.1848 36.7691 66.9958C37.2221 66.7888 37.7801 66.6148 38.3921 66.4618C39.0091 66.3338 39.6841 66.2478 40.3661 66.2528C41.0461 66.2698 41.7311 66.3248 42.3491 66.4988C42.6631 66.5598 42.9491 66.6918 43.2261 66.7808C43.4951 66.8998 43.7471 67.0108 43.9691 67.1378C44.4161 67.3848 44.7541 67.6528 44.9791 67.8538C45.2021 68.0518 45.3281 68.2138 45.3191 68.2028C45.5261 68.3578 45.5681 68.6518 45.4131 68.8588C45.2561 69.0658 44.9621 69.1078 44.7551 68.9528Z" fill="#451B1B"/>
<path d="M56.2 90.4898L56.1119 90.4438C56.1119 90.4438 55.876 90.3188 55.64 90.1928C55.512 90.1418 55.376 90.0378 55.277 89.9438C55.177 89.8588 55.11 89.8018 55.11 89.8018L55.104 89.7958C54.966 89.6808 54.772 89.6398 54.591 89.7068C54.324 89.8058 54.188 90.1018 54.287 90.3698C54.287 90.3698 54.3159 90.4508 54.3619 90.5728C54.3989 90.6928 54.466 90.8568 54.584 91.0408C54.789 91.3978 55.037 91.7708 55.037 91.7708C55.116 91.8888 55.2269 91.9948 55.3619 92.0658C55.7969 92.2958 56.3379 92.1308 56.5679 91.6958C56.8009 91.2608 56.635 90.7208 56.2 90.4898Z" fill="#D17E7E"/>
<path d="M86.935 77.4628C86.935 81.2828 84.29 84.3798 81.029 84.3798C77.767 84.3798 75.123 81.2828 75.123 77.4628C75.123 73.6438 77.768 70.5468 81.029 70.5468C84.29 70.5468 86.935 73.6438 86.935 77.4628Z" fill="#CCCCCC"/>
<path d="M80.97 75.2358C83.474 75.2358 85.657 76.6088 86.842 78.6488C86.899 78.2628 86.935 77.8688 86.935 77.4628C86.935 73.6438 84.29 70.5468 81.029 70.5468C77.767 70.5468 75.123 73.6438 75.123 77.4628C75.123 77.8128 75.152 78.1528 75.195 78.4878C76.4 76.5378 78.532 75.2358 80.97 75.2358Z" fill="#ADADAD"/>
<path d="M86.935 77.4628C86.935 81.2828 84.29 84.3798 81.029 84.3798C77.767 84.3798 75.123 81.2828 75.123 77.4628C75.123 73.6438 77.768 70.5468 81.029 70.5468C84.29 70.5468 86.935 73.6438 86.935 77.4628Z" stroke="#451B1B" stroke-width="1.5" stroke-miterlimit="10" stroke-linecap="round" stroke-linejoin="round"/>
<path d="M83.818 77.4628C83.818 79.2348 82.788 80.6718 81.516 80.6718C80.245 80.6718 79.214 79.2348 79.214 77.4628C79.214 75.6918 80.244 74.2548 81.516 74.2548C82.787 74.2548 83.818 75.6918 83.818 77.4628Z" fill="#451B1B"/>
<path opacity="0.5" d="M80.757 76.1808C80.757 76.8898 79.936 77.4638 78.925 77.4638C77.913 77.4638 77.092 76.8898 77.092 76.1808C77.092 75.4738 77.913 74.8988 78.925 74.8988C79.936 74.8988 80.757 75.4738 80.757 76.1808Z" fill="white"/>
<path d="M68.012 79.4358C68.012 79.4358 68.189 79.0388 68.497 78.3428C68.669 77.9908 68.794 77.5808 69.11 77.0778C69.404 76.5868 69.71 76.0068 70.099 75.4288C70.53 74.8858 70.932 74.2498 71.48 73.6708C72.036 73.0988 72.591 72.4648 73.305 71.9468C73.958 71.3608 74.764 70.9208 75.557 70.4428C76.409 70.0668 77.269 69.6588 78.216 69.4728L78.912 69.3028L79.631 69.2368C80.109 69.1998 80.584 69.1258 81.062 69.1948C81.536 69.2488 82.016 69.2348 82.47 69.3538C82.923 69.4738 83.371 69.5928 83.812 69.7088C84.638 70.0818 85.469 70.4088 86.114 70.9358C86.44 71.1878 86.806 71.3808 87.067 71.6648C87.339 71.9378 87.603 72.2008 87.856 72.4538C87.981 72.5808 88.104 72.7058 88.223 72.8278C88.323 72.9648 88.419 73.0978 88.514 73.2268C88.702 73.4878 88.881 73.7358 89.049 73.9678C89.41 74.4198 89.61 74.8708 89.802 75.2298C90.176 75.9508 90.391 76.3628 90.391 76.3628C90.638 76.8408 90.452 77.4278 89.975 77.6758C89.558 77.8918 89.058 77.7778 88.772 77.4278L88.559 77.1668C88.559 77.1668 88.292 76.8398 87.888 76.2628C87.684 75.9768 87.467 75.6068 87.115 75.2798C86.953 75.1068 86.781 74.9238 86.6 74.7298C86.515 74.6288 86.429 74.5268 86.34 74.4218C86.237 74.3348 86.131 74.2458 86.023 74.1548C85.811 73.9748 85.59 73.7878 85.362 73.5938C85.146 73.3838 84.851 73.2808 84.596 73.1118C84.084 72.7588 83.471 72.5838 82.882 72.3228C82.564 72.2618 82.244 72.1948 81.925 72.1198C81.607 72.0328 81.262 72.0688 80.929 72.0268C80.595 71.9688 80.249 72.0448 79.907 72.0738C79.735 72.0928 79.563 72.1098 79.389 72.1138L78.872 72.2338C78.169 72.3408 77.504 72.6528 76.835 72.9148C76.207 73.2878 75.556 73.6028 75.015 74.0748C74.423 74.4678 73.915 74.9538 73.416 75.4008C72.919 75.8508 72.542 76.3778 72.135 76.8138C71.784 77.2798 71.464 77.7068 71.179 78.0848C70.873 78.4338 70.667 78.9058 70.469 79.2178C70.079 79.8768 69.84 80.2458 69.84 80.2458L69.755 80.3788C69.456 80.8398 68.841 80.9718 68.38 80.6728C67.964 80.4038 67.816 79.8758 68.012 79.4358Z" fill="#451B1B"/>
<g opacity="0.7">
<path d="M34.052 90.4778C34.052 90.4778 34.128 90.2148 34.324 89.9228C34.514 89.6248 34.822 89.2948 35.178 89.0278C35.531 88.7558 35.939 88.5528 36.272 88.4368C36.604 88.3178 36.873 88.2978 36.873 88.2978C37.052 88.2848 37.207 88.4198 37.22 88.5988C37.223 88.6408 37.217 88.6818 37.205 88.7198C37.205 88.7198 37.124 88.9768 36.932 89.2708C36.741 89.5688 36.45 89.9188 36.103 90.1988C35.76 90.4838 35.369 90.7068 35.035 90.8228C34.706 90.9448 34.432 90.9578 34.432 90.9578C34.225 90.9688 34.048 90.8088 34.037 90.6008C34.034 90.5588 34.04 90.5158 34.052 90.4778Z" fill="#D17E7E"/>
<path d="M36.927 90.4778C36.927 90.4778 37.003 90.2148 37.199 89.9228C37.389 89.6248 37.697 89.2948 38.053 89.0278C38.406 88.7558 38.814 88.5528 39.147 88.4368C39.479 88.3178 39.748 88.2978 39.748 88.2978C39.927 88.2848 40.082 88.4198 40.095 88.5988C40.098 88.6408 40.092 88.6818 40.08 88.7198C40.08 88.7198 39.999 88.9768 39.807 89.2708C39.616 89.5688 39.325 89.9188 38.978 90.1988C38.635 90.4838 38.244 90.7068 37.91 90.8228C37.581 90.9448 37.307 90.9578 37.307 90.9578C37.1 90.9688 36.923 90.8088 36.912 90.6008C36.909 90.5588 36.915 90.5158 36.927 90.4778Z" fill="#D17E7E"/>
<path d="M39.802 90.4778C39.802 90.4778 39.878 90.2148 40.074 89.9228C40.264 89.6248 40.572 89.2948 40.928 89.0278C41.281 88.7558 41.689 88.5528 42.022 88.4368C42.354 88.3178 42.623 88.2978 42.623 88.2978C42.802 88.2848 42.957 88.4198 42.97 88.5988C42.973 88.6408 42.967 88.6818 42.955 88.7198C42.955 88.7198 42.874 88.9768 42.682 89.2708C42.491 89.5688 42.2 89.9188 41.853 90.1988C41.51 90.4838 41.119 90.7068 40.785 90.8228C40.456 90.9448 40.182 90.9578 40.182 90.9578C39.975 90.9688 39.798 90.8088 39.787 90.6008C39.784 90.5588 39.79 90.5158 39.802 90.4778Z" fill="#D17E7E"/>
<path d="M76.53 90.4778C76.53 90.4778 76.606 90.2148 76.801 89.9228C76.991 89.6248 77.299 89.2948 77.656 89.0278C78.008 88.7558 78.417 88.5528 78.75 88.4368C79.082 88.3178 79.351 88.2978 79.351 88.2978C79.53 88.2848 79.685 88.4198 79.698 88.5988C79.701 88.6408 79.6951 88.6818 79.6831 88.7198C79.6831 88.7198 79.602 88.9768 79.41 89.2708C79.219 89.5688 78.928 89.9188 78.581 90.1988C78.238 90.4838 77.847 90.7068 77.513 90.8228C77.184 90.9448 76.911 90.9578 76.911 90.9578C76.704 90.9688 76.527 90.8088 76.516 90.6008C76.513 90.5588 76.519 90.5158 76.53 90.4778Z" fill="#D17E7E"/>
<path d="M79.405 90.4778C79.405 90.4778 79.481 90.2148 79.676 89.9228C79.866 89.6248 80.174 89.2948 80.531 89.0278C80.883 88.7558 81.292 88.5528 81.625 88.4368C81.957 88.3178 82.226 88.2978 82.226 88.2978C82.405 88.2848 82.56 88.4198 82.573 88.5988C82.576 88.6408 82.5701 88.6818 82.5581 88.7198C82.5581 88.7198 82.477 88.9768 82.285 89.2708C82.094 89.5688 81.803 89.9188 81.456 90.1988C81.113 90.4838 80.722 90.7068 80.388 90.8228C80.059 90.9448 79.786 90.9578 79.786 90.9578C79.579 90.9688 79.402 90.8088 79.391 90.6008C79.388 90.5588 79.394 90.5158 79.405 90.4778Z" fill="#D17E7E"/>
<path d="M82.28 90.4778C82.28 90.4778 82.356 90.2148 82.551 89.9228C82.741 89.6248 83.049 89.2948 83.406 89.0278C83.758 88.7558 84.167 88.5528 84.5 88.4368C84.832 88.3178 85.101 88.2978 85.101 88.2978C85.28 88.2848 85.435 88.4198 85.448 88.5988C85.451 88.6408 85.4451 88.6818 85.4331 88.7198C85.4331 88.7198 85.352 88.9768 85.16 89.2708C84.969 89.5688 84.678 89.9188 84.331 90.1988C83.988 90.4838 83.597 90.7068 83.263 90.8228C82.934 90.9448 82.661 90.9578 82.661 90.9578C82.454 90.9688 82.277 90.8088 82.266 90.6008C82.263 90.5588 82.269 90.5158 82.28 90.4778Z" fill="#D17E7E"/>
</g>
<path d="M70.54 97.4578V97.4678C70.54 100.248 69.09 103.078 65.35 104.138C63.55 104.648 61.94 104.578 60.611 104.088C59.74 99.7178 66.76 94.8078 70.54 97.4578Z" fill="#DE5766"/>
<path d="M70.54 97.4578C66.76 94.8078 59.74 99.7178 60.61 104.088C58.08 103.178 56.559 100.798 56.67 98.2478C59.46 97.7478 65.71 96.2978 69.14 92.8568C70.02 94.1188 70.54 95.7788 70.54 97.4578Z" fill="#8A1926"/>
<path d="M70.54 97.4678C70.54 100.248 69.09 103.078 65.35 104.138C63.55 104.648 61.94 104.578 60.611 104.088C58.081 103.178 56.56 100.798 56.671 98.2478" stroke="#451B1B" stroke-miterlimit="10" stroke-linecap="round" stroke-linejoin="round"/>
<path d="M55.25 98.4678C55.25 98.4678 55.79 98.4078 56.67 98.2478C59.46 97.7478 65.71 96.2978 69.14 92.8568C70.02 94.1178 70.54 95.7778 70.54 97.4578" stroke="#451B1B" stroke-miterlimit="10" stroke-linecap="round" stroke-linejoin="round"/>
<path d="M60.6101 104.088C59.7401 99.7178 66.7591 94.8078 70.5401 97.4578V97.4678H70.5501" stroke="#451B1B" stroke-miterlimit="10" stroke-linecap="round" stroke-linejoin="round"/>
<path d="M33.131 78.4178C33.135 79.3038 36.639 78.8268 40.272 79.4248C43.905 80.0228 46.94 81.6008 47.052 81.1658C47.163 80.7308 45.779 77.5788 41.178 76.3978C36.577 75.2158 33.128 77.4268 33.131 78.4178Z" fill="#451B1B"/>
<path d="M103.6 75.0857C100.23 80.7557 96.08 84.4858 92.88 85.5758C94.51 81.4458 94.74 75.9758 94.48 71.0458L94.26 71.0568C87.63 66.3668 79 53.6758 77.76 47.7468C71.69 54.0578 63.73 68.1068 63.73 68.1068H63.72C63.18 73.8568 62.491 78.7368 61.76 79.8668C49.38 76.8368 43.2 67.6068 40.55 57.5268C34.38 69.9868 25.6 73.1468 25.6 73.1468C26.38 79.5568 28.63 83.4258 28.63 83.4258C13.88 79.4468 11.21 63.2858 11.76 56.4868C11.38 56.6168 5.13 56.3668 1 50.6168C10.13 47.4868 13.63 39.2468 20.38 28.3668C27.13 17.4868 42.26 12.4868 52.88 12.2468C83.93 6.19676 101.64 21.1168 108.5 31.4868C113.3 38.7468 118.26 43.6758 124.32 43.5568C124.189 46.7458 120.439 51.8068 117.88 52.8668C119.88 59.0568 117.88 64.9268 118 67.9868C118.13 71.0568 118.94 74.1758 121.88 76.6168C116.13 78.7468 111.97 75.8768 111.97 75.8768C108.38 72.7558 103.6 75.0857 103.6 75.0857Z" fill="#CCCCCC"/>
<path d="M39.0911 48.9268C43.6931 54.6158 45.8901 71.5537 61.7601 79.8657C49.1301 76.7417 40.8181 66.9288 39.0911 48.9268Z" fill="#E3E3E3"/>
<path d="M28.434 53.7028C23.654 63.0388 25.541 72.6178 25.541 72.6178L26.641 72.6767C28.229 71.8847 31.442 69.9518 34.841 66.1078C25.612 71.1978 28.434 53.7028 28.434 53.7028Z" fill="#ADADAD"/>
<path d="M102.974 76.1028C103.185 75.7718 103.394 75.4328 103.6 75.0858C103.6 75.0858 108.38 72.7558 111.97 75.8758C111.97 75.8758 116.13 78.7458 121.88 76.6158C118.94 74.1758 118.13 71.0558 118 67.9858C117.897 65.3748 119.33 60.7158 118.513 55.5608C114.952 53.9438 110.13 54.7598 109.282 58.8058C108.078 64.5448 106.009 71.3908 102.976 76.0968C102.975 76.0998 102.974 76.1028 102.974 76.1028Z" fill="#ADADAD"/>
<path d="M81.713 31.4508C75.143 31.5168 75.027 37.2838 78.995 37.4508C82.963 37.6178 89.879 31.3678 81.713 31.4508Z" fill="#E3E3E3"/>
<path d="M108.5 31.4868C108.335 31.2378 108.158 30.9838 107.98 30.7288C96.323 35.5448 83.389 38.9688 83.796 40.3808C84.248 41.9498 108.506 51.5058 124.246 43.5548C118.221 43.6318 113.28 38.7168 108.5 31.4868Z" fill="#E3E3E3"/>
<path d="M16.482 34.8348C14.198 38.6548 12.122 41.9798 9.72302 44.6608C23.222 48.0578 33.727 43.6488 33.567 42.7418C33.419 41.9038 23.989 38.6968 16.482 34.8348Z" fill="#E3E3E3"/>
<path d="M62.7229 68.0288C62.7229 68.0288 63.2339 63.1378 63.7429 58.2478C63.8899 57.0238 63.9379 55.8078 64.0299 54.6628C64.1109 53.5178 64.1869 52.4498 64.2519 51.5338C64.3819 49.7008 64.4689 48.4778 64.4689 48.4778L64.4699 48.4538C64.4889 48.1948 64.7139 47.9988 64.9729 48.0178C65.2239 48.0358 65.4139 48.2468 65.4109 48.4948C65.4109 48.4948 65.3909 49.7278 65.3589 51.5768C65.3429 52.5028 65.3259 53.5828 65.3059 54.7398C65.2759 55.8958 65.2909 57.1388 65.2099 58.3628C64.9629 63.2738 64.7169 68.1848 64.7169 68.1848C64.6889 68.7368 64.2189 69.1617 63.6669 69.1337C63.1149 69.1067 62.6899 68.6368 62.7189 68.0838C62.7199 68.0678 62.7209 68.0448 62.7229 68.0288Z" fill="#451B1B"/>
<path d="M40.55 57.5267C43.2 67.6067 49.38 76.8367 61.76 79.8667C62.49 78.7367 63.18 73.8567 63.72 68.1067" stroke="#451B1B" stroke-width="2" stroke-miterlimit="10" stroke-linecap="round" stroke-linejoin="round"/>
<path d="M39.555 38.8287C39.555 38.8287 39.535 40.0067 39.504 41.7747C39.496 42.2167 39.487 42.6947 39.479 43.2017C39.507 43.7007 39.537 44.2267 39.567 44.7707C39.598 45.3137 39.631 45.8747 39.664 46.4447C39.708 47.0137 39.703 47.5917 39.788 48.1677C39.949 49.3187 40.111 50.4697 40.262 51.5477C40.341 52.0857 40.392 52.6097 40.529 53.0897C40.644 53.5737 40.753 54.0308 40.853 54.4528C41.252 56.1378 41.518 57.2617 41.518 57.2617L41.542 57.3617C41.669 57.8997 41.336 58.4387 40.799 58.5657C40.261 58.6937 39.722 58.3607 39.595 57.8227C39.591 57.8057 39.587 57.7857 39.584 57.7697C39.584 57.7697 39.37 56.5857 39.049 54.8107C38.969 54.3687 38.883 53.8887 38.791 53.3807C38.679 52.8767 38.654 52.3327 38.603 51.7747C38.508 50.6577 38.408 49.4677 38.307 48.2767C38.252 47.6827 38.288 47.0777 38.275 46.4897C38.274 45.9007 38.272 45.3207 38.271 44.7597C38.271 44.1997 38.271 43.6587 38.272 43.1457C38.308 42.6407 38.342 42.1637 38.374 41.7227C38.501 39.9597 38.586 38.7837 38.586 38.7837C38.604 38.5167 38.837 38.3157 39.104 38.3347C39.362 38.3547 39.559 38.5727 39.555 38.8287Z" fill="#451B1B"/>
<path d="M63.73 68.1068C63.73 68.1068 71.69 54.0568 77.76 47.7468C79 53.6768 87.63 66.3668 94.26 71.0568" stroke="#451B1B" stroke-width="2" stroke-miterlimit="10" stroke-linecap="round" stroke-linejoin="round"/>
<path d="M102.717 74.6167C102.717 74.6167 103.273 73.6428 104.107 72.1838C104.311 71.8178 104.549 71.4237 104.771 71.0037C104.96 70.5767 105.16 70.1278 105.367 69.6628C105.575 69.1958 105.79 68.7147 106.008 68.2247C106.219 67.7307 106.477 67.2477 106.626 66.7137C106.971 65.6647 107.316 64.6168 107.641 63.6338C107.722 63.3868 107.802 63.1447 107.88 62.9077C107.934 62.6647 107.987 62.4257 108.037 62.1947C108.137 61.7307 108.233 61.2908 108.321 60.8858C108.675 59.2598 108.911 58.1757 108.911 58.1757L108.922 58.1288C108.975 57.8838 109.216 57.7297 109.46 57.7827C109.695 57.8337 109.847 58.0597 109.812 58.2937C109.812 58.2937 109.639 59.4127 109.38 61.0907C109.315 61.5107 109.244 61.9677 109.17 62.4487C109.132 62.6897 109.092 62.9377 109.052 63.1907C108.987 63.4377 108.921 63.6907 108.854 63.9487C108.583 64.9797 108.292 66.0797 108.002 67.1797C107.882 67.7377 107.644 68.2657 107.454 68.7977C107.254 69.3287 107.058 69.8518 106.868 70.3568C106.677 70.8638 106.491 71.3537 106.315 71.8187C106.115 72.2607 105.905 72.6618 105.721 73.0418C104.978 74.5498 104.483 75.5548 104.483 75.5548C104.239 76.0508 103.639 76.2537 103.143 76.0097C102.648 75.7657 102.444 75.1658 102.688 74.6698C102.696 74.6538 102.707 74.6327 102.717 74.6167Z" fill="#451B1B"/>
<path d="M94.48 71.0458C94.741 75.9768 94.51 81.4458 92.88 85.5758C96.08 84.4858 100.23 80.7558 103.6 75.0858" stroke="#451B1B" stroke-width="2" stroke-miterlimit="10" stroke-linecap="round" stroke-linejoin="round"/>
<path d="M93.3349 58.7117C93.3349 58.7117 93.537 59.4517 93.78 60.5997C93.902 61.1707 94.061 61.8368 94.203 62.5538C94.333 63.2718 94.472 64.0377 94.61 64.8047C94.679 65.1887 94.749 65.5717 94.817 65.9497C94.895 66.3267 94.924 66.7037 94.976 67.0657C95.069 67.7927 95.156 68.4698 95.23 69.0518C95.378 70.2168 95.478 70.9927 95.478 70.9927C95.547 71.5417 95.16 72.0437 94.611 72.1127C94.062 72.1827 93.5599 71.7947 93.4899 71.2457C93.4869 71.2187 93.484 71.1898 93.483 71.1618L93.48 71.0987C93.48 71.0987 93.45 70.3367 93.403 69.1937C93.38 68.6217 93.353 67.9527 93.324 67.2367C93.304 66.8797 93.308 66.5067 93.265 66.1317C93.23 65.7567 93.195 65.3758 93.16 64.9938C93.089 64.2298 93.018 63.4667 92.952 62.7497C92.874 62.0357 92.775 61.3757 92.704 60.8047C92.566 59.6667 92.426 58.9008 92.426 58.9008C92.38 58.6478 92.547 58.4067 92.8 58.3607C93.038 58.3177 93.267 58.4637 93.33 58.6927L93.3349 58.7117Z" fill="#451B1B"/>
<path d="M24.454 71.7488C24.454 71.7488 24.4449 71.4128 24.4299 70.8248C24.4209 70.5298 24.4119 70.1738 24.4009 69.7638C24.3939 69.3518 24.424 68.8618 24.437 68.3408C24.46 67.8198 24.4549 67.2468 24.5289 66.6618C24.5879 66.0728 24.649 65.4528 24.713 64.8118C24.816 64.1758 24.924 63.5188 25.032 62.8518C25.125 62.1818 25.296 61.5168 25.455 60.8498C25.628 60.1868 25.741 59.5088 25.964 58.8708C26.165 58.2288 26.3629 57.5968 26.5549 56.9848C26.7289 56.3678 26.998 55.8068 27.199 55.2558C27.413 54.7108 27.616 54.1948 27.803 53.7188C28.677 51.8738 29.2589 50.6438 29.2589 50.6438C29.3779 50.3928 29.6789 50.2848 29.9299 50.4038C30.1739 50.5198 30.2829 50.8058 30.1799 51.0528L30.165 51.0878C30.165 51.0878 29.651 52.3148 28.882 54.1538C28.722 54.6248 28.548 55.1348 28.364 55.6748C28.194 56.2188 27.958 56.7738 27.817 57.3798C27.659 57.9798 27.4959 58.5998 27.3309 59.2288C27.1419 59.8528 27.065 60.5128 26.929 61.1578C26.805 61.8058 26.6689 62.4518 26.6109 63.0988C26.5369 63.7418 26.4629 64.3748 26.3909 64.9878C26.3589 65.6028 26.3269 66.1978 26.2979 66.7618C26.2509 67.3268 26.284 67.8508 26.283 68.3368C26.294 68.8248 26.283 69.2598 26.308 69.6658C26.338 70.0748 26.365 70.4318 26.386 70.7248C26.429 71.3118 26.4529 71.6478 26.4529 71.6478C26.4929 72.1988 26.079 72.6778 25.528 72.7178C24.977 72.7588 24.498 72.3448 24.458 71.7938C24.456 71.7808 24.455 71.7628 24.454 71.7488Z" fill="#451B1B"/>
<path d="M103.6 75.0857C103.6 75.0857 108.38 72.7557 111.97 75.8757C111.97 75.8757 116.13 78.7457 121.88 76.6157C118.94 74.1757 118.13 71.0557 118 67.9857C117.88 64.9247 119.88 59.0557 117.88 52.8657C120.44 51.8057 124.19 46.7458 124.32 43.5558C118.259 43.6748 113.299 38.7447 108.5 31.4857C101.64 21.1157 83.93 6.19575 52.88 12.2458C42.26 12.4858 27.13 17.4857 20.38 28.3657C13.63 39.2457 10.13 47.4857 1 50.6157C5.13 56.3657 11.38 56.6157 11.76 56.4857C11.21 63.2857 13.88 79.4458 28.63 83.4248C28.63 83.4248 26.38 79.5557 25.6 73.1457C25.543 72.6757 25.494 72.1937 25.453 71.6977" stroke="#451B1B" stroke-width="2" stroke-miterlimit="10" stroke-linecap="round" stroke-linejoin="round"/>
<path d="M25.6 73.1467C25.6 73.1467 34.38 69.9867 40.55 57.5267V57.5168" stroke="#451B1B" stroke-width="2" stroke-miterlimit="10" stroke-linecap="round" stroke-linejoin="round"/>
<path d="M56.255 15.3668C56.255 15.3668 47.63 -0.508246 26.255 1.11675C26.255 1.11675 38.505 16.1168 56.255 15.3668Z" fill="#CCCCCC" stroke="#451B1B" stroke-width="2" stroke-miterlimit="10" stroke-linecap="round" stroke-linejoin="round"/>
</svg>
