<svg width="127" height="126" viewBox="0 0 127 126" fill="none" xmlns="http://www.w3.org/2000/svg">
<path d="M90.96 125.21H36.55C36.55 125.21 40.52 114.84 52.54 107.36C52.54 115.29 66.96 118.37 76.11 107.36C79.54 109.58 86.34 114.991 90.96 125.21Z" fill="white"/>
<path d="M44.832 125.21H44.07C43.343 121.064 43.275 117.482 43.397 114.933C43.657 114.651 43.922 114.368 44.198 114.082C44.02 116.622 44.002 120.557 44.832 125.21ZM80.013 125.21H80.773C81.461 120.984 82.767 117.101 83.933 114.227C83.748 114.014 83.562 113.809 83.376 113.605C82.149 116.578 80.733 120.71 80.013 125.21Z" fill="#D4D4D4"/>
<path d="M73.96 106.121C73.96 106.121 74.78 106.501 76.11 107.361C66.96 118.371 52.54 115.291 52.54 107.361C53.31 106.881 54.12 106.411 54.96 105.961V102.711H73.96V106.121Z" fill="#FFBFB0"/>
<path d="M48.27 111.67C48.27 111.67 47.421 112.409 46.15 113.52C45.845 113.803 45.459 114.085 45.153 114.429C44.827 114.764 44.484 115.118 44.129 115.485C43.774 115.852 43.406 116.232 43.033 116.619C42.685 117.035 42.333 117.459 41.979 117.883C41.635 118.313 41.25 118.715 40.945 119.163C40.627 119.603 40.314 120.036 40.01 120.455C39.695 120.867 39.436 121.294 39.184 121.694C38.935 122.096 38.684 122.47 38.478 122.828C38.08 123.549 37.736 124.146 37.54 124.578C37.321 125.011 37.228 125.241 37.228 125.241C37.096 125.569 36.723 125.727 36.396 125.595C36.076 125.466 35.917 125.106 36.033 124.784C36.033 124.784 36.14 124.488 36.348 124.032C36.542 123.559 36.873 122.924 37.262 122.151C37.462 121.769 37.705 121.372 37.949 120.943C38.195 120.515 38.449 120.059 38.757 119.619C39.055 119.172 39.361 118.709 39.674 118.238C39.976 117.759 40.355 117.327 40.695 116.865C41.045 116.41 41.395 115.955 41.739 115.507C42.119 115.081 42.493 114.662 42.854 114.256C43.218 113.852 43.571 113.46 43.905 113.089C44.232 112.698 44.582 112.426 44.883 112.123C46.11 110.964 46.927 110.19 46.927 110.19C47.328 109.81 47.962 109.828 48.341 110.229C48.721 110.63 48.703 111.263 48.302 111.643C48.29 111.652 48.278 111.663 48.27 111.67Z" fill="#451B1B"/>
<path d="M80.042 110.337C78.522 109.016 77.159 108.039 76.11 107.36C74.78 106.5 73.96 106.12 73.96 106.12V102.71H54.96V105.96C54.12 106.41 53.31 106.88 52.54 107.36C50.71 108.499 49.067 109.704 47.597 110.929" stroke="#451B1B" stroke-width="2" stroke-miterlimit="10" stroke-linecap="round" stroke-linejoin="round"/>
<path d="M90.144 125.096C90.144 125.096 89.628 124.086 88.855 122.572C88.644 122.215 88.415 121.829 88.172 121.421C87.924 121.016 87.693 120.575 87.399 120.144C87.107 119.712 86.805 119.267 86.499 118.814C86.205 118.352 85.851 117.922 85.517 117.48C85.174 117.044 84.855 116.588 84.487 116.184C84.132 115.771 83.781 115.364 83.442 114.97C82.719 114.223 82.068 113.505 81.449 112.948C80.854 112.368 80.333 111.91 79.963 111.594C79.597 111.276 79.388 111.093 79.388 111.093L79.361 111.069C78.945 110.707 78.902 110.074 79.264 109.658C79.627 109.242 80.259 109.199 80.676 109.561C80.683 109.568 80.694 109.578 80.7 109.583C80.7 109.583 80.912 109.78 81.282 110.126C81.656 110.468 82.183 110.963 82.787 111.591C83.412 112.196 84.072 112.971 84.8 113.778C85.141 114.202 85.493 114.639 85.851 115.084C86.22 115.52 86.539 116.005 86.88 116.473C87.214 116.947 87.566 117.407 87.857 117.897C88.16 118.379 88.459 118.853 88.747 119.312C89.036 119.77 89.27 120.249 89.517 120.683C89.756 121.121 89.982 121.537 90.191 121.919C90.914 123.459 91.395 124.486 91.395 124.486C91.558 124.834 91.409 125.248 91.061 125.411C90.718 125.569 90.314 125.428 90.144 125.096Z" fill="#451B1B"/>
<path d="M52.54 107.361C52.54 115.291 66.96 118.371 76.11 107.361" stroke="#451B1B" stroke-width="2" stroke-miterlimit="10" stroke-linecap="round" stroke-linejoin="round"/>
<path d="M26.13 79.9778C22.63 74.7278 18.401 75.2328 16.505 78.1028C14.192 81.6028 16.13 95.6028 28.005 95.1658L26.13 79.9778Z" fill="#FFBFB0" stroke="#451B1B" stroke-width="2" stroke-miterlimit="10" stroke-linecap="round" stroke-linejoin="round"/>
<path d="M96.943 97.4778C80.63 110.374 52.964 110.707 38.88 105.666C24.59 100.55 23.713 92.5418 22.63 81.4588C19.798 71.2918 12.715 48.6248 32.631 30.8748C52.547 13.1248 90.426 17.9148 103.047 38.2088C113.464 54.9588 108.131 73.7918 108.131 73.7918C111.755 73.9778 114.426 77.8358 113.171 84.0408C111.693 91.3528 106.943 96.4778 96.943 97.4778Z" fill="#FFE2DB"/>
<path d="M100.174 32.5777C85.269 15.8987 51.387 12.9738 32.925 29.4288C21.271 39.8158 18.867 51.8827 19.441 62.1467L22.197 77.4018C22.455 78.3398 22.704 79.2187 22.924 80.0127C23.035 81.1497 23.145 82.2517 23.266 83.3237C25.934 87.5007 30.258 90.2957 38.427 88.5687C45.801 87.0097 49.402 83.3777 54.079 82.9607C58.757 82.5447 63.241 84.3767 68.749 86.3357C74.257 88.2947 82.633 90.1138 89.591 86.8778C95.924 83.9328 97.507 79.7137 100.174 71.3787V32.5777Z" fill="#F0C6BB"/>
<path d="M96.943 97.4778C80.63 110.374 52.964 110.707 38.88 105.666C24.59 100.55 23.713 92.5418 22.63 81.4588C19.798 71.2918 12.715 48.6248 32.631 30.8748C52.547 13.1248 90.426 17.9148 103.047 38.2088C113.464 54.9588 108.131 73.7918 108.131 73.7918C111.755 73.9778 114.426 77.8358 113.171 84.0408C111.693 91.3528 106.943 96.4778 96.943 97.4778Z" stroke="#451B1B" stroke-width="2" stroke-miterlimit="10" stroke-linecap="round" stroke-linejoin="round"/>
<path d="M103.391 92.1168C103.178 93.2448 102.194 94.1588 101.193 94.1588C100.192 94.1588 99.553 93.2448 99.766 92.1168C99.978 90.9898 100.962 90.0758 101.963 90.0758C102.964 90.0758 103.603 90.9898 103.391 92.1168Z" fill="#451B1B"/>
<path d="M108.139 74.7908C108.139 74.7908 108.032 74.7887 107.842 74.7837C107.673 74.7787 107.411 74.7858 107.086 74.8038C106.764 74.8118 106.389 74.8688 105.983 74.9058C105.588 74.9838 105.15 75.0287 104.734 75.1417C104.32 75.2597 103.884 75.3337 103.514 75.4947C103.142 75.6467 102.765 75.7417 102.487 75.9037C101.912 76.1997 101.528 76.3968 101.528 76.3968L101.448 76.4378C101.139 76.5968 100.76 76.4757 100.601 76.1667C100.453 75.8777 100.551 75.5257 100.817 75.3527C100.817 75.3527 101.227 75.0858 101.842 74.6858C102.146 74.4708 102.544 74.3218 102.951 74.1088C103.358 73.8868 103.824 73.7538 104.28 73.5748C104.738 73.4018 105.214 73.3018 105.653 73.1708C106.101 73.0828 106.516 72.9788 106.882 72.9318C107.241 72.8748 107.553 72.8358 107.786 72.8198C107.999 72.8028 108.121 72.7938 108.121 72.7938C108.673 72.7508 109.154 73.1638 109.197 73.7158C109.24 74.2678 108.827 74.7487 108.275 74.7917C108.242 74.7947 108.21 74.7958 108.177 74.7948L108.139 74.7908Z" fill="#451B1B"/>
<path d="M101.641 87.0008C101.797 85.2288 105.408 79.4567 108.963 81.0167C111.63 82.1867 109.983 87.8327 106.542 88.7887C106.193 86.7907 104.318 85.6238 101.641 87.0008Z" fill="#FFBFB0"/>
<path d="M107.327 81.3258L106.345 81.8038C106.163 81.8748 106.074 81.9877 105.939 82.0767L105.564 82.3548C105.308 82.5088 105.079 82.7937 104.836 83.0117C104.585 83.2307 104.378 83.4958 104.171 83.7608C103.951 84.0138 103.756 84.2838 103.588 84.5748C103.403 84.8528 103.231 85.1357 103.102 85.4357L102.887 85.8747L102.741 86.3147C102.695 86.4597 102.625 86.6138 102.626 86.7348C102.61 86.8628 102.59 86.9888 102.566 87.1138L101.076 86.1698L101.08 86.1677C101.671 85.8657 102.303 85.6867 102.947 85.6237C103.591 85.5627 104.254 85.6167 104.891 85.8357C105.208 85.9517 105.517 86.1007 105.801 86.2977C106.082 86.4997 106.34 86.7387 106.547 87.0167C106.642 87.1617 106.756 87.2937 106.822 87.4517C106.891 87.6047 106.985 87.7527 107.025 87.9127C107.14 88.2277 107.191 88.5437 107.233 88.8577C107.282 89.2227 107.025 89.5598 106.659 89.6088C106.322 89.6538 106.009 89.4388 105.925 89.1178L105.904 89.0358C105.848 88.8278 105.796 88.6227 105.705 88.4447C105.675 88.3467 105.603 88.2778 105.559 88.1918C105.517 88.1038 105.438 88.0467 105.382 87.9727C105.128 87.7027 104.793 87.5248 104.411 87.4368C103.644 87.2638 102.732 87.4657 102.064 87.9097L102.062 87.9108L101.823 88.0117C101.356 88.2077 100.818 87.9887 100.622 87.5217C100.546 87.3397 100.532 87.1468 100.572 86.9668L100.725 86.2757C100.771 86.0337 100.866 85.8578 100.945 85.6608L101.194 85.0857L101.499 84.5658C101.69 84.2108 101.923 83.8888 102.166 83.5788C102.392 83.2558 102.647 82.9568 102.927 82.6788C103.194 82.3908 103.46 82.1038 103.778 81.8638C104.095 81.6188 104.35 81.3457 104.731 81.1367L105.266 80.8128C105.443 80.7158 105.628 80.5777 105.793 80.5297L106.81 80.1327C107.146 80.0017 107.524 80.1668 107.655 80.5028C107.777 80.8188 107.629 81.1778 107.327 81.3258Z" fill="#451B1B"/>
<path d="M18.991 23.2898C18.991 23.2898 18.913 23.4208 18.778 23.6518C18.643 23.8748 18.453 24.1948 18.21 24.5698C17.962 24.9388 17.705 25.3908 17.384 25.8368C17.105 26.3138 16.755 26.7828 16.45 27.2818C16.158 27.7858 15.797 28.2548 15.541 28.7358C15.276 29.2098 14.968 29.6328 14.765 30.0218C14.353 30.7948 13.997 31.3068 13.997 31.3068L13.979 31.3318C13.893 31.4548 13.723 31.4848 13.6 31.3988C13.514 31.3398 13.473 31.2398 13.485 31.1438C13.485 31.1438 13.555 30.5258 13.786 29.6078C13.835 29.3758 13.919 29.1358 14.02 28.8868C14.121 28.6398 14.215 28.3708 14.335 28.1048C14.446 27.8318 14.574 27.5558 14.728 27.2918C14.88 27.0248 15.036 26.7548 15.189 26.4848C15.333 26.2068 15.535 25.9668 15.707 25.7148C15.882 25.4628 16.063 25.2238 16.245 24.9958C16.625 24.5548 16.979 24.1458 17.33 23.8338C17.664 23.5128 17.971 23.2658 18.197 23.1018C18.419 22.9338 18.551 22.8598 18.551 22.8598L18.568 22.8518C18.72 22.7678 18.911 22.8228 18.997 22.9768C19.051 23.0778 19.046 23.1968 18.991 23.2898Z" fill="#451B1B"/>
<path d="M12.824 26.3318C12.824 26.3318 12.82 26.4218 12.796 26.5698C12.766 26.7158 12.742 26.9228 12.696 27.1458C12.655 27.3768 12.581 27.6238 12.499 27.8878C12.439 28.1678 12.343 28.4508 12.241 28.7318L12.073 29.1478C12.001 29.2808 11.975 29.4208 11.928 29.5538C11.836 29.8198 11.737 30.0668 11.634 30.2798C11.437 30.7048 11.225 30.9938 11.225 30.9938L11.197 31.0318C11.105 31.1588 10.926 31.1868 10.799 31.0938C10.743 31.0538 10.708 30.9978 10.691 30.9378C10.691 30.9378 10.603 30.6028 10.589 30.0928C10.577 29.8378 10.587 29.5398 10.611 29.2208C10.632 29.0648 10.627 28.8928 10.68 28.7378C10.727 28.5798 10.778 28.4208 10.826 28.2598C10.936 27.9428 11.052 27.6258 11.192 27.3438C11.335 27.0598 11.525 26.8138 11.681 26.6108C11.837 26.4058 11.988 26.2538 12.106 26.1658C12.22 26.0718 12.295 26.0228 12.295 26.0228C12.453 25.9198 12.666 25.9638 12.769 26.1248C12.81 26.1878 12.829 26.2588 12.825 26.3288L12.824 26.3318Z" fill="#451B1B"/>
<path d="M40.894 112.591C40.894 112.591 40.81 112.718 40.664 112.942C40.517 113.158 40.311 113.468 40.049 113.83C39.782 114.186 39.503 114.625 39.159 115.053C38.855 115.515 38.482 115.966 38.152 116.449C37.835 116.937 37.45 117.387 37.17 117.854C36.882 118.314 36.552 118.72 36.329 119.099C35.878 119.85 35.496 120.343 35.496 120.343L35.478 120.367C35.385 120.485 35.214 120.507 35.096 120.415C35.013 120.352 34.978 120.25 34.994 120.154C34.994 120.154 35.096 119.541 35.373 118.635C35.433 118.406 35.529 118.171 35.644 117.927C35.757 117.686 35.866 117.423 35.998 117.162C36.123 116.894 36.266 116.626 36.432 116.37C36.598 116.111 36.767 115.849 36.934 115.588C37.092 115.317 37.305 115.089 37.491 114.846C37.679 114.604 37.872 114.374 38.065 114.156C38.466 113.735 38.841 113.344 39.208 113.052C39.558 112.748 39.877 112.517 40.111 112.364C40.342 112.208 40.477 112.14 40.477 112.14L40.495 112.133C40.651 112.057 40.839 112.121 40.917 112.28C40.964 112.382 40.953 112.5 40.894 112.591Z" fill="#451B1B"/>
<path d="M34.579 115.313C34.579 115.313 34.57 115.403 34.538 115.549C34.501 115.693 34.467 115.899 34.409 116.119C34.356 116.348 34.27 116.591 34.175 116.851C34.101 117.128 33.99 117.405 33.874 117.68L33.685 118.087C33.607 118.216 33.574 118.355 33.52 118.485C33.415 118.746 33.302 118.987 33.189 119.194C32.97 119.608 32.744 119.886 32.744 119.886L32.715 119.922C32.616 120.045 32.437 120.064 32.315 119.963C32.261 119.921 32.229 119.863 32.214 119.802C32.214 119.802 32.144 119.463 32.155 118.953C32.156 118.697 32.181 118.4 32.222 118.083C32.25 117.928 32.254 117.756 32.316 117.604C32.371 117.449 32.429 117.292 32.487 117.134C32.613 116.822 32.745 116.512 32.899 116.238C33.057 115.962 33.259 115.725 33.425 115.531C33.591 115.334 33.749 115.189 33.872 115.108C33.991 115.02 34.067 114.975 34.067 114.975C34.23 114.88 34.441 114.935 34.535 115.1C34.573 115.165 34.588 115.237 34.58 115.307L34.579 115.313Z" fill="#451B1B"/>
<path d="M91.747 118.539C91.747 118.539 91.64 118.432 91.451 118.243C91.268 118.055 91.006 117.791 90.705 117.46C90.41 117.128 90.037 116.765 89.688 116.342C89.296 115.951 88.93 115.494 88.525 115.073C88.111 114.664 87.748 114.196 87.347 113.827C86.955 113.452 86.624 113.046 86.298 112.752C85.654 112.158 85.248 111.685 85.248 111.685L85.227 111.661C85.13 111.546 85.143 111.375 85.257 111.277C85.335 111.209 85.443 111.195 85.533 111.23C85.533 111.23 86.113 111.454 86.943 111.909C87.156 112.014 87.366 112.156 87.582 112.317C87.795 112.477 88.031 112.636 88.26 112.819C88.496 112.996 88.731 113.189 88.948 113.404C89.168 113.619 89.389 113.837 89.612 114.053C89.845 114.263 90.026 114.518 90.226 114.748C90.425 114.98 90.612 115.217 90.787 115.45C91.118 115.929 91.425 116.375 91.638 116.793C91.865 117.196 92.027 117.557 92.128 117.816C92.234 118.073 92.273 118.22 92.273 118.22L92.277 118.238C92.32 118.407 92.218 118.578 92.047 118.622C91.938 118.65 91.824 118.616 91.747 118.539Z" fill="#451B1B"/>
<path d="M90.359 111.804C90.359 111.804 90.273 111.778 90.136 111.716C90.002 111.651 89.808 111.575 89.603 111.475C89.389 111.376 89.169 111.244 88.934 111.097C88.677 110.968 88.429 110.803 88.183 110.635L87.823 110.366C87.713 110.263 87.584 110.203 87.467 110.124C87.233 109.969 87.02 109.81 86.839 109.656C86.478 109.358 86.251 109.08 86.251 109.08L86.222 109.044C86.121 108.923 86.14 108.743 86.263 108.644C86.315 108.6 86.377 108.581 86.441 108.579C86.441 108.579 86.788 108.579 87.284 108.693C87.535 108.746 87.82 108.831 88.123 108.935C88.269 108.995 88.436 109.033 88.573 109.123C88.715 109.208 88.856 109.297 88.999 109.386C89.278 109.573 89.556 109.764 89.794 109.971C90.032 110.182 90.223 110.428 90.38 110.629C90.539 110.832 90.65 111.016 90.703 111.152C90.765 111.287 90.794 111.371 90.794 111.371C90.854 111.55 90.757 111.745 90.577 111.804C90.505 111.828 90.432 111.828 90.365 111.806L90.359 111.804Z" fill="#451B1B"/>
<path d="M122.259 65.3498C122.259 65.3498 122.156 64.7718 122.105 63.9238C122.036 63.0758 122.075 61.9578 122.097 60.8468C122.119 60.2908 122.155 59.7358 122.208 59.2118C122.272 58.6878 122.251 58.2268 122.3 57.8098C122.363 56.9858 122.479 56.4058 122.479 56.4058L122.491 56.3538C122.52 56.2078 122.662 56.1148 122.808 56.1438C122.905 56.1628 122.979 56.2338 123.009 56.3208C123.009 56.3208 123.195 56.8668 123.36 57.7328C123.433 58.1618 123.553 58.6838 123.568 59.2168C123.593 59.7518 123.596 60.3228 123.587 60.8968C123.574 61.4678 123.558 62.0398 123.478 62.5708C123.417 63.1028 123.333 63.5958 123.249 64.0168C123.083 64.8588 122.87 65.4038 122.87 65.4038L122.868 65.4108C122.804 65.5738 122.62 65.6538 122.456 65.5918C122.349 65.5478 122.277 65.4538 122.259 65.3498Z" fill="#451B1B"/>
<path d="M125.082 60.1268C125.082 60.1268 124.95 59.7778 124.859 59.2768C124.755 58.7778 124.728 58.1218 124.716 57.4718C124.718 57.1468 124.733 56.8208 124.768 56.5118C124.796 56.2078 124.793 55.9437 124.831 55.6967C124.886 55.2137 124.995 54.8538 124.995 54.8538L125.012 54.7978C125.058 54.6508 125.214 54.5668 125.362 54.6118C125.429 54.6338 125.484 54.6758 125.519 54.7318C125.519 54.7318 125.709 55.0388 125.884 55.5528C125.927 55.6818 125.98 55.8228 126.017 55.9728C126.051 56.1228 126.121 56.2888 126.126 56.4458C126.17 56.7678 126.195 57.1118 126.208 57.4578C126.214 57.8018 126.223 58.1478 126.168 58.4688C126.132 58.7878 126.07 59.0868 126.004 59.3398C125.879 59.8448 125.695 60.1648 125.695 60.1648L125.688 60.1758C125.595 60.3368 125.389 60.3918 125.229 60.2988C125.159 60.2588 125.109 60.1978 125.082 60.1268Z" fill="#451B1B"/>
<path d="M67.636 62.5258C67.647 62.5368 67.786 62.5658 68.066 62.6498C68.349 62.7208 68.74 62.8448 69.222 62.9488C69.699 63.0648 70.255 63.1828 70.855 63.2748C71.152 63.3358 71.464 63.3628 71.781 63.4018C72.095 63.4558 72.423 63.4508 72.746 63.4778C73.071 63.4808 73.397 63.4848 73.718 63.4888C74.04 63.4688 74.357 63.4518 74.664 63.4338C74.972 63.3968 75.268 63.3618 75.551 63.3268C75.836 63.3048 76.099 63.2318 76.348 63.1938C76.851 63.1338 77.257 63.0128 77.549 62.9488C77.845 62.8898 78.014 62.8558 78.014 62.8558L78.059 62.8468C78.33 62.7918 78.594 62.9688 78.649 63.2408C78.693 63.4618 78.584 63.6768 78.397 63.7798C78.397 63.7798 78.236 63.8678 77.955 64.0208C77.667 64.1598 77.264 64.3868 76.74 64.5788C76.477 64.6678 76.2 64.7918 75.889 64.8708C75.577 64.9488 75.248 65.0308 74.908 65.1158C74.218 65.2448 73.466 65.3298 72.709 65.3278C72.331 65.3088 71.951 65.3178 71.581 65.2668C71.209 65.2358 70.847 65.1678 70.499 65.0908C69.803 64.9428 69.178 64.7018 68.665 64.4548C68.153 64.2048 67.758 63.9308 67.493 63.7248C67.229 63.5178 67.077 63.3498 67.088 63.3618C66.857 63.2098 66.793 62.8998 66.945 62.6698C67.096 62.4378 67.405 62.3738 67.636 62.5258Z" fill="#451B1B"/>
<path d="M43.965 64.7838C43.974 64.7718 43.848 64.9338 43.625 65.1328C43.4 65.3338 43.062 65.6018 42.615 65.8488C42.393 65.9758 42.14 66.0868 41.872 66.2068C41.595 66.2958 41.309 66.4278 40.995 66.4888C40.377 66.6628 39.691 66.7178 39.012 66.7348C38.33 66.7398 37.656 66.6538 37.038 66.5258C36.426 66.3728 35.868 66.1988 35.415 65.9918C34.954 65.8028 34.606 65.5788 34.355 65.4428C34.111 65.2938 33.972 65.2088 33.972 65.2088C33.751 65.0718 33.682 64.7828 33.818 64.5628C33.927 64.3848 34.134 64.3058 34.326 64.3508L34.373 64.3618C34.373 64.3618 34.521 64.3968 34.78 64.4588C35.035 64.5238 35.388 64.6468 35.83 64.7098C36.047 64.7508 36.275 64.8208 36.525 64.8478C36.771 64.8818 37.03 64.9188 37.298 64.9558C37.566 64.9748 37.842 64.9928 38.123 65.0128C38.402 65.0098 38.686 65.0068 38.969 65.0028C39.251 64.9778 39.534 64.9808 39.808 64.9268C40.082 64.8908 40.354 64.8598 40.612 64.7988C41.132 64.7048 41.615 64.5868 42.026 64.4658C42.445 64.3608 42.784 64.2358 43.029 64.1608C43.272 64.0768 43.392 64.0468 43.402 64.0358C43.609 63.8808 43.903 63.9228 44.058 64.1298C44.214 64.3338 44.171 64.6278 43.965 64.7838Z" fill="#451B1B"/>
<path d="M54.815 90.3407L54.727 90.2948C54.727 90.2948 54.491 90.1697 54.255 90.0437C54.127 89.9927 53.991 89.8888 53.892 89.7948C53.792 89.7098 53.725 89.6528 53.725 89.6528L53.719 89.6467C53.581 89.5317 53.387 89.4908 53.206 89.5578C52.939 89.6568 52.803 89.9528 52.902 90.2208C52.902 90.2208 52.931 90.3018 52.977 90.4238C53.014 90.5438 53.081 90.7077 53.199 90.8917C53.404 91.2487 53.652 91.6218 53.652 91.6218C53.731 91.7398 53.842 91.8457 53.977 91.9167C54.412 92.1467 54.953 91.9817 55.183 91.5467C55.415 91.1127 55.249 90.5727 54.815 90.3407Z" fill="#D17E7E"/>
<path d="M85.451 82.3047C85.011 82.0527 84.428 81.9118 83.85 81.8968C84.408 80.7168 84.736 79.3318 84.736 77.8418C84.736 73.5758 82.092 70.1178 78.83 70.1178C75.568 70.1178 72.924 73.5758 72.924 77.8418C72.924 82.1078 75.569 85.5658 78.83 85.5658C79.965 85.5658 81.02 85.1398 81.92 84.4158C82.215 85.0818 82.748 85.7058 83.318 86.0308C84.387 86.6428 85.732 86.3058 86.321 85.2778C86.911 84.2478 86.521 82.9167 85.451 82.3047Z" fill="white" stroke="#451B1B" stroke-width="1.5" stroke-miterlimit="10" stroke-linecap="round" stroke-linejoin="round"/>
<path d="M32.479 82.3047C32.894 82.0527 33.446 81.9118 33.992 81.8968C33.466 80.7168 33.155 79.3318 33.155 77.8418C33.155 73.5758 35.655 70.1178 38.737 70.1178C41.821 70.1178 44.32 73.5758 44.32 77.8418C44.32 82.1078 41.821 85.5658 38.737 85.5658C37.665 85.5658 36.667 85.1398 35.817 84.4158C35.538 85.0818 35.034 85.7058 34.496 86.0308C33.485 86.6428 32.214 86.3058 31.658 85.2778C31.099 84.2478 31.468 82.9167 32.479 82.3047Z" fill="white" stroke="#451B1B" stroke-width="1.5" stroke-miterlimit="10" stroke-linecap="round" stroke-linejoin="round"/>
<g opacity="0.7">
<path d="M33.395 92.8718C33.395 92.8718 33.471 92.6088 33.666 92.3168C33.856 92.0188 34.164 91.6888 34.52 91.4218C34.873 91.1498 35.281 90.9468 35.614 90.8308C35.946 90.7118 36.215 90.6918 36.215 90.6918C36.394 90.6788 36.549 90.8138 36.562 90.9928C36.565 91.0348 36.559 91.0758 36.547 91.1138C36.547 91.1138 36.466 91.3708 36.274 91.6648C36.082 91.9628 35.791 92.3118 35.445 92.5928C35.102 92.8778 34.711 93.1008 34.377 93.2168C34.048 93.3388 33.775 93.3518 33.775 93.3518C33.568 93.3628 33.391 93.2018 33.38 92.9938C33.377 92.9528 33.383 92.9098 33.395 92.8718Z" fill="#D17E7E"/>
<path d="M36.27 92.8718C36.27 92.8718 36.346 92.6088 36.541 92.3168C36.731 92.0188 37.039 91.6888 37.395 91.4218C37.748 91.1498 38.156 90.9468 38.489 90.8308C38.821 90.7118 39.09 90.6918 39.09 90.6918C39.269 90.6788 39.424 90.8138 39.437 90.9928C39.44 91.0348 39.434 91.0758 39.422 91.1138C39.422 91.1138 39.341 91.3708 39.149 91.6648C38.957 91.9628 38.666 92.3118 38.32 92.5928C37.977 92.8778 37.586 93.1008 37.252 93.2168C36.923 93.3388 36.65 93.3518 36.65 93.3518C36.443 93.3628 36.266 93.2018 36.255 92.9938C36.252 92.9528 36.258 92.9098 36.27 92.8718Z" fill="#D17E7E"/>
<path d="M39.145 92.8718C39.145 92.8718 39.221 92.6088 39.416 92.3168C39.606 92.0188 39.914 91.6888 40.27 91.4218C40.623 91.1498 41.031 90.9468 41.364 90.8308C41.696 90.7118 41.965 90.6918 41.965 90.6918C42.144 90.6788 42.299 90.8138 42.312 90.9928C42.315 91.0348 42.309 91.0758 42.297 91.1138C42.297 91.1138 42.216 91.3708 42.024 91.6648C41.832 91.9628 41.541 92.3118 41.195 92.5928C40.852 92.8778 40.461 93.1008 40.127 93.2168C39.798 93.3388 39.525 93.3518 39.525 93.3518C39.318 93.3628 39.141 93.2018 39.13 92.9938C39.127 92.9528 39.133 92.9098 39.145 92.8718Z" fill="#D17E7E"/>
<path d="M75.873 92.8718C75.873 92.8718 75.949 92.6088 76.144 92.3168C76.334 92.0188 76.642 91.6888 76.998 91.4218C77.351 91.1498 77.759 90.9468 78.092 90.8308C78.424 90.7118 78.693 90.6918 78.693 90.6918C78.872 90.6788 79.027 90.8138 79.04 90.9928C79.043 91.0348 79.037 91.0758 79.025 91.1138C79.025 91.1138 78.944 91.3708 78.752 91.6648C78.561 91.9628 78.27 92.3118 77.923 92.5928C77.58 92.8778 77.189 93.1008 76.855 93.2168C76.526 93.3388 76.252 93.3518 76.252 93.3518C76.045 93.3628 75.868 93.2018 75.857 92.9938C75.856 92.9528 75.861 92.9098 75.873 92.8718Z" fill="#D17E7E"/>
<path d="M78.748 92.8718C78.748 92.8718 78.824 92.6088 79.019 92.3168C79.209 92.0188 79.517 91.6888 79.873 91.4218C80.226 91.1498 80.634 90.9468 80.967 90.8308C81.299 90.7118 81.568 90.6918 81.568 90.6918C81.747 90.6788 81.902 90.8138 81.915 90.9928C81.918 91.0348 81.912 91.0758 81.9 91.1138C81.9 91.1138 81.819 91.3708 81.627 91.6648C81.436 91.9628 81.145 92.3118 80.798 92.5928C80.455 92.8778 80.064 93.1008 79.73 93.2168C79.401 93.3388 79.127 93.3518 79.127 93.3518C78.92 93.3628 78.743 93.2018 78.732 92.9938C78.731 92.9528 78.736 92.9098 78.748 92.8718Z" fill="#D17E7E"/>
<path d="M81.623 92.8718C81.623 92.8718 81.699 92.6088 81.894 92.3168C82.084 92.0188 82.392 91.6888 82.748 91.4218C83.101 91.1498 83.509 90.9468 83.842 90.8308C84.174 90.7118 84.443 90.6918 84.443 90.6918C84.622 90.6788 84.777 90.8138 84.79 90.9928C84.793 91.0348 84.787 91.0758 84.775 91.1138C84.775 91.1138 84.694 91.3708 84.502 91.6648C84.311 91.9628 84.02 92.3118 83.673 92.5928C83.33 92.8778 82.939 93.1008 82.605 93.2168C82.276 93.3388 82.002 93.3518 82.002 93.3518C81.795 93.3628 81.618 93.2018 81.607 92.9938C81.606 92.9528 81.611 92.9098 81.623 92.8718Z" fill="#D17E7E"/>
</g>
<path d="M71.693 97.7888C72.364 99.6388 72.154 101.559 69.714 102.089C69.554 103.669 66.494 104.759 65.374 103.259C62.964 104.009 55.904 104.269 54.084 103.969C53.724 103.909 53.434 103.839 53.184 103.759C56.094 99.4578 67.054 93.6088 71.693 97.7888Z" fill="#DE5766"/>
<path d="M60.214 95.5878C63.754 93.7978 66.884 92.7078 69.094 94.2078C70.074 94.8678 71.164 96.3078 71.694 97.7878C67.054 93.6078 56.094 99.4578 53.184 103.758C52.144 103.408 51.914 102.848 51.484 102.088C50.505 100.338 50.094 97.8378 50.094 97.8378C52.884 98.0078 56.674 97.3778 60.214 95.5878Z" fill="#8A1926"/>
<path d="M53.184 103.758C52.144 103.408 51.914 102.848 51.484 102.088C50.505 100.338 50.094 97.8378 50.094 97.8378C52.884 98.0078 56.674 97.3778 60.214 95.5878C63.754 93.7978 66.884 92.7078 69.094 94.2078C70.074 94.8678 71.164 96.3078 71.694 97.7878C72.365 99.6378 72.155 101.558 69.715 102.088C69.555 103.668 66.495 104.758 65.375 103.258C62.965 104.008 55.905 104.268 54.085 103.968C53.724 103.909 53.434 103.838 53.184 103.758Z" stroke="#451B1B" stroke-miterlimit="10" stroke-linecap="round" stroke-linejoin="round"/>
<path d="M53.184 103.758C56.094 99.4578 67.054 93.6088 71.694 97.7878" stroke="#451B1B" stroke-miterlimit="10" stroke-linecap="round" stroke-linejoin="round"/>
<path d="M103.6 75.0857C100.23 80.7557 96.081 84.4858 92.88 85.5758C94.51 81.4458 94.74 75.9758 94.48 71.0458L94.26 71.0568C87.63 66.3668 79 53.6758 77.76 47.7468C71.69 54.0568 63.73 68.1067 63.73 68.1067H63.72C63.18 73.8567 62.491 78.7368 61.76 79.8668C49.38 76.8368 43.2 67.6068 40.55 57.5268C34.38 69.9868 25.6 73.1468 25.6 73.1468C26.38 79.5568 28.63 83.4257 28.63 83.4257C13.88 79.4467 11.21 63.2857 11.76 56.4857C11.38 56.6157 5.13 56.3657 1 50.6157C10.13 47.4857 13.63 39.2457 20.38 28.3657C27.13 17.4857 42.26 12.4858 52.88 12.2458C83.93 6.19575 101.64 21.1157 108.5 31.4857C113.3 38.7457 118.26 43.6758 124.32 43.5558C124.189 46.7458 120.439 51.8057 117.88 52.8657C119.88 59.0557 117.88 64.9257 118 67.9857C118.13 71.0557 118.94 74.1757 121.88 76.6157C116.13 78.7457 111.97 75.8758 111.97 75.8758C108.38 72.7558 103.6 75.0857 103.6 75.0857Z" fill="#CCCCCC"/>
<path d="M39.091 48.9268C43.693 54.6168 45.89 71.5538 61.76 79.8668C49.13 76.7418 40.818 66.9288 39.091 48.9268Z" fill="#E3E3E3"/>
<path d="M28.434 53.7028C23.654 63.0388 25.541 72.6178 25.541 72.6178L26.641 72.6768C28.229 71.8848 31.442 69.9518 34.841 66.1078C25.612 71.1978 28.434 53.7028 28.434 53.7028Z" fill="#ADADAD"/>
<path d="M102.974 76.1027C103.185 75.7717 103.394 75.4327 103.6 75.0857C103.6 75.0857 108.38 72.7558 111.97 75.8758C111.97 75.8758 116.13 78.7457 121.88 76.6157C118.94 74.1757 118.13 71.0557 118 67.9857C117.898 65.3747 119.33 60.7157 118.513 55.5607C114.951 53.9437 110.13 54.7597 109.282 58.8057C108.078 64.5447 106.01 71.3908 102.976 76.0968C102.975 76.0998 102.974 76.1027 102.974 76.1027Z" fill="#ADADAD"/>
<path d="M81.713 31.4508C75.143 31.5168 75.027 37.2838 78.995 37.4508C82.963 37.6178 89.879 31.3678 81.713 31.4508Z" fill="#E3E3E3"/>
<path d="M108.5 31.4868C108.335 31.2378 108.158 30.9838 107.981 30.7288C96.324 35.5448 83.39 38.9688 83.797 40.3808C84.249 41.9498 108.507 51.5057 124.247 43.5547C118.221 43.6317 113.28 38.7168 108.5 31.4868Z" fill="#E3E3E3"/>
<path d="M16.482 34.8338C14.198 38.6538 12.122 41.9798 9.72302 44.6598C23.222 48.0578 33.727 43.6478 33.567 42.7408C33.419 41.9038 23.989 38.6968 16.482 34.8338Z" fill="#E3E3E3"/>
<path d="M62.723 68.0287C62.723 68.0287 63.234 63.1377 63.744 58.2487C63.891 57.0237 63.939 55.8087 64.031 54.6627C64.112 53.5177 64.188 52.4497 64.253 51.5337C64.383 49.7007 64.47 48.4777 64.47 48.4777L64.471 48.4548C64.49 48.1948 64.715 47.9998 64.974 48.0188C65.225 48.0358 65.415 48.2478 65.412 48.4968C65.412 48.4968 65.391 49.7288 65.36 51.5788C65.344 52.5048 65.327 53.5848 65.307 54.7418C65.276 55.8968 65.292 57.1398 65.211 58.3648C64.964 63.2748 64.718 68.1858 64.718 68.1858C64.69 68.7378 64.22 69.1628 63.668 69.1348C63.116 69.1078 62.691 68.6377 62.72 68.0847C62.72 68.0677 62.721 68.0447 62.723 68.0287Z" fill="#451B1B"/>
<path d="M40.55 57.5268C43.2 67.6068 49.38 76.8368 61.76 79.8668C62.491 78.7368 63.18 73.8568 63.72 68.1068" stroke="#451B1B" stroke-width="2" stroke-miterlimit="10" stroke-linecap="round" stroke-linejoin="round"/>
<path d="M39.555 38.8278C39.555 38.8278 39.534 40.0068 39.504 41.7738C39.496 42.2148 39.487 42.6948 39.479 43.2008C39.507 43.6998 39.537 44.2258 39.567 44.7698C39.598 45.3128 39.631 45.8737 39.664 46.4437C39.708 47.0127 39.703 47.5907 39.788 48.1677C39.949 49.3177 40.111 50.4688 40.262 51.5478C40.341 52.0858 40.392 52.6097 40.529 53.0897C40.644 53.5737 40.753 54.0308 40.853 54.4538C41.252 56.1388 41.518 57.2627 41.518 57.2627L41.542 57.3628C41.669 57.8998 41.336 58.4388 40.799 58.5668C40.261 58.6938 39.722 58.3618 39.595 57.8238C39.591 57.8068 39.587 57.7877 39.584 57.7707C39.584 57.7707 39.369 56.5878 39.049 54.8128C38.969 54.3708 38.883 53.8907 38.791 53.3827C38.679 52.8787 38.654 52.3348 38.603 51.7768C38.508 50.6608 38.408 49.4687 38.307 48.2787C38.252 47.6847 38.288 47.0798 38.275 46.4918C38.274 45.9028 38.272 45.3227 38.271 44.7617C38.271 44.2017 38.271 43.6608 38.272 43.1488C38.308 42.6428 38.342 42.1658 38.374 41.7248C38.501 39.9608 38.586 38.7858 38.586 38.7858C38.604 38.5188 38.837 38.3168 39.104 38.3368C39.362 38.3548 39.559 38.5738 39.555 38.8278Z" fill="#451B1B"/>
<path d="M63.73 68.1068C63.73 68.1068 71.69 54.0568 77.76 47.7468C79 53.6768 87.63 66.3668 94.26 71.0568" stroke="#451B1B" stroke-width="2" stroke-miterlimit="10" stroke-linecap="round" stroke-linejoin="round"/>
<path d="M102.717 74.6168C102.717 74.6168 103.273 73.6428 104.107 72.1838C104.311 71.8178 104.549 71.4237 104.771 71.0037C104.961 70.5767 105.16 70.1277 105.367 69.6627C105.575 69.1957 105.79 68.7148 106.008 68.2248C106.219 67.7308 106.477 67.2468 106.625 66.7138C106.971 65.6648 107.316 64.6167 107.641 63.6337C107.722 63.3877 107.802 63.1458 107.88 62.9078C107.934 62.6648 107.986 62.4258 108.037 62.1948C108.137 61.7298 108.233 61.2918 108.321 60.8848C108.675 59.2588 108.911 58.1748 108.911 58.1748L108.922 58.1278C108.975 57.8838 109.216 57.7298 109.46 57.7818C109.695 57.8328 109.847 58.0588 109.812 58.2938C109.812 58.2938 109.639 59.4117 109.38 61.0897C109.315 61.5107 109.244 61.9667 109.17 62.4477C109.132 62.6887 109.092 62.9367 109.052 63.1897C108.987 63.4377 108.921 63.6907 108.854 63.9477C108.583 64.9787 108.292 66.0798 108.002 67.1788C107.882 67.7368 107.644 68.2647 107.454 68.7967C107.254 69.3277 107.058 69.8508 106.868 70.3558C106.677 70.8628 106.491 71.3527 106.315 71.8177C106.115 72.2597 105.905 72.6608 105.721 73.0408C104.978 74.5488 104.483 75.5538 104.483 75.5538C104.239 76.0498 103.639 76.2527 103.143 76.0087C102.648 75.7647 102.444 75.1648 102.688 74.6688C102.696 74.6538 102.707 74.6328 102.717 74.6168Z" fill="#451B1B"/>
<path d="M94.48 71.0458C94.741 75.9768 94.51 81.4458 92.88 85.5758C96.08 84.4858 100.23 80.7558 103.6 75.0858" stroke="#451B1B" stroke-width="2" stroke-miterlimit="10" stroke-linecap="round" stroke-linejoin="round"/>
<path d="M93.335 58.7118C93.335 58.7118 93.537 59.4518 93.78 60.5998C93.902 61.1708 94.061 61.8368 94.203 62.5538C94.333 63.2728 94.472 64.0377 94.61 64.8047C94.679 65.1877 94.749 65.5718 94.817 65.9498C94.895 66.3268 94.924 66.7038 94.976 67.0658C95.069 67.7928 95.156 68.4697 95.23 69.0517C95.378 70.2167 95.478 70.9928 95.478 70.9928C95.547 71.5418 95.16 72.0438 94.611 72.1128C94.062 72.1828 93.56 71.7947 93.49 71.2457C93.487 71.2187 93.484 71.1898 93.483 71.1618L93.48 71.0977C93.48 71.0977 93.45 70.3357 93.403 69.1927C93.38 68.6207 93.353 67.9517 93.324 67.2357C93.305 66.8787 93.308 66.5068 93.264 66.1318C93.229 65.7568 93.194 65.3758 93.159 64.9938C93.088 64.2298 93.017 63.4668 92.951 62.7508C92.873 62.0368 92.774 61.3757 92.703 60.8057C92.565 59.6677 92.425 58.9018 92.425 58.9018C92.379 58.6498 92.546 58.4077 92.799 58.3617C93.037 58.3177 93.266 58.4657 93.329 58.6937L93.335 58.7118Z" fill="#451B1B"/>
<path d="M24.454 71.7478C24.454 71.7478 24.445 71.4118 24.43 70.8238C24.421 70.5288 24.412 70.1727 24.401 69.7617C24.394 69.3497 24.424 68.8598 24.437 68.3388C24.46 67.8178 24.455 67.2448 24.529 66.6598C24.588 66.0708 24.649 65.4508 24.713 64.8088C24.817 64.1728 24.924 63.5157 25.032 62.8477C25.125 62.1777 25.296 61.5128 25.455 60.8458C25.628 60.1828 25.741 59.5048 25.964 58.8688C26.165 58.2258 26.363 57.5947 26.555 56.9817C26.729 56.3657 26.998 55.8037 27.199 55.2537C27.413 54.7087 27.616 54.1928 27.803 53.7178C28.677 51.8728 29.259 50.6428 29.259 50.6428C29.378 50.3918 29.679 50.2847 29.93 50.4037C30.174 50.5187 30.282 50.8058 30.18 51.0518L30.165 51.0878C30.165 51.0878 29.651 52.3138 28.882 54.1528C28.722 54.6248 28.548 55.1348 28.364 55.6748C28.194 56.2178 27.958 56.7727 27.817 57.3787C27.659 57.9787 27.496 58.5988 27.331 59.2288C27.143 59.8518 27.065 60.5118 26.929 61.1578C26.805 61.8048 26.669 62.4507 26.611 63.0977C26.537 63.7417 26.463 64.3737 26.391 64.9867C26.359 65.6017 26.328 66.1968 26.298 66.7608C26.251 67.3258 26.284 67.8497 26.283 68.3357C26.294 68.8237 26.283 69.2588 26.308 69.6648C26.338 70.0738 26.364 70.4307 26.386 70.7237C26.429 71.3107 26.453 71.6468 26.453 71.6468C26.493 72.1978 26.079 72.6768 25.528 72.7168C24.977 72.7578 24.498 72.3437 24.458 71.7927C24.456 71.7807 24.455 71.7628 24.454 71.7478Z" fill="#451B1B"/>
<path d="M103.6 75.0857C103.6 75.0857 108.38 72.7558 111.97 75.8758C111.97 75.8758 116.13 78.7457 121.88 76.6157C118.94 74.1757 118.13 71.0557 118 67.9857C117.88 64.9257 119.88 59.0557 117.88 52.8657C120.44 51.8057 124.19 46.7458 124.32 43.5558C118.26 43.6748 113.299 38.7457 108.5 31.4857C101.64 21.1157 83.93 6.19575 52.88 12.2458C42.26 12.4858 27.13 17.4857 20.38 28.3657C13.63 39.2457 10.13 47.4857 1 50.6157C5.13 56.3657 11.38 56.6157 11.76 56.4857C11.21 63.2857 13.88 79.4457 28.63 83.4257C28.63 83.4257 26.38 79.5568 25.6 73.1468C25.543 72.6768 25.494 72.1948 25.454 71.6988" stroke="#451B1B" stroke-width="2" stroke-miterlimit="10" stroke-linecap="round" stroke-linejoin="round"/>
<path d="M25.6 73.1468C25.6 73.1468 34.38 69.9868 40.55 57.5268V57.5168" stroke="#451B1B" stroke-width="2" stroke-miterlimit="10" stroke-linecap="round" stroke-linejoin="round"/>
<path d="M56.255 15.3668C56.255 15.3668 47.63 -0.508246 26.255 1.11675C26.255 1.11675 38.505 16.1168 56.255 15.3668Z" fill="#CCCCCC" stroke="#451B1B" stroke-width="2" stroke-miterlimit="10" stroke-linecap="round" stroke-linejoin="round"/>
</svg>
