<svg width="126" height="126" viewBox="0 0 126 126" fill="none" xmlns="http://www.w3.org/2000/svg">
<path d="M90.96 125.211H36.55C36.55 125.211 40.52 114.841 52.54 107.361C52.54 115.291 66.96 118.371 76.11 107.361C79.54 109.581 86.34 114.991 90.96 125.211Z" fill="white"/>
<path d="M44.8321 125.211H44.0701C43.3421 121.065 43.2751 117.483 43.3971 114.934C43.6571 114.652 43.9221 114.369 44.1981 114.084C44.0201 116.623 44.0021 120.557 44.8321 125.211ZM80.0131 125.211H80.7731C81.4621 120.985 82.7671 117.102 83.9331 114.228C83.7481 114.015 83.5621 113.81 83.3761 113.606C82.1501 116.578 80.7331 120.711 80.0131 125.211Z" fill="#D4D4D4"/>
<path d="M73.96 106.121C73.96 106.121 74.78 106.501 76.11 107.361C66.96 118.371 52.54 115.291 52.54 107.361C53.31 106.88 54.12 106.411 54.96 105.961V102.711H73.96V106.121Z" fill="#FFBFB0"/>
<path d="M48.27 111.671C48.27 111.671 47.421 112.411 46.15 113.52C45.845 113.803 45.459 114.085 45.153 114.429C44.827 114.765 44.484 115.119 44.128 115.485C43.773 115.853 43.405 116.233 43.032 116.618C42.684 117.035 42.332 117.458 41.978 117.882C41.634 118.313 41.249 118.714 40.944 119.162C40.626 119.603 40.313 120.036 40.009 120.454C39.695 120.867 39.435 121.293 39.183 121.694C38.934 122.096 38.683 122.469 38.477 122.827C38.079 123.548 37.735 124.146 37.538 124.578C37.319 125.01 37.227 125.241 37.227 125.241C37.095 125.569 36.722 125.728 36.395 125.596C36.075 125.467 35.916 125.106 36.032 124.784C36.032 124.784 36.139 124.488 36.347 124.033C36.541 123.559 36.872 122.924 37.261 122.152C37.461 121.77 37.704 121.373 37.947 120.944C38.193 120.516 38.447 120.061 38.755 119.621C39.053 119.173 39.359 118.71 39.672 118.24C39.974 117.76 40.353 117.329 40.693 116.867C41.043 116.412 41.393 115.957 41.737 115.509C42.117 115.083 42.491 114.664 42.852 114.258C43.216 113.853 43.569 113.462 43.903 113.09C44.23 112.7 44.58 112.427 44.881 112.125C46.108 110.966 46.925 110.192 46.925 110.192C47.326 109.813 47.96 109.83 48.339 110.231C48.719 110.632 48.701 111.266 48.3 111.645C48.29 111.652 48.278 111.663 48.27 111.671Z" fill="#451B1B"/>
<path d="M80.0419 110.337C78.5219 109.016 77.1589 108.039 76.1099 107.361C74.7799 106.501 73.9599 106.121 73.9599 106.121V102.711H54.9599V105.961C54.1199 106.411 53.3099 106.881 52.5399 107.361C50.7099 108.5 49.0669 109.705 47.5969 110.93" stroke="#451B1B" stroke-width="2" stroke-miterlimit="10" stroke-linecap="round" stroke-linejoin="round"/>
<path d="M90.1439 125.096C90.1439 125.096 89.6279 124.086 88.8549 122.571C88.6439 122.215 88.4149 121.828 88.1719 121.42C87.9239 121.015 87.693 120.574 87.399 120.143C87.107 119.711 86.8049 119.265 86.4989 118.812C86.2049 118.351 85.8509 117.921 85.5159 117.478C85.1729 117.041 84.8539 116.586 84.4859 116.182C84.1309 115.769 83.7799 115.362 83.4409 114.968C82.7179 114.221 82.0669 113.504 81.4479 112.945C80.8529 112.365 80.3319 111.907 79.9619 111.592C79.5959 111.273 79.3869 111.091 79.3869 111.091L79.36 111.067C78.944 110.704 78.9009 110.072 79.2629 109.655C79.6259 109.239 80.258 109.195 80.675 109.559C80.682 109.565 80.6929 109.575 80.6999 109.581C80.6999 109.581 80.9119 109.779 81.2819 110.124C81.6559 110.465 82.183 110.961 82.787 111.589C83.412 112.193 84.072 112.968 84.8 113.775C85.141 114.198 85.4929 114.636 85.8509 115.081C86.2199 115.517 86.5389 116.002 86.8799 116.47C87.2139 116.943 87.5659 117.404 87.8569 117.894C88.1599 118.376 88.4589 118.85 88.7469 119.309C89.0359 119.767 89.2699 120.246 89.5169 120.68C89.7559 121.118 89.9819 121.534 90.1909 121.916C90.9139 123.456 91.395 124.483 91.395 124.483C91.558 124.831 91.4089 125.244 91.0609 125.407C90.7179 125.569 90.3139 125.428 90.1439 125.096Z" fill="#451B1B"/>
<path d="M52.54 107.361C52.54 115.291 66.96 118.371 76.11 107.361" stroke="#451B1B" stroke-width="2" stroke-miterlimit="10" stroke-linecap="round" stroke-linejoin="round"/>
<path d="M26.1299 79.9778C22.6299 74.7278 18.4009 75.2328 16.5049 78.1028C14.1919 81.6028 16.1299 95.6028 28.0049 95.1648L26.1299 79.9778Z" fill="#FFBFB0" stroke="#451B1B" stroke-width="2" stroke-miterlimit="10" stroke-linecap="round" stroke-linejoin="round"/>
<path d="M96.9429 97.4777C80.6299 110.374 52.9639 110.708 38.8799 105.666C24.5899 100.55 23.7129 92.5417 22.6299 81.4587C19.7979 71.2917 12.7149 48.6247 32.6309 30.8747C52.5469 13.1247 90.4259 17.9147 103.047 38.2087C113.464 54.9587 108.131 73.7917 108.131 73.7917C111.755 73.9787 114.426 77.8357 113.171 84.0407C111.693 91.3527 106.943 96.4777 96.9429 97.4777Z" fill="#FFE2DB"/>
<path d="M29.4009 99.9197C31.6689 102.129 34.8479 104.044 39.3799 105.666C40.0629 105.91 40.7859 106.138 41.5299 106.356C42.0339 93.0427 44.5249 78.4777 44.5249 78.4777L36.4419 77.6647C32.2069 85.1417 30.2229 94.7197 29.4009 99.9197Z" fill="#BFE3FF" stroke="#451B1B" stroke-miterlimit="10" stroke-linecap="round" stroke-linejoin="round"/>
<path d="M94.7589 99.4228C93.1999 87.8668 89.0679 77.0408 89.0679 77.0408L78.9209 78.0958C78.9209 78.0958 81.2439 88.0448 82.4999 105.231L94.7589 99.4228Z" fill="#BFE3FF" stroke="#451B1B" stroke-miterlimit="10" stroke-linecap="round" stroke-linejoin="round"/>
<path d="M96.9429 97.4777C80.6299 110.374 52.9639 110.708 38.8799 105.666C24.5899 100.55 23.7129 92.5417 22.6299 81.4587C19.7979 71.2917 12.7149 48.6247 32.6309 30.8747C52.5469 13.1247 90.4259 17.9147 103.047 38.2087C113.464 54.9587 108.131 73.7917 108.131 73.7917C111.755 73.9787 114.426 77.8357 113.171 84.0407C111.693 91.3527 106.943 96.4777 96.9429 97.4777Z" stroke="#451B1B" stroke-width="2" stroke-miterlimit="10" stroke-linecap="round" stroke-linejoin="round"/>
<path d="M103.391 92.1167C103.178 93.2447 102.194 94.1587 101.193 94.1587C100.192 94.1587 99.5529 93.2447 99.7659 92.1167C99.9779 90.9897 100.962 90.0757 101.963 90.0757C102.964 90.0757 103.603 90.9897 103.391 92.1167Z" fill="#451B1B"/>
<path d="M108.139 74.7917C108.139 74.7917 108.032 74.7897 107.842 74.7857C107.673 74.7807 107.411 74.7867 107.086 74.8057C106.764 74.8127 106.389 74.8707 105.983 74.9067C105.588 74.9857 105.15 75.0307 104.734 75.1427C104.32 75.2617 103.884 75.3357 103.514 75.4967C103.142 75.6487 102.765 75.7437 102.487 75.9057C101.912 76.2017 101.528 76.3987 101.528 76.3987L101.448 76.4397C101.139 76.5987 100.759 76.4767 100.601 76.1677C100.453 75.8787 100.551 75.5267 100.817 75.3537C100.817 75.3537 101.227 75.0867 101.842 74.6867C102.146 74.4727 102.544 74.3227 102.951 74.1097C103.358 73.8877 103.824 73.7547 104.28 73.5757C104.738 73.4037 105.214 73.3027 105.653 73.1707C106.101 73.0837 106.516 72.9797 106.882 72.9317C107.241 72.8747 107.553 72.8357 107.786 72.8187C107.999 72.8017 108.121 72.7927 108.121 72.7927C108.673 72.7507 109.154 73.1627 109.197 73.7147C109.24 74.2667 108.827 74.7487 108.275 74.7907C108.242 74.7927 108.21 74.7937 108.177 74.7937L108.139 74.7917Z" fill="#451B1B"/>
<path d="M101.641 87.0017C101.797 85.2297 105.408 79.4577 108.963 81.0177C111.63 82.1877 109.983 87.8337 106.542 88.7887C106.193 86.7917 104.318 85.6247 101.641 87.0017Z" fill="#FFBFB0"/>
<path d="M107.327 81.3257L106.344 81.8037C106.162 81.8747 106.073 81.9877 105.938 82.0767L105.563 82.3547C105.307 82.5087 105.078 82.7937 104.835 83.0117C104.584 83.2307 104.377 83.4957 104.17 83.7607C103.95 84.0137 103.755 84.2837 103.587 84.5747C103.402 84.8527 103.23 85.1357 103.101 85.4357L102.886 85.8747L102.74 86.3157C102.694 86.4597 102.624 86.6137 102.625 86.7357C102.609 86.8637 102.589 86.9897 102.565 87.1137L101.075 86.1697L101.079 86.1677C101.67 85.8657 102.302 85.6867 102.946 85.6237C103.59 85.5627 104.253 85.6167 104.89 85.8357C105.207 85.9517 105.516 86.1007 105.8 86.2977C106.081 86.4997 106.339 86.7387 106.546 87.0167C106.641 87.1607 106.755 87.2937 106.821 87.4507C106.89 87.6047 106.984 87.7517 107.024 87.9117C107.139 88.2267 107.19 88.5427 107.232 88.8567C107.281 89.2227 107.024 89.5597 106.658 89.6077C106.321 89.6527 106.008 89.4377 105.924 89.1157L105.903 89.0347C105.847 88.8267 105.795 88.6217 105.704 88.4437C105.674 88.3457 105.602 88.2767 105.558 88.1907C105.516 88.1027 105.437 88.0457 105.381 87.9717C105.127 87.7027 104.792 87.5237 104.41 87.4357C103.643 87.2627 102.731 87.4647 102.063 87.9077L102.061 87.9087L101.822 88.0087C101.355 88.2057 100.817 87.9867 100.621 87.5197C100.545 87.3367 100.531 87.1447 100.571 86.9647L100.724 86.2737C100.77 86.0307 100.865 85.8557 100.944 85.6587L101.193 85.0837L101.498 84.5627C101.689 84.2077 101.922 83.8867 102.165 83.5767C102.391 83.2527 102.646 82.9537 102.926 82.6757C103.193 82.3867 103.459 82.1007 103.777 81.8607C104.094 81.6157 104.349 81.3407 104.73 81.1337L105.265 80.8097C105.442 80.7127 105.627 80.5747 105.792 80.5267L106.809 80.1297C107.144 79.9987 107.523 80.1637 107.654 80.4997C107.777 80.8187 107.629 81.1777 107.327 81.3257Z" fill="#451B1B"/>
<path d="M46.2341 68.3978C46.2431 68.3858 46.1171 68.5477 45.8941 68.7477C45.6691 68.9487 45.3311 69.2157 44.8841 69.4627C44.6621 69.5907 44.4091 69.7007 44.1411 69.8197C43.8641 69.9087 43.5781 70.0397 43.2641 70.1017C42.6461 70.2757 41.9601 70.3307 41.2811 70.3487C40.5991 70.3537 39.9241 70.2677 39.3071 70.1397C38.6951 69.9867 38.1371 69.8128 37.6841 69.6048C37.2231 69.4168 36.8751 69.1927 36.6241 69.0567C36.3801 68.9067 36.2411 68.8217 36.2411 68.8217C36.0201 68.6857 35.9511 68.3968 36.0871 68.1758C36.1961 67.9988 36.4031 67.9198 36.5951 67.9648L36.6421 67.9757C36.6421 67.9757 36.7901 68.0107 37.0491 68.0717C37.3041 68.1367 37.6571 68.2607 38.0991 68.3237C38.3161 68.3637 38.5441 68.4347 38.7941 68.4607C39.0401 68.4957 39.2991 68.5317 39.5671 68.5697C39.8351 68.5877 40.1111 68.6067 40.3921 68.6257C40.6711 68.6227 40.9551 68.6197 41.2381 68.6157C41.5201 68.5907 41.8031 68.5927 42.0771 68.5397C42.3521 68.5037 42.6231 68.4718 42.8811 68.4128C43.4001 68.3178 43.8841 68.2008 44.2951 68.0788C44.7141 67.9728 45.0531 67.8488 45.2981 67.7738C45.5411 67.6888 45.6611 67.6598 45.6711 67.6488C45.8781 67.4938 46.1721 67.5358 46.3271 67.7428C46.4831 67.9488 46.4411 68.2428 46.2341 68.3978Z" fill="#451B1B"/>
<path d="M71.72 67.6487C71.73 67.6597 71.85 67.6887 72.093 67.7737C72.338 67.8477 72.677 67.9727 73.096 68.0787C73.507 68.1997 73.991 68.3177 74.51 68.4127C74.768 68.4727 75.039 68.5037 75.314 68.5397C75.587 68.5927 75.871 68.5907 76.152 68.6157C76.436 68.6187 76.719 68.6227 76.999 68.6257C77.28 68.6067 77.557 68.5877 77.824 68.5697C78.092 68.5317 78.351 68.4947 78.597 68.4607C78.847 68.4347 79.075 68.3637 79.292 68.3237C79.733 68.2607 80.087 68.1377 80.342 68.0717C80.601 68.0107 80.749 67.9757 80.749 67.9757L80.795 67.9647C81.048 67.9047 81.301 68.0617 81.36 68.3137C81.408 68.5157 81.317 68.7187 81.149 68.8217C81.149 68.8217 81.01 68.9067 80.766 69.0567C80.515 69.1927 80.167 69.4157 79.706 69.6047C79.253 69.8127 78.695 69.9857 78.083 70.1397C77.466 70.2677 76.791 70.3537 76.109 70.3487C75.429 70.3307 74.744 70.2757 74.126 70.1017C73.811 70.0397 73.526 69.9087 73.249 69.8197C72.981 69.7007 72.728 69.5897 72.506 69.4627C72.059 69.2157 71.721 68.9477 71.496 68.7477C71.273 68.5487 71.147 68.3867 71.156 68.3977C70.949 68.2427 70.907 67.9497 71.062 67.7427C71.219 67.5347 71.513 67.4927 71.72 67.6487Z" fill="#451B1B"/>
<path d="M59.453 84.4528L59.374 84.3938C59.374 84.3938 59.159 84.2348 58.945 84.0758C58.826 84.0058 58.708 83.8828 58.623 83.7738C58.538 83.6748 58.479 83.6088 58.479 83.6088L58.474 83.6028C58.355 83.4678 58.169 83.3978 57.981 83.4378C57.702 83.4948 57.522 83.7678 57.581 84.0468C57.581 84.0468 57.598 84.1308 57.624 84.2588C57.644 84.3828 57.685 84.5558 57.774 84.7548C57.922 85.1388 58.112 85.5448 58.112 85.5448C58.173 85.6738 58.266 85.7948 58.389 85.8858C58.784 86.1788 59.343 86.0978 59.636 85.7008C59.931 85.3058 59.848 84.7478 59.453 84.4528Z" fill="#D17E7E"/>
<path d="M91.755 78.5318C88.442 78.4378 79.349 78.9498 74.38 80.5948C73.536 79.5638 73.317 77.2198 73.724 76.9068C78.693 75.2618 87.787 74.7508 91.099 74.8438C92.13 75.7508 91.943 77.6258 91.755 78.5318Z" fill="#451B1B"/>
<path d="M32.398 78.5378C35.495 78.5798 43.31 79.8318 48.646 81.3118C49.435 80.3158 49.64 77.9807 49.26 77.6517C44.613 75.8027 36.109 74.9197 33.011 74.8777C32.046 75.7407 32.222 77.6238 32.398 78.5378Z" fill="#451B1B"/>
<path d="M78.3391 98.3307C78.5791 100.181 77.1391 101.221 75.2991 101.351C61.1691 102.412 51.7991 102.291 48.4891 101.732C47.2991 101.532 46.6081 100.952 46.2681 100.192C45.9681 98.9207 46.7981 95.9817 60.9281 95.5417C75.0491 95.0997 77.8091 96.8707 78.3391 98.3307Z" fill="#DE5766"/>
<path d="M78.169 97.5998C78.249 97.8608 78.309 98.0998 78.339 98.3298C77.809 96.8698 75.049 95.0997 60.929 95.5397C46.799 95.9797 45.969 98.9198 46.269 100.19C45.639 98.8298 46.069 96.8997 46.549 95.5397C47.299 93.4097 48.489 91.6697 52.109 91.1697C52.109 91.1697 66.74 90.3497 70.74 90.7897C74.739 91.2307 77.429 95.2908 78.169 97.5998Z" fill="#8A1926"/>
<path d="M78.3391 98.3308C78.3091 98.1008 78.249 97.8608 78.169 97.6008C77.429 95.2908 74.739 91.2318 70.739 90.7908C66.739 90.3508 52.108 91.1708 52.108 91.1708C48.489 91.6708 47.298 93.4108 46.548 95.5408C46.068 96.9008 45.638 98.8308 46.268 100.191C46.608 100.951 47.298 101.531 48.489 101.731C51.799 102.291 61.169 102.411 75.299 101.35C77.139 101.22 78.5791 100.18 78.3391 98.3308Z" stroke="#451B1B" stroke-miterlimit="10" stroke-linecap="round" stroke-linejoin="round"/>
<path d="M46.269 100.191C45.969 98.9198 46.799 95.9808 60.929 95.5408C75.049 95.1008 77.809 96.8708 78.339 98.3308" stroke="#451B1B" stroke-miterlimit="10" stroke-linecap="round" stroke-linejoin="round"/>
<path d="M27.33 104.133C27.33 104.133 27.469 104.198 27.711 104.312C27.944 104.426 28.282 104.584 28.678 104.792C29.069 105.004 29.543 105.218 30.017 105.496C30.517 105.729 31.018 106.034 31.542 106.291C32.07 106.534 32.571 106.851 33.074 107.061C33.571 107.281 34.021 107.548 34.428 107.714C35.237 108.051 35.778 108.357 35.778 108.357L35.805 108.373C35.936 108.447 35.982 108.613 35.908 108.744C35.857 108.835 35.761 108.885 35.665 108.883C35.665 108.883 35.044 108.87 34.107 108.727C33.871 108.7 33.626 108.638 33.369 108.56C33.113 108.483 32.837 108.414 32.559 108.32C32.277 108.235 31.992 108.133 31.713 108.005C31.434 107.878 31.149 107.749 30.866 107.621C30.576 107.503 30.319 107.325 30.052 107.178C29.785 107.028 29.53 106.868 29.286 106.709C28.811 106.372 28.37 106.057 28.027 105.737C27.677 105.433 27.402 105.151 27.218 104.941C27.03 104.737 26.945 104.611 26.945 104.611L26.935 104.596C26.837 104.451 26.874 104.256 27.019 104.157C27.114 104.094 27.232 104.089 27.33 104.133Z" fill="#451B1B"/>
<path d="M30.935 109.99C30.935 109.99 31.024 109.986 31.173 109.996C31.322 110.013 31.53 110.017 31.758 110.042C31.991 110.062 32.243 110.111 32.515 110.17C32.799 110.202 33.089 110.272 33.379 110.347L33.809 110.476C33.948 110.536 34.09 110.547 34.227 110.582C34.5 110.647 34.755 110.724 34.977 110.807C35.418 110.964 35.726 111.148 35.726 111.148L35.766 111.172C35.901 111.252 35.946 111.428 35.865 111.563C35.83 111.622 35.778 111.663 35.719 111.685C35.719 111.685 35.395 111.804 34.888 111.866C34.636 111.901 34.338 111.921 34.019 111.926C33.861 111.919 33.691 111.941 33.53 111.903C33.369 111.87 33.205 111.835 33.041 111.801C32.715 111.721 32.389 111.636 32.095 111.523C31.799 111.406 31.535 111.241 31.32 111.103C31.1 110.967 30.935 110.832 30.837 110.723C30.733 110.618 30.678 110.547 30.678 110.547C30.561 110.399 30.585 110.184 30.734 110.067C30.793 110.02 30.863 109.996 30.933 109.993H30.935V109.99Z" fill="#451B1B"/>
<path d="M87.2521 106.222C87.2521 106.222 87.6911 105.833 88.3891 105.348C89.0771 104.847 90.0511 104.298 91.0111 103.739C91.4971 103.468 91.9901 103.209 92.4641 102.982C92.9451 102.763 93.3281 102.505 93.7091 102.33C94.4451 101.954 95.0011 101.752 95.0011 101.752L95.0521 101.734C95.1921 101.683 95.3461 101.755 95.3971 101.895C95.4311 101.988 95.4101 102.088 95.3511 102.16C95.3511 102.16 94.9811 102.602 94.3281 103.194C94.0011 103.48 93.6171 103.855 93.1701 104.145C92.7261 104.445 92.2391 104.745 91.7461 105.037C91.2511 105.324 90.7541 105.607 90.2601 105.815C89.7751 106.041 89.3101 106.226 88.9061 106.373C88.1011 106.67 87.5251 106.771 87.5251 106.771L87.5181 106.773C87.3451 106.803 87.1811 106.688 87.1501 106.515C87.1291 106.402 87.1721 106.293 87.2521 106.222Z" fill="#451B1B"/>
<path d="M93.5779 106.564C93.5779 106.564 93.8069 106.27 94.1869 105.931C94.5589 105.582 95.1049 105.218 95.6539 104.869C95.9319 104.701 96.2189 104.544 96.4999 104.413C96.7739 104.279 96.9989 104.139 97.2289 104.042C97.6699 103.837 98.0339 103.743 98.0339 103.743L98.0909 103.728C98.2409 103.69 98.3939 103.78 98.4319 103.929C98.4499 103.997 98.4409 104.067 98.4109 104.125C98.4109 104.125 98.2489 104.447 97.8999 104.865C97.8119 104.969 97.7199 105.087 97.6109 105.197C97.5009 105.304 97.3949 105.449 97.2639 105.537C97.0119 105.742 96.7319 105.942 96.4439 106.133C96.1529 106.318 95.8619 106.506 95.5599 106.626C95.2679 106.762 94.9809 106.864 94.7309 106.94C94.2349 107.096 93.8659 107.106 93.8659 107.106H93.8529C93.6669 107.111 93.5129 106.963 93.5079 106.778C93.5059 106.699 93.5319 106.624 93.5779 106.564Z" fill="#451B1B"/>
<path d="M103.6 75.0867C100.23 80.7567 96.08 84.4867 92.88 85.5767C94.51 81.4467 94.74 75.9767 94.48 71.0467L94.26 71.0577C87.63 66.3667 79 53.6767 77.76 47.7467C71.69 54.0577 63.73 68.1067 63.73 68.1067H63.72C63.18 73.8567 62.491 78.7367 61.76 79.8667C49.38 76.8367 43.2 67.6067 40.55 57.5267C34.38 69.9867 25.6 73.1467 25.6 73.1467C26.38 79.5567 28.63 83.4257 28.63 83.4257C13.88 79.4467 11.21 63.2857 11.76 56.4867C11.38 56.6167 5.13 56.3667 1 50.6167C10.13 47.4867 13.63 39.2467 20.38 28.3667C27.13 17.4867 42.26 12.4867 52.88 12.2467C83.93 6.19673 101.64 21.1167 108.5 31.4867C113.3 38.7467 118.26 43.6757 124.32 43.5567C124.189 46.7457 120.439 51.8067 117.88 52.8657C119.88 59.0567 117.88 64.9257 118 67.9857C118.13 71.0557 118.94 74.1747 121.88 76.6157C116.13 78.7457 111.97 75.8757 111.97 75.8757C108.38 72.7557 103.6 75.0867 103.6 75.0867Z" fill="#CCCCCC"/>
<path d="M39.0911 48.9268C43.6931 54.6158 45.8901 71.5538 61.7601 79.8658C49.1301 76.7418 40.8181 66.9288 39.0911 48.9268Z" fill="#E3E3E3"/>
<path d="M28.434 53.7028C23.654 63.0388 25.541 72.6178 25.541 72.6178L26.641 72.6768C28.229 71.8848 31.442 69.9518 34.841 66.1078C25.612 71.1978 28.434 53.7028 28.434 53.7028Z" fill="#ADADAD"/>
<path d="M102.974 76.1028C103.185 75.7718 103.394 75.4328 103.6 75.0858C103.6 75.0858 108.38 72.7558 111.97 75.8758C111.97 75.8758 116.13 78.7458 121.88 76.6158C118.94 74.1758 118.13 71.0568 118 67.9858C117.897 65.3748 119.33 60.7158 118.513 55.5608C114.952 53.9438 110.13 54.7598 109.282 58.8058C108.078 64.5448 106.009 71.3908 102.976 76.0968C102.975 76.0998 102.974 76.1028 102.974 76.1028Z" fill="#ADADAD"/>
<path d="M81.713 31.4508C75.143 31.5168 75.027 37.2838 78.995 37.4508C82.963 37.6178 89.879 31.3678 81.713 31.4508Z" fill="#E3E3E3"/>
<path d="M108.5 31.4868C108.335 31.2378 108.158 30.9838 107.98 30.7288C96.323 35.5448 83.389 38.9688 83.796 40.3808C84.248 41.9498 108.506 51.5058 124.246 43.5548C118.221 43.6318 113.28 38.7168 108.5 31.4868Z" fill="#E3E3E3"/>
<path d="M16.482 34.8348C14.198 38.6548 12.122 41.9808 9.72302 44.6608C23.222 48.0578 33.727 43.6488 33.567 42.7418C33.419 41.9038 23.989 38.6968 16.482 34.8348Z" fill="#E3E3E3"/>
<path d="M62.7229 68.0288C62.7229 68.0288 63.2339 63.1378 63.7429 58.2478C63.8899 57.0238 63.9379 55.8078 64.0299 54.6628C64.1109 53.5178 64.1869 52.4498 64.2519 51.5338C64.3819 49.6998 64.4689 48.4778 64.4689 48.4778L64.4699 48.4538C64.4889 48.1948 64.7139 47.9988 64.9729 48.0178C65.2239 48.0358 65.4139 48.2468 65.4109 48.4948C65.4109 48.4948 65.3909 49.7278 65.3589 51.5768C65.3429 52.5028 65.3259 53.5828 65.3059 54.7398C65.2759 55.8958 65.2909 57.1388 65.2099 58.3628C64.9629 63.2738 64.7169 68.1848 64.7169 68.1848C64.6889 68.7368 64.2189 69.1618 63.6669 69.1338C63.1149 69.1058 62.6899 68.6368 62.7189 68.0848C62.7199 68.0678 62.7209 68.0458 62.7229 68.0288Z" fill="#451B1B"/>
<path d="M40.55 57.5268C43.2 67.6068 49.38 76.8368 61.76 79.8668C62.49 78.7368 63.18 73.8568 63.72 68.1068" stroke="#451B1B" stroke-width="2" stroke-miterlimit="10" stroke-linecap="round" stroke-linejoin="round"/>
<path d="M39.555 38.8288C39.555 38.8288 39.535 40.0068 39.504 41.7748C39.496 42.2168 39.487 42.6948 39.479 43.2018C39.507 43.7008 39.537 44.2268 39.567 44.7708C39.598 45.3138 39.631 45.8748 39.664 46.4448C39.708 47.0138 39.703 47.5918 39.788 48.1678C39.949 49.3188 40.111 50.4698 40.262 51.5478C40.341 52.0858 40.392 52.6098 40.529 53.0908C40.644 53.5748 40.753 54.0318 40.853 54.4538C41.252 56.1388 41.518 57.2628 41.518 57.2628L41.542 57.3628C41.669 57.9008 41.336 58.4398 40.799 58.5668C40.261 58.6948 39.722 58.3618 39.595 57.8238C39.591 57.8068 39.587 57.7868 39.584 57.7708C39.584 57.7708 39.37 56.5868 39.049 54.8128C38.969 54.3698 38.883 53.8908 38.791 53.3828C38.679 52.8788 38.654 52.3348 38.603 51.7768C38.508 50.6598 38.408 49.4698 38.307 48.2788C38.252 47.6848 38.288 47.0798 38.275 46.4918C38.274 45.9028 38.272 45.3228 38.271 44.7618C38.271 44.2018 38.271 43.6608 38.272 43.1478C38.308 42.6428 38.342 42.1658 38.374 41.7248C38.501 39.9618 38.586 38.7858 38.586 38.7858C38.604 38.5188 38.837 38.3178 39.104 38.3368C39.362 38.3548 39.559 38.5728 39.555 38.8288Z" fill="#451B1B"/>
<path d="M63.73 68.1068C63.73 68.1068 71.69 54.0568 77.76 47.7468C79 53.6768 87.63 66.3668 94.26 71.0578" stroke="#451B1B" stroke-width="2" stroke-miterlimit="10" stroke-linecap="round" stroke-linejoin="round"/>
<path d="M102.717 74.6168C102.717 74.6168 103.273 73.6437 104.107 72.1837C104.311 71.8187 104.549 71.4247 104.771 71.0037C104.96 70.5777 105.16 70.1287 105.367 69.6627C105.575 69.1967 105.79 68.7147 106.008 68.2247C106.219 67.7307 106.477 67.2477 106.626 66.7137C106.971 65.6657 107.316 64.6167 107.641 63.6347C107.722 63.3877 107.802 63.1458 107.88 62.9088C107.934 62.6648 107.987 62.4277 108.037 62.1957C108.137 61.7317 108.233 61.2917 108.321 60.8867C108.675 59.2607 108.911 58.1767 108.911 58.1767L108.922 58.1297C108.975 57.8847 109.216 57.7308 109.46 57.7838C109.695 57.8348 109.847 58.0607 109.812 58.2947C109.812 58.2947 109.639 59.4137 109.38 61.0917C109.315 61.5117 109.244 61.9677 109.17 62.4497C109.132 62.6907 109.092 62.9387 109.052 63.1917C108.987 63.4397 108.921 63.6927 108.854 63.9497C108.583 64.9807 108.292 66.0807 108.002 67.1817C107.882 67.7397 107.644 68.2677 107.454 68.7997C107.254 69.3307 107.058 69.8527 106.868 70.3587C106.677 70.8647 106.491 71.3557 106.315 71.8197C106.115 72.2627 105.905 72.6627 105.721 73.0427C104.978 74.5507 104.483 75.5557 104.483 75.5557C104.239 76.0517 103.639 76.2547 103.143 76.0107C102.648 75.7667 102.444 75.1667 102.688 74.6707C102.696 74.6537 102.707 74.6328 102.717 74.6168Z" fill="#451B1B"/>
<path d="M94.48 71.0468C94.741 75.9778 94.51 81.4468 92.88 85.5768C96.08 84.4868 100.23 80.7568 103.6 75.0868" stroke="#451B1B" stroke-width="2" stroke-miterlimit="10" stroke-linecap="round" stroke-linejoin="round"/>
<path d="M93.3349 58.7128C93.3349 58.7128 93.537 59.4528 93.78 60.6008C93.902 61.1718 94.061 61.8378 94.203 62.5548C94.333 63.2728 94.472 64.0388 94.61 64.8058C94.679 65.1898 94.749 65.5738 94.817 65.9508C94.895 66.3278 94.924 66.7048 94.976 67.0668C95.069 67.7938 95.156 68.4718 95.23 69.0528C95.378 70.2178 95.478 70.9948 95.478 70.9948C95.547 71.5438 95.16 72.0448 94.611 72.1158C94.062 72.1858 93.5599 71.7978 93.4899 71.2488C93.4869 71.2208 93.484 71.1928 93.483 71.1648L93.48 71.1008C93.48 71.1008 93.45 70.3388 93.403 69.1958C93.38 68.6228 93.353 67.9548 93.324 67.2388C93.304 66.8808 93.308 66.5088 93.265 66.1348C93.23 65.7598 93.195 65.3778 93.16 64.9968C93.089 64.2328 93.018 63.4698 92.952 62.7528C92.874 62.0388 92.775 61.3788 92.704 60.8078C92.566 59.6698 92.426 58.9038 92.426 58.9038C92.38 58.6518 92.547 58.4098 92.8 58.3638C93.038 58.3208 93.267 58.4668 93.33 58.6958L93.3349 58.7128Z" fill="#451B1B"/>
<path d="M24.454 71.7488C24.454 71.7488 24.4449 71.4118 24.4299 70.8238C24.4209 70.5298 24.4119 70.1728 24.4009 69.7628C24.3939 69.3508 24.424 68.8608 24.437 68.3408C24.46 67.8188 24.4549 67.2468 24.5289 66.6618C24.5879 66.0738 24.649 65.4528 24.713 64.8108C24.816 64.1748 24.924 63.5188 25.032 62.8508C25.125 62.1808 25.296 61.5158 25.455 60.8488C25.628 60.1858 25.741 59.5078 25.964 58.8698C26.165 58.2278 26.3629 57.5958 26.5549 56.9838C26.7289 56.3668 26.998 55.8058 27.199 55.2558C27.413 54.7108 27.616 54.1948 27.803 53.7188C28.677 51.8738 29.2589 50.6438 29.2589 50.6438C29.3779 50.3928 29.6789 50.2848 29.9299 50.4038C30.1739 50.5198 30.2829 50.8058 30.1799 51.0528L30.165 51.0878C30.165 51.0878 29.651 52.3148 28.882 54.1538C28.722 54.6248 28.548 55.1348 28.364 55.6748C28.194 56.2188 27.958 56.7738 27.817 57.3798C27.659 57.9798 27.4959 58.5998 27.3309 59.2288C27.1419 59.8528 27.065 60.5128 26.929 61.1578C26.805 61.8058 26.6689 62.4508 26.6109 63.0988C26.5369 63.7418 26.4629 64.3748 26.3909 64.9878C26.3589 65.6028 26.3269 66.1978 26.2979 66.7618C26.2509 67.3278 26.284 67.8498 26.283 68.3368C26.294 68.8248 26.283 69.2598 26.308 69.6668C26.338 70.0758 26.365 70.4318 26.386 70.7258C26.429 71.3128 26.4529 71.6478 26.4529 71.6478C26.4929 72.1988 26.079 72.6778 25.528 72.7188C24.977 72.7598 24.498 72.3458 24.458 71.7948C24.456 71.7808 24.455 71.7628 24.454 71.7488Z" fill="#451B1B"/>
<path d="M103.6 75.0868C103.6 75.0868 108.38 72.7568 111.97 75.8768C111.97 75.8768 116.13 78.7468 121.88 76.6168C118.94 74.1768 118.13 71.0578 118 67.9868C117.88 64.9258 119.88 59.0568 117.88 52.8668C120.44 51.8078 124.19 46.7468 124.32 43.5578C118.259 43.6768 113.299 38.7468 108.5 31.4878C101.64 21.1178 83.93 6.19777 52.88 12.2478C42.26 12.4878 27.13 17.4878 20.38 28.3678C13.63 39.2478 10.13 47.4878 1 50.6178C5.13 56.3678 11.38 56.6178 11.76 56.4878C11.21 63.2878 13.88 79.4478 28.63 83.4268C28.63 83.4268 26.38 79.5578 25.6 73.1478C25.543 72.6778 25.494 72.1958 25.453 71.6998" stroke="#451B1B" stroke-width="2" stroke-miterlimit="10" stroke-linecap="round" stroke-linejoin="round"/>
<path d="M25.6 73.1468C25.6 73.1468 34.38 69.9868 40.55 57.5268V57.5168" stroke="#451B1B" stroke-width="2" stroke-miterlimit="10" stroke-linecap="round" stroke-linejoin="round"/>
<path d="M56.255 15.3668C56.255 15.3668 47.63 -0.508246 26.255 1.11675C26.255 1.11675 38.505 16.1168 56.255 15.3668Z" fill="#CCCCCC" stroke="#451B1B" stroke-width="2" stroke-miterlimit="10" stroke-linecap="round" stroke-linejoin="round"/>
<path d="M6.61691 15.3708C6.09291 16.4408 6.53493 17.7338 7.60593 18.2598L16.2919 22.5118C16.6909 22.7078 17.1889 22.6157 17.4859 22.2577C17.8349 21.8387 17.7809 21.2128 17.3599 20.8648L9.93793 14.6638C9.80993 14.5568 9.6599 14.4577 9.5029 14.3817C8.4349 13.8567 7.14091 14.2988 6.61691 15.3708Z" fill="#451B1B"/>
<path d="M14.142 8.96376C13.219 9.71676 13.079 11.0748 13.833 11.9998L19.94 19.4968C20.222 19.8408 20.712 19.9658 21.132 19.7678C21.624 19.5328 21.836 18.9428 21.602 18.4478L17.456 9.71077C17.382 9.56177 17.288 9.40576 17.178 9.27176C16.427 8.34676 15.068 8.20976 14.142 8.96376Z" fill="#451B1B"/>
<path d="M6.75898 22.8978C5.60698 22.5868 4.42197 23.2688 4.11097 24.4188C3.79797 25.5688 4.47797 26.7558 5.62797 27.0648C5.79697 27.1128 5.97498 27.1348 6.14198 27.1408L15.812 27.3688C16.359 27.3818 16.812 26.9508 16.824 26.4028C16.836 25.9398 16.523 25.5408 16.094 25.4238L6.75898 22.8978Z" fill="#451B1B"/>
<path d="M120.543 15.3708C121.067 16.4408 120.625 17.7338 119.554 18.2598L110.867 22.5118C110.468 22.7078 109.97 22.6157 109.673 22.2577C109.324 21.8387 109.378 21.2128 109.799 20.8648L117.221 14.6638C117.349 14.5568 117.499 14.4577 117.656 14.3817C118.726 13.8567 120.02 14.2988 120.543 15.3708Z" fill="#451B1B"/>
<path d="M113.019 8.96376C113.942 9.71676 114.082 11.0748 113.328 11.9998L107.22 19.4968C106.938 19.8408 106.449 19.9658 106.028 19.7678C105.536 19.5328 105.324 18.9428 105.558 18.4478L109.705 9.71077C109.779 9.56177 109.873 9.40576 109.983 9.27176C110.733 8.34676 112.093 8.20976 113.019 8.96376Z" fill="#451B1B"/>
<path d="M120.401 22.8978C121.553 22.5868 122.738 23.2688 123.049 24.4188C123.362 25.5688 122.682 26.7558 121.531 27.0648C121.362 27.1128 121.184 27.1348 121.017 27.1408L111.347 27.3688C110.8 27.3818 110.347 26.9508 110.335 26.4028C110.323 25.9398 110.636 25.5408 111.065 25.4238L120.401 22.8978Z" fill="#451B1B"/>
</svg>
