<svg width="126" height="126" viewBox="0 0 126 126" fill="none" xmlns="http://www.w3.org/2000/svg">
<path d="M90.961 125.21H36.551C36.551 125.21 40.521 114.84 52.541 107.36C52.541 115.29 66.961 118.37 76.111 107.36C79.541 109.58 86.341 114.991 90.961 125.21Z" fill="white"/>
<path d="M44.833 125.21H44.071C43.343 121.064 43.276 117.482 43.398 114.933C43.658 114.651 43.923 114.368 44.199 114.082C44.02 116.622 44.003 120.557 44.833 125.21ZM80.013 125.21H80.773C81.462 120.984 82.767 117.101 83.933 114.227C83.747 114.014 83.562 113.809 83.376 113.605C82.15 116.578 80.734 120.71 80.013 125.21Z" fill="#D4D4D4"/>
<path d="M73.961 106.121C73.961 106.121 74.781 106.501 76.111 107.361C66.961 118.371 52.541 115.291 52.541 107.361C53.311 106.881 54.121 106.411 54.961 105.961V102.711H73.961V106.121Z" fill="#FFBFB0"/>
<path d="M48.27 111.67C48.27 111.67 47.422 112.409 46.15 113.52C45.845 113.803 45.459 114.085 45.153 114.429C44.828 114.764 44.484 115.118 44.13 115.485C43.775 115.852 43.407 116.232 43.034 116.619C42.686 117.035 42.333 117.459 41.981 117.883C41.637 118.313 41.252 118.715 40.946 119.163C40.628 119.603 40.315 120.036 40.012 120.455C39.697 120.867 39.438 121.294 39.185 121.694C38.935 122.096 38.685 122.47 38.479 122.828C38.081 123.549 37.736 124.146 37.54 124.578C37.322 125.011 37.229 125.241 37.229 125.241C37.097 125.569 36.725 125.727 36.396 125.595C36.076 125.466 35.917 125.106 36.033 124.784C36.033 124.784 36.139 124.488 36.348 124.032C36.541 123.559 36.873 122.924 37.262 122.151C37.462 121.769 37.705 121.372 37.949 120.943C38.195 120.515 38.449 120.059 38.757 119.619C39.054 119.172 39.362 118.709 39.674 118.238C39.975 117.759 40.355 117.327 40.695 116.865C41.045 116.41 41.395 115.955 41.739 115.507C42.118 115.081 42.492 114.662 42.854 114.256C43.218 113.852 43.571 113.46 43.905 113.089C44.232 112.698 44.581 112.426 44.882 112.123C46.109 110.964 46.926 110.19 46.926 110.19C47.327 109.81 47.96 109.828 48.34 110.229C48.719 110.63 48.702 111.263 48.301 111.643C48.291 111.652 48.279 111.663 48.27 111.67Z" fill="#451B1B"/>
<path d="M80.043 110.337C78.523 109.016 77.16 108.039 76.111 107.36C74.781 106.5 73.961 106.12 73.961 106.12V102.71H54.961V105.96C54.121 106.41 53.311 106.88 52.541 107.36C50.711 108.499 49.068 109.704 47.598 110.929" stroke="#451B1B" stroke-width="2" stroke-miterlimit="10" stroke-linecap="round" stroke-linejoin="round"/>
<path d="M90.144 125.096C90.144 125.096 89.628 124.086 88.855 122.572C88.644 122.215 88.415 121.829 88.173 121.421C87.924 121.016 87.693 120.575 87.399 120.144C87.107 119.712 86.805 119.267 86.499 118.814C86.205 118.352 85.851 117.922 85.517 117.48C85.174 117.044 84.855 116.588 84.487 116.184C84.131 115.771 83.78 115.364 83.442 114.97C82.719 114.223 82.067 113.505 81.449 112.948C80.854 112.368 80.332 111.91 79.962 111.594C79.596 111.276 79.387 111.093 79.387 111.093L79.36 111.069C78.943 110.707 78.901 110.074 79.264 109.658C79.627 109.242 80.259 109.199 80.675 109.561C80.682 109.568 80.693 109.578 80.7 109.583C80.7 109.583 80.911 109.78 81.282 110.126C81.656 110.468 82.183 110.963 82.786 111.591C83.411 112.196 84.071 112.971 84.799 113.778C85.14 114.202 85.492 114.639 85.85 115.084C86.219 115.52 86.538 116.005 86.879 116.473C87.213 116.947 87.565 117.407 87.856 117.897C88.159 118.379 88.457 118.853 88.745 119.312C89.034 119.77 89.268 120.249 89.514 120.683C89.753 121.121 89.98 121.537 90.189 121.919C90.911 123.459 91.393 124.486 91.393 124.486C91.556 124.834 91.407 125.248 91.059 125.411C90.718 125.569 90.314 125.428 90.144 125.096Z" fill="#451B1B"/>
<path d="M52.541 107.361C52.541 115.291 66.961 118.371 76.111 107.361" stroke="#451B1B" stroke-width="2" stroke-miterlimit="10" stroke-linecap="round" stroke-linejoin="round"/>
<path d="M26.13 79.9778C22.63 74.7278 18.402 75.2328 16.505 78.1028C14.192 81.6028 16.13 95.6028 28.005 95.1658L26.13 79.9778Z" fill="#FFBFB0" stroke="#451B1B" stroke-width="2" stroke-miterlimit="10" stroke-linecap="round" stroke-linejoin="round"/>
<path d="M96.943 97.4778C80.63 110.374 52.963 110.707 38.88 105.666C24.59 100.55 23.713 92.5418 22.63 81.4588C19.798 71.2918 12.715 48.6248 32.631 30.8748C52.547 13.1248 90.426 17.9148 103.047 38.2088C113.464 54.9588 108.131 73.7918 108.131 73.7918C111.755 73.9778 114.426 77.8358 113.171 84.0408C111.693 91.3528 106.943 96.4778 96.943 97.4778Z" fill="#FFE2DB" stroke="#451B1B" stroke-width="2" stroke-miterlimit="10" stroke-linecap="round" stroke-linejoin="round"/>
<path d="M103.391 92.1168C103.178 93.2448 102.194 94.1588 101.193 94.1588C100.192 94.1588 99.553 93.2448 99.766 92.1168C99.978 90.9898 100.962 90.0758 101.963 90.0758C102.964 90.0758 103.603 90.9898 103.391 92.1168Z" fill="#451B1B"/>
<path d="M108.14 74.7908C108.14 74.7908 108.032 74.7887 107.843 74.7837C107.674 74.7787 107.413 74.7858 107.087 74.8038C106.765 74.8118 106.39 74.8688 105.985 74.9058C105.589 74.9838 105.152 75.0287 104.736 75.1417C104.323 75.2597 103.886 75.3337 103.517 75.4947C103.145 75.6467 102.768 75.7417 102.49 75.9037C101.914 76.1997 101.53 76.3968 101.53 76.3968L101.45 76.4378C101.141 76.5968 100.762 76.4757 100.603 76.1667C100.455 75.8777 100.554 75.5257 100.819 75.3527C100.819 75.3527 101.229 75.0858 101.844 74.6858C102.148 74.4708 102.547 74.3218 102.954 74.1088C103.36 73.8868 103.827 73.7538 104.283 73.5748C104.741 73.4018 105.217 73.3018 105.656 73.1708C106.104 73.0828 106.519 72.9788 106.885 72.9318C107.245 72.8748 107.557 72.8358 107.79 72.8198C108.003 72.8028 108.125 72.7938 108.125 72.7938C108.677 72.7508 109.159 73.1638 109.202 73.7158C109.244 74.2678 108.832 74.7487 108.28 74.7917C108.247 74.7947 108.214 74.7958 108.182 74.7948L108.14 74.7908Z" fill="#451B1B"/>
<path d="M101.641 87.0008C101.797 85.2288 105.408 79.4567 108.963 81.0167C111.63 82.1867 109.984 87.8327 106.542 88.7887C106.193 86.7907 104.318 85.6238 101.641 87.0008Z" fill="#FFBFB0"/>
<path d="M107.328 81.3258L106.346 81.8038C106.164 81.8748 106.074 81.9877 105.939 82.0767L105.564 82.3548C105.308 82.5088 105.079 82.7937 104.837 83.0117C104.586 83.2307 104.379 83.4958 104.172 83.7608C103.953 84.0138 103.757 84.2838 103.589 84.5748C103.404 84.8528 103.231 85.1357 103.102 85.4357L102.887 85.8747L102.741 86.3147C102.696 86.4597 102.626 86.6138 102.626 86.7348C102.61 86.8628 102.59 86.9888 102.565 87.1138L101.075 86.1698L101.079 86.1677C101.669 85.8657 102.301 85.6867 102.946 85.6237C103.589 85.5627 104.254 85.6167 104.891 85.8357C105.208 85.9517 105.517 86.1007 105.801 86.2977C106.082 86.4997 106.34 86.7387 106.547 87.0167C106.642 87.1617 106.757 87.2937 106.823 87.4517C106.892 87.6047 106.986 87.7527 107.026 87.9127C107.142 88.2277 107.192 88.5437 107.234 88.8577C107.283 89.2227 107.026 89.5598 106.66 89.6088C106.322 89.6538 106.01 89.4388 105.925 89.1178L105.904 89.0358C105.849 88.8278 105.796 88.6227 105.705 88.4447C105.674 88.3467 105.603 88.2778 105.559 88.1918C105.517 88.1038 105.437 88.0467 105.382 87.9727C105.128 87.7027 104.793 87.5248 104.411 87.4368C103.644 87.2638 102.732 87.4657 102.064 87.9097L102.062 87.9108L101.823 88.0117C101.356 88.2077 100.818 87.9887 100.621 87.5217C100.544 87.3397 100.531 87.1468 100.571 86.9668L100.724 86.2757C100.769 86.0337 100.864 85.8578 100.944 85.6608L101.193 85.0857L101.497 84.5658C101.689 84.2108 101.921 83.8888 102.163 83.5788C102.389 83.2558 102.644 82.9568 102.924 82.6788C103.191 82.3908 103.457 82.1038 103.774 81.8638C104.091 81.6188 104.347 81.3457 104.728 81.1367L105.263 80.8128C105.439 80.7158 105.625 80.5777 105.79 80.5297L106.807 80.1327C107.142 80.0017 107.521 80.1668 107.652 80.5028C107.778 80.8188 107.629 81.1778 107.328 81.3258Z" fill="#451B1B"/>
<path d="M66.529 70.8648C66.529 70.8648 66.702 70.9148 66.939 70.9558C67.188 71.0068 67.543 71.0788 67.968 71.1658C68.185 71.2008 68.421 71.2398 68.67 71.2798C68.911 71.3438 69.175 71.3678 69.449 71.3998C69.72 71.4408 70.001 71.4708 70.284 71.5248C70.572 71.5538 70.867 71.5638 71.161 71.5858C71.456 71.5938 71.749 71.6518 72.041 71.6458C72.334 71.6368 72.622 71.6268 72.903 71.6308C73.185 71.6328 73.457 71.6348 73.716 71.6368C73.975 71.6288 74.219 71.5948 74.446 71.5768C74.906 71.5528 75.289 71.5308 75.558 71.5158C75.832 71.5118 75.989 71.5088 75.989 71.5088L76.051 71.5078C76.328 71.5038 76.555 71.7248 76.559 72.0008C76.562 72.2198 76.425 72.4068 76.231 72.4798C76.231 72.4798 76.078 72.5358 75.811 72.6338C75.538 72.7218 75.147 72.8468 74.679 72.9968C74.441 73.0608 74.185 73.1438 73.908 73.2048C73.626 73.2428 73.329 73.2838 73.022 73.3258C72.406 73.4148 71.743 73.4808 71.071 73.4328C70.737 73.4168 70.401 73.4128 70.072 73.3868C69.743 73.3408 69.422 73.2728 69.111 73.2168C68.487 73.1238 67.931 72.8598 67.46 72.6878C67 72.4408 66.635 72.2478 66.377 72.0348C66.113 71.8458 66.021 71.7248 66.021 71.7248L65.979 71.6688C65.808 71.4418 65.852 71.1198 66.079 70.9478C66.212 70.8488 66.38 70.8238 66.529 70.8648Z" fill="#451B1B"/>
<path d="M44.215 72.1648C44.206 72.1648 44.169 72.2867 43.971 72.5077C43.785 72.7487 43.498 72.9837 43.132 73.2787C42.741 73.4987 42.286 73.8278 41.737 73.9718C41.465 74.0548 41.185 74.1508 40.896 74.2258C40.603 74.2618 40.304 74.2977 40.006 74.3347C39.709 74.3607 39.408 74.4177 39.117 74.3917C38.826 74.3727 38.54 74.3567 38.265 74.3277C37.991 74.3007 37.726 74.2728 37.475 74.2478C37.234 74.1818 37.006 74.1177 36.795 74.0597C36.382 73.9257 36.039 73.8158 35.798 73.7378C35.563 73.6508 35.429 73.5998 35.429 73.5998C35.187 73.5098 35.064 73.2408 35.154 72.9978C35.224 72.8098 35.401 72.6937 35.589 72.6927H35.662C35.662 72.6927 35.798 72.6918 36.036 72.6908C36.268 72.6988 36.599 72.7118 36.997 72.7258C37.191 72.7408 37.402 72.7568 37.625 72.7738C37.846 72.7608 38.078 72.7488 38.319 72.7348C38.558 72.7198 38.804 72.7177 39.053 72.7147C39.303 72.7227 39.544 72.6338 39.792 72.6128C40.038 72.5768 40.284 72.5408 40.525 72.5058C40.755 72.4308 40.986 72.3788 41.208 72.3198C41.435 72.2688 41.652 72.2218 41.843 72.1358C42.045 72.0718 42.237 72.0108 42.413 71.9548C42.745 71.8148 43.059 71.7127 43.234 71.6337C43.422 71.5677 43.565 71.4878 43.565 71.4878C43.797 71.3588 44.088 71.4428 44.217 71.6748C44.288 71.8028 44.294 71.9478 44.247 72.0748L44.215 72.1648Z" fill="#451B1B"/>
<path d="M54.485 89.3827L54.397 89.3367C54.397 89.3367 54.161 89.2117 53.925 89.0857C53.797 89.0347 53.661 88.9307 53.562 88.8367C53.462 88.7517 53.395 88.6947 53.395 88.6947L53.389 88.6887C53.251 88.5737 53.057 88.5327 52.876 88.5997C52.609 88.6987 52.473 88.9957 52.572 89.2627C52.572 89.2627 52.601 89.3437 52.647 89.4657C52.684 89.5857 52.752 89.7498 52.869 89.9338C53.074 90.2908 53.322 90.6637 53.322 90.6637C53.401 90.7817 53.512 90.8878 53.647 90.9588C54.082 91.1888 54.623 91.0238 54.853 90.5888C55.086 90.1548 54.92 89.6147 54.485 89.3827Z" fill="#D17E7E"/>
<path d="M74.421 79.4488C73.977 80.2638 73.719 81.2068 73.719 82.2148C73.719 85.2958 76.099 87.7928 79.034 87.7928C81.97 87.7928 84.348 85.2958 84.348 82.2148C84.348 81.2068 84.09 80.2648 83.645 79.4488H74.421Z" fill="#451B1B"/>
<path d="M85.338 79.4198C85.338 79.7398 85.078 79.9987 84.758 79.9987H68.626C68.306 79.9987 68.046 79.7398 68.046 79.4198V78.1228C68.046 77.8028 68.306 77.5428 68.626 77.5428H84.758C85.078 77.5428 85.338 77.8028 85.338 78.1228V79.4198Z" fill="#451B1B"/>
<path d="M34.174 79.4488C33.792 80.2638 33.57 81.2068 33.57 82.2148C33.57 85.2958 35.617 87.7928 38.142 87.7928C40.668 87.7928 42.715 85.2958 42.715 82.2148C42.715 81.2068 42.493 80.2648 42.111 79.4488H34.174Z" fill="#451B1B"/>
<path d="M43.891 79.4198C43.891 79.7398 43.649 79.9987 43.349 79.9987H29.494C29.195 79.9987 28.952 79.7398 28.952 79.4198V78.1228C28.952 77.8028 29.195 77.5428 29.494 77.5428H43.349C43.649 77.5428 43.891 77.8028 43.891 78.1228V79.4198Z" fill="#451B1B"/>
<path d="M62.229 92.7878C62.639 92.7878 63.039 92.8378 63.429 92.9178C60.589 95.0378 54.849 97.4178 51.179 97.2078C53.349 94.5778 58.269 92.7778 62.229 92.7878Z" fill="white"/>
<path d="M51.179 97.2068C54.849 97.4168 60.589 95.0367 63.429 92.9167C66.299 93.4967 68.489 96.0068 69.489 97.5368C66.42 93.7768 53.38 99.2767 52.349 102.447C51.129 100.927 50.509 98.0068 51.179 97.2068Z" fill="#8A1926"/>
<path d="M70.019 98.4568C70.559 99.6668 70.729 101.037 68.189 102.287C65.649 103.537 54.519 104.207 52.939 103.037C52.729 102.877 52.529 102.677 52.349 102.447C53.379 99.2767 66.419 93.7768 69.489 97.5368L69.5 97.5467C69.75 97.9267 69.92 98.2468 70.019 98.4568Z" fill="#DE5766"/>
<path d="M69.489 97.5378C68.489 96.0078 66.3 93.4978 63.429 92.9178C63.038 92.8378 62.639 92.7878 62.229 92.7878C58.269 92.7778 53.349 94.5778 51.179 97.2078C50.509 98.0078 51.129 100.928 52.349 102.448C52.529 102.677 52.729 102.878 52.939 103.038C54.519 104.208 65.649 103.538 68.189 102.288C70.729 101.038 70.559 99.6678 70.019 98.4578C69.919 98.2478 69.749 97.9278 69.499 97.5478" stroke="#451B1B" stroke-miterlimit="10" stroke-linecap="round" stroke-linejoin="round"/>
<path d="M52.349 102.457V102.447C53.379 99.2767 66.419 93.7768 69.489 97.5368L69.5 97.5467" stroke="#451B1B" stroke-miterlimit="10" stroke-linecap="round" stroke-linejoin="round"/>
<path d="M51.179 97.2068C54.849 97.4168 60.589 95.0367 63.429 92.9167" stroke="#451B1B" stroke-miterlimit="10" stroke-linecap="round" stroke-linejoin="round"/>
<path d="M103.6 75.0857C100.23 80.7557 96.08 84.4858 92.88 85.5758C94.51 81.4458 94.74 75.9758 94.48 71.0458L94.26 71.0568C87.63 66.3668 79 53.6758 77.76 47.7468C71.69 54.0568 63.73 68.1067 63.73 68.1067H63.72C63.18 73.8567 62.49 78.7368 61.76 79.8668C49.38 76.8368 43.2 67.6068 40.55 57.5268C34.38 69.9868 25.6 73.1468 25.6 73.1468C26.38 79.5568 28.63 83.4257 28.63 83.4257C13.88 79.4467 11.21 63.2857 11.76 56.4857C11.38 56.6157 5.13 56.3657 1 50.6157C10.13 47.4857 13.63 39.2457 20.38 28.3657C27.13 17.4857 42.26 12.4858 52.88 12.2458C83.93 6.19575 101.64 21.1157 108.5 31.4857C113.3 38.7457 118.26 43.6758 124.32 43.5558C124.189 46.7458 120.439 51.8057 117.88 52.8657C119.88 59.0557 117.88 64.9257 118 67.9857C118.13 71.0557 118.939 74.1757 121.88 76.6157C116.13 78.7457 111.97 75.8758 111.97 75.8758C108.38 72.7558 103.6 75.0857 103.6 75.0857Z" fill="#CCCCCC"/>
<path d="M39.091 48.9268C43.693 54.6168 45.89 71.5538 61.76 79.8668C49.13 76.7418 40.818 66.9288 39.091 48.9268Z" fill="#E3E3E3"/>
<path d="M28.434 53.7028C23.654 63.0388 25.541 72.6178 25.541 72.6178L26.641 72.6768C28.229 71.8848 31.442 69.9518 34.841 66.1078C25.613 71.1978 28.434 53.7028 28.434 53.7028Z" fill="#ADADAD"/>
<path d="M102.974 76.1027C103.185 75.7717 103.394 75.4327 103.6 75.0857C103.6 75.0857 108.38 72.7558 111.97 75.8758C111.97 75.8758 116.13 78.7457 121.88 76.6157C118.94 74.1757 118.13 71.0557 118 67.9857C117.897 65.3747 119.33 60.7157 118.513 55.5607C114.952 53.9437 110.13 54.7597 109.282 58.8057C108.078 64.5447 106.01 71.3908 102.976 76.0968C102.975 76.0998 102.974 76.1027 102.974 76.1027Z" fill="#ADADAD"/>
<path d="M81.713 31.4508C75.143 31.5168 75.028 37.2838 78.995 37.4508C82.963 37.6178 89.879 31.3678 81.713 31.4508Z" fill="#E3E3E3"/>
<path d="M108.501 31.4868C108.336 31.2378 108.159 30.9838 107.981 30.7288C96.324 35.5448 83.39 38.9688 83.797 40.3808C84.249 41.9498 108.507 51.5057 124.247 43.5547C118.221 43.6317 113.281 38.7168 108.501 31.4868Z" fill="#E3E3E3"/>
<path d="M16.483 34.8338C14.199 38.6538 12.123 41.9798 9.724 44.6598C23.223 48.0578 33.728 43.6478 33.568 42.7408C33.42 41.9038 23.99 38.6968 16.483 34.8338Z" fill="#E3E3E3"/>
<path d="M62.723 68.0287C62.723 68.0287 63.233 63.1377 63.743 58.2487C63.891 57.0237 63.939 55.8087 64.031 54.6627C64.112 53.5177 64.187 52.4497 64.252 51.5337C64.382 49.7007 64.468 48.4777 64.468 48.4777L64.47 48.4548C64.488 48.1948 64.713 47.9998 64.973 48.0188C65.224 48.0358 65.414 48.2478 65.411 48.4968C65.411 48.4968 65.39 49.7288 65.359 51.5788C65.343 52.5048 65.325 53.5848 65.305 54.7418C65.275 55.8968 65.291 57.1398 65.21 58.3648C64.963 63.2748 64.717 68.1858 64.717 68.1858C64.689 68.7378 64.22 69.1628 63.668 69.1348C63.116 69.1078 62.691 68.6377 62.719 68.0847C62.72 68.0677 62.722 68.0447 62.723 68.0287Z" fill="#451B1B"/>
<path d="M40.55 57.5268C43.2 67.6068 49.38 76.8368 61.76 79.8668C62.49 78.7368 63.18 73.8568 63.72 68.1068" stroke="#451B1B" stroke-width="2" stroke-miterlimit="10" stroke-linecap="round" stroke-linejoin="round"/>
<path d="M39.555 38.8278C39.555 38.8278 39.535 40.0068 39.504 41.7738C39.496 42.2148 39.488 42.6948 39.479 43.2008C39.507 43.6998 39.536 44.2258 39.566 44.7698C39.597 45.3128 39.629 45.8737 39.662 46.4437C39.707 47.0127 39.702 47.5907 39.787 48.1677C39.949 49.3177 40.11 50.4688 40.261 51.5478C40.34 52.0858 40.39 52.6097 40.527 53.0897C40.642 53.5737 40.751 54.0308 40.851 54.4538C41.25 56.1388 41.516 57.2627 41.516 57.2627L41.539 57.3628C41.666 57.8998 41.334 58.4388 40.796 58.5668C40.258 58.6938 39.719 58.3618 39.592 57.8238C39.588 57.8068 39.584 57.7877 39.581 57.7707C39.581 57.7707 39.367 56.5878 39.046 54.8128C38.966 54.3708 38.88 53.8907 38.789 53.3827C38.677 52.8787 38.652 52.3348 38.601 51.7768C38.507 50.6608 38.406 49.4687 38.305 48.2787C38.251 47.6847 38.286 47.0798 38.273 46.4918C38.272 45.9028 38.27 45.3227 38.269 44.7617C38.27 44.2017 38.27 43.6608 38.27 43.1488C38.307 42.6428 38.341 42.1658 38.373 41.7248C38.5 39.9608 38.585 38.7858 38.585 38.7858C38.604 38.5188 38.836 38.3168 39.104 38.3368C39.363 38.3548 39.56 38.5738 39.555 38.8278Z" fill="#451B1B"/>
<path d="M63.73 68.1068C63.73 68.1068 71.69 54.0568 77.76 47.7468C79 53.6768 87.63 66.3668 94.26 71.0568" stroke="#451B1B" stroke-width="2" stroke-miterlimit="10" stroke-linecap="round" stroke-linejoin="round"/>
<path d="M102.717 74.6168C102.717 74.6168 103.273 73.6428 104.106 72.1838C104.311 71.8178 104.548 71.4237 104.77 71.0037C104.959 70.5767 105.159 70.1277 105.366 69.6627C105.574 69.1957 105.788 68.7148 106.007 68.2248C106.217 67.7308 106.476 67.2468 106.624 66.7138C106.97 65.6648 107.315 64.6167 107.639 63.6337C107.721 63.3877 107.801 63.1458 107.879 62.9078C107.933 62.6648 107.985 62.4258 108.036 62.1948C108.137 61.7298 108.232 61.2918 108.32 60.8848C108.674 59.2588 108.91 58.1748 108.91 58.1748L108.92 58.1278C108.973 57.8838 109.214 57.7298 109.458 57.7818C109.693 57.8328 109.845 58.0588 109.809 58.2938C109.809 58.2938 109.637 59.4117 109.378 61.0897C109.313 61.5107 109.242 61.9667 109.168 62.4477C109.129 62.6887 109.09 62.9367 109.05 63.1897C108.985 63.4377 108.919 63.6907 108.851 63.9477C108.58 64.9787 108.29 66.0798 108 67.1788C107.88 67.7368 107.642 68.2647 107.452 68.7967C107.253 69.3277 107.056 69.8508 106.866 70.3558C106.675 70.8628 106.49 71.3527 106.314 71.8177C106.113 72.2597 105.903 72.6608 105.72 73.0408C104.977 74.5488 104.482 75.5538 104.482 75.5538C104.238 76.0498 103.638 76.2527 103.142 76.0087C102.646 75.7647 102.443 75.1648 102.687 74.6688C102.697 74.6538 102.708 74.6328 102.717 74.6168Z" fill="#451B1B"/>
<path d="M94.48 71.0458C94.741 75.9768 94.51 81.4458 92.88 85.5758C96.08 84.4858 100.23 80.7558 103.6 75.0858" stroke="#451B1B" stroke-width="2" stroke-miterlimit="10" stroke-linecap="round" stroke-linejoin="round"/>
<path d="M93.335 58.7118C93.335 58.7118 93.538 59.4518 93.781 60.5998C93.904 61.1708 94.062 61.8368 94.204 62.5538C94.334 63.2728 94.473 64.0377 94.612 64.8047C94.681 65.1877 94.751 65.5718 94.819 65.9498C94.897 66.3268 94.925 66.7038 94.978 67.0658C95.071 67.7928 95.158 68.4697 95.232 69.0517C95.38 70.2167 95.48 70.9928 95.48 70.9928C95.55 71.5418 95.162 72.0438 94.613 72.1128C94.064 72.1828 93.563 71.7947 93.493 71.2457C93.489 71.2187 93.487 71.1898 93.486 71.1618L93.484 71.0977C93.484 71.0977 93.453 70.3357 93.406 69.1927C93.383 68.6207 93.356 67.9517 93.327 67.2357C93.307 66.8787 93.311 66.5068 93.267 66.1318C93.232 65.7568 93.197 65.3758 93.162 64.9938C93.091 64.2298 93.02 63.4668 92.955 62.7508C92.877 62.0368 92.779 61.3757 92.707 60.8057C92.568 59.6677 92.429 58.9018 92.429 58.9018C92.383 58.6498 92.55 58.4077 92.803 58.3617C93.041 58.3177 93.27 58.4657 93.334 58.6937L93.335 58.7118Z" fill="#451B1B"/>
<path d="M24.455 71.7478C24.455 71.7478 24.446 71.4118 24.43 70.8238C24.422 70.5288 24.412 70.1727 24.401 69.7617C24.394 69.3497 24.424 68.8598 24.437 68.3388C24.461 67.8178 24.455 67.2448 24.529 66.6598C24.587 66.0708 24.649 65.4508 24.712 64.8088C24.816 64.1728 24.923 63.5157 25.032 62.8477C25.125 62.1777 25.296 61.5128 25.455 60.8458C25.627 60.1828 25.741 59.5048 25.964 58.8688C26.165 58.2258 26.363 57.5947 26.554 56.9817C26.728 56.3657 26.997 55.8037 27.198 55.2537C27.412 54.7087 27.615 54.1928 27.802 53.7178C28.676 51.8728 29.258 50.6428 29.258 50.6428C29.377 50.3918 29.678 50.2847 29.929 50.4037C30.173 50.5187 30.282 50.8058 30.178 51.0518L30.163 51.0878C30.163 51.0878 29.65 52.3138 28.88 54.1528C28.72 54.6248 28.547 55.1348 28.363 55.6748C28.193 56.2178 27.956 56.7727 27.816 57.3787C27.658 57.9787 27.495 58.5988 27.329 59.2288C27.141 59.8518 27.064 60.5118 26.927 61.1578C26.804 61.8048 26.668 62.4507 26.61 63.0977C26.535 63.7417 26.461 64.3737 26.39 64.9867C26.358 65.6017 26.326 66.1968 26.297 66.7608C26.251 67.3258 26.284 67.8497 26.283 68.3357C26.294 68.8237 26.282 69.2588 26.308 69.6648C26.338 70.0738 26.364 70.4307 26.386 70.7237C26.429 71.3107 26.453 71.6468 26.453 71.6468C26.493 72.1978 26.08 72.6768 25.529 72.7168C24.978 72.7578 24.499 72.3437 24.458 71.7927C24.456 71.7807 24.455 71.7628 24.455 71.7478Z" fill="#451B1B"/>
<path d="M103.6 75.0857C103.6 75.0857 108.38 72.7558 111.97 75.8758C111.97 75.8758 116.13 78.7457 121.88 76.6157C118.94 74.1757 118.13 71.0557 118 67.9857C117.88 64.9257 119.88 59.0557 117.88 52.8657C120.44 51.8057 124.19 46.7458 124.32 43.5558C118.259 43.6748 113.299 38.7457 108.5 31.4857C101.64 21.1157 83.93 6.19575 52.88 12.2458C42.26 12.4858 27.13 17.4857 20.38 28.3657C13.63 39.2457 10.13 47.4857 1 50.6157C5.13 56.3657 11.38 56.6157 11.76 56.4857C11.21 63.2857 13.88 79.4457 28.63 83.4257C28.63 83.4257 26.38 79.5568 25.6 73.1468C25.543 72.6768 25.494 72.1948 25.454 71.6988" stroke="#451B1B" stroke-width="2" stroke-miterlimit="10" stroke-linecap="round" stroke-linejoin="round"/>
<path d="M25.6 73.1468C25.6 73.1468 34.38 69.9868 40.55 57.5268V57.5168" stroke="#451B1B" stroke-width="2" stroke-miterlimit="10" stroke-linecap="round" stroke-linejoin="round"/>
<path d="M56.255 15.3668C56.255 15.3668 47.63 -0.508246 26.255 1.11675C26.255 1.11675 38.505 16.1168 56.255 15.3668Z" fill="#CCCCCC" stroke="#451B1B" stroke-width="2" stroke-miterlimit="10" stroke-linecap="round" stroke-linejoin="round"/>
</svg>
