<svg width="126" height="126" viewBox="0 0 126 126" fill="none" xmlns="http://www.w3.org/2000/svg">
<path d="M90.961 125.211H36.551C36.551 125.211 40.521 114.841 52.541 107.361C52.541 115.291 66.961 118.371 76.111 107.361C79.541 109.581 86.341 114.991 90.961 125.211Z" fill="white"/>
<path d="M44.833 125.211H44.071C43.343 121.065 43.276 117.483 43.398 114.934C43.658 114.652 43.923 114.369 44.199 114.084C44.02 116.623 44.003 120.557 44.833 125.211ZM80.013 125.211H80.773C81.462 120.985 82.767 117.102 83.933 114.228C83.747 114.015 83.562 113.81 83.376 113.606C82.15 116.578 80.734 120.711 80.013 125.211Z" fill="#D4D4D4"/>
<path d="M73.961 106.121C73.961 106.121 74.781 106.501 76.111 107.361C66.961 118.371 52.541 115.291 52.541 107.361C53.311 106.88 54.121 106.411 54.961 105.961V102.711H73.961V106.121Z" fill="#FFBFB0"/>
<path d="M48.27 111.671C48.27 111.671 47.422 112.411 46.15 113.52C45.845 113.803 45.459 114.085 45.153 114.429C44.828 114.765 44.484 115.119 44.13 115.485C43.775 115.853 43.407 116.233 43.034 116.618C42.686 117.035 42.333 117.458 41.981 117.882C41.637 118.313 41.252 118.714 40.946 119.162C40.628 119.603 40.315 120.036 40.012 120.454C39.697 120.867 39.438 121.293 39.185 121.694C38.935 122.096 38.685 122.469 38.479 122.827C38.081 123.548 37.736 124.146 37.54 124.578C37.322 125.01 37.229 125.241 37.229 125.241C37.097 125.569 36.725 125.728 36.396 125.596C36.076 125.467 35.917 125.106 36.033 124.784C36.033 124.784 36.139 124.488 36.348 124.033C36.541 123.559 36.873 122.924 37.262 122.152C37.462 121.77 37.705 121.373 37.949 120.944C38.195 120.516 38.449 120.061 38.757 119.621C39.054 119.173 39.362 118.71 39.674 118.24C39.975 117.76 40.355 117.329 40.695 116.867C41.045 116.412 41.395 115.957 41.739 115.509C42.118 115.083 42.492 114.664 42.854 114.258C43.218 113.853 43.571 113.462 43.905 113.09C44.232 112.7 44.581 112.427 44.882 112.125C46.109 110.966 46.926 110.192 46.926 110.192C47.327 109.813 47.96 109.83 48.34 110.231C48.719 110.632 48.702 111.266 48.301 111.645C48.291 111.652 48.279 111.663 48.27 111.671Z" fill="#451B1B"/>
<path d="M80.043 110.337C78.523 109.016 77.16 108.039 76.111 107.361C74.781 106.501 73.961 106.121 73.961 106.121V102.711H54.961V105.961C54.121 106.411 53.311 106.881 52.541 107.361C50.711 108.5 49.068 109.705 47.598 110.93" stroke="#451B1B" stroke-width="2" stroke-miterlimit="10" stroke-linecap="round" stroke-linejoin="round"/>
<path d="M90.144 125.096C90.144 125.096 89.628 124.086 88.855 122.571C88.644 122.215 88.415 121.828 88.173 121.42C87.924 121.015 87.693 120.574 87.399 120.143C87.107 119.711 86.805 119.265 86.499 118.812C86.205 118.351 85.851 117.921 85.517 117.478C85.174 117.041 84.855 116.586 84.487 116.182C84.131 115.769 83.78 115.362 83.442 114.968C82.719 114.221 82.067 113.504 81.449 112.945C80.854 112.365 80.332 111.907 79.962 111.592C79.596 111.273 79.387 111.091 79.387 111.091L79.36 111.067C78.943 110.704 78.901 110.072 79.264 109.655C79.627 109.239 80.259 109.195 80.675 109.559C80.682 109.565 80.693 109.575 80.7 109.581C80.7 109.581 80.911 109.779 81.282 110.124C81.656 110.465 82.183 110.961 82.786 111.589C83.411 112.193 84.071 112.968 84.799 113.775C85.14 114.198 85.492 114.636 85.85 115.081C86.219 115.517 86.538 116.002 86.879 116.47C87.213 116.943 87.565 117.404 87.856 117.894C88.159 118.376 88.457 118.85 88.745 119.309C89.034 119.767 89.268 120.246 89.514 120.68C89.753 121.118 89.98 121.534 90.189 121.916C90.911 123.456 91.393 124.483 91.393 124.483C91.556 124.831 91.407 125.244 91.059 125.407C90.718 125.569 90.314 125.428 90.144 125.096Z" fill="#451B1B"/>
<path d="M52.541 107.361C52.541 115.291 66.961 118.371 76.111 107.361" stroke="#451B1B" stroke-width="2" stroke-miterlimit="10" stroke-linecap="round" stroke-linejoin="round"/>
<path d="M26.13 79.9778C22.63 74.7278 18.402 75.2328 16.505 78.1028C14.192 81.6028 16.13 95.6028 28.005 95.1648L26.13 79.9778Z" fill="#FFBFB0" stroke="#451B1B" stroke-width="2" stroke-miterlimit="10" stroke-linecap="round" stroke-linejoin="round"/>
<path d="M96.943 97.4777C80.63 110.374 52.963 110.708 38.88 105.666C24.59 100.55 23.713 92.5417 22.63 81.4587C19.798 71.2917 12.715 48.6247 32.631 30.8747C52.547 13.1247 90.426 17.9147 103.047 38.2087C113.464 54.9587 108.131 73.7917 108.131 73.7917C111.755 73.9787 114.426 77.8357 113.171 84.0407C111.693 91.3527 106.943 96.4777 96.943 97.4777Z" fill="#FFE2DB" stroke="#451B1B" stroke-width="2" stroke-miterlimit="10" stroke-linecap="round" stroke-linejoin="round"/>
<path d="M103.391 92.1167C103.178 93.2447 102.194 94.1587 101.193 94.1587C100.192 94.1587 99.553 93.2447 99.766 92.1167C99.978 90.9897 100.962 90.0757 101.963 90.0757C102.964 90.0757 103.603 90.9897 103.391 92.1167Z" fill="#451B1B"/>
<path d="M108.14 74.7917C108.14 74.7917 108.032 74.7897 107.843 74.7857C107.674 74.7807 107.413 74.7867 107.087 74.8057C106.765 74.8127 106.39 74.8707 105.985 74.9067C105.589 74.9857 105.152 75.0307 104.736 75.1427C104.323 75.2617 103.886 75.3357 103.517 75.4967C103.145 75.6487 102.768 75.7437 102.49 75.9057C101.914 76.2017 101.53 76.3987 101.53 76.3987L101.45 76.4397C101.141 76.5987 100.762 76.4767 100.603 76.1677C100.455 75.8787 100.554 75.5267 100.819 75.3537C100.819 75.3537 101.229 75.0867 101.844 74.6867C102.148 74.4727 102.547 74.3227 102.954 74.1097C103.36 73.8877 103.827 73.7547 104.283 73.5757C104.741 73.4037 105.217 73.3027 105.656 73.1707C106.104 73.0837 106.519 72.9797 106.885 72.9317C107.245 72.8747 107.557 72.8357 107.79 72.8187C108.003 72.8017 108.125 72.7927 108.125 72.7927C108.677 72.7507 109.159 73.1627 109.202 73.7147C109.244 74.2667 108.832 74.7487 108.28 74.7907C108.247 74.7927 108.214 74.7937 108.182 74.7937L108.14 74.7917Z" fill="#451B1B"/>
<path d="M101.641 87.0017C101.797 85.2297 105.408 79.4577 108.963 81.0177C111.63 82.1877 109.984 87.8337 106.542 88.7887C106.193 86.7917 104.318 85.6247 101.641 87.0017Z" fill="#FFBFB0"/>
<path d="M107.328 81.3257L106.346 81.8037C106.164 81.8747 106.074 81.9877 105.939 82.0767L105.564 82.3547C105.308 82.5087 105.079 82.7937 104.837 83.0117C104.586 83.2307 104.379 83.4957 104.172 83.7607C103.953 84.0137 103.757 84.2837 103.589 84.5747C103.404 84.8527 103.231 85.1357 103.102 85.4357L102.887 85.8747L102.741 86.3157C102.696 86.4597 102.626 86.6137 102.626 86.7357C102.61 86.8637 102.59 86.9897 102.565 87.1137L101.075 86.1697L101.079 86.1677C101.669 85.8657 102.301 85.6867 102.946 85.6237C103.589 85.5627 104.254 85.6167 104.891 85.8357C105.208 85.9517 105.517 86.1007 105.801 86.2977C106.082 86.4997 106.34 86.7387 106.547 87.0167C106.642 87.1607 106.757 87.2937 106.823 87.4507C106.892 87.6047 106.986 87.7517 107.026 87.9117C107.142 88.2267 107.192 88.5427 107.234 88.8567C107.283 89.2227 107.026 89.5597 106.66 89.6077C106.322 89.6527 106.01 89.4377 105.925 89.1157L105.904 89.0347C105.849 88.8267 105.796 88.6217 105.705 88.4437C105.674 88.3457 105.603 88.2767 105.559 88.1907C105.517 88.1027 105.437 88.0457 105.382 87.9717C105.128 87.7027 104.793 87.5237 104.411 87.4357C103.644 87.2627 102.732 87.4647 102.064 87.9077L102.062 87.9087L101.823 88.0087C101.356 88.2057 100.818 87.9867 100.621 87.5197C100.544 87.3367 100.531 87.1447 100.571 86.9647L100.724 86.2737C100.769 86.0307 100.864 85.8557 100.944 85.6587L101.193 85.0837L101.497 84.5627C101.689 84.2077 101.921 83.8867 102.163 83.5767C102.389 83.2527 102.644 82.9537 102.924 82.6757C103.191 82.3867 103.457 82.1007 103.774 81.8607C104.091 81.6157 104.347 81.3407 104.728 81.1337L105.263 80.8097C105.439 80.7127 105.625 80.5747 105.79 80.5267L106.807 80.1297C107.142 79.9987 107.521 80.1637 107.652 80.4997C107.778 80.8187 107.629 81.1777 107.328 81.3257Z" fill="#451B1B"/>
<path d="M70.588 79.9307C68.365 82.0887 68.483 84.4617 70.421 84.0547C72.893 83.5337 76.796 82.3057 81.463 82.3507C86.13 82.3967 86.547 82.7767 86.797 82.3287C87.047 81.8797 86.855 79.0347 84.026 77.5327C81.135 75.9987 75.088 75.5617 70.588 79.9307Z" fill="#451B1B"/>
<path d="M43.3 80.2238C45.079 82.2308 44.986 84.4368 43.434 84.0578C41.455 83.5748 38.33 82.4318 34.593 82.4738C30.857 82.5158 30.524 82.8698 30.323 82.4518C30.123 82.0348 30.276 79.3888 32.542 77.9928C34.857 76.5668 39.698 76.1608 43.3 80.2238Z" fill="#451B1B"/>
<path d="M66.793 69.8018C66.783 69.8128 66.936 69.6448 67.198 69.4388C67.463 69.2318 67.859 68.9578 68.371 68.7088C68.884 68.4618 69.508 68.2218 70.205 68.0728C70.552 67.9948 70.914 67.9288 71.287 67.8968C71.658 67.8448 72.038 67.8548 72.415 67.8348C73.172 67.8328 73.923 67.9177 74.615 68.0467C74.955 68.1307 75.284 68.2128 75.595 68.2908C75.905 68.3708 76.183 68.4948 76.446 68.5838C76.969 68.7748 77.373 69.0028 77.661 69.1408C77.942 69.2948 78.103 69.3818 78.103 69.3818C78.347 69.5148 78.436 69.8198 78.304 70.0628C78.196 70.2608 77.975 70.3568 77.765 70.3148L77.72 70.3058C77.72 70.3058 77.551 70.2717 77.255 70.2127C76.964 70.1477 76.557 70.0268 76.053 69.9678C75.804 69.9288 75.542 69.8578 75.257 69.8348C74.975 69.8008 74.677 69.7658 74.37 69.7288C74.063 69.7108 73.746 69.6928 73.424 69.6738C73.103 69.6768 72.778 69.6807 72.452 69.6847C72.129 69.7117 71.803 69.7058 71.488 69.7608C71.172 69.7998 70.859 69.8268 70.561 69.8878C69.961 69.9798 69.405 70.0977 68.929 70.2137C68.446 70.3167 68.055 70.4418 67.773 70.5128C67.494 70.5968 67.354 70.6258 67.344 70.6358C67.113 70.7868 66.803 70.7228 66.651 70.4928C66.499 70.2638 66.563 69.9538 66.793 69.8018Z" fill="#451B1B"/>
<path d="M43.11 69.1297C43.1 69.1187 42.98 69.0897 42.737 69.0057C42.491 68.9317 42.153 68.8067 41.734 68.7007C41.322 68.5797 40.839 68.4617 40.319 68.3677C40.061 68.3077 39.791 68.2767 39.515 68.2407C39.242 68.1877 38.958 68.1897 38.677 68.1647C38.393 68.1617 38.11 68.1577 37.831 68.1547C37.55 68.1737 37.273 68.1927 37.006 68.2107C36.738 68.2487 36.478 68.2857 36.232 68.3197C35.983 68.3457 35.754 68.4167 35.537 68.4567C35.096 68.5197 34.742 68.6427 34.487 68.7087C34.228 68.7697 34.08 68.8047 34.08 68.8047L34.034 68.8157C33.781 68.8757 33.528 68.7187 33.469 68.4667C33.421 68.2647 33.513 68.0617 33.68 67.9587C33.68 67.9587 33.819 67.8737 34.062 67.7237C34.313 67.5877 34.661 67.3647 35.122 67.1757C35.575 66.9677 36.133 66.7947 36.745 66.6407C37.363 66.5127 38.038 66.4267 38.719 66.4317C39.399 66.4497 40.084 66.5047 40.702 66.6787C41.017 66.7407 41.302 66.8717 41.579 66.9607C41.847 67.0797 42.1 67.1907 42.323 67.3177C42.77 67.5647 43.108 67.8327 43.332 68.0327C43.555 68.2317 43.681 68.3937 43.672 68.3827C43.879 68.5377 43.921 68.8307 43.766 69.0377C43.61 69.2427 43.316 69.2847 43.11 69.1297Z" fill="#451B1B"/>
<path d="M52.693 89.6518L52.605 89.6058C52.605 89.6058 52.369 89.4807 52.133 89.3547C52.005 89.3037 51.869 89.1998 51.77 89.1058C51.67 89.0208 51.603 88.9638 51.603 88.9638L51.597 88.9578C51.459 88.8428 51.265 88.8018 51.084 88.8688C50.817 88.9678 50.681 89.2648 50.78 89.5318C50.78 89.5318 50.809 89.6128 50.855 89.7348C50.892 89.8548 50.959 90.0188 51.077 90.2028C51.282 90.5598 51.53 90.9328 51.53 90.9328C51.609 91.0508 51.72 91.1568 51.855 91.2278C52.29 91.4578 52.831 91.2938 53.061 90.8578C53.294 90.4238 53.128 89.8828 52.693 89.6518Z" fill="#D17E7E"/>
<path d="M59.645 96.8208C55.215 98.2308 50.195 97.9908 48.135 96.4298H48.125C48.085 96.1298 48.055 95.8398 48.035 95.5498V95.5398C51.885 95.6998 60.085 95.4198 66.974 90.9498V90.9598C65.796 93.8898 62.876 95.7998 59.645 96.8208Z" fill="white"/>
<path d="M59.775 97.2108C63.246 96.0008 67.005 96.1108 68.166 98.5708C66.985 102.01 64.496 104.841 60.256 105.411C57.316 105.801 54.886 105.171 52.996 103.981V103.97C52.836 101.1 56.155 98.4508 59.775 97.2108Z" fill="#DE5766"/>
<path d="M68.655 89.7598C68.105 90.1908 67.546 90.5898 66.975 90.9498V90.9598C65.795 93.8898 62.875 95.7998 59.645 96.8198C55.215 98.2298 50.195 97.9898 48.135 96.4288C48.545 99.1898 50.185 102.2 52.995 103.969C52.835 101.099 56.154 98.4488 59.774 97.2088C63.245 95.9988 67.004 96.1088 68.165 98.5688C69.155 95.7308 69.235 92.4808 68.655 89.7598Z" fill="#8A1926"/>
<path d="M68.655 89.7508C68.846 89.6108 69.036 89.4608 69.225 89.3008" stroke="#451B1B" stroke-miterlimit="10" stroke-linecap="round" stroke-linejoin="round"/>
<path d="M45.845 95.3708C45.845 95.3708 46.665 95.4808 48.035 95.5408C51.885 95.7008 60.085 95.4208 66.974 90.9508C67.544 90.5908 68.104 90.1908 68.654 89.7608" stroke="#451B1B" stroke-miterlimit="10" stroke-linecap="round" stroke-linejoin="round"/>
<path d="M52.996 103.981C54.886 105.17 57.315 105.8 60.256 105.411C64.496 104.841 66.986 102.011 68.166 98.5708C69.155 95.7308 69.235 92.4808 68.655 89.7598V89.7498" stroke="#451B1B" stroke-miterlimit="10" stroke-linecap="round" stroke-linejoin="round"/>
<path d="M48.135 96.4298C48.545 99.1908 50.185 102.201 52.995 103.97" stroke="#451B1B" stroke-miterlimit="10" stroke-linecap="round" stroke-linejoin="round"/>
<path d="M48.036 95.5498C48.056 95.8398 48.086 96.1298 48.126 96.4298" stroke="#451B1B" stroke-miterlimit="10" stroke-linecap="round" stroke-linejoin="round"/>
<path d="M48.126 96.4298H48.136C50.196 97.9908 55.216 98.2308 59.646 96.8208C62.876 95.7998 65.796 93.8898 66.976 90.9608" stroke="#451B1B" stroke-miterlimit="10" stroke-linecap="round" stroke-linejoin="round"/>
<path d="M52.996 103.981V103.97C52.836 101.1 56.155 98.4498 59.775 97.2098C63.246 95.9998 67.005 96.1098 68.166 98.5698L68.176 98.5798" stroke="#451B1B" stroke-miterlimit="10" stroke-linecap="round" stroke-linejoin="round"/>
<path d="M103.6 75.0867C100.23 80.7567 96.08 84.4867 92.88 85.5767C94.51 81.4467 94.74 75.9767 94.48 71.0467L94.26 71.0577C87.63 66.3667 79 53.6767 77.76 47.7467C71.69 54.0577 63.73 68.1067 63.73 68.1067H63.72C63.18 73.8567 62.49 78.7367 61.76 79.8667C49.38 76.8367 43.2 67.6067 40.55 57.5267C34.38 69.9867 25.6 73.1467 25.6 73.1467C26.38 79.5567 28.63 83.4257 28.63 83.4257C13.88 79.4467 11.21 63.2857 11.76 56.4867C11.38 56.6167 5.13 56.3667 1 50.6167C10.13 47.4867 13.63 39.2467 20.38 28.3667C27.13 17.4867 42.26 12.4867 52.88 12.2467C83.93 6.19673 101.64 21.1167 108.5 31.4867C113.3 38.7467 118.26 43.6757 124.32 43.5567C124.189 46.7457 120.439 51.8067 117.88 52.8657C119.88 59.0567 117.88 64.9257 118 67.9857C118.13 71.0557 118.939 74.1747 121.88 76.6157C116.13 78.7457 111.97 75.8757 111.97 75.8757C108.38 72.7557 103.6 75.0867 103.6 75.0867Z" fill="#CCCCCC"/>
<path d="M39.091 48.9268C43.693 54.6158 45.89 71.5538 61.76 79.8658C49.13 76.7418 40.818 66.9288 39.091 48.9268Z" fill="#E3E3E3"/>
<path d="M28.434 53.7028C23.654 63.0388 25.541 72.6178 25.541 72.6178L26.641 72.6768C28.229 71.8848 31.442 69.9518 34.841 66.1078C25.613 71.1978 28.434 53.7028 28.434 53.7028Z" fill="#ADADAD"/>
<path d="M102.974 76.1028C103.185 75.7718 103.394 75.4328 103.6 75.0858C103.6 75.0858 108.38 72.7558 111.97 75.8758C111.97 75.8758 116.13 78.7458 121.88 76.6158C118.94 74.1758 118.13 71.0568 118 67.9858C117.897 65.3748 119.33 60.7158 118.513 55.5608C114.952 53.9438 110.13 54.7598 109.282 58.8058C108.078 64.5448 106.01 71.3908 102.976 76.0968C102.975 76.0998 102.974 76.1028 102.974 76.1028Z" fill="#ADADAD"/>
<path d="M81.713 31.4508C75.143 31.5168 75.028 37.2838 78.995 37.4508C82.963 37.6178 89.879 31.3678 81.713 31.4508Z" fill="#E3E3E3"/>
<path d="M108.501 31.4868C108.336 31.2378 108.159 30.9838 107.981 30.7288C96.324 35.5448 83.39 38.9688 83.797 40.3808C84.249 41.9498 108.507 51.5058 124.247 43.5548C118.221 43.6318 113.281 38.7168 108.501 31.4868Z" fill="#E3E3E3"/>
<path d="M16.483 34.8348C14.199 38.6548 12.123 41.9808 9.724 44.6608C23.223 48.0578 33.728 43.6488 33.568 42.7418C33.42 41.9038 23.99 38.6968 16.483 34.8348Z" fill="#E3E3E3"/>
<path d="M62.723 68.0288C62.723 68.0288 63.233 63.1378 63.743 58.2478C63.891 57.0238 63.939 55.8078 64.031 54.6628C64.112 53.5178 64.187 52.4498 64.252 51.5338C64.382 49.6998 64.468 48.4778 64.468 48.4778L64.47 48.4538C64.488 48.1948 64.713 47.9988 64.973 48.0178C65.224 48.0358 65.414 48.2468 65.411 48.4948C65.411 48.4948 65.39 49.7278 65.359 51.5768C65.343 52.5028 65.325 53.5828 65.305 54.7398C65.275 55.8958 65.291 57.1388 65.21 58.3628C64.963 63.2738 64.717 68.1848 64.717 68.1848C64.689 68.7368 64.22 69.1618 63.668 69.1338C63.116 69.1058 62.691 68.6368 62.719 68.0848C62.72 68.0678 62.722 68.0458 62.723 68.0288Z" fill="#451B1B"/>
<path d="M40.55 57.5268C43.2 67.6068 49.38 76.8368 61.76 79.8668C62.49 78.7368 63.18 73.8568 63.72 68.1068" stroke="#451B1B" stroke-width="2" stroke-miterlimit="10" stroke-linecap="round" stroke-linejoin="round"/>
<path d="M39.555 38.8288C39.555 38.8288 39.535 40.0068 39.504 41.7748C39.496 42.2168 39.488 42.6948 39.479 43.2018C39.507 43.7008 39.536 44.2268 39.566 44.7708C39.597 45.3138 39.629 45.8748 39.662 46.4448C39.707 47.0138 39.702 47.5918 39.787 48.1678C39.949 49.3188 40.11 50.4698 40.261 51.5478C40.34 52.0858 40.39 52.6098 40.527 53.0908C40.642 53.5748 40.751 54.0318 40.851 54.4538C41.25 56.1388 41.516 57.2628 41.516 57.2628L41.539 57.3628C41.666 57.9008 41.334 58.4398 40.796 58.5668C40.258 58.6948 39.719 58.3618 39.592 57.8238C39.588 57.8068 39.584 57.7868 39.581 57.7708C39.581 57.7708 39.367 56.5868 39.046 54.8128C38.966 54.3698 38.88 53.8908 38.789 53.3828C38.677 52.8788 38.652 52.3348 38.601 51.7768C38.507 50.6598 38.406 49.4698 38.305 48.2788C38.251 47.6848 38.286 47.0798 38.273 46.4918C38.272 45.9028 38.27 45.3228 38.269 44.7618C38.27 44.2018 38.27 43.6608 38.27 43.1478C38.307 42.6428 38.341 42.1658 38.373 41.7248C38.5 39.9618 38.585 38.7858 38.585 38.7858C38.604 38.5188 38.836 38.3178 39.104 38.3368C39.363 38.3548 39.56 38.5728 39.555 38.8288Z" fill="#451B1B"/>
<path d="M63.73 68.1068C63.73 68.1068 71.69 54.0568 77.76 47.7468C79 53.6768 87.63 66.3668 94.26 71.0578" stroke="#451B1B" stroke-width="2" stroke-miterlimit="10" stroke-linecap="round" stroke-linejoin="round"/>
<path d="M102.717 74.6168C102.717 74.6168 103.273 73.6437 104.106 72.1837C104.311 71.8187 104.548 71.4247 104.77 71.0037C104.959 70.5777 105.159 70.1287 105.366 69.6627C105.574 69.1967 105.788 68.7147 106.007 68.2247C106.217 67.7307 106.476 67.2477 106.624 66.7137C106.97 65.6657 107.315 64.6167 107.639 63.6347C107.721 63.3877 107.801 63.1458 107.879 62.9088C107.933 62.6648 107.985 62.4277 108.036 62.1957C108.137 61.7317 108.232 61.2917 108.32 60.8867C108.674 59.2607 108.91 58.1767 108.91 58.1767L108.92 58.1297C108.973 57.8847 109.214 57.7308 109.458 57.7838C109.693 57.8348 109.845 58.0607 109.809 58.2947C109.809 58.2947 109.637 59.4137 109.378 61.0917C109.313 61.5117 109.242 61.9677 109.168 62.4497C109.129 62.6907 109.09 62.9387 109.05 63.1917C108.985 63.4397 108.919 63.6927 108.851 63.9497C108.58 64.9807 108.29 66.0807 108 67.1817C107.88 67.7397 107.642 68.2677 107.452 68.7997C107.253 69.3307 107.056 69.8527 106.866 70.3587C106.675 70.8647 106.49 71.3557 106.314 71.8197C106.113 72.2627 105.903 72.6627 105.72 73.0427C104.977 74.5507 104.482 75.5557 104.482 75.5557C104.238 76.0517 103.638 76.2547 103.142 76.0107C102.646 75.7667 102.443 75.1667 102.687 74.6707C102.697 74.6537 102.708 74.6328 102.717 74.6168Z" fill="#451B1B"/>
<path d="M94.48 71.0468C94.741 75.9778 94.51 81.4468 92.88 85.5768C96.08 84.4868 100.23 80.7568 103.6 75.0868" stroke="#451B1B" stroke-width="2" stroke-miterlimit="10" stroke-linecap="round" stroke-linejoin="round"/>
<path d="M93.335 58.7128C93.335 58.7128 93.538 59.4528 93.781 60.6008C93.904 61.1718 94.062 61.8378 94.204 62.5548C94.334 63.2728 94.473 64.0388 94.612 64.8058C94.681 65.1898 94.751 65.5738 94.819 65.9508C94.897 66.3278 94.925 66.7048 94.978 67.0668C95.071 67.7938 95.158 68.4718 95.232 69.0528C95.38 70.2178 95.48 70.9948 95.48 70.9948C95.55 71.5438 95.162 72.0448 94.613 72.1158C94.064 72.1858 93.563 71.7978 93.493 71.2488C93.489 71.2208 93.487 71.1928 93.486 71.1648L93.484 71.1008C93.484 71.1008 93.453 70.3388 93.406 69.1958C93.383 68.6228 93.356 67.9548 93.327 67.2388C93.307 66.8808 93.311 66.5088 93.267 66.1348C93.232 65.7598 93.197 65.3778 93.162 64.9968C93.091 64.2328 93.02 63.4698 92.955 62.7528C92.877 62.0388 92.779 61.3788 92.707 60.8078C92.568 59.6698 92.429 58.9038 92.429 58.9038C92.383 58.6518 92.55 58.4098 92.803 58.3638C93.041 58.3208 93.27 58.4668 93.334 58.6958L93.335 58.7128Z" fill="#451B1B"/>
<path d="M24.455 71.7488C24.455 71.7488 24.446 71.4118 24.43 70.8238C24.422 70.5298 24.412 70.1728 24.401 69.7628C24.394 69.3508 24.424 68.8608 24.437 68.3408C24.461 67.8188 24.455 67.2468 24.529 66.6618C24.587 66.0738 24.649 65.4528 24.712 64.8108C24.816 64.1748 24.923 63.5188 25.032 62.8508C25.125 62.1808 25.296 61.5158 25.455 60.8488C25.627 60.1858 25.741 59.5078 25.964 58.8698C26.165 58.2278 26.363 57.5958 26.554 56.9838C26.728 56.3668 26.997 55.8058 27.198 55.2558C27.412 54.7108 27.615 54.1948 27.802 53.7188C28.676 51.8738 29.258 50.6438 29.258 50.6438C29.377 50.3928 29.678 50.2848 29.929 50.4038C30.173 50.5198 30.282 50.8058 30.178 51.0528L30.163 51.0878C30.163 51.0878 29.65 52.3148 28.88 54.1538C28.72 54.6248 28.547 55.1348 28.363 55.6748C28.193 56.2188 27.956 56.7738 27.816 57.3798C27.658 57.9798 27.495 58.5998 27.329 59.2288C27.141 59.8528 27.064 60.5128 26.927 61.1578C26.804 61.8058 26.668 62.4508 26.61 63.0988C26.535 63.7418 26.461 64.3748 26.39 64.9878C26.358 65.6028 26.326 66.1978 26.297 66.7618C26.251 67.3278 26.284 67.8498 26.283 68.3368C26.294 68.8248 26.282 69.2598 26.308 69.6668C26.338 70.0758 26.364 70.4318 26.386 70.7258C26.429 71.3128 26.453 71.6478 26.453 71.6478C26.493 72.1988 26.08 72.6778 25.529 72.7188C24.978 72.7598 24.499 72.3458 24.458 71.7948C24.456 71.7808 24.455 71.7628 24.455 71.7488Z" fill="#451B1B"/>
<path d="M103.6 75.0868C103.6 75.0868 108.38 72.7568 111.97 75.8768C111.97 75.8768 116.13 78.7468 121.88 76.6168C118.94 74.1768 118.13 71.0578 118 67.9868C117.88 64.9258 119.88 59.0568 117.88 52.8668C120.44 51.8078 124.19 46.7468 124.32 43.5578C118.259 43.6768 113.299 38.7468 108.5 31.4878C101.64 21.1178 83.93 6.19777 52.88 12.2478C42.26 12.4878 27.13 17.4878 20.38 28.3678C13.63 39.2478 10.13 47.4878 1 50.6178C5.13 56.3678 11.38 56.6178 11.76 56.4878C11.21 63.2878 13.88 79.4478 28.63 83.4268C28.63 83.4268 26.38 79.5578 25.6 73.1478C25.543 72.6778 25.494 72.1958 25.454 71.6998" stroke="#451B1B" stroke-width="2" stroke-miterlimit="10" stroke-linecap="round" stroke-linejoin="round"/>
<path d="M25.6 73.1468C25.6 73.1468 34.38 69.9868 40.55 57.5268V57.5168" stroke="#451B1B" stroke-width="2" stroke-miterlimit="10" stroke-linecap="round" stroke-linejoin="round"/>
<path d="M56.255 15.3668C56.255 15.3668 47.63 -0.508246 26.255 1.11675C26.255 1.11675 38.505 16.1168 56.255 15.3668Z" fill="#CCCCCC" stroke="#451B1B" stroke-width="2" stroke-miterlimit="10" stroke-linecap="round" stroke-linejoin="round"/>
</svg>
