<svg width="126" height="129" viewBox="0 0 126 129" fill="none" xmlns="http://www.w3.org/2000/svg">
<path d="M90.96 125.21H36.55C36.55 125.21 40.52 114.84 52.54 107.36C52.54 115.29 66.96 118.37 76.11 107.36C79.54 109.581 86.34 114.991 90.96 125.21Z" fill="white"/>
<path d="M44.832 125.21H44.07C43.343 121.064 43.275 117.482 43.397 114.933C43.657 114.651 43.922 114.368 44.198 114.082C44.02 116.623 44.002 120.557 44.832 125.21ZM80.013 125.21H80.773C81.461 120.984 82.767 117.101 83.933 114.227C83.748 114.014 83.562 113.809 83.376 113.605C82.149 116.578 80.733 120.71 80.013 125.21Z" fill="#D4D4D4"/>
<path d="M73.96 106.121C73.96 106.121 74.78 106.501 76.11 107.361C66.96 118.371 52.54 115.291 52.54 107.361C53.31 106.881 54.12 106.411 54.96 105.961V102.711H73.96V106.121Z" fill="#FFBFB0"/>
<path d="M48.27 111.67C48.27 111.67 47.421 112.409 46.15 113.52C45.845 113.803 45.459 114.084 45.153 114.429C44.827 114.764 44.484 115.119 44.129 115.485C43.774 115.852 43.406 116.232 43.033 116.619C42.685 117.035 42.333 117.459 41.979 117.883C41.635 118.313 41.25 118.715 40.945 119.163C40.627 119.603 40.314 120.036 40.01 120.455C39.695 120.867 39.436 121.294 39.184 121.694C38.935 122.096 38.684 122.47 38.478 122.828C38.08 123.549 37.736 124.146 37.54 124.578C37.321 125.011 37.228 125.241 37.228 125.241C37.096 125.569 36.723 125.727 36.396 125.595C36.076 125.466 35.917 125.106 36.033 124.784C36.033 124.784 36.14 124.488 36.348 124.032C36.542 123.559 36.873 122.924 37.262 122.151C37.462 121.769 37.705 121.372 37.949 120.943C38.195 120.515 38.449 120.059 38.757 119.619C39.055 119.172 39.361 118.709 39.674 118.238C39.976 117.758 40.355 117.327 40.695 116.865C41.045 116.41 41.395 115.955 41.739 115.507C42.119 115.081 42.493 114.662 42.854 114.256C43.218 113.852 43.571 113.46 43.905 113.089C44.232 112.698 44.582 112.426 44.883 112.123C46.11 110.964 46.927 110.19 46.927 110.19C47.328 109.81 47.962 109.828 48.341 110.229C48.721 110.63 48.703 111.263 48.302 111.643C48.29 111.652 48.278 111.663 48.27 111.67Z" fill="#451B1B"/>
<path d="M80.042 110.337C78.522 109.016 77.159 108.039 76.11 107.36C74.78 106.5 73.96 106.12 73.96 106.12V102.71H54.96V105.96C54.12 106.41 53.31 106.88 52.54 107.36C50.71 108.499 49.067 109.704 47.597 110.929" stroke="#451B1B" stroke-width="2" stroke-miterlimit="10" stroke-linecap="round" stroke-linejoin="round"/>
<path d="M90.1439 125.096C90.1439 125.096 89.6279 124.086 88.8549 122.572C88.6439 122.215 88.4149 121.829 88.1719 121.421C87.9239 121.016 87.6929 120.575 87.3989 120.144C87.1069 119.712 86.8049 119.267 86.4989 118.814C86.2049 118.352 85.851 117.922 85.517 117.48C85.174 117.044 84.8549 116.588 84.4869 116.184C84.1319 115.771 83.7809 115.364 83.4419 114.97C82.7189 114.223 82.0679 113.505 81.4489 112.948C80.8539 112.368 80.3329 111.91 79.9629 111.595C79.5969 111.277 79.3879 111.094 79.3879 111.094L79.3609 111.07C78.9449 110.707 78.9019 110.075 79.2639 109.659C79.6269 109.243 80.2589 109.2 80.6759 109.562C80.6829 109.569 80.6939 109.578 80.6999 109.584C80.6999 109.584 80.9119 109.781 81.2819 110.127C81.6559 110.469 82.1829 110.964 82.7869 111.592C83.4119 112.196 84.0719 112.972 84.7999 113.778C85.1409 114.202 85.4929 114.639 85.8509 115.084C86.2199 115.52 86.5389 116.005 86.8799 116.473C87.2139 116.947 87.5659 117.407 87.8569 117.897C88.1599 118.379 88.4589 118.853 88.7469 119.312C89.0359 119.77 89.27 120.248 89.517 120.683C89.756 121.121 89.9819 121.536 90.1909 121.919C90.9139 123.46 91.3949 124.486 91.3949 124.486C91.5579 124.834 91.409 125.248 91.061 125.411C90.718 125.569 90.3139 125.428 90.1439 125.096Z" fill="#451B1B"/>
<path d="M52.54 107.361C52.54 115.291 66.96 118.371 76.11 107.361" stroke="#451B1B" stroke-width="2" stroke-miterlimit="10" stroke-linecap="round" stroke-linejoin="round"/>
<path d="M26.13 79.9778C22.63 74.7278 18.401 75.2328 16.505 78.1028C14.192 81.6028 16.13 95.6028 28.005 95.1658L26.13 79.9778Z" fill="#FFBFB0" stroke="#451B1B" stroke-width="2" stroke-miterlimit="10" stroke-linecap="round" stroke-linejoin="round"/>
<path d="M96.943 97.4778C80.63 110.374 52.964 110.708 38.88 105.666C24.59 100.55 23.713 92.5418 22.63 81.4588C19.798 71.2918 12.715 48.6248 32.631 30.8748C52.547 13.1248 90.426 17.9148 103.047 38.2088C113.464 54.9588 108.131 73.7918 108.131 73.7918C111.755 73.9778 114.426 77.8358 113.171 84.0408C111.693 91.3528 106.943 96.4778 96.943 97.4778Z" fill="#FFE2DB" stroke="#451B1B" stroke-width="2" stroke-miterlimit="10" stroke-linecap="round" stroke-linejoin="round"/>
<path d="M103.391 92.1168C103.178 93.2448 102.194 94.1588 101.193 94.1588C100.192 94.1588 99.553 93.2448 99.766 92.1168C99.978 90.9898 100.962 90.0758 101.963 90.0758C102.964 90.0758 103.603 90.9898 103.391 92.1168Z" fill="#451B1B"/>
<path d="M108.139 74.7908C108.139 74.7908 108.032 74.7887 107.842 74.7837C107.673 74.7787 107.411 74.7858 107.086 74.8038C106.764 74.8118 106.389 74.8688 105.983 74.9058C105.588 74.9838 105.15 75.0287 104.734 75.1417C104.32 75.2597 103.884 75.3338 103.514 75.4938C103.142 75.6458 102.765 75.7408 102.487 75.9028C101.912 76.1988 101.528 76.3957 101.528 76.3957L101.448 76.4368C101.139 76.5958 100.76 76.4748 100.601 76.1648C100.453 75.8768 100.551 75.5238 100.817 75.3508C100.817 75.3508 101.227 75.0838 101.842 74.6838C102.146 74.4688 102.544 74.3198 102.951 74.1068C103.358 73.8848 103.824 73.7517 104.28 73.5727C104.738 73.4007 105.214 73.2998 105.653 73.1688C106.101 73.0808 106.516 72.9768 106.882 72.9298C107.241 72.8728 107.553 72.8338 107.786 72.8178C107.999 72.8008 108.121 72.7918 108.121 72.7918C108.673 72.7488 109.154 73.1618 109.197 73.7138C109.24 74.2658 108.827 74.7468 108.275 74.7898C108.242 74.7928 108.21 74.7937 108.177 74.7927L108.139 74.7908Z" fill="#451B1B"/>
<path d="M101.641 87.0018C101.797 85.2288 105.408 79.4578 108.963 81.0178C111.63 82.1878 109.983 87.8338 106.542 88.7888C106.193 86.7908 104.318 85.6248 101.641 87.0018Z" fill="#FFBFB0"/>
<path d="M107.327 81.3258L106.345 81.8038C106.163 81.8748 106.074 81.9877 105.939 82.0767L105.564 82.3548C105.308 82.5088 105.079 82.7948 104.836 83.0118C104.585 83.2308 104.378 83.4958 104.171 83.7608C103.951 84.0138 103.756 84.2838 103.588 84.5738C103.403 84.8518 103.231 85.1357 103.102 85.4347L102.887 85.8738L102.741 86.3138C102.695 86.4588 102.625 86.6128 102.626 86.7338C102.61 86.8618 102.59 86.9878 102.566 87.1128L101.076 86.1688L101.08 86.1668C101.671 85.8648 102.303 85.6848 102.947 85.6228C103.591 85.5628 104.254 85.6158 104.891 85.8348C105.208 85.9508 105.517 86.0997 105.801 86.2967C106.082 86.4987 106.34 86.7378 106.547 87.0158C106.642 87.1608 106.756 87.2928 106.822 87.4508C106.891 87.6038 106.985 87.7518 107.025 87.9118C107.14 88.2268 107.191 88.5428 107.233 88.8568C107.282 89.2218 107.025 89.5587 106.659 89.6077C106.322 89.6527 106.009 89.4377 105.925 89.1167L105.904 89.0347C105.848 88.8267 105.796 88.6217 105.705 88.4437C105.675 88.3457 105.603 88.2768 105.559 88.1908C105.517 88.1028 105.438 88.0458 105.382 87.9718C105.128 87.7018 104.793 87.5238 104.411 87.4358C103.644 87.2628 102.732 87.4647 102.064 87.9087L102.062 87.9097L101.823 88.0108C101.356 88.2068 100.818 87.9877 100.622 87.5207C100.546 87.3387 100.532 87.1457 100.572 86.9657L100.725 86.2748C100.771 86.0328 100.866 85.8567 100.945 85.6597L101.194 85.0848L101.499 84.5647C101.69 84.2097 101.923 83.8877 102.166 83.5777C102.392 83.2547 102.647 82.9558 102.927 82.6778C103.194 82.3888 103.46 82.1028 103.778 81.8628C104.095 81.6178 104.35 81.3448 104.731 81.1358L105.266 80.8118C105.443 80.7148 105.628 80.5768 105.793 80.5288L106.81 80.1308C107.146 79.9998 107.524 80.1648 107.655 80.5008C107.777 80.8188 107.629 81.1778 107.327 81.3258Z" fill="#451B1B"/>
<path d="M76.994 111.879L66.171 119.198C66.171 119.198 63.755 122.423 63.755 126.841H82.255C82.005 117.11 76.994 111.879 76.994 111.879Z" fill="white"/>
<path d="M63.755 126.842C63.755 122.424 66.171 119.199 66.171 119.199L76.994 111.88C76.994 111.88 82.005 117.11 82.255 126.843" stroke="#451B1B" stroke-width="2" stroke-miterlimit="10" stroke-linecap="round" stroke-linejoin="round"/>
<path d="M33.152 111.958L42.65 119.239C42.65 119.239 44.771 122.448 44.771 126.843H28.536C28.756 117.161 33.152 111.958 33.152 111.958Z" fill="white"/>
<path d="M44.772 126.842C44.772 122.447 42.651 119.238 42.651 119.238L33.153 111.957C33.153 111.957 28.757 117.16 28.537 126.842" stroke="#451B1B" stroke-width="2" stroke-miterlimit="10" stroke-linecap="round" stroke-linejoin="round"/>
<path d="M52.477 127.08C59.639 126.346 73.935 118.347 74.633 105.534C75.366 92.0767 61.084 88.3837 54.317 96.1857C48.527 87.5647 33.917 89.3768 33.049 102.826C32.222 115.629 45.457 125.422 52.477 127.08Z" fill="#FF6B8E" stroke="#451B1B" stroke-width="2" stroke-miterlimit="10" stroke-linecap="round" stroke-linejoin="round"/>
<path opacity="0.3" d="M44.38 93.0918C39.805 93.6298 36.786 96.9688 37.048 99.4558C37.372 102.54 49.28 100.129 49.337 96.7058C49.37 94.7168 46.862 92.7998 44.38 93.0918Z" fill="white"/>
<path d="M70.897 108.78C69.326 106.475 69.886 104.705 71.166 104.421C72.757 104.058 76.289 107.417 76.885 111.009C77.48 114.59 76.352 117.481 73.227 120.015C70.103 122.559 67.562 122.393 66.313 120.954C65.063 119.516 63.502 116.365 64.682 115.152C65.163 114.668 65.829 114.862 66.661 115.523C64.626 112.733 66.688 110.058 68.76 111.876C68.601 111.62 68.446 111.323 68.295 111.005C67.284 108.872 68.85 107.04 70.897 108.78Z" fill="#FFE2DB"/>
<path d="M71.623 108.093C71.623 108.093 71.9881 108.624 72.3531 109.154C72.7071 109.689 73.062 110.224 73.062 110.224L73.097 110.277C73.295 110.575 73.213 110.978 72.915 111.175C72.667 111.339 72.3491 111.311 72.1341 111.126C72.1341 111.126 71.6451 110.706 71.1551 110.286C70.6621 109.876 70.169 109.465 70.169 109.465L70.1421 109.443C69.7121 109.086 69.654 108.448 70.011 108.018C70.368 107.588 71.0061 107.53 71.4361 107.887C71.5091 107.948 71.572 108.02 71.623 108.093Z" fill="#451B1B"/>
<path d="M66.66 115.523C65.829 114.862 65.163 114.668 64.681 115.152C63.5 116.365 65.062 119.515 66.312 120.954C67.561 122.393 70.102 122.558 73.226 120.015C76.351 117.481 77.479 114.59 76.884 111.009C76.288 107.417 72.756 104.058 71.165 104.421C69.885 104.705 69.324 106.476 70.896 108.78" stroke="#451B1B" stroke-width="2" stroke-miterlimit="10" stroke-linecap="round" stroke-linejoin="round"/>
<path d="M67.712 117.479L65.939 116.223L65.904 116.198C65.44 115.87 65.331 115.228 65.659 114.765C65.987 114.302 66.629 114.193 67.092 114.52C67.215 114.607 67.316 114.72 67.387 114.842L68.491 116.738L68.503 116.758C68.654 117.019 68.566 117.354 68.305 117.505C68.112 117.617 67.882 117.599 67.712 117.479Z" fill="#451B1B"/>
<path d="M69.549 111.263L70.737 113.326C70.914 113.633 70.808 114.024 70.502 114.2C70.255 114.343 69.952 114.302 69.752 114.119L69.735 114.103L67.969 112.488C67.555 112.11 67.5271 111.468 67.9051 111.055C68.2831 110.641 68.924 110.613 69.339 110.991C69.416 111.062 69.481 111.143 69.531 111.229L69.549 111.263Z" fill="#451B1B"/>
<path d="M70.897 108.78C68.85 107.04 67.285 108.872 68.294 111.005C68.444 111.323 68.6 111.62 68.759 111.876" stroke="#451B1B" stroke-width="2" stroke-miterlimit="10" stroke-linecap="round" stroke-linejoin="round"/>
<path d="M66.662 115.533L66.66 115.523C64.625 112.733 66.687 110.058 68.759 111.876" stroke="#451B1B" stroke-width="2" stroke-miterlimit="10" stroke-linecap="round" stroke-linejoin="round"/>
<path d="M37.954 109.577C39.394 107.188 38.734 105.452 37.44 105.239C35.832 104.967 32.493 108.519 32.1 112.137C31.707 115.746 32.996 118.57 36.258 120.923C39.52 123.288 42.047 122.981 43.214 121.473C44.381 119.967 45.764 116.735 44.517 115.59C44.009 115.133 43.356 115.364 42.562 116.07C44.438 113.171 42.227 110.616 40.262 112.547C40.406 112.282 40.545 111.977 40.677 111.651C41.566 109.465 39.901 107.724 37.954 109.577Z" fill="#FFE2DB"/>
<path d="M38.719 110.221C38.719 110.221 38.2491 110.659 37.7801 111.096C37.3151 111.543 36.851 111.991 36.851 111.991C36.592 112.239 36.182 112.231 35.933 111.973C35.728 111.759 35.698 111.441 35.84 111.197L35.872 111.141C35.872 111.141 36.196 110.587 36.52 110.034C36.855 109.483 37.189 108.932 37.189 108.932C37.479 108.455 38.102 108.302 38.58 108.592C39.057 108.882 39.209 109.505 38.919 109.983C38.871 110.062 38.812 110.133 38.748 110.194L38.719 110.221Z" fill="#451B1B"/>
<path d="M42.563 116.071C43.357 115.365 44.01 115.133 44.518 115.591C45.765 116.736 44.382 119.968 43.215 121.474C42.048 122.982 39.521 123.289 36.259 120.924C32.997 118.57 31.708 115.747 32.101 112.138C32.494 108.52 35.832 104.967 37.441 105.24C38.735 105.453 39.394 107.189 37.955 109.578" stroke="#451B1B" stroke-width="2" stroke-miterlimit="10" stroke-linecap="round" stroke-linejoin="round"/>
<path d="M40.806 117.386L41.801 115.431C42.059 114.925 42.677 114.724 43.184 114.982C43.69 115.24 43.891 115.858 43.633 116.364C43.565 116.498 43.472 116.611 43.362 116.699L43.323 116.73L41.623 118.083C41.387 118.271 41.043 118.232 40.855 117.995C40.717 117.823 40.701 117.593 40.794 117.407L40.806 117.386Z" fill="#451B1B"/>
<path d="M41.086 113.115L39.414 114.826L39.398 114.841C39.151 115.094 38.746 115.099 38.494 114.852C38.29 114.652 38.248 114.348 38.369 114.106L39.439 111.981L39.454 111.951C39.706 111.451 40.316 111.249 40.816 111.501C41.317 111.753 41.518 112.363 41.266 112.863C41.22 112.957 41.155 113.043 41.086 113.115Z" fill="#451B1B"/>
<path d="M37.954 109.577C39.9 107.724 41.566 109.466 40.678 111.652C40.546 111.977 40.407 112.283 40.263 112.548" stroke="#451B1B" stroke-width="2" stroke-miterlimit="10" stroke-linecap="round" stroke-linejoin="round"/>
<path d="M42.562 116.081L42.563 116.071C44.439 113.172 42.228 110.617 40.263 112.548" stroke="#451B1B" stroke-width="2" stroke-miterlimit="10" stroke-linecap="round" stroke-linejoin="round"/>
<path d="M19.143 103.92C20.416 101.979 21.324 96.7748 18.26 93.9938C15.043 91.0718 11.213 93.8938 11.788 97.1738C8.45303 96.8678 5.93404 100.892 9.12104 103.846C12.156 106.658 17.299 105.339 19.143 103.92Z" fill="#FF6B8E" stroke="#451B1B" stroke-width="1.5" stroke-miterlimit="10" stroke-linecap="round" stroke-linejoin="round"/>
<path d="M21.795 118.461C22.666 117.133 23.286 113.574 21.191 111.672C18.991 109.673 16.371 111.603 16.764 113.847C14.483 113.638 12.76 116.39 14.94 118.411C17.017 120.334 20.534 119.432 21.795 118.461Z" fill="#FF6B8E" stroke="#451B1B" stroke-width="1.5" stroke-miterlimit="10" stroke-linecap="round" stroke-linejoin="round"/>
<path d="M98.8231 103.92C97.5501 101.979 96.6421 96.7748 99.7061 93.9938C102.923 91.0718 106.753 93.8938 106.178 97.1738C109.513 96.8678 112.031 100.892 108.845 103.846C105.81 106.658 100.667 105.339 98.8231 103.92Z" fill="#FF6B8E" stroke="#451B1B" stroke-width="1.5" stroke-miterlimit="10" stroke-linecap="round" stroke-linejoin="round"/>
<path d="M96.171 118.461C95.3 117.133 94.68 113.574 96.774 111.672C98.974 109.673 101.594 111.603 101.201 113.847C103.482 113.638 105.205 116.39 103.025 118.411C100.949 120.334 97.432 119.432 96.171 118.461Z" fill="#FF6B8E" stroke="#451B1B" stroke-width="1.5" stroke-miterlimit="10" stroke-linecap="round" stroke-linejoin="round"/>
<path d="M72.013 80.0368C69.79 82.1948 69.907 84.5678 71.846 84.1608C74.318 83.6398 78.221 82.4118 82.888 82.4568C87.555 82.5028 87.972 82.8828 88.222 82.4348C88.472 81.9858 88.28 79.1408 85.451 77.6388C82.56 76.1038 76.513 75.6678 72.013 80.0368Z" fill="#451B1B"/>
<path d="M44.725 80.3298C46.504 82.3368 46.411 84.5428 44.859 84.1638C42.88 83.6808 39.755 82.5378 36.018 82.5798C32.282 82.6218 31.949 82.9748 31.748 82.5578C31.548 82.1408 31.701 79.4948 33.967 78.0988C36.281 76.6718 41.122 76.2658 44.725 80.3298Z" fill="#451B1B"/>
<path d="M69.356 71.5088C69.347 71.5218 69.478 71.3358 69.714 71.0988C69.951 70.8618 70.311 70.5398 70.788 70.2298C71.266 69.9218 71.857 69.6078 72.53 69.3748C72.866 69.2558 73.217 69.1458 73.582 69.0678C73.943 68.9698 74.322 68.9338 74.694 68.8688C75.446 68.7738 76.202 68.7668 76.903 68.8098C77.251 68.8528 77.588 68.8938 77.906 68.9328C78.223 68.9738 78.515 69.0628 78.787 69.1188C79.329 69.2438 79.757 69.4208 80.06 69.5228C80.358 69.6408 80.529 69.7088 80.529 69.7088C80.787 69.8108 80.913 70.1018 80.811 70.3588C80.728 70.5688 80.52 70.6908 80.307 70.6748L80.261 70.6708C80.261 70.6708 80.089 70.6578 79.788 70.6358C79.491 70.6078 79.072 70.5368 78.565 70.5398C78.314 70.5318 78.045 70.4928 77.758 70.5048C77.474 70.5058 77.174 70.5078 76.864 70.5088C76.557 70.5288 76.241 70.5488 75.919 70.5698C75.601 70.6118 75.278 70.6558 74.956 70.6988C74.638 70.7648 74.313 70.8008 74.008 70.8918C73.698 70.9698 73.392 71.0348 73.104 71.1308C72.52 71.2958 71.982 71.4818 71.524 71.6548C71.058 71.8158 70.685 71.9868 70.414 72.0938C70.146 72.2108 70.012 72.2568 70.003 72.2688C69.792 72.4478 69.477 72.4218 69.298 72.2118C69.12 72.0028 69.146 71.6878 69.356 71.5088Z" fill="#451B1B"/>
<path d="M45.721 70.7998C45.711 70.7888 45.591 70.7588 45.348 70.6748C45.103 70.6008 44.764 70.4758 44.345 70.3698C43.934 70.2488 43.451 70.1308 42.931 70.0368C42.673 69.9768 42.402 69.9447 42.127 69.9087C41.854 69.8547 41.57 69.8578 41.288 69.8328C41.005 69.8288 40.722 69.8257 40.442 69.8227C40.161 69.8427 39.884 69.8608 39.617 69.8798C39.349 69.9168 39.09 69.9538 38.844 69.9878C38.594 70.0138 38.366 70.0848 38.149 70.1258C37.707 70.1888 37.354 70.3108 37.099 70.3768C36.84 70.4388 36.692 70.4737 36.692 70.4737L36.646 70.4848C36.393 70.5448 36.14 70.3878 36.081 70.1348C36.033 69.9328 36.124 69.7298 36.292 69.6258C36.292 69.6258 36.431 69.5407 36.675 69.3917C36.926 69.2557 37.274 69.0318 37.735 68.8428C38.188 68.6358 38.746 68.4618 39.358 68.3088C39.975 68.1808 40.65 68.0948 41.332 68.0998C42.012 68.1178 42.697 68.1718 43.315 68.3458C43.629 68.4078 43.915 68.5388 44.192 68.6278C44.461 68.7468 44.713 68.8578 44.935 68.9848C45.382 69.2318 45.72 69.4998 45.945 69.7008C46.168 69.8988 46.294 70.0608 46.285 70.0498C46.491 70.2048 46.534 70.4988 46.379 70.7058C46.222 70.9138 45.928 70.9558 45.721 70.7998Z" fill="#451B1B"/>
<path d="M55.78 88.4267L55.692 88.3808C55.692 88.3808 55.456 88.2557 55.22 88.1297C55.092 88.0787 54.956 87.9748 54.857 87.8808C54.757 87.7958 54.69 87.7388 54.69 87.7388L54.684 87.7327C54.546 87.6177 54.352 87.5768 54.171 87.6438C53.904 87.7428 53.768 88.0387 53.867 88.3067C53.867 88.3067 53.896 88.3878 53.942 88.5098C53.979 88.6298 54.047 88.7937 54.164 88.9777C54.369 89.3347 54.617 89.7077 54.617 89.7077C54.696 89.8257 54.807 89.9318 54.942 90.0028C55.377 90.2328 55.918 90.0678 56.148 89.6328C56.381 89.1988 56.215 88.6587 55.78 88.4267Z" fill="#D17E7E"/>
<g opacity="0.7">
<path d="M29.328 89.7928C29.328 89.7928 29.404 89.5298 29.599 89.2378C29.789 88.9398 30.097 88.6098 30.453 88.3428C30.806 88.0698 31.214 87.8678 31.547 87.7518C31.879 87.6328 32.148 87.6128 32.148 87.6128C32.327 87.5998 32.482 87.7348 32.495 87.9138C32.498 87.9558 32.492 87.9968 32.48 88.0348C32.48 88.0348 32.399 88.2918 32.207 88.5858C32.016 88.8838 31.725 89.2328 31.378 89.5138C31.035 89.7988 30.644 90.0218 30.31 90.1378C29.981 90.2598 29.707 90.2728 29.707 90.2728C29.5 90.2838 29.323 90.1238 29.312 89.9148C29.311 89.8738 29.316 89.8308 29.328 89.7928Z" fill="#D17E7E"/>
<path d="M32.203 89.7928C32.203 89.7928 32.279 89.5298 32.474 89.2378C32.664 88.9398 32.972 88.6098 33.328 88.3428C33.681 88.0698 34.089 87.8678 34.422 87.7518C34.754 87.6328 35.023 87.6128 35.023 87.6128C35.202 87.5998 35.357 87.7348 35.37 87.9138C35.373 87.9558 35.367 87.9968 35.355 88.0348C35.355 88.0348 35.274 88.2918 35.082 88.5858C34.891 88.8838 34.6 89.2328 34.253 89.5138C33.91 89.7988 33.519 90.0218 33.185 90.1378C32.856 90.2598 32.582 90.2728 32.582 90.2728C32.375 90.2838 32.198 90.1238 32.187 89.9148C32.186 89.8738 32.191 89.8308 32.203 89.7928Z" fill="#D17E7E"/>
<path d="M35.078 89.7928C35.078 89.7928 35.154 89.5298 35.349 89.2378C35.539 88.9398 35.847 88.6098 36.203 88.3428C36.556 88.0698 36.964 87.8678 37.297 87.7518C37.629 87.6328 37.898 87.6128 37.898 87.6128C38.077 87.5998 38.232 87.7348 38.245 87.9138C38.248 87.9558 38.242 87.9968 38.23 88.0348C38.23 88.0348 38.149 88.2918 37.957 88.5858C37.766 88.8838 37.475 89.2328 37.128 89.5138C36.785 89.7988 36.394 90.0218 36.06 90.1378C35.731 90.2598 35.457 90.2728 35.457 90.2728C35.25 90.2838 35.073 90.1238 35.062 89.9148C35.061 89.8738 35.066 89.8308 35.078 89.7928Z" fill="#D17E7E"/>
<path d="M81.0561 89.7928C81.0561 89.7928 81.1321 89.5298 81.3271 89.2378C81.5171 88.9398 81.8251 88.6098 82.1811 88.3428C82.5341 88.0698 82.9421 87.8678 83.2751 87.7518C83.6071 87.6328 83.876 87.6128 83.876 87.6128C84.055 87.5998 84.2101 87.7348 84.2231 87.9138C84.2261 87.9558 84.22 87.9968 84.208 88.0348C84.208 88.0348 84.127 88.2918 83.935 88.5858C83.744 88.8838 83.453 89.2328 83.106 89.5138C82.763 89.7988 82.3721 90.0218 82.0381 90.1378C81.7091 90.2598 81.4361 90.2728 81.4361 90.2728C81.2291 90.2838 81.052 90.1238 81.041 89.9148C81.038 89.8738 81.0441 89.8308 81.0561 89.7928Z" fill="#D17E7E"/>
<path d="M83.9311 89.7928C83.9311 89.7928 84.0071 89.5298 84.2021 89.2378C84.3921 88.9398 84.7001 88.6098 85.0561 88.3428C85.4091 88.0698 85.8171 87.8678 86.1501 87.7518C86.4821 87.6328 86.751 87.6128 86.751 87.6128C86.93 87.5998 87.0851 87.7348 87.0981 87.9138C87.1011 87.9558 87.095 87.9968 87.083 88.0348C87.083 88.0348 87.002 88.2918 86.81 88.5858C86.619 88.8838 86.328 89.2328 85.981 89.5138C85.638 89.7988 85.2471 90.0218 84.9131 90.1378C84.5841 90.2598 84.3111 90.2728 84.3111 90.2728C84.1041 90.2838 83.927 90.1238 83.916 89.9148C83.913 89.8738 83.9191 89.8308 83.9311 89.7928Z" fill="#D17E7E"/>
<path d="M86.8061 89.7928C86.8061 89.7928 86.8821 89.5298 87.0771 89.2378C87.2671 88.9398 87.5751 88.6098 87.9311 88.3428C88.2841 88.0698 88.6921 87.8678 89.0251 87.7518C89.3571 87.6328 89.626 87.6128 89.626 87.6128C89.805 87.5998 89.9601 87.7348 89.9731 87.9138C89.9761 87.9558 89.97 87.9968 89.958 88.0348C89.958 88.0348 89.877 88.2918 89.685 88.5858C89.494 88.8838 89.203 89.2328 88.856 89.5138C88.513 89.7988 88.1221 90.0218 87.7881 90.1378C87.4591 90.2598 87.1861 90.2728 87.1861 90.2728C86.9791 90.2838 86.802 90.1238 86.791 89.9148C86.788 89.8738 86.7941 89.8308 86.8061 89.7928Z" fill="#D17E7E"/>
</g>
<path d="M103.6 75.0857C100.23 80.7557 96.081 84.4858 92.88 85.5758C94.51 81.4458 94.74 75.9758 94.48 71.0458L94.26 71.0568C87.63 66.3668 79 53.6758 77.76 47.7468C71.69 54.0578 63.73 68.1068 63.73 68.1068H63.72C63.18 73.8568 62.491 78.7368 61.76 79.8668C49.38 76.8368 43.2 67.6068 40.55 57.5268C34.38 69.9868 25.6 73.1468 25.6 73.1468C26.38 79.5568 28.63 83.4258 28.63 83.4258C13.88 79.4468 11.21 63.2858 11.76 56.4868C11.38 56.6168 5.13 56.3668 1 50.6168C10.13 47.4868 13.63 39.2468 20.38 28.3668C27.13 17.4868 42.26 12.4868 52.88 12.2468C83.93 6.19676 101.64 21.1168 108.5 31.4868C113.3 38.7468 118.26 43.6758 124.32 43.5568C124.189 46.7458 120.439 51.8068 117.88 52.8668C119.88 59.0568 117.88 64.9268 118 67.9868C118.13 71.0568 118.94 74.1758 121.88 76.6168C116.13 78.7468 111.97 75.8768 111.97 75.8768C108.38 72.7558 103.6 75.0857 103.6 75.0857Z" fill="#CCCCCC"/>
<path d="M39.091 48.9268C43.693 54.6158 45.89 71.5538 61.76 79.8658C49.13 76.7418 40.818 66.9288 39.091 48.9268Z" fill="#E3E3E3"/>
<path d="M28.434 53.7028C23.654 63.0388 25.541 72.6178 25.541 72.6178L26.641 72.6768C28.229 71.8848 31.442 69.9518 34.841 66.1078C25.612 71.1978 28.434 53.7028 28.434 53.7028Z" fill="#ADADAD"/>
<path d="M102.974 76.1028C103.185 75.7718 103.394 75.4328 103.6 75.0858C103.6 75.0858 108.38 72.7558 111.97 75.8758C111.97 75.8758 116.13 78.7458 121.88 76.6158C118.94 74.1758 118.13 71.0558 118 67.9858C117.898 65.3748 119.33 60.7158 118.513 55.5608C114.951 53.9438 110.13 54.7598 109.282 58.8058C108.078 64.5448 106.01 71.3908 102.976 76.0968C102.975 76.0998 102.974 76.1028 102.974 76.1028Z" fill="#ADADAD"/>
<path d="M81.713 31.4508C75.143 31.5168 75.027 37.2838 78.995 37.4508C82.963 37.6178 89.879 31.3678 81.713 31.4508Z" fill="#E3E3E3"/>
<path d="M108.5 31.4868C108.335 31.2378 108.158 30.9838 107.981 30.7288C96.324 35.5448 83.39 38.9688 83.797 40.3808C84.249 41.9498 108.507 51.5058 124.247 43.5548C118.221 43.6318 113.28 38.7168 108.5 31.4868Z" fill="#E3E3E3"/>
<path d="M16.482 34.8348C14.198 38.6548 12.122 41.9798 9.72302 44.6608C23.222 48.0578 33.727 43.6488 33.567 42.7418C33.419 41.9038 23.989 38.6968 16.482 34.8348Z" fill="#E3E3E3"/>
<path d="M62.723 68.0288C62.723 68.0288 63.234 63.1378 63.744 58.2478C63.891 57.0238 63.939 55.8078 64.031 54.6628C64.112 53.5178 64.188 52.4498 64.253 51.5338C64.383 49.7008 64.47 48.4778 64.47 48.4778L64.471 48.4538C64.49 48.1948 64.715 47.9988 64.974 48.0178C65.225 48.0358 65.415 48.2468 65.412 48.4948C65.412 48.4948 65.391 49.7278 65.36 51.5768C65.344 52.5028 65.327 53.5828 65.307 54.7398C65.276 55.8958 65.292 57.1388 65.211 58.3628C64.964 63.2738 64.718 68.1848 64.718 68.1848C64.69 68.7368 64.22 69.1617 63.668 69.1337C63.116 69.1067 62.691 68.6368 62.72 68.0838C62.72 68.0678 62.721 68.0448 62.723 68.0288Z" fill="#451B1B"/>
<path d="M40.55 57.5267C43.2 67.6067 49.38 76.8367 61.76 79.8667C62.491 78.7367 63.18 73.8568 63.72 68.1068" stroke="#451B1B" stroke-width="2" stroke-miterlimit="10" stroke-linecap="round" stroke-linejoin="round"/>
<path d="M39.555 38.8287C39.555 38.8287 39.534 40.0067 39.504 41.7747C39.496 42.2167 39.487 42.6947 39.479 43.2017C39.507 43.7007 39.537 44.2267 39.567 44.7707C39.598 45.3137 39.631 45.8747 39.664 46.4447C39.708 47.0137 39.703 47.5917 39.788 48.1677C39.949 49.3187 40.111 50.4697 40.262 51.5477C40.341 52.0857 40.392 52.6097 40.529 53.0897C40.644 53.5737 40.753 54.0308 40.853 54.4528C41.252 56.1378 41.518 57.2617 41.518 57.2617L41.542 57.3617C41.669 57.8997 41.336 58.4387 40.799 58.5657C40.261 58.6937 39.722 58.3607 39.595 57.8227C39.591 57.8057 39.587 57.7857 39.584 57.7697C39.584 57.7697 39.369 56.5857 39.049 54.8107C38.969 54.3687 38.883 53.8887 38.791 53.3807C38.679 52.8767 38.654 52.3327 38.603 51.7747C38.508 50.6577 38.408 49.4677 38.307 48.2767C38.252 47.6827 38.288 47.0777 38.275 46.4897C38.274 45.9007 38.272 45.3207 38.271 44.7597C38.271 44.1997 38.271 43.6587 38.272 43.1457C38.308 42.6407 38.342 42.1637 38.374 41.7227C38.501 39.9597 38.586 38.7837 38.586 38.7837C38.604 38.5167 38.837 38.3157 39.104 38.3347C39.362 38.3547 39.559 38.5727 39.555 38.8287Z" fill="#451B1B"/>
<path d="M63.73 68.1068C63.73 68.1068 71.69 54.0567 77.76 47.7467C79 53.6767 87.63 66.3667 94.26 71.0567" stroke="#451B1B" stroke-width="2" stroke-miterlimit="10" stroke-linecap="round" stroke-linejoin="round"/>
<path d="M102.717 74.6167C102.717 74.6167 103.273 73.6428 104.107 72.1838C104.311 71.8178 104.549 71.4237 104.771 71.0037C104.961 70.5767 105.16 70.1278 105.367 69.6628C105.575 69.1958 105.79 68.7147 106.008 68.2247C106.219 67.7307 106.477 67.2477 106.625 66.7137C106.971 65.6647 107.316 64.6168 107.641 63.6338C107.722 63.3868 107.802 63.1447 107.88 62.9077C107.934 62.6647 107.986 62.4257 108.037 62.1947C108.137 61.7307 108.233 61.2908 108.321 60.8858C108.675 59.2598 108.911 58.1757 108.911 58.1757L108.922 58.1288C108.975 57.8838 109.216 57.7297 109.46 57.7827C109.695 57.8337 109.847 58.0597 109.812 58.2937C109.812 58.2937 109.639 59.4127 109.38 61.0907C109.315 61.5107 109.244 61.9677 109.17 62.4487C109.132 62.6897 109.092 62.9377 109.052 63.1907C108.987 63.4377 108.921 63.6907 108.854 63.9487C108.583 64.9797 108.292 66.0797 108.002 67.1797C107.882 67.7377 107.644 68.2657 107.454 68.7977C107.254 69.3287 107.058 69.8518 106.868 70.3568C106.677 70.8638 106.491 71.3537 106.315 71.8187C106.115 72.2607 105.905 72.6618 105.721 73.0418C104.978 74.5498 104.483 75.5548 104.483 75.5548C104.239 76.0508 103.639 76.2537 103.143 76.0097C102.648 75.7657 102.444 75.1658 102.688 74.6698C102.696 74.6538 102.707 74.6327 102.717 74.6167Z" fill="#451B1B"/>
<path d="M94.48 71.0458C94.741 75.9768 94.51 81.4458 92.88 85.5758C96.08 84.4858 100.23 80.7557 103.6 75.0857" stroke="#451B1B" stroke-width="2" stroke-miterlimit="10" stroke-linecap="round" stroke-linejoin="round"/>
<path d="M93.335 58.7117C93.335 58.7117 93.537 59.4517 93.78 60.5997C93.902 61.1707 94.061 61.8368 94.203 62.5538C94.333 63.2718 94.472 64.0377 94.61 64.8047C94.679 65.1887 94.749 65.5717 94.817 65.9497C94.895 66.3267 94.924 66.7037 94.976 67.0657C95.069 67.7927 95.156 68.4698 95.23 69.0518C95.378 70.2168 95.478 70.9927 95.478 70.9927C95.547 71.5417 95.16 72.0437 94.611 72.1127C94.062 72.1827 93.56 71.7947 93.49 71.2457C93.487 71.2187 93.484 71.1898 93.483 71.1618L93.48 71.0987C93.48 71.0987 93.45 70.3367 93.403 69.1937C93.38 68.6217 93.353 67.9527 93.324 67.2367C93.305 66.8797 93.308 66.5067 93.264 66.1317C93.229 65.7567 93.194 65.3758 93.159 64.9938C93.088 64.2298 93.017 63.4667 92.951 62.7497C92.873 62.0357 92.774 61.3757 92.703 60.8047C92.565 59.6667 92.425 58.9008 92.425 58.9008C92.379 58.6478 92.546 58.4067 92.799 58.3607C93.037 58.3177 93.266 58.4637 93.329 58.6927L93.335 58.7117Z" fill="#451B1B"/>
<path d="M24.454 71.7488C24.454 71.7488 24.445 71.4128 24.43 70.8248C24.421 70.5298 24.412 70.1738 24.401 69.7638C24.394 69.3518 24.424 68.8617 24.437 68.3407C24.46 67.8197 24.455 67.2468 24.529 66.6618C24.588 66.0728 24.649 65.4528 24.713 64.8118C24.817 64.1758 24.924 63.5188 25.032 62.8518C25.125 62.1818 25.296 61.5168 25.455 60.8498C25.628 60.1868 25.741 59.5088 25.964 58.8708C26.165 58.2288 26.363 57.5968 26.555 56.9848C26.729 56.3678 26.998 55.8068 27.199 55.2558C27.413 54.7108 27.616 54.1948 27.803 53.7188C28.677 51.8738 29.259 50.6438 29.259 50.6438C29.378 50.3928 29.679 50.2848 29.93 50.4038C30.174 50.5198 30.282 50.8058 30.18 51.0528L30.165 51.0878C30.165 51.0878 29.651 52.3148 28.882 54.1538C28.722 54.6248 28.548 55.1348 28.364 55.6748C28.194 56.2188 27.958 56.7738 27.817 57.3798C27.659 57.9798 27.496 58.5997 27.331 59.2287C27.143 59.8527 27.065 60.5128 26.929 61.1578C26.805 61.8058 26.669 62.4518 26.611 63.0988C26.537 63.7418 26.463 64.3748 26.391 64.9878C26.359 65.6028 26.328 66.1978 26.298 66.7618C26.251 67.3268 26.284 67.8508 26.283 68.3368C26.294 68.8248 26.283 69.2598 26.308 69.6658C26.338 70.0748 26.364 70.4318 26.386 70.7248C26.429 71.3118 26.453 71.6478 26.453 71.6478C26.493 72.1988 26.079 72.6778 25.528 72.7178C24.977 72.7588 24.498 72.3448 24.458 71.7938C24.456 71.7808 24.455 71.7628 24.454 71.7488Z" fill="#451B1B"/>
<path d="M103.6 75.0857C103.6 75.0857 108.38 72.7557 111.97 75.8757C111.97 75.8757 116.13 78.7457 121.88 76.6157C118.94 74.1757 118.13 71.0557 118 67.9857C117.88 64.9247 119.88 59.0557 117.88 52.8657C120.44 51.8057 124.19 46.7458 124.32 43.5558C118.26 43.6748 113.299 38.7447 108.5 31.4857C101.64 21.1157 83.93 6.19575 52.88 12.2458C42.26 12.4858 27.13 17.4857 20.38 28.3657C13.63 39.2457 10.13 47.4857 1 50.6157C5.13 56.3657 11.38 56.6157 11.76 56.4857C11.21 63.2857 13.88 79.4458 28.63 83.4248C28.63 83.4248 26.38 79.5557 25.6 73.1457C25.543 72.6757 25.494 72.1937 25.454 71.6977" stroke="#451B1B" stroke-width="2" stroke-miterlimit="10" stroke-linecap="round" stroke-linejoin="round"/>
<path d="M25.6 73.1467C25.6 73.1467 34.38 69.9867 40.55 57.5267V57.5168" stroke="#451B1B" stroke-width="2" stroke-miterlimit="10" stroke-linecap="round" stroke-linejoin="round"/>
<path d="M56.255 15.3668C56.255 15.3668 47.63 -0.508246 26.255 1.11675C26.255 1.11675 38.505 16.1168 56.255 15.3668Z" fill="#CCCCCC" stroke="#451B1B" stroke-width="2" stroke-miterlimit="10" stroke-linecap="round" stroke-linejoin="round"/>
</svg>
