<svg width="134" height="126" viewBox="0 0 134 126" fill="none" xmlns="http://www.w3.org/2000/svg">
<path d="M99.0146 125.21H44.6046C44.6046 125.21 48.5746 114.84 60.5946 107.36C60.5946 115.29 75.0146 118.37 84.1646 107.36C87.5946 109.58 94.3946 114.991 99.0146 125.21Z" fill="white"/>
<path d="M52.8866 125.21H52.1246C51.3976 121.064 51.3296 117.482 51.4516 114.933C51.7116 114.651 51.9766 114.368 52.2526 114.082C52.0736 116.622 52.0566 120.557 52.8866 125.21ZM88.0666 125.21H88.8266C89.5156 120.984 90.8206 117.101 91.9866 114.227C91.8016 114.014 91.6156 113.809 91.4296 113.605C90.2036 116.578 88.7876 120.71 88.0666 125.21Z" fill="#D4D4D4"/>
<path d="M82.0146 106.121C82.0146 106.121 82.8346 106.501 84.1646 107.361C75.0146 118.371 60.5946 115.291 60.5946 107.361C61.3646 106.881 62.1746 106.411 63.0146 105.961V102.711H82.0146V106.121Z" fill="#FFBFB0"/>
<path d="M56.3236 111.67C56.3236 111.67 55.4756 112.409 54.2036 113.52C53.8986 113.803 53.5126 114.085 53.2056 114.429C52.8806 114.764 52.5376 115.118 52.1826 115.485C51.8276 115.852 51.4596 116.232 51.0866 116.619C50.7386 117.035 50.3856 117.459 50.0336 117.883C49.6896 118.313 49.3046 118.715 48.9986 119.163C48.6806 119.603 48.3676 120.036 48.0646 120.455C47.7496 120.867 47.4906 121.294 47.2376 121.694C46.9876 122.096 46.7376 122.47 46.5316 122.828C46.1336 123.549 45.7886 124.146 45.5926 124.578C45.3746 125.011 45.2816 125.241 45.2816 125.241C45.1496 125.569 44.7776 125.727 44.4486 125.595C44.1286 125.466 43.9706 125.106 44.0856 124.784C44.0856 124.784 44.1916 124.488 44.4006 124.032C44.5936 123.559 44.9256 122.924 45.3146 122.151C45.5146 121.769 45.7576 121.372 46.0006 120.943C46.2466 120.515 46.5006 120.059 46.8086 119.619C47.1056 119.172 47.4136 118.709 47.7256 118.238C48.0266 117.759 48.4066 117.327 48.7466 116.865C49.0966 116.41 49.4466 115.955 49.7906 115.507C50.1696 115.081 50.5436 114.662 50.9056 114.256C51.2696 113.852 51.6226 113.46 51.9566 113.089C52.2836 112.698 52.6326 112.426 52.9336 112.123C54.1606 110.964 54.9776 110.19 54.9776 110.19C55.3786 109.81 56.0116 109.828 56.3916 110.229C56.7706 110.63 56.7536 111.263 56.3516 111.643C56.3446 111.652 56.3326 111.663 56.3236 111.67Z" fill="#451B1B"/>
<path d="M88.0966 110.337C86.5766 109.016 85.2136 108.039 84.1646 107.36C82.8346 106.5 82.0146 106.12 82.0146 106.12V102.71H63.0146V105.96C62.1746 106.41 61.3646 106.88 60.5946 107.36C58.7646 108.499 57.1216 109.704 55.6516 110.929" stroke="#451B1B" stroke-width="2" stroke-miterlimit="10" stroke-linecap="round" stroke-linejoin="round"/>
<path d="M98.1976 125.096C98.1976 125.096 97.6816 124.086 96.9086 122.572C96.6976 122.215 96.4686 121.829 96.2266 121.421C95.9776 121.016 95.7466 120.575 95.4526 120.144C95.1606 119.712 94.8586 119.267 94.5526 118.814C94.2576 118.352 93.9046 117.922 93.5696 117.48C93.2276 117.044 92.9086 116.588 92.5406 116.184C92.1846 115.771 91.8336 115.364 91.4956 114.97C90.7726 114.223 90.1206 113.505 89.5026 112.948C88.9076 112.368 88.3856 111.91 88.0156 111.594C87.6496 111.276 87.4406 111.093 87.4406 111.093L87.4136 111.069C86.9966 110.707 86.9546 110.074 87.3176 109.658C87.6806 109.242 88.3126 109.199 88.7286 109.561C88.7356 109.568 88.7456 109.578 88.7536 109.583C88.7536 109.583 88.9646 109.78 89.3356 110.126C89.7096 110.468 90.2366 110.963 90.8396 111.591C91.4646 112.196 92.1246 112.971 92.8526 113.778C93.1936 114.202 93.5456 114.639 93.9036 115.084C94.2726 115.52 94.5916 116.005 94.9326 116.473C95.2656 116.947 95.6186 117.407 95.9096 117.897C96.2126 118.379 96.5106 118.853 96.7986 119.312C97.0876 119.77 97.3216 120.249 97.5676 120.683C97.8066 121.121 98.0336 121.537 98.2426 121.919C98.9646 123.459 99.4466 124.486 99.4466 124.486C99.6096 124.834 99.4606 125.248 99.1126 125.411C98.7716 125.569 98.3676 125.428 98.1976 125.096Z" fill="#451B1B"/>
<path d="M60.5946 107.361C60.5946 115.291 75.0146 118.371 84.1646 107.361" stroke="#451B1B" stroke-width="2" stroke-miterlimit="10" stroke-linecap="round" stroke-linejoin="round"/>
<path d="M34.1836 79.9778C30.6836 74.7278 26.4556 75.2328 24.5586 78.1028C22.2456 81.6028 24.1836 95.6028 36.0586 95.1658L34.1836 79.9778Z" fill="#FFBFB0" stroke="#451B1B" stroke-width="2" stroke-miterlimit="10" stroke-linecap="round" stroke-linejoin="round"/>
<path d="M104.997 97.4778C88.6836 110.374 61.0166 110.707 46.9336 105.666C32.6436 100.55 31.7666 92.5418 30.6836 81.4588C27.8516 71.2918 20.7686 48.6248 40.6846 30.8748C60.6006 13.1248 98.4796 17.9148 111.101 38.2088C121.518 54.9588 116.185 73.7918 116.185 73.7918C119.809 73.9778 122.48 77.8358 121.225 84.0408C119.747 91.3528 114.997 96.4778 104.997 97.4778Z" fill="#FFE2DB"/>
<path d="M64.9906 90.8688C68.3906 90.5188 71.5006 91.2598 74.1306 92.6398C64.7906 95.0898 58.3606 93.0298 58.3606 93.0298V93.0198C60.1306 91.9288 62.3206 91.1388 64.9906 90.8688Z" fill="white"/>
<path d="M54.3516 107.879C59.4916 100.999 75.9316 100.919 82.4116 106.858C72.7606 109.029 62.6406 109.139 54.3516 107.879Z" fill="#DE5766"/>
<path d="M74.1406 92.6388C80.1806 95.7888 83.6806 102.319 82.4106 106.859C75.9306 100.92 59.4906 101 54.3506 107.88C53.8906 107.81 53.4406 107.739 52.9906 107.659C51.1306 104.979 51.9906 96.9788 58.3606 93.0188V93.0287C58.3606 93.0287 64.7906 95.0898 74.1306 92.6388H74.1406Z" fill="#8A1926"/>
<path d="M74.1306 92.6387C71.5006 91.2587 68.3916 90.5188 64.9906 90.8678C62.3206 91.1388 60.1306 91.9287 58.3606 93.0177C51.9906 96.9777 51.1306 104.978 52.9906 107.658C53.4406 107.738 53.8906 107.808 54.3506 107.879C62.6406 109.139 72.7596 109.028 82.4106 106.858C83.6806 102.318 80.1806 95.7887 74.1406 92.6377" stroke="#451B1B" stroke-miterlimit="10" stroke-linecap="round" stroke-linejoin="round"/>
<path d="M54.3516 107.879C59.4916 100.999 75.9316 100.919 82.4116 106.858" stroke="#451B1B" stroke-miterlimit="10" stroke-linecap="round" stroke-linejoin="round"/>
<path d="M58.3606 93.0287C58.3606 93.0287 64.7906 95.0898 74.1306 92.6388H74.1416" stroke="#451B1B" stroke-miterlimit="10" stroke-linecap="round" stroke-linejoin="round"/>
<path d="M104.997 97.4778C88.6836 110.374 61.0166 110.707 46.9336 105.666C32.6436 100.55 31.7666 92.5418 30.6836 81.4588C27.8516 71.2918 20.7686 48.6248 40.6846 30.8748C60.6006 13.1248 98.4796 17.9148 111.101 38.2088C121.518 54.9588 116.185 73.7918 116.185 73.7918C119.809 73.9778 122.48 77.8358 121.225 84.0408C119.747 91.3528 114.997 96.4778 104.997 97.4778Z" stroke="#451B1B" stroke-width="2" stroke-miterlimit="10" stroke-linecap="round" stroke-linejoin="round"/>
<path d="M111.445 92.1168C111.232 93.2448 110.248 94.1588 109.247 94.1588C108.246 94.1588 107.607 93.2448 107.82 92.1168C108.032 90.9898 109.016 90.0758 110.017 90.0758C111.018 90.0758 111.657 90.9898 111.445 92.1168Z" fill="#451B1B"/>
<path d="M116.194 74.7908C116.194 74.7908 116.086 74.7887 115.897 74.7837C115.728 74.7787 115.467 74.7858 115.141 74.8038C114.819 74.8118 114.444 74.8688 114.039 74.9058C113.643 74.9838 113.206 75.0287 112.789 75.1417C112.376 75.2597 111.939 75.3337 111.57 75.4947C111.198 75.6467 110.821 75.7417 110.543 75.9037C109.967 76.1997 109.583 76.3968 109.583 76.3968L109.503 76.4378C109.194 76.5968 108.815 76.4757 108.656 76.1667C108.508 75.8777 108.607 75.5257 108.872 75.3527C108.872 75.3527 109.282 75.0858 109.897 74.6858C110.201 74.4708 110.6 74.3218 111.007 74.1088C111.413 73.8868 111.88 73.7538 112.336 73.5748C112.794 73.4018 113.27 73.3018 113.709 73.1708C114.157 73.0828 114.572 72.9788 114.938 72.9318C115.298 72.8748 115.61 72.8358 115.843 72.8198C116.056 72.8028 116.178 72.7938 116.178 72.7938C116.73 72.7508 117.212 73.1638 117.255 73.7158C117.298 74.2678 116.885 74.7487 116.333 74.7917C116.3 74.7947 116.267 74.7958 116.235 74.7948L116.194 74.7908Z" fill="#451B1B"/>
<path d="M109.695 87.0008C109.851 85.2288 113.462 79.4567 117.017 81.0167C119.684 82.1867 118.038 87.8327 114.596 88.7887C114.247 86.7907 112.372 85.6238 109.695 87.0008Z" fill="#FFBFB0"/>
<path d="M115.382 81.3258L114.4 81.8038C114.218 81.8748 114.128 81.9877 113.993 82.0767L113.619 82.3548C113.363 82.5088 113.134 82.7937 112.891 83.0117C112.64 83.2307 112.433 83.4958 112.226 83.7608C112.007 84.0138 111.811 84.2838 111.644 84.5748C111.459 84.8528 111.286 85.1357 111.157 85.4357L110.942 85.8747L110.796 86.3147C110.751 86.4597 110.681 86.6138 110.681 86.7348C110.665 86.8628 110.645 86.9888 110.62 87.1138L109.13 86.1698L109.133 86.1677C109.723 85.8657 110.355 85.6867 111 85.6237C111.644 85.5627 112.308 85.6167 112.945 85.8357C113.262 85.9517 113.571 86.1007 113.855 86.2977C114.136 86.4997 114.394 86.7387 114.601 87.0167C114.696 87.1617 114.81 87.2937 114.877 87.4517C114.946 87.6047 115.04 87.7527 115.08 87.9127C115.196 88.2277 115.246 88.5437 115.288 88.8577C115.337 89.2227 115.08 89.5598 114.714 89.6088C114.376 89.6538 114.064 89.4388 113.979 89.1178L113.958 89.0358C113.903 88.8278 113.85 88.6227 113.759 88.4447C113.728 88.3467 113.657 88.2778 113.613 88.1918C113.57 88.1038 113.491 88.0467 113.436 87.9727C113.182 87.7027 112.847 87.5248 112.465 87.4368C111.698 87.2638 110.786 87.4657 110.118 87.9097L110.116 87.9108L109.877 88.0117C109.41 88.2077 108.872 87.9887 108.675 87.5217C108.598 87.3397 108.585 87.1468 108.625 86.9668L108.779 86.2757C108.824 86.0337 108.919 85.8578 108.998 85.6608L109.248 85.0857L109.552 84.5658C109.744 84.2108 109.976 83.8888 110.219 83.5788C110.445 83.2558 110.7 82.9568 110.98 82.6788C111.247 82.3908 111.513 82.1038 111.83 81.8638C112.147 81.6188 112.403 81.3457 112.784 81.1367L113.319 80.8128C113.495 80.7158 113.681 80.5777 113.846 80.5297L114.863 80.1327C115.199 80.0017 115.577 80.1668 115.708 80.5028C115.831 80.8188 115.684 81.1778 115.382 81.3258Z" fill="#451B1B"/>
<path d="M63.5406 86.6048L63.4526 86.5588C63.4526 86.5588 63.2166 86.4338 62.9806 86.3078C62.8526 86.2568 62.7166 86.1528 62.6176 86.0588C62.5176 85.9738 62.4506 85.9168 62.4506 85.9168L62.4446 85.9108C62.3066 85.7958 62.1126 85.7548 61.9316 85.8218C61.6646 85.9208 61.5286 86.2178 61.6276 86.4848C61.6276 86.4848 61.6566 86.5658 61.7026 86.6878C61.7396 86.8078 61.8066 86.9718 61.9246 87.1558C62.1296 87.5128 62.3776 87.8858 62.3776 87.8858C62.4566 88.0038 62.5686 88.1098 62.7026 88.1808C63.1376 88.4108 63.6786 88.2458 63.9086 87.8108C64.1406 87.3758 63.9746 86.8358 63.5406 86.6048Z" fill="#D17E7E"/>
<g opacity="0.7">
<path d="M37.1606 91.6538C37.1606 91.6538 37.2366 91.3908 37.4316 91.0988C37.6216 90.8008 37.9296 90.4708 38.2856 90.2038C38.6386 89.9318 39.0466 89.7288 39.3796 89.6128C39.7116 89.4938 39.9806 89.4738 39.9806 89.4738C40.1596 89.4608 40.3146 89.5958 40.3276 89.7748C40.3306 89.8168 40.3246 89.8578 40.3126 89.8958C40.3126 89.8958 40.2316 90.1528 40.0396 90.4468C39.8486 90.7448 39.5576 91.0938 39.2106 91.3748C38.8676 91.6598 38.4766 91.8828 38.1426 91.9988C37.8136 92.1208 37.5406 92.1338 37.5406 92.1338C37.3336 92.1448 37.1566 91.9848 37.1456 91.7768C37.1426 91.7348 37.1486 91.6918 37.1606 91.6538Z" fill="#D17E7E"/>
<path d="M40.0356 91.6538C40.0356 91.6538 40.1116 91.3908 40.3066 91.0988C40.4966 90.8008 40.8046 90.4708 41.1606 90.2038C41.5136 89.9318 41.9216 89.7288 42.2546 89.6128C42.5866 89.4938 42.8556 89.4738 42.8556 89.4738C43.0346 89.4608 43.1896 89.5958 43.2026 89.7748C43.2056 89.8168 43.1996 89.8578 43.1876 89.8958C43.1876 89.8958 43.1066 90.1528 42.9146 90.4468C42.7236 90.7448 42.4326 91.0938 42.0856 91.3748C41.7426 91.6598 41.3516 91.8828 41.0176 91.9988C40.6886 92.1208 40.4156 92.1338 40.4156 92.1338C40.2086 92.1448 40.0316 91.9848 40.0206 91.7768C40.0176 91.7348 40.0236 91.6918 40.0356 91.6538Z" fill="#D17E7E"/>
<path d="M42.9106 91.6538C42.9106 91.6538 42.9866 91.3908 43.1816 91.0988C43.3716 90.8008 43.6796 90.4708 44.0356 90.2038C44.3886 89.9318 44.7966 89.7288 45.1296 89.6128C45.4616 89.4938 45.7306 89.4738 45.7306 89.4738C45.9096 89.4608 46.0646 89.5958 46.0776 89.7748C46.0806 89.8168 46.0746 89.8578 46.0626 89.8958C46.0626 89.8958 45.9816 90.1528 45.7896 90.4468C45.5986 90.7448 45.3076 91.0938 44.9606 91.3748C44.6176 91.6598 44.2266 91.8828 43.8926 91.9988C43.5636 92.1208 43.2906 92.1338 43.2906 92.1338C43.0836 92.1448 42.9066 91.9848 42.8956 91.7768C42.8926 91.7348 42.8986 91.6918 42.9106 91.6538Z" fill="#D17E7E"/>
<path d="M88.8886 91.6538C88.8886 91.6538 88.9646 91.3908 89.1606 91.0988C89.3506 90.8008 89.6586 90.4708 90.0146 90.2038C90.3676 89.9318 90.7756 89.7288 91.1086 89.6128C91.4406 89.4938 91.7096 89.4738 91.7096 89.4738C91.8886 89.4608 92.0436 89.5958 92.0566 89.7748C92.0596 89.8168 92.0536 89.8578 92.0416 89.8958C92.0416 89.8958 91.9606 90.1528 91.7686 90.4468C91.5776 90.7448 91.2866 91.0938 90.9396 91.3748C90.5966 91.6598 90.2056 91.8828 89.8716 91.9988C89.5426 92.1208 89.2686 92.1338 89.2686 92.1338C89.0616 92.1448 88.8846 91.9848 88.8736 91.7768C88.8706 91.7348 88.8766 91.6918 88.8886 91.6538Z" fill="#D17E7E"/>
<path d="M91.7636 91.6538C91.7636 91.6538 91.8396 91.3908 92.0356 91.0988C92.2256 90.8008 92.5336 90.4708 92.8896 90.2038C93.2426 89.9318 93.6506 89.7288 93.9836 89.6128C94.3156 89.4938 94.5846 89.4738 94.5846 89.4738C94.7636 89.4608 94.9186 89.5958 94.9316 89.7748C94.9346 89.8168 94.9286 89.8578 94.9166 89.8958C94.9166 89.8958 94.8356 90.1528 94.6436 90.4468C94.4526 90.7448 94.1616 91.0938 93.8146 91.3748C93.4716 91.6598 93.0806 91.8828 92.7466 91.9988C92.4176 92.1208 92.1436 92.1338 92.1436 92.1338C91.9366 92.1448 91.7596 91.9848 91.7486 91.7768C91.7456 91.7348 91.7516 91.6918 91.7636 91.6538Z" fill="#D17E7E"/>
<path d="M94.6386 91.6538C94.6386 91.6538 94.7146 91.3908 94.9106 91.0988C95.1006 90.8008 95.4086 90.4708 95.7646 90.2038C96.1176 89.9318 96.5256 89.7288 96.8586 89.6128C97.1906 89.4938 97.4596 89.4738 97.4596 89.4738C97.6386 89.4608 97.7936 89.5958 97.8066 89.7748C97.8096 89.8168 97.8036 89.8578 97.7916 89.8958C97.7916 89.8958 97.7106 90.1528 97.5186 90.4468C97.3276 90.7448 97.0366 91.0938 96.6896 91.3748C96.3466 91.6598 95.9556 91.8828 95.6216 91.9988C95.2926 92.1208 95.0186 92.1338 95.0186 92.1338C94.8116 92.1448 94.6346 91.9848 94.6236 91.7768C94.6206 91.7348 94.6266 91.6918 94.6386 91.6538Z" fill="#D17E7E"/>
</g>
<path d="M75.8846 68.9828C75.8766 68.9958 75.9956 68.8028 76.2166 68.5518C76.4396 68.3008 76.7796 67.9588 77.2376 67.6208C77.6976 67.2848 78.2676 66.9348 78.9266 66.6628C79.2546 66.5238 79.5976 66.3928 79.9586 66.2948C80.3136 66.1768 80.6886 66.1168 81.0576 66.0288C81.8016 65.8898 82.5556 65.8388 83.2586 65.8398C83.6086 65.8618 83.9466 65.8828 84.2666 65.9038C84.5866 65.9258 84.8826 65.9978 85.1566 66.0378C85.7046 66.1308 86.1426 66.2808 86.4516 66.3658C86.7566 66.4658 86.9306 66.5218 86.9306 66.5218C87.1946 66.6088 87.3376 66.8918 87.2506 67.1558C87.1806 67.3698 86.9806 67.5048 86.7676 67.5008H86.7216C86.7216 67.5008 86.5496 67.4978 86.2476 67.4928C85.9496 67.4818 85.5276 67.4368 85.0216 67.4698C84.7706 67.4768 84.4996 67.4538 84.2136 67.4828C83.9306 67.5018 83.6316 67.5198 83.3216 67.5398C83.0166 67.5778 82.7016 67.6178 82.3816 67.6578C82.0676 67.7198 81.7476 67.7818 81.4276 67.8448C81.1146 67.9298 80.7926 67.9838 80.4926 68.0938C80.1886 68.1898 79.8856 68.2728 79.6046 68.3858C79.0316 68.5848 78.5056 68.8018 78.0586 69.0028C77.6026 69.1908 77.2406 69.3848 76.9766 69.5068C76.7166 69.6398 76.5846 69.6928 76.5766 69.7058C76.3776 69.8958 76.0606 69.8898 75.8706 69.6898C75.6776 69.4908 75.6846 69.1738 75.8846 68.9828Z" fill="#451B1B"/>
<path d="M51.8456 70.4467C51.8356 70.4357 51.7156 70.4057 51.4726 70.3217C51.2266 70.2477 50.8886 70.1227 50.4696 70.0167C50.0576 69.8957 49.5746 69.7778 49.0546 69.6838C48.7966 69.6228 48.5266 69.5917 48.2506 69.5557C47.9776 69.5017 47.6936 69.5048 47.4126 69.4798C47.1286 69.4768 46.8456 69.4728 46.5666 69.4698C46.2856 69.4898 46.0086 69.5078 45.7416 69.5268C45.4736 69.5638 45.2136 69.6008 44.9676 69.6348C44.7176 69.6608 44.4896 69.7318 44.2726 69.7728C43.8316 69.8358 43.4776 69.9578 43.2226 70.0238C42.9636 70.0858 42.8156 70.1197 42.8156 70.1197L42.7696 70.1318C42.5176 70.1908 42.2636 70.0348 42.2046 69.7818C42.1566 69.5798 42.2486 69.3768 42.4156 69.2738C42.4156 69.2738 42.5546 69.1878 42.7976 69.0388C43.0486 68.9028 43.3966 68.6788 43.8576 68.4898C44.3106 68.2828 44.8686 68.1087 45.4806 67.9557C46.0986 67.8277 46.7736 67.7418 47.4546 67.7468C48.1346 67.7648 48.8196 67.8188 49.4376 67.9928C49.7526 68.0538 50.0376 68.1857 50.3146 68.2747C50.5826 68.3937 50.8356 68.5048 51.0586 68.6318C51.5056 68.8788 51.8436 69.1467 52.0676 69.3477C52.2906 69.5457 52.4166 69.7077 52.4076 69.6967C52.6146 69.8517 52.6566 70.1457 52.5016 70.3527C52.3466 70.5597 52.0526 70.6017 51.8456 70.4467Z" fill="#451B1B"/>
<path d="M46.2556 86.7048C48.8596 86.7048 50.9706 83.8618 50.9706 80.3548C50.9706 76.8478 48.8596 74.0048 46.2556 74.0048C43.6516 74.0048 41.5406 76.8478 41.5406 80.3548C41.5406 83.8618 43.6516 86.7048 46.2556 86.7048Z" fill="white" stroke="#451B1B" stroke-width="1.5" stroke-miterlimit="10" stroke-linecap="round" stroke-linejoin="round"/>
<path d="M91.8036 80.3548C91.8036 83.8618 89.4516 86.7048 86.5526 86.7048C83.6516 86.7048 81.3006 83.8618 81.3006 80.3548C81.3006 76.8478 83.6516 74.0048 86.5526 74.0048C89.4516 74.0048 91.8036 76.8478 91.8036 80.3548Z" fill="white" stroke="#451B1B" stroke-width="1.5" stroke-miterlimit="10" stroke-linecap="round" stroke-linejoin="round"/>
<path d="M28.3266 23.2898C28.3266 23.2898 28.2486 23.4208 28.1136 23.6518C27.9786 23.8748 27.7886 24.1948 27.5456 24.5698C27.2976 24.9388 27.0406 25.3908 26.7196 25.8368C26.4406 26.3138 26.0906 26.7828 25.7856 27.2818C25.4936 27.7858 25.1326 28.2548 24.8766 28.7358C24.6116 29.2098 24.3036 29.6328 24.1006 30.0218C23.6886 30.7948 23.3326 31.3068 23.3326 31.3068L23.3146 31.3318C23.2286 31.4548 23.0586 31.4848 22.9356 31.3988C22.8496 31.3398 22.8086 31.2398 22.8206 31.1438C22.8206 31.1438 22.8906 30.5258 23.1216 29.6078C23.1706 29.3758 23.2546 29.1358 23.3556 28.8868C23.4566 28.6398 23.5506 28.3708 23.6696 28.1048C23.7806 27.8318 23.9086 27.5558 24.0626 27.2918C24.2146 27.0248 24.3706 26.7548 24.5236 26.4848C24.6676 26.2068 24.8696 25.9668 25.0406 25.7148C25.2156 25.4628 25.3976 25.2238 25.5786 24.9958C25.9586 24.5548 26.3126 24.1458 26.6636 23.8338C26.9976 23.5128 27.3046 23.2658 27.5306 23.1018C27.7526 22.9338 27.8846 22.8598 27.8846 22.8598L27.9016 22.8518C28.0536 22.7678 28.2446 22.8228 28.3306 22.9768C28.3866 23.0778 28.3816 23.1968 28.3266 23.2898Z" fill="#451B1B"/>
<path d="M22.1596 26.3318C22.1596 26.3318 22.1556 26.4218 22.1316 26.5698C22.1016 26.7158 22.0776 26.9228 22.0316 27.1458C21.9906 27.3768 21.9166 27.6238 21.8346 27.8878C21.7746 28.1678 21.6786 28.4508 21.5766 28.7318L21.4086 29.1478C21.3366 29.2808 21.3106 29.4208 21.2636 29.5538C21.1716 29.8198 21.0726 30.0668 20.9696 30.2798C20.7726 30.7048 20.5606 30.9938 20.5606 30.9938L20.5326 31.0318C20.4406 31.1588 20.2616 31.1868 20.1356 31.0938C20.0796 31.0538 20.0446 30.9978 20.0276 30.9378C20.0276 30.9378 19.9396 30.6028 19.9246 30.0928C19.9126 29.8378 19.9226 29.5398 19.9466 29.2208C19.9676 29.0648 19.9626 28.8928 20.0156 28.7378C20.0626 28.5798 20.1136 28.4208 20.1616 28.2598C20.2716 27.9428 20.3876 27.6258 20.5276 27.3438C20.6716 27.0598 20.8606 26.8138 21.0166 26.6108C21.1726 26.4058 21.3236 26.2538 21.4416 26.1658C21.5556 26.0718 21.6296 26.0228 21.6296 26.0228C21.7876 25.9198 22.0006 25.9638 22.1036 26.1248C22.1446 26.1878 22.1636 26.2588 22.1596 26.3288V26.3318Z" fill="#451B1B"/>
<path d="M129.521 65.3498C129.521 65.3498 129.418 64.7718 129.367 63.9238C129.298 63.0758 129.337 61.9578 129.359 60.8468C129.381 60.2908 129.417 59.7358 129.47 59.2118C129.534 58.6878 129.513 58.2268 129.562 57.8098C129.625 56.9858 129.741 56.4058 129.741 56.4058L129.753 56.3538C129.782 56.2078 129.924 56.1148 130.07 56.1438C130.167 56.1628 130.241 56.2338 130.271 56.3208C130.271 56.3208 130.457 56.8668 130.622 57.7328C130.695 58.1618 130.815 58.6838 130.83 59.2168C130.855 59.7518 130.858 60.3228 130.85 60.8968C130.837 61.4678 130.821 62.0398 130.741 62.5708C130.68 63.1028 130.596 63.5958 130.512 64.0168C130.346 64.8588 130.133 65.4038 130.133 65.4038L130.131 65.4108C130.067 65.5738 129.883 65.6538 129.719 65.5918C129.611 65.5478 129.54 65.4538 129.521 65.3498Z" fill="#451B1B"/>
<path d="M132.345 60.1268C132.345 60.1268 132.213 59.7778 132.122 59.2768C132.018 58.7778 131.991 58.1218 131.979 57.4718C131.981 57.1468 131.996 56.8208 132.031 56.5118C132.059 56.2078 132.056 55.9437 132.094 55.6967C132.149 55.2137 132.258 54.8538 132.258 54.8538L132.275 54.7978C132.321 54.6508 132.477 54.5668 132.625 54.6118C132.692 54.6338 132.747 54.6758 132.782 54.7318C132.782 54.7318 132.972 55.0388 133.147 55.5528C133.19 55.6818 133.243 55.8228 133.28 55.9728C133.314 56.1228 133.384 56.2888 133.389 56.4458C133.433 56.7678 133.458 57.1118 133.471 57.4578C133.477 57.8018 133.486 58.1478 133.431 58.4688C133.395 58.7878 133.333 59.0868 133.267 59.3398C133.142 59.8448 132.958 60.1648 132.958 60.1648L132.951 60.1758C132.858 60.3368 132.652 60.3918 132.492 60.2988C132.422 60.2588 132.372 60.1978 132.345 60.1268Z" fill="#451B1B"/>
<path d="M111.654 75.0857C108.284 80.7557 104.134 84.4858 100.934 85.5758C102.564 81.4458 102.794 75.9758 102.534 71.0458L102.314 71.0568C95.6836 66.3668 87.0536 53.6758 85.8136 47.7468C79.7436 54.0568 71.7836 68.1067 71.7836 68.1067H71.7736C71.2336 73.8567 70.5446 78.7368 69.8136 79.8668C57.4336 76.8368 51.2536 67.6068 48.6036 57.5268C42.4336 69.9868 33.6536 73.1468 33.6536 73.1468C34.4336 79.5568 36.6836 83.4257 36.6836 83.4257C21.9336 79.4467 19.2636 63.2857 19.8136 56.4857C19.4336 56.6157 13.1836 56.3657 9.05359 50.6157C18.1836 47.4857 21.6836 39.2457 28.4336 28.3657C35.1836 17.4857 50.3136 12.4858 60.9336 12.2458C91.9836 6.19575 109.694 21.1157 116.554 31.4857C121.354 38.7457 126.314 43.6758 132.374 43.5558C132.243 46.7458 128.493 51.8057 125.934 52.8657C127.934 59.0557 125.934 64.9257 126.054 67.9857C126.184 71.0557 126.993 74.1757 129.934 76.6157C124.184 78.7457 120.024 75.8758 120.024 75.8758C116.434 72.7558 111.654 75.0857 111.654 75.0857Z" fill="#CCCCCC"/>
<path d="M47.1446 48.9268C51.7466 54.6168 53.9436 71.5538 69.8136 79.8668C57.1836 76.7418 48.8716 66.9288 47.1446 48.9268Z" fill="#E3E3E3"/>
<path d="M36.4876 53.7028C31.7076 63.0388 33.5946 72.6178 33.5946 72.6178L34.6946 72.6768C36.2826 71.8848 39.4956 69.9518 42.8946 66.1078C33.6666 71.1978 36.4876 53.7028 36.4876 53.7028Z" fill="#ADADAD"/>
<path d="M111.028 76.1027C111.239 75.7717 111.448 75.4327 111.654 75.0857C111.654 75.0857 116.434 72.7558 120.024 75.8758C120.024 75.8758 124.184 78.7457 129.934 76.6157C126.994 74.1757 126.184 71.0557 126.054 67.9857C125.951 65.3747 127.384 60.7157 126.567 55.5607C123.006 53.9437 118.184 54.7597 117.336 58.8057C116.132 64.5447 114.064 71.3908 111.03 76.0968C111.029 76.0998 111.028 76.1027 111.028 76.1027Z" fill="#ADADAD"/>
<path d="M89.7666 31.4508C83.1966 31.5168 83.0816 37.2838 87.0486 37.4508C91.0166 37.6178 97.9336 31.3678 89.7666 31.4508Z" fill="#E3E3E3"/>
<path d="M116.555 31.4868C116.39 31.2378 116.213 30.9838 116.035 30.7288C104.378 35.5448 91.4436 38.9688 91.8506 40.3808C92.3026 41.9498 116.561 51.5057 132.301 43.5547C126.275 43.6317 121.335 38.7168 116.555 31.4868Z" fill="#E3E3E3"/>
<path d="M24.5366 34.8338C22.2526 38.6538 20.1766 41.9798 17.7776 44.6598C31.2766 48.0578 41.7816 43.6478 41.6216 42.7408C41.4736 41.9038 32.0436 38.6968 24.5366 34.8338Z" fill="#E3E3E3"/>
<path d="M70.7766 68.0287C70.7766 68.0287 71.2866 63.1377 71.7976 58.2487C71.9446 57.0237 71.9936 55.8087 72.0856 54.6627C72.1666 53.5177 72.2416 52.4497 72.3066 51.5337C72.4366 49.7007 72.5226 48.4777 72.5226 48.4777L72.5246 48.4548C72.5426 48.1948 72.7676 47.9998 73.0276 48.0188C73.2776 48.0358 73.4686 48.2478 73.4656 48.4968C73.4656 48.4968 73.4446 49.7288 73.4136 51.5788C73.3976 52.5048 73.3796 53.5848 73.3596 54.7418C73.3296 55.8968 73.3456 57.1398 73.2646 58.3648C73.0176 63.2748 72.7716 68.1858 72.7716 68.1858C72.7436 68.7378 72.2746 69.1628 71.7226 69.1348C71.1706 69.1078 70.7456 68.6377 70.7736 68.0847C70.7736 68.0677 70.7756 68.0447 70.7766 68.0287Z" fill="#451B1B"/>
<path d="M48.6036 57.5268C51.2536 67.6068 57.4336 76.8368 69.8136 79.8668C70.5436 78.7368 71.2336 73.8568 71.7736 68.1068" stroke="#451B1B" stroke-width="2" stroke-miterlimit="10" stroke-linecap="round" stroke-linejoin="round"/>
<path d="M47.6096 38.8278C47.6096 38.8278 47.5886 40.0068 47.5586 41.7738C47.5506 42.2148 47.5426 42.6948 47.5336 43.2008C47.5616 43.6998 47.5906 44.2258 47.6206 44.7698C47.6516 45.3128 47.6836 45.8737 47.7166 46.4437C47.7606 47.0127 47.7566 47.5907 47.8416 48.1677C48.0036 49.3177 48.1646 50.4688 48.3156 51.5478C48.3946 52.0858 48.4446 52.6097 48.5816 53.0897C48.6966 53.5737 48.8056 54.0308 48.9056 54.4538C49.3046 56.1388 49.5706 57.2627 49.5706 57.2627L49.5936 57.3628C49.7206 57.8998 49.3886 58.4388 48.8506 58.5668C48.3126 58.6938 47.7736 58.3618 47.6466 57.8238C47.6426 57.8068 47.6386 57.7877 47.6356 57.7707C47.6356 57.7707 47.4216 56.5878 47.1006 54.8128C47.0206 54.3708 46.9346 53.8907 46.8436 53.3827C46.7316 52.8787 46.7066 52.3348 46.6556 51.7768C46.5616 50.6608 46.4606 49.4687 46.3596 48.2787C46.3056 47.6847 46.3406 47.0798 46.3276 46.4918C46.3266 45.9028 46.3246 45.3227 46.3236 44.7617C46.3246 44.2017 46.3246 43.6608 46.3246 43.1488C46.3616 42.6428 46.3956 42.1658 46.4276 41.7248C46.5546 39.9608 46.6396 38.7858 46.6396 38.7858C46.6596 38.5188 46.8916 38.3168 47.1586 38.3368C47.4166 38.3548 47.6136 38.5738 47.6096 38.8278Z" fill="#451B1B"/>
<path d="M71.7836 68.1068C71.7836 68.1068 79.7436 54.0568 85.8136 47.7468C87.0536 53.6768 95.6836 66.3668 102.314 71.0568" stroke="#451B1B" stroke-width="2" stroke-miterlimit="10" stroke-linecap="round" stroke-linejoin="round"/>
<path d="M110.771 74.6168C110.771 74.6168 111.327 73.6428 112.16 72.1838C112.365 71.8178 112.602 71.4237 112.825 71.0037C113.014 70.5767 113.214 70.1277 113.421 69.6627C113.629 69.1957 113.843 68.7148 114.062 68.2248C114.272 67.7308 114.531 67.2468 114.679 66.7138C115.025 65.6648 115.37 64.6167 115.694 63.6337C115.776 63.3877 115.856 63.1458 115.934 62.9078C115.988 62.6648 116.04 62.4258 116.091 62.1948C116.192 61.7298 116.287 61.2918 116.375 60.8848C116.729 59.2588 116.965 58.1748 116.965 58.1748L116.975 58.1278C117.028 57.8838 117.269 57.7298 117.514 57.7818C117.748 57.8328 117.9 58.0588 117.865 58.2938C117.865 58.2938 117.693 59.4117 117.434 61.0897C117.369 61.5107 117.298 61.9667 117.224 62.4477C117.185 62.6887 117.146 62.9367 117.106 63.1897C117.041 63.4377 116.975 63.6907 116.907 63.9477C116.636 64.9787 116.346 66.0798 116.056 67.1788C115.936 67.7368 115.698 68.2647 115.508 68.7967C115.309 69.3277 115.112 69.8508 114.922 70.3558C114.731 70.8628 114.546 71.3527 114.37 71.8177C114.169 72.2597 113.959 72.6608 113.776 73.0408C113.033 74.5488 112.537 75.5538 112.537 75.5538C112.293 76.0498 111.693 76.2527 111.197 76.0087C110.701 75.7647 110.498 75.1648 110.742 74.6688C110.751 74.6538 110.762 74.6328 110.771 74.6168Z" fill="#451B1B"/>
<path d="M102.534 71.0458C102.795 75.9768 102.564 81.4458 100.934 85.5758C104.134 84.4858 108.284 80.7558 111.654 75.0858" stroke="#451B1B" stroke-width="2" stroke-miterlimit="10" stroke-linecap="round" stroke-linejoin="round"/>
<path d="M101.389 58.7118C101.389 58.7118 101.592 59.4518 101.835 60.5998C101.958 61.1708 102.116 61.8368 102.258 62.5538C102.388 63.2728 102.527 64.0377 102.666 64.8047C102.735 65.1877 102.805 65.5718 102.873 65.9498C102.951 66.3268 102.979 66.7038 103.032 67.0658C103.125 67.7928 103.212 68.4697 103.286 69.0517C103.434 70.2167 103.534 70.9928 103.534 70.9928C103.604 71.5418 103.216 72.0438 102.667 72.1128C102.118 72.1828 101.617 71.7947 101.547 71.2457C101.543 71.2187 101.541 71.1898 101.54 71.1618L101.538 71.0977C101.538 71.0977 101.507 70.3357 101.46 69.1927C101.437 68.6207 101.41 67.9517 101.381 67.2357C101.361 66.8787 101.365 66.5068 101.321 66.1318C101.286 65.7568 101.251 65.3758 101.216 64.9938C101.145 64.2298 101.074 63.4668 101.008 62.7508C100.93 62.0368 100.832 61.3757 100.761 60.8057C100.622 59.6677 100.483 58.9018 100.483 58.9018C100.437 58.6498 100.604 58.4077 100.857 58.3617C101.095 58.3177 101.324 58.4657 101.388 58.6937L101.389 58.7118Z" fill="#451B1B"/>
<path d="M32.5086 71.7478C32.5086 71.7478 32.4996 71.4118 32.4836 70.8238C32.4756 70.5288 32.4656 70.1727 32.4546 69.7617C32.4476 69.3497 32.4776 68.8598 32.4906 68.3388C32.5146 67.8178 32.5086 67.2448 32.5826 66.6598C32.6406 66.0708 32.7026 65.4508 32.7656 64.8088C32.8696 64.1728 32.9766 63.5157 33.0856 62.8477C33.1786 62.1777 33.3496 61.5128 33.5086 60.8458C33.6806 60.1828 33.7946 59.5048 34.0176 58.8688C34.2186 58.2258 34.4166 57.5947 34.6076 56.9817C34.7816 56.3657 35.0506 55.8037 35.2516 55.2537C35.4656 54.7087 35.6676 54.1928 35.8546 53.7178C36.7286 51.8728 37.3106 50.6428 37.3106 50.6428C37.4296 50.3918 37.7306 50.2847 37.9816 50.4037C38.2256 50.5187 38.3346 50.8058 38.2316 51.0518L38.2166 51.0878C38.2166 51.0878 37.7036 52.3138 36.9336 54.1528C36.7736 54.6248 36.6006 55.1348 36.4166 55.6748C36.2466 56.2178 36.0096 56.7727 35.8696 57.3787C35.7116 57.9787 35.5486 58.5988 35.3826 59.2288C35.1946 59.8518 35.1176 60.5118 34.9806 61.1578C34.8576 61.8048 34.7216 62.4507 34.6636 63.0977C34.5886 63.7417 34.5146 64.3737 34.4436 64.9867C34.4116 65.6017 34.3796 66.1968 34.3506 66.7608C34.3046 67.3258 34.3376 67.8497 34.3366 68.3357C34.3476 68.8237 34.3356 69.2588 34.3616 69.6648C34.3916 70.0738 34.4176 70.4307 34.4396 70.7237C34.4826 71.3107 34.5066 71.6468 34.5066 71.6468C34.5466 72.1978 34.1336 72.6768 33.5826 72.7168C33.0316 72.7578 32.5526 72.3437 32.5116 71.7927C32.5096 71.7807 32.5086 71.7628 32.5086 71.7478Z" fill="#451B1B"/>
<path d="M111.654 75.0857C111.654 75.0857 116.434 72.7558 120.024 75.8758C120.024 75.8758 124.184 78.7457 129.934 76.6157C126.994 74.1757 126.184 71.0557 126.054 67.9857C125.934 64.9257 127.934 59.0557 125.934 52.8657C128.494 51.8057 132.244 46.7458 132.374 43.5558C126.314 43.6748 121.354 38.7457 116.554 31.4857C109.694 21.1157 91.9836 6.19575 60.9336 12.2458C50.3136 12.4858 35.1836 17.4857 28.4336 28.3657C21.6836 39.2457 18.1836 47.4857 9.05359 50.6157C13.1836 56.3657 19.4336 56.6157 19.8136 56.4857C19.2636 63.2857 21.9336 79.4457 36.6836 83.4257C36.6836 83.4257 34.4336 79.5568 33.6536 73.1468C33.5966 72.6768 33.5476 72.1948 33.5076 71.6988" stroke="#451B1B" stroke-width="2" stroke-miterlimit="10" stroke-linecap="round" stroke-linejoin="round"/>
<path d="M33.6536 73.1468C33.6536 73.1468 42.4336 69.9868 48.6036 57.5268V57.5168" stroke="#451B1B" stroke-width="2" stroke-miterlimit="10" stroke-linecap="round" stroke-linejoin="round"/>
<path d="M64.3086 15.3668C64.3086 15.3668 55.6836 -0.508246 34.3086 1.11675C34.3086 1.11675 46.5586 16.1168 64.3086 15.3668Z" fill="#CCCCCC" stroke="#451B1B" stroke-width="2" stroke-miterlimit="10" stroke-linecap="round" stroke-linejoin="round"/>
<path d="M8.28758 62.6278L11.2686 69.1648L1.33458 73.0188L12.0976 77.0048L9.06059 83.5538L17.5996 80.4098L16.4376 64.4018L8.28758 62.6278Z" fill="white"/>
<path d="M16.5386 63.9328C15.2056 63.5308 13.8636 63.1598 12.5206 62.7938C11.1756 62.4308 9.83758 62.0418 8.48958 61.7028C8.30458 61.6548 8.10359 61.6658 7.91359 61.7418C7.43559 61.9338 7.20659 62.4758 7.39859 62.9538L7.42758 63.0198C8.16658 64.8498 8.93759 66.6668 9.70259 68.4828C6.74659 69.5608 3.79058 70.6487 0.852583 71.7787C0.512583 71.9117 0.225585 72.1827 0.085585 72.5507C-0.173415 73.2367 0.175579 74.0037 0.860579 74.2617L0.869582 74.2657C4.03958 75.4557 7.22359 76.6068 10.4176 77.7298C9.63659 79.5188 8.86058 81.3088 8.10458 83.1098L8.07258 83.1838C7.97258 83.4278 7.96358 83.7098 8.07258 83.9758C8.28858 84.5048 8.89259 84.7577 9.42259 84.5417C10.8266 83.9637 12.2286 83.3788 13.6166 82.7678C15.0116 82.1638 16.4076 81.5697 17.7876 80.9257C18.0256 80.8147 18.1576 80.5438 18.0856 80.2798C18.0056 79.9858 17.7016 79.8128 17.4066 79.8948C15.9406 80.2998 14.4926 80.7528 13.0396 81.1958C12.3916 81.3888 11.7486 81.6017 11.1056 81.8047C11.8206 80.3837 12.5436 78.9648 13.2336 77.5318L13.2706 77.4458C13.5226 76.8108 13.2076 76.0937 12.5726 75.8437L12.5326 75.8267C10.0276 74.8437 7.50559 73.9128 4.98659 72.9758C7.22459 72.0798 9.46558 71.1887 11.6966 70.2657L11.7516 70.2428L11.8176 70.2128C12.3876 69.9328 12.6256 69.2427 12.3436 68.6717C11.5566 67.0647 10.7586 65.4628 9.95659 63.8628C10.7066 63.9848 11.4546 64.1107 12.2036 64.2357C13.5766 64.4617 14.9516 64.6818 16.3326 64.8708C16.5646 64.9008 16.7896 64.7628 16.8596 64.5318C16.9396 64.2788 16.7956 64.0088 16.5386 63.9328Z" fill="#451B1B"/>
<path d="M103.919 49.4878C102.508 49.0328 101.472 48.1618 100.815 46.8778C100.154 45.5868 100.051 44.2417 100.507 42.8307C100.96 41.4257 101.83 40.3887 103.122 39.7277C104.405 39.0697 105.755 38.9688 107.166 39.4238C108.572 39.8778 109.619 40.7517 110.296 42.0427C110.978 43.3397 111.088 44.6927 110.635 46.0987C110.18 47.5087 109.301 48.5387 107.99 49.1927C106.684 49.8437 105.325 49.9408 103.919 49.4878ZM108.409 35.7787C106.421 35.1357 105.59 33.9238 105.933 32.0438L110.28 9.28676C111.052 5.12476 113.692 3.58776 118.132 5.01976C122.771 6.51676 124.107 9.33575 122.314 13.1688L112.534 34.1727C111.72 35.9007 110.355 36.4057 108.409 35.7787Z" fill="#FFBC4A" stroke="#451B1B" stroke-width="1.5" stroke-miterlimit="10" stroke-linecap="round" stroke-linejoin="round"/>
</svg>
